;TYPE=PLATED
;Layer: PTH_Through
;EasyEDA Pro v2.2.46.11, 2026-02-24 13:42:52
;Gerber Generator version 0.3
M48
METRIC,LZ,0000.00000
;Hole size 1 = 0.30500 METRIC
T01C0.30500
;Hole size 2 = 0.60000 METRIC
T02C0.60000
;Hole size 3 = 0.70002 METRIC
T03C0.70002
;Hole size 4 = 0.80000 METRIC
T04C0.80000
;Hole size 5 = 0.91440 METRIC
T05C0.91440
;Hole size 6 = 1.04999 METRIC
T06C1.04999
;Hole size 7 = 1.10002 METRIC
T07C1.10002
;Hole size 8 = 1.20000 METRIC
T08C1.20000
;Hole size 9 = 2.30002 METRIC
T09C2.30002
%
G05
G90
T01
X72.136Y-77.454
X51.07Y-80.5315
X51.07Y-78.7535
X44.05977Y-69.85
X46.72677Y-71.755
X28.78404Y-70.739
X30.05404Y-72.009
X45.5635Y-76.29367
X45.0555Y-77.81767
X47.09227Y-73.75844
X51.9135Y-72.99167
X80.91589Y-52.33848
X85.23389Y-52.33848
X71.882Y-72.279
X36.83Y-81.67307
X46.863Y-72.91006
X18.26026Y-69.723
X23.34026Y-74.803
X44.45Y-82.185
X55.61545Y-74.39682
X44.196Y-60.595
X61.722Y-47.387
X65.548Y-81.661
X73.168Y-76.581
X60.08789Y-48.02048
X53.99189Y-51.83048
X60.08789Y-46.75048
X81.13611Y-54.87848
X85.20011Y-53.10048
X65.09382Y-75.90482
X58.74382Y-75.90482
X38.989Y-81.90293
X52.959Y-73.01293
X41.402Y-84.18893
X53.74601Y-73.11492
X71.501Y-46.609
X72.87113Y-46.68139
X72.136Y-47.371
X71.501Y-48.133
X72.90957Y-48.08144
X72.136Y-48.768
X71.41034Y-49.3395
X72.83269Y-49.48149
X62.992Y-47.244
X61.976Y-43.307
X61.976Y-51.816
X30.607Y-63.754
X27.305Y-73.152
X59.817Y-77.851
X79.248Y-76.581
X79.248Y-63.881
X38.481Y-84.836
X27.94Y-89.281
X33.528Y-85.979
X39.751Y-73.533
X41.275Y-78.486
X59.6668Y-73.533
X78.613Y-44.831
X57.531Y-34.417
X18.669Y-68.072
X47.879Y-75.438
X49.58698Y-70.4215
X57.15Y-74.549
X53.49201Y-76.40469
X77.343Y-72.39
X75.565Y-69.85
X80.645Y-68.834
X69.977Y-81.661
X71.29574Y-81.96801
X74.93Y-95.88477
T02
X74.93Y-94.234
X73.66Y-94.234
X72.39Y-94.234
T03
X36.29797Y-95.11528G85X36.29797Y-95.61525
X29.0482Y-95.11518G85X29.0482Y-95.61515
X30.2481Y-92.68508
X35.09808Y-92.68508
T04
X88.627Y-64.8111G85X89.427Y-64.8111
X88.627Y-73.11111G85X89.427Y-73.11111
T05
X89.027Y-70.961
X89.027Y-68.961
X89.027Y-66.961
T06
X17.907Y-35.052
X20.447Y-35.052
X22.987Y-35.052
X25.527Y-35.052
T07
X89.09957Y-92.2903
X89.09957Y-89.7503
X89.09957Y-87.2103
T08
X47.11685Y-47.56493
X49.65685Y-47.56493
X44.57685Y-47.56493
T09
X52.71684Y-39.96489G85X52.71684Y-40.16484
X41.51696Y-39.96489G85X41.51696Y-40.16484
M30