G04 Layer: TopSolderMaskLayer*
G04 EasyEDA Pro v2.2.46.11, 2026-02-24 13:42:52*
G04 Gerber Generator version 0.3*
G04 Scale: 100 percent, Rotated: No, Reflected: No*
G04 Dimensions in millimeters*
G04 Leading zeros omitted, absolute positions, 4 integers and 5 decimals*
G04 Generated by one-click*
%FSLAX45Y45*%
%MOMM*%
%AMRoundRect*1,1,$1,$2,$3*1,1,$1,$4,$5*1,1,$1,0-$2,0-$3*1,1,$1,0-$4,0-$5*20,1,$1,$2,$3,$4,$5,0*20,1,$1,$4,$5,0-$2,0-$3,0*20,1,$1,0-$2,0-$3,0-$4,0-$5,0*20,1,$1,0-$4,0-$5,$2,$3,0*4,1,4,$2,$3,$4,$5,0-$2,0-$3,0-$4,0-$5,$2,$3,0*%
%ADD10RoundRect,0.09495X-0.70833X0.67833X0.70833X0.67833*%
%ADD11RoundRect,0.09387X-0.57013X0.69237X0.57013X0.69237*%
%ADD12RoundRect,0.09473X-0.95343X0.65343X0.95343X0.65343*%
%ADD13RoundRect,0.09495X-0.67833X-0.70833X-0.67833X0.70833*%
%ADD14RoundRect,0.09302X-0.50429X0.70406X0.50429X0.70406*%
%ADD15RoundRect,0.0944X-1.05447X-0.47948X-1.05447X0.47948*%
%ADD16RoundRect,0.09265X-1.05447X-0.47948X-1.05447X0.47948*%
%ADD17RoundRect,0.09265X-0.47948X-1.05447X-0.47948X1.05447*%
%ADD18RoundRect,0.09224X-0.45468X-0.45468X-0.45468X0.45468*%
%ADD19RoundRect,0.08024X-0.15069X-0.46318X-0.15069X0.46318*%
%ADD20RoundRect,0.08024X-0.46318X-0.15069X-0.46318X0.15069*%
%ADD21RoundRect,0.09869X-1.67646X-1.67646X-1.67646X1.67646*%
%ADD22RoundRect,0.09288X-1.23936X0.49437X1.23936X0.49437*%
%ADD23RoundRect,0.09774X-1.23693X1.80193X1.23693X1.80193*%
%ADD24C,1.9016*%
%ADD25O,3.40159X3.60159*%
%ADD26C,1.624*%
%ADD27O,2.3X1.5*%
%ADD28C,1.90002*%
%ADD29RoundRect,0.09224X-0.45468X0.45468X0.45468X0.45468*%
%ADD30C,1.0016*%
%ADD31RoundRect,0.09017X-0.35571X-0.63072X-0.35571X0.63072*%
%ADD32RoundRect,0.09618X-0.85271X-0.85271X-0.85271X0.85271*%
%ADD33C,1.8016*%
%ADD34RoundRect,0.08335X-0.20834X0.80834X0.20834X0.80834*%
%ADD35O,1.3016X1.9016*%
%ADD36C,1.35161*%
%ADD37RoundRect,0.08449X-0.20856X-0.30856X-0.20856X0.30856*%
G75*


G04 Pad Start*
G54D10*
G01X1560500Y-8458200D03*
G01X1360500Y-8458200D03*
G01X6250000Y-8470900D03*
G01X6450000Y-8470900D03*
G54D11*
G01X1346627Y-7904533D03*
G01X1546626Y-7904533D03*
G01X4491676Y-8459550D03*
G01X4291677Y-8459550D03*
G54D12*
G01X1332611Y-9109507D03*
G01X2172589Y-9109507D03*
G01X1332611Y-9559493D03*
G01X2172589Y-9559493D03*
G01X5220589Y-9559493D03*
G01X4380611Y-9559493D03*
G01X5220589Y-9109507D03*
G01X4380611Y-9109507D03*
G54D10*
G01X2310973Y-8458200D03*
G01X2110974Y-8458200D03*
G01X5950400Y-4940300D03*
G01X5750400Y-4940300D03*
G01X5950400Y-4342332D03*
G01X5750400Y-4342332D03*
G54D13*
G01X3987800Y-5916600D03*
G01X3987800Y-5716600D03*
G01X5613400Y-5653100D03*
G01X5613400Y-5853100D03*
G54D10*
G01X4505550Y-7904083D03*
G01X4305550Y-7904083D03*
G01X4505550Y-7349967D03*
G01X4305550Y-7349967D03*
G54D14*
G01X2300531Y-6806193D03*
G01X2090473Y-6806193D03*
G54D11*
G01X5259400Y-8459550D03*
G01X5459400Y-8459550D03*
G01X6263874Y-6794500D03*
G01X6463873Y-6794500D03*
G01X5259400Y-6794500D03*
G01X5459400Y-6794500D03*
G01X4491676Y-6794500D03*
G01X4291677Y-6794500D03*
G01X7215200Y-8470900D03*
G01X7415200Y-8470900D03*
G01X7415200Y-7912100D03*
G01X7215200Y-7912100D03*
G01X1546626Y-6794500D03*
G01X1346627Y-6794500D03*
G01X2297100Y-7349517D03*
G01X2097100Y-7349517D03*
G01X1346627Y-7349517D03*
G01X1546626Y-7349517D03*
G54D16*
G01X6465989Y-4040048D03*
G01X6465989Y-4167048D03*
G01X6465989Y-4294048D03*
G01X6465989Y-4421048D03*
G01X6465989Y-4548048D03*
G01X6465989Y-4675048D03*
G01X6465989Y-4802048D03*
G01X6465989Y-4929048D03*
G01X6465989Y-5056048D03*
G01X6465989Y-5183048D03*
G01X6465989Y-5310048D03*
G01X6465989Y-5437048D03*
G01X6465989Y-5564048D03*
G01X6465989Y-5691048D03*
G54D17*
G01X6794513Y-5840552D03*
G01X6921513Y-5840552D03*
G01X7048513Y-5840552D03*
G01X7175513Y-5840552D03*
G01X7302513Y-5840552D03*
G01X7429513Y-5840552D03*
G01X7556513Y-5840552D03*
G01X7683513Y-5840552D03*
G01X7810513Y-5840552D03*
G01X7937513Y-5840552D03*
G54D16*
G01X8266011Y-5691048D03*
G01X8266011Y-5564048D03*
G01X8266011Y-5437048D03*
G01X8266011Y-5310048D03*
G01X8266011Y-5183048D03*
G01X8266011Y-5056048D03*
G01X8266011Y-4929048D03*
G01X8266011Y-4802048D03*
G01X8266011Y-4675048D03*
G01X8266011Y-4548048D03*
G01X8266011Y-4421048D03*
G01X8266011Y-4294048D03*
G01X8266011Y-4167048D03*
G01X8266011Y-4040048D03*
G54D18*
G01X7215975Y-4808144D03*
G01X7075996Y-4808144D03*
G01X7356005Y-4808144D03*
G01X7356005Y-4668139D03*
G01X7216000Y-4668139D03*
G01X7075996Y-4668139D03*
G01X7075996Y-4948149D03*
G01X7216000Y-4948149D03*
G01X7356005Y-4948149D03*
G54D19*
G01X5499188Y-7402725D03*
G01X5449201Y-7402725D03*
G01X5399189Y-7402725D03*
G01X5349201Y-7402725D03*
G01X5299189Y-7402725D03*
G01X5249202Y-7402725D03*
G01X5199189Y-7402725D03*
G54D20*
G01X5111457Y-7490482D03*
G01X5111457Y-7540469D03*
G01X5111457Y-7590482D03*
G01X5111457Y-7640469D03*
G01X5111457Y-7690482D03*
G01X5111457Y-7740469D03*
G01X5111457Y-7790481D03*
G54D19*
G01X5199189Y-7878213D03*
G01X5249202Y-7878213D03*
G01X5299189Y-7878213D03*
G01X5349201Y-7878213D03*
G01X5399189Y-7878213D03*
G01X5449201Y-7878213D03*
G01X5499188Y-7878213D03*
G54D20*
G01X5586945Y-7790481D03*
G01X5586945Y-7740469D03*
G01X5586945Y-7690482D03*
G01X5586945Y-7640469D03*
G01X5586945Y-7590482D03*
G01X5586945Y-7540469D03*
G01X5586945Y-7490482D03*
G54D21*
G01X5349201Y-7640469D03*
G54D22*
G01X5033289Y-6046597D03*
G01X5033289Y-5816600D03*
G01X5033289Y-5586603D03*
G54D23*
G01X4466311Y-5816600D03*
G54D10*
G01X6450000Y-7353300D03*
G01X6250000Y-7353300D03*
G54D11*
G01X8701100Y-5232400D03*
G01X8901100Y-5232400D03*
G01X7415200Y-7353300D03*
G01X7215200Y-7353300D03*
G54D24*
G01X4711690Y-4756498D03*
G54D25*
G01X5271684Y-4006487D03*
G01X4151696Y-4006487D03*
G54D24*
G01X4965690Y-4756498D03*
G01X4457690Y-4756498D03*
G54D26*
G01X8902700Y-7096100D03*
G01X8902700Y-6896100D03*
G01X8902700Y-6696100D03*
G54D27*
G01X8902700Y-6481089D03*
G01X8902700Y-7311111D03*
G54D28*
G01X1790700Y-3505200D03*
G01X2044700Y-3505200D03*
G01X2298700Y-3505200D03*
G01X2552700Y-3505200D03*
G54D29*
G01X7493000Y-9423400D03*
G54D30*
G01X7366000Y-9423400D03*
G01X7239000Y-9423400D03*
G54D11*
G01X6463873Y-7912100D03*
G01X6263874Y-7912100D03*
G54D31*
G01X3130804Y-7326300D03*
G01X3320796Y-7326300D03*
G01X3225800Y-7126300D03*
G01X3130804Y-8088300D03*
G01X3320796Y-8088300D03*
G01X3225800Y-7888300D03*
G54D32*
G01X8909957Y-9229030D03*
G54D33*
G01X8909957Y-8975030D03*
G01X8909957Y-8721030D03*
G54D11*
G01X7415200Y-6794500D03*
G01X7215200Y-6794500D03*
G54D34*
G01X3396264Y-9216514D03*
G01X3331266Y-9216514D03*
G01X3266267Y-9216514D03*
G01X3201269Y-9216514D03*
G01X3136270Y-9216514D03*
G54D35*
G01X3629817Y-9536504D03*
G01X2904800Y-9536504D03*
G54D36*
G01X3024815Y-9268508D03*
G01X3509802Y-9268508D03*
G54D37*
G01X2806700Y-8774493D03*
G01X2806700Y-8624506D03*
G01X3467100Y-8774493D03*
G01X3467100Y-8624506D03*
G01X3975100Y-8761793D03*
G01X3975100Y-8611806D03*
G04 Pad End*

M02*

