G04 Layer: TopLayer*
G04 EasyEDA Pro v2.2.46.11, 2026-02-24 13:42:52*
G04 Gerber Generator version 0.3*
G04 Scale: 100 percent, Rotated: No, Reflected: No*
G04 Dimensions in millimeters*
G04 Leading zeros omitted, absolute positions, 4 integers and 5 decimals*
G04 Generated by one-click*
%FSLAX45Y45*%
%MOMM*%
%ADD10C,0.2032*%
%ADD11C,0.254*%
%ADD12R,1.41X1.35001*%
%ADD13R,1.13254X1.37701*%
%ADD14R,1.9X1.3*%
%ADD15R,1.3534X1.41*%
%ADD16R,1.35001X1.41*%
%ADD17R,1.0X1.39954*%
%ADD18R,2.1X0.95001*%
%ADD19R,0.95001X2.1*%
%ADD20R,0.9X0.9*%
%ADD21R,0.28001X0.905*%
%ADD22R,0.905X0.28001*%
%ADD23R,3.35001X3.35001*%
%ADD24R,2.47X0.98001*%
%ADD25R,2.47X3.59999*%
%ADD26C,1.8*%
%ADD27O,3.29999X3.49999*%
%ADD28C,1.524*%
%ADD29O,2.2X1.4*%
%ADD30C,0.9*%
%ADD31R,0.7X1.25001*%
%ADD32R,1.7X1.7*%
%ADD33C,1.7*%
%ADD34R,0.4X1.6*%
%ADD35O,1.2X1.8*%
%ADD36C,1.25001*%
%ADD37R,0.4X0.6*%
%ADD38C,0.61*%
G75*


G04 Copper Start*
G36*
G01X162560Y-9702940D02*
G01X162560Y-9624493D01*
G01X1201797Y-9624493D01*
G01X1203550Y-9635560D01*
G01X1208637Y-9645544D01*
G01X1216560Y-9653467D01*
G01X1226544Y-9658554D01*
G01X1237611Y-9660307D01*
G01X1427611Y-9660307D01*
G01X1438678Y-9658554D01*
G01X1448662Y-9653467D01*
G01X1456585Y-9645544D01*
G01X1461672Y-9635560D01*
G01X1463425Y-9624493D01*
G01X2041775Y-9624493D01*
G01X2043528Y-9635560D01*
G01X2048615Y-9645544D01*
G01X2056538Y-9653467D01*
G01X2066522Y-9658554D01*
G01X2077589Y-9660307D01*
G01X2267589Y-9660307D01*
G01X2278656Y-9658554D01*
G01X2288640Y-9653467D01*
G01X2296563Y-9645544D01*
G01X2301650Y-9635560D01*
G01X2303403Y-9624493D01*
G01X2303403Y-9506504D01*
G01X2808986Y-9506504D01*
G01X2808986Y-9566504D01*
G01X2810827Y-9585196D01*
G01X2816279Y-9603170D01*
G01X2825134Y-9619735D01*
G01X2837049Y-9634254D01*
G01X2851569Y-9646170D01*
G01X2868133Y-9655024D01*
G01X2886108Y-9660476D01*
G01X2904800Y-9662317D01*
G01X2923492Y-9660476D01*
G01X2941466Y-9655024D01*
G01X2958031Y-9646170D01*
G01X2972551Y-9634254D01*
G01X2984466Y-9619735D01*
G01X2993320Y-9603170D01*
G01X2998773Y-9585196D01*
G01X3000614Y-9566504D01*
G01X3000614Y-9506504D01*
G01X3534004Y-9506504D01*
G01X3534004Y-9566504D01*
G01X3535845Y-9585196D01*
G01X3541297Y-9603170D01*
G01X3550151Y-9619735D01*
G01X3562067Y-9634254D01*
G01X3576586Y-9646170D01*
G01X3593151Y-9655024D01*
G01X3611125Y-9660476D01*
G01X3629817Y-9662317D01*
G01X3648510Y-9660476D01*
G01X3666484Y-9655024D01*
G01X3683049Y-9646170D01*
G01X3697568Y-9634254D01*
G01X3709484Y-9619735D01*
G01X3718338Y-9603170D01*
G01X3723790Y-9585196D01*
G01X3725631Y-9566504D01*
G01X3725631Y-9506504D01*
G01X3723790Y-9487811D01*
G01X3718338Y-9469837D01*
G01X3709484Y-9453272D01*
G01X3697568Y-9438753D01*
G01X3683049Y-9426837D01*
G01X3666484Y-9417983D01*
G01X3648510Y-9412531D01*
G01X3629817Y-9410690D01*
G01X3611125Y-9412531D01*
G01X3593151Y-9417983D01*
G01X3576586Y-9426837D01*
G01X3562067Y-9438753D01*
G01X3550151Y-9453272D01*
G01X3541297Y-9469837D01*
G01X3535845Y-9487811D01*
G01X3534004Y-9506504D01*
G01X3534004Y-9506504D01*
G01X3000614Y-9506504D01*
G01X2998773Y-9487811D01*
G01X2993320Y-9469837D01*
G01X2984466Y-9453272D01*
G01X2972551Y-9438753D01*
G01X2958031Y-9426837D01*
G01X2941466Y-9417983D01*
G01X2923492Y-9412531D01*
G01X2904800Y-9410690D01*
G01X2886108Y-9412531D01*
G01X2868133Y-9417983D01*
G01X2851569Y-9426837D01*
G01X2837049Y-9438753D01*
G01X2825134Y-9453272D01*
G01X2816279Y-9469837D01*
G01X2810827Y-9487811D01*
G01X2808986Y-9506504D01*
G01X2808986Y-9506504D01*
G01X2303403Y-9506504D01*
G01X2303403Y-9494493D01*
G01X2301650Y-9483426D01*
G01X2296563Y-9473442D01*
G01X2288640Y-9465519D01*
G01X2278656Y-9460432D01*
G01X2267589Y-9458679D01*
G01X2077589Y-9458679D01*
G01X2066522Y-9460432D01*
G01X2056538Y-9465519D01*
G01X2048615Y-9473442D01*
G01X2043528Y-9483426D01*
G01X2041775Y-9494493D01*
G01X2041775Y-9624493D01*
G01X2041775Y-9624493D01*
G01X1463425Y-9624493D01*
G01X1463425Y-9494493D01*
G01X1461672Y-9483426D01*
G01X1456585Y-9473442D01*
G01X1448662Y-9465519D01*
G01X1438678Y-9460432D01*
G01X1427611Y-9458679D01*
G01X1237611Y-9458679D01*
G01X1226544Y-9460432D01*
G01X1216560Y-9465519D01*
G01X1208637Y-9473442D01*
G01X1203550Y-9483426D01*
G01X1201797Y-9494493D01*
G01X1201797Y-9624493D01*
G01X1201797Y-9624493D01*
G01X162560Y-9624493D01*
G01X162560Y-7247917D01*
G01X1196513Y-7247917D01*
G01X1198166Y-7260473D01*
G01X1203012Y-7272174D01*
G01X1210722Y-7282221D01*
G01X1254186Y-7325685D01*
G01X1254186Y-7418367D01*
G01X1255939Y-7429434D01*
G01X1261026Y-7439418D01*
G01X1268949Y-7447341D01*
G01X1278933Y-7452428D01*
G01X1290000Y-7454181D01*
G01X1298113Y-7454181D01*
G01X1298113Y-7799869D01*
G01X1290000Y-7799869D01*
G01X1278933Y-7801622D01*
G01X1268949Y-7806709D01*
G01X1261026Y-7814632D01*
G01X1255939Y-7824616D01*
G01X1254186Y-7835683D01*
G01X1254186Y-7973384D01*
G01X1255939Y-7984451D01*
G01X1261026Y-7994435D01*
G01X1268949Y-8002358D01*
G01X1278933Y-8007445D01*
G01X1290000Y-8009198D01*
G01X1403253Y-8009198D01*
G01X1414321Y-8007445D01*
G01X1424304Y-8002358D01*
G01X1432228Y-7994435D01*
G01X1437315Y-7984451D01*
G01X1439067Y-7973384D01*
G01X1439067Y-7835683D01*
G01X1437315Y-7824616D01*
G01X1432228Y-7814632D01*
G01X1424304Y-7806709D01*
G01X1414321Y-7801622D01*
G01X1403253Y-7799869D01*
G01X1395141Y-7799869D01*
G01X1395141Y-7454181D01*
G01X1403253Y-7454181D01*
G01X1414321Y-7452428D01*
G01X1424304Y-7447341D01*
G01X1432228Y-7439418D01*
G01X1437315Y-7429434D01*
G01X1439067Y-7418367D01*
G01X1439067Y-7280666D01*
G01X1437315Y-7269599D01*
G01X1432228Y-7259615D01*
G01X1424304Y-7251692D01*
G01X1414321Y-7246605D01*
G01X1403253Y-7244852D01*
G01X1310571Y-7244852D01*
G01X1293541Y-7227822D01*
G01X1293541Y-6899165D01*
G01X1403253Y-6899165D01*
G01X1414321Y-6897412D01*
G01X1424304Y-6892325D01*
G01X1432228Y-6884401D01*
G01X1437315Y-6874418D01*
G01X1439067Y-6863351D01*
G01X1439067Y-6770668D01*
G01X1454186Y-6755550D01*
G01X1454186Y-6863351D01*
G01X1455938Y-6874418D01*
G01X1461025Y-6884401D01*
G01X1468949Y-6892325D01*
G01X1478932Y-6897412D01*
G01X1490000Y-6899165D01*
G01X1603253Y-6899165D01*
G01X1614320Y-6897412D01*
G01X1624304Y-6892325D01*
G01X1632227Y-6884401D01*
G01X1637314Y-6874418D01*
G01X1639067Y-6863351D01*
G01X1639067Y-6853950D01*
G01X1759753Y-6974636D01*
G01X1761751Y-6988617D01*
G01X1766664Y-7001858D01*
G01X1774269Y-7013758D01*
G01X1784222Y-7023778D01*
G01X1796071Y-7031463D01*
G01X1582682Y-7244852D01*
G01X1490000Y-7244852D01*
G01X1478932Y-7246605D01*
G01X1468949Y-7251692D01*
G01X1461025Y-7259615D01*
G01X1455938Y-7269599D01*
G01X1454186Y-7280666D01*
G01X1454186Y-7418367D01*
G01X1455938Y-7429434D01*
G01X1461025Y-7439418D01*
G01X1468949Y-7447341D01*
G01X1478932Y-7452428D01*
G01X1490000Y-7454181D01*
G01X1603253Y-7454181D01*
G01X1614320Y-7452428D01*
G01X1624304Y-7447341D01*
G01X1632227Y-7439418D01*
G01X1637314Y-7429434D01*
G01X1639067Y-7418367D01*
G01X1639067Y-7325685D01*
G01X2052769Y-6911984D01*
G01X2140473Y-6911984D01*
G01X2151540Y-6910231D01*
G01X2161524Y-6905144D01*
G01X2169447Y-6897221D01*
G01X2174534Y-6887237D01*
G01X2176287Y-6876170D01*
G01X2214717Y-6876170D01*
G01X2216470Y-6887237D01*
G01X2221557Y-6897221D01*
G01X2229480Y-6905144D01*
G01X2239464Y-6910231D01*
G01X2250531Y-6911984D01*
G01X2350531Y-6911984D01*
G01X2361598Y-6910231D01*
G01X2371582Y-6905144D01*
G01X2379505Y-6897221D01*
G01X2384592Y-6887237D01*
G01X2386345Y-6876170D01*
G01X2386345Y-6736216D01*
G01X2384592Y-6725149D01*
G01X2379505Y-6715165D01*
G01X2371582Y-6707242D01*
G01X2361598Y-6702154D01*
G01X2350531Y-6700402D01*
G01X2250531Y-6700402D01*
G01X2239464Y-6702154D01*
G01X2229480Y-6707242D01*
G01X2221557Y-6715165D01*
G01X2216470Y-6725149D01*
G01X2214717Y-6736216D01*
G01X2214717Y-6876170D01*
G01X2214717Y-6876170D01*
G01X2176287Y-6876170D01*
G01X2176287Y-6736216D01*
G01X2174534Y-6725149D01*
G01X2169447Y-6715165D01*
G01X2161524Y-6707242D01*
G01X2151540Y-6702154D01*
G01X2140473Y-6700402D01*
G01X2040473Y-6700402D01*
G01X2029406Y-6702154D01*
G01X2019422Y-6707242D01*
G01X2011499Y-6715165D01*
G01X2006412Y-6725149D01*
G01X2004659Y-6736216D01*
G01X2004659Y-6822874D01*
G01X1885189Y-6942345D01*
G01X1877504Y-6930496D01*
G01X1867484Y-6920543D01*
G01X1855584Y-6912938D01*
G01X1842343Y-6908025D01*
G01X1828363Y-6906027D01*
G01X1682531Y-6760195D01*
G01X1672483Y-6752486D01*
G01X1660783Y-6747639D01*
G01X1648226Y-6745986D01*
G01X1639067Y-6745986D01*
G01X1639067Y-6725649D01*
G01X1637314Y-6714582D01*
G01X1632227Y-6704599D01*
G01X1624304Y-6696675D01*
G01X1614320Y-6691588D01*
G01X1603253Y-6689835D01*
G01X1519900Y-6689835D01*
G01X1608022Y-6601714D01*
G01X2337609Y-6601714D01*
G01X2812131Y-7076236D01*
G01X2813806Y-7088886D01*
G01X2057400Y-7088886D01*
G01X2044844Y-7090539D01*
G01X2033143Y-7095386D01*
G01X2023095Y-7103095D01*
G01X1526195Y-7599996D01*
G01X1518485Y-7610043D01*
G01X1513639Y-7621744D01*
G01X1511986Y-7634300D01*
G01X1511986Y-7799869D01*
G01X1490000Y-7799869D01*
G01X1478932Y-7801622D01*
G01X1468949Y-7806709D01*
G01X1461025Y-7814632D01*
G01X1455938Y-7824616D01*
G01X1454186Y-7835683D01*
G01X1454186Y-7973384D01*
G01X1455938Y-7984451D01*
G01X1461025Y-7994435D01*
G01X1468949Y-8002358D01*
G01X1478932Y-8007445D01*
G01X1490000Y-8009198D01*
G01X1511986Y-8009198D01*
G01X1511986Y-8354885D01*
G01X1490000Y-8354885D01*
G01X1478644Y-8356733D01*
G01X1468461Y-8362086D01*
G01X1460500Y-8370391D01*
G01X1452539Y-8362086D01*
G01X1442356Y-8356733D01*
G01X1431000Y-8354885D01*
G01X1290000Y-8354885D01*
G01X1278933Y-8356638D01*
G01X1268949Y-8361725D01*
G01X1261026Y-8369649D01*
G01X1255939Y-8379632D01*
G01X1254186Y-8390699D01*
G01X1254186Y-8525700D01*
G01X1255939Y-8536768D01*
G01X1261026Y-8546751D01*
G01X1268949Y-8554675D01*
G01X1278933Y-8559762D01*
G01X1290000Y-8561514D01*
G01X1431000Y-8561514D01*
G01X1442356Y-8559667D01*
G01X1452539Y-8554314D01*
G01X1460500Y-8546009D01*
G01X1468461Y-8554314D01*
G01X1478644Y-8559667D01*
G01X1490000Y-8561514D01*
G01X1511986Y-8561514D01*
G01X1511986Y-8861523D01*
G01X1364816Y-9008693D01*
G01X1237611Y-9008693D01*
G01X1226544Y-9010446D01*
G01X1216560Y-9015533D01*
G01X1208637Y-9023456D01*
G01X1203550Y-9033440D01*
G01X1201797Y-9044507D01*
G01X1201797Y-9174507D01*
G01X1203550Y-9185574D01*
G01X1208637Y-9195558D01*
G01X1216560Y-9203481D01*
G01X1226544Y-9208568D01*
G01X1237611Y-9210321D01*
G01X1427611Y-9210321D01*
G01X1438678Y-9208568D01*
G01X1448662Y-9203481D01*
G01X1456585Y-9195558D01*
G01X1461672Y-9185574D01*
G01X1463425Y-9174507D01*
G01X1463425Y-9158021D01*
G01X2041775Y-9158021D01*
G01X2041775Y-9174507D01*
G01X2043528Y-9185574D01*
G01X2048615Y-9195558D01*
G01X2056538Y-9203481D01*
G01X2066522Y-9208568D01*
G01X2077589Y-9210321D01*
G01X2267589Y-9210321D01*
G01X2278656Y-9208568D01*
G01X2288640Y-9203481D01*
G01X2296563Y-9195558D01*
G01X2301650Y-9185574D01*
G01X2303403Y-9174507D01*
G01X2303403Y-9044507D01*
G01X2301650Y-9033440D01*
G01X2296563Y-9023456D01*
G01X2288640Y-9015533D01*
G01X2278656Y-9010446D01*
G01X2267589Y-9008693D01*
G01X2077589Y-9008693D01*
G01X2066522Y-9010446D01*
G01X2056538Y-9015533D01*
G01X2048615Y-9023456D01*
G01X2043528Y-9033440D01*
G01X2041775Y-9044507D01*
G01X2041775Y-9060993D01*
G01X1463425Y-9060993D01*
G01X1463425Y-9047302D01*
G01X1594804Y-8915923D01*
G01X1602514Y-8905875D01*
G01X1607361Y-8894174D01*
G01X1609014Y-8881618D01*
G01X1609014Y-8561514D01*
G01X1631000Y-8561514D01*
G01X1642067Y-8559762D01*
G01X1652051Y-8554675D01*
G01X1659974Y-8546751D01*
G01X1665061Y-8536768D01*
G01X1666814Y-8525700D01*
G01X1666814Y-8390699D01*
G01X1665061Y-8379632D01*
G01X1659974Y-8369649D01*
G01X1652051Y-8361725D01*
G01X1642067Y-8356638D01*
G01X1631000Y-8354885D01*
G01X1609014Y-8354885D01*
G01X1609014Y-8008732D01*
G01X1618618Y-8005735D01*
G01X1627009Y-8000185D01*
G01X1633526Y-7992520D01*
G01X1637654Y-7983345D01*
G01X1639067Y-7973384D01*
G01X1639067Y-7835683D01*
G01X1637654Y-7825722D01*
G01X1633526Y-7816547D01*
G01X1627009Y-7808882D01*
G01X1618618Y-7803332D01*
G01X1609014Y-7800335D01*
G01X1609014Y-7654395D01*
G01X1982743Y-7280666D01*
G01X2004659Y-7280666D01*
G01X2004659Y-7418367D01*
G01X2006412Y-7429434D01*
G01X2011499Y-7439418D01*
G01X2019422Y-7447341D01*
G01X2029406Y-7452428D01*
G01X2040473Y-7454181D01*
G01X2048586Y-7454181D01*
G01X2048586Y-7520000D01*
G01X2050239Y-7532557D01*
G01X2055086Y-7544257D01*
G01X2062796Y-7554305D01*
G01X2631095Y-8122604D01*
G01X2641143Y-8130314D01*
G01X2652843Y-8135161D01*
G01X2665400Y-8136814D01*
G01X3059990Y-8136814D01*
G01X3059990Y-8150800D01*
G01X3061743Y-8161867D01*
G01X3066830Y-8171851D01*
G01X3074753Y-8179774D01*
G01X3084737Y-8184861D01*
G01X3095804Y-8186614D01*
G01X3165804Y-8186614D01*
G01X3176871Y-8184861D01*
G01X3186855Y-8179774D01*
G01X3194778Y-8171851D01*
G01X3199865Y-8161867D01*
G01X3201618Y-8150800D01*
G01X3201618Y-8025799D01*
G01X3199865Y-8014732D01*
G01X3194778Y-8004748D01*
G01X3186855Y-7996825D01*
G01X3176871Y-7991738D01*
G01X3165804Y-7989985D01*
G01X3095804Y-7989985D01*
G01X3084737Y-7991738D01*
G01X3074753Y-7996825D01*
G01X3066830Y-8004748D01*
G01X3061743Y-8014732D01*
G01X3059990Y-8025799D01*
G01X3059990Y-8039786D01*
G01X2685495Y-8039786D01*
G01X2145614Y-7499905D01*
G01X2145614Y-7499905D01*
G01X2145614Y-7454181D01*
G01X2153727Y-7454181D01*
G01X2164794Y-7452428D01*
G01X2174778Y-7447341D01*
G01X2182701Y-7439418D01*
G01X2187788Y-7429434D01*
G01X2189541Y-7418367D01*
G01X2189541Y-7280666D01*
G01X2187788Y-7269599D01*
G01X2182701Y-7259615D01*
G01X2174778Y-7251692D01*
G01X2164794Y-7246605D01*
G01X2153727Y-7244852D01*
G01X2040473Y-7244852D01*
G01X2029406Y-7246605D01*
G01X2019422Y-7251692D01*
G01X2011499Y-7259615D01*
G01X2006412Y-7269599D01*
G01X2004659Y-7280666D01*
G01X1982743Y-7280666D01*
G01X2077495Y-7185914D01*
G01X2940806Y-7185914D01*
G01X2939092Y-7200402D01*
G01X2940588Y-7214913D01*
G01X2945220Y-7228747D01*
G01X2952766Y-7241233D01*
G01X2962858Y-7251767D01*
G01X2975010Y-7259839D01*
G01X2988633Y-7265058D01*
G01X3003068Y-7267173D01*
G01X3059990Y-7324095D01*
G01X3059990Y-7377203D01*
G01X2393395Y-7377203D01*
G01X2389541Y-7373348D01*
G01X2389541Y-7280666D01*
G01X2387788Y-7269599D01*
G01X2382701Y-7259615D01*
G01X2374778Y-7251692D01*
G01X2364794Y-7246605D01*
G01X2353727Y-7244852D01*
G01X2240473Y-7244852D01*
G01X2229406Y-7246605D01*
G01X2219422Y-7251692D01*
G01X2211499Y-7259615D01*
G01X2206412Y-7269599D01*
G01X2204659Y-7280666D01*
G01X2204659Y-7418367D01*
G01X2206412Y-7429434D01*
G01X2211499Y-7439418D01*
G01X2219422Y-7447341D01*
G01X2229406Y-7452428D01*
G01X2240473Y-7454181D01*
G01X2273073Y-7454181D01*
G01X2268756Y-7468579D01*
G01X2267793Y-7483579D01*
G01X2270233Y-7498410D01*
G01X2275950Y-7512311D01*
G01X2284651Y-7524568D01*
G01X2295889Y-7534550D01*
G01X2309086Y-7541745D01*
G01X2323564Y-7545783D01*
G01X2338579Y-7546458D01*
G01X2353361Y-7543733D01*
G01X2367150Y-7537749D01*
G01X2379236Y-7528814D01*
G01X2797705Y-7528814D01*
G01X3154986Y-7886095D01*
G01X3154986Y-7950801D01*
G01X3156739Y-7961868D01*
G01X3161826Y-7971852D01*
G01X3169749Y-7979775D01*
G01X3179733Y-7984862D01*
G01X3190800Y-7986615D01*
G01X3260800Y-7986615D01*
G01X3271867Y-7984862D01*
G01X3281851Y-7979775D01*
G01X3289774Y-7971852D01*
G01X3294861Y-7961868D01*
G01X3296614Y-7950801D01*
G01X3296614Y-7936814D01*
G01X3967705Y-7936814D01*
G01X4131295Y-8100405D01*
G01X4141343Y-8108115D01*
G01X4153044Y-8112961D01*
G01X4165600Y-8114614D01*
G01X4272505Y-8114614D01*
G01X4378727Y-8220836D01*
G01X4381281Y-8236870D01*
G01X4387654Y-8251802D01*
G01X4397464Y-8264738D01*
G01X4410124Y-8274902D01*
G01X4424873Y-8281686D01*
G01X4440830Y-8284683D01*
G01X4457036Y-8283713D01*
G01X4457036Y-8354885D01*
G01X4435050Y-8354885D01*
G01X4423982Y-8356638D01*
G01X4413999Y-8361725D01*
G01X4406075Y-8369649D01*
G01X4400988Y-8379632D01*
G01X4399236Y-8390699D01*
G01X4399236Y-8528401D01*
G01X4400988Y-8539468D01*
G01X4406075Y-8549451D01*
G01X4413999Y-8557375D01*
G01X4423982Y-8562462D01*
G01X4435050Y-8564215D01*
G01X4548303Y-8564215D01*
G01X4559370Y-8562462D01*
G01X4569354Y-8557375D01*
G01X4577277Y-8549451D01*
G01X4582364Y-8539468D01*
G01X4584117Y-8528401D01*
G01X4584117Y-8390699D01*
G01X4582704Y-8380738D01*
G01X4578576Y-8371564D01*
G01X4572059Y-8363899D01*
G01X4563668Y-8358349D01*
G01X4554064Y-8355352D01*
G01X4554064Y-8007398D01*
G01X4576050Y-8007398D01*
G01X4587117Y-8005645D01*
G01X4597101Y-8000558D01*
G01X4605024Y-7992635D01*
G01X4610111Y-7982651D01*
G01X4611864Y-7971584D01*
G01X4611864Y-7836583D01*
G01X4610111Y-7825516D01*
G01X4605024Y-7815532D01*
G01X4597101Y-7807609D01*
G01X4587117Y-7802522D01*
G01X4576050Y-7800769D01*
G01X4569083Y-7800769D01*
G01X4571746Y-7785724D01*
G01X4570894Y-7770469D01*
G01X4566574Y-7755814D01*
G01X4824701Y-7755814D01*
G01X5064491Y-7995604D01*
G01X5068477Y-7999173D01*
G01X5058197Y-8008253D01*
G01X5050004Y-8019254D01*
G01X5044250Y-8031704D01*
G01X5041180Y-8045073D01*
G01X5040926Y-8058787D01*
G01X5043499Y-8072259D01*
G01X5048789Y-8084915D01*
G01X5056569Y-8096211D01*
G01X5066507Y-8105665D01*
G01X5078177Y-8112872D01*
G01X5091080Y-8117525D01*
G01X5104664Y-8119423D01*
G01X5210886Y-8225645D01*
G01X5210886Y-8354885D01*
G01X5202773Y-8354885D01*
G01X5191706Y-8356638D01*
G01X5181722Y-8361725D01*
G01X5173799Y-8369649D01*
G01X5168712Y-8379632D01*
G01X5166959Y-8390699D01*
G01X5166959Y-8528401D01*
G01X5168712Y-8539468D01*
G01X5173799Y-8549451D01*
G01X5181722Y-8557375D01*
G01X5191706Y-8562462D01*
G01X5202773Y-8564215D01*
G01X5316027Y-8564215D01*
G01X5327094Y-8562462D01*
G01X5337078Y-8557375D01*
G01X5345001Y-8549451D01*
G01X5350088Y-8539468D01*
G01X5351841Y-8528401D01*
G01X5351841Y-8390699D01*
G01X5366959Y-8390699D01*
G01X5366959Y-8528401D01*
G01X5368712Y-8539468D01*
G01X5373799Y-8549451D01*
G01X5381722Y-8557375D01*
G01X5391706Y-8562462D01*
G01X5402773Y-8564215D01*
G01X5516027Y-8564215D01*
G01X5527094Y-8562462D01*
G01X5537078Y-8557375D01*
G01X5545001Y-8549451D01*
G01X5550088Y-8539468D01*
G01X5551841Y-8528401D01*
G01X5551841Y-8390699D01*
G01X5551841Y-8390699D01*
G01X5550088Y-8379632D01*
G01X5545001Y-8369649D01*
G01X5537078Y-8361725D01*
G01X5527094Y-8356638D01*
G01X5516027Y-8354885D01*
G01X5402773Y-8354885D01*
G01X5391706Y-8356638D01*
G01X5381722Y-8361725D01*
G01X5373799Y-8369649D01*
G01X5368712Y-8379632D01*
G01X5366959Y-8390699D01*
G01X5351841Y-8390699D01*
G01X5350088Y-8379632D01*
G01X5345001Y-8369649D01*
G01X5337078Y-8361725D01*
G01X5327094Y-8356638D01*
G01X5316027Y-8354885D01*
G01X5307914Y-8354885D01*
G01X5307914Y-8205550D01*
G01X5306261Y-8192994D01*
G01X5301415Y-8181293D01*
G01X5293705Y-8171245D01*
G01X5173273Y-8050814D01*
G01X5171070Y-8036045D01*
G01X5165619Y-8022143D01*
G01X5157195Y-8009814D01*
G01X5519327Y-8009814D01*
G01X5531884Y-8008161D01*
G01X5543584Y-8003314D01*
G01X5553632Y-7995604D01*
G01X5697450Y-7851786D01*
G01X5705160Y-7841739D01*
G01X5710006Y-7830038D01*
G01X5711659Y-7817482D01*
G01X5711659Y-7772568D01*
G01X6050596Y-8111505D01*
G01X6060643Y-8119214D01*
G01X6072344Y-8124061D01*
G01X6084900Y-8125714D01*
G01X6502202Y-8125714D01*
G01X6495039Y-8137358D01*
G01X6490415Y-8150223D01*
G01X6488527Y-8163764D01*
G01X6284706Y-8367585D01*
G01X6179500Y-8367585D01*
G01X6168433Y-8369338D01*
G01X6158449Y-8374425D01*
G01X6150526Y-8382349D01*
G01X6145439Y-8392332D01*
G01X6143686Y-8403399D01*
G01X6143686Y-8538400D01*
G01X6145608Y-8549974D01*
G01X6151167Y-8560306D01*
G01X5252794Y-9458679D01*
G01X5125589Y-9458679D01*
G01X5114522Y-9460432D01*
G01X5104538Y-9465519D01*
G01X5096615Y-9473442D01*
G01X5091528Y-9483426D01*
G01X5089775Y-9494493D01*
G01X5089775Y-9510979D01*
G01X4511425Y-9510979D01*
G01X4511425Y-9494493D01*
G01X4509672Y-9483426D01*
G01X4504585Y-9473442D01*
G01X4496662Y-9465519D01*
G01X4486678Y-9460432D01*
G01X4475611Y-9458679D01*
G01X4348406Y-9458679D01*
G01X4201414Y-9311687D01*
G01X4201414Y-9044507D01*
G01X4249797Y-9044507D01*
G01X4249797Y-9174507D01*
G01X4251550Y-9185574D01*
G01X4256637Y-9195558D01*
G01X4264560Y-9203481D01*
G01X4274544Y-9208568D01*
G01X4285611Y-9210321D01*
G01X4475611Y-9210321D01*
G01X4486678Y-9208568D01*
G01X4496662Y-9203481D01*
G01X4504585Y-9195558D01*
G01X4509672Y-9185574D01*
G01X4511425Y-9174507D01*
G01X4511425Y-9044507D01*
G01X4511425Y-9044507D01*
G01X5089775Y-9044507D01*
G01X5089775Y-9174507D01*
G01X5091528Y-9185574D01*
G01X5096615Y-9195558D01*
G01X5104538Y-9203481D01*
G01X5114522Y-9208568D01*
G01X5125589Y-9210321D01*
G01X5315589Y-9210321D01*
G01X5326656Y-9208568D01*
G01X5336640Y-9203481D01*
G01X5344563Y-9195558D01*
G01X5349650Y-9185574D01*
G01X5351403Y-9174507D01*
G01X5351403Y-9044507D01*
G01X5351403Y-9044507D01*
G01X5349650Y-9033440D01*
G01X5344563Y-9023456D01*
G01X5336640Y-9015533D01*
G01X5326656Y-9010446D01*
G01X5315589Y-9008693D01*
G01X5125589Y-9008693D01*
G01X5114522Y-9010446D01*
G01X5104538Y-9015533D01*
G01X5096615Y-9023456D01*
G01X5091528Y-9033440D01*
G01X5089775Y-9044507D01*
G01X4511425Y-9044507D01*
G01X4509672Y-9033440D01*
G01X4504585Y-9023456D01*
G01X4496662Y-9015533D01*
G01X4486678Y-9010446D01*
G01X4475611Y-9008693D01*
G01X4285611Y-9008693D01*
G01X4274544Y-9010446D01*
G01X4264560Y-9015533D01*
G01X4256637Y-9023456D01*
G01X4251550Y-9033440D01*
G01X4249797Y-9044507D01*
G01X4201414Y-9044507D01*
G01X4201414Y-8638899D01*
G01X4276099Y-8564215D01*
G01X4348303Y-8564215D01*
G01X4359371Y-8562462D01*
G01X4369354Y-8557375D01*
G01X4377278Y-8549451D01*
G01X4382365Y-8539468D01*
G01X4384117Y-8528401D01*
G01X4384117Y-8390699D01*
G01X4382365Y-8379632D01*
G01X4377278Y-8369649D01*
G01X4369354Y-8361725D01*
G01X4359371Y-8356638D01*
G01X4348303Y-8354885D01*
G01X4235050Y-8354885D01*
G01X4230571Y-8355167D01*
G01X3929400Y-8053995D01*
G01X3919352Y-8046285D01*
G01X3907651Y-8041439D01*
G01X3895095Y-8039786D01*
G01X3391610Y-8039786D01*
G01X3391610Y-8025799D01*
G01X3389857Y-8014732D01*
G01X3384770Y-8004748D01*
G01X3376847Y-7996825D01*
G01X3366863Y-7991738D01*
G01X3355796Y-7989985D01*
G01X3285796Y-7989985D01*
G01X3274729Y-7991738D01*
G01X3264745Y-7996825D01*
G01X3256822Y-8004748D01*
G01X3251735Y-8014732D01*
G01X3249982Y-8025799D01*
G01X3249982Y-8150800D01*
G01X3251735Y-8161867D01*
G01X3256822Y-8171851D01*
G01X3264745Y-8179774D01*
G01X3274729Y-8184861D01*
G01X3285796Y-8186614D01*
G01X3355796Y-8186614D01*
G01X3366863Y-8184861D01*
G01X3376847Y-8179774D01*
G01X3384770Y-8171851D01*
G01X3389857Y-8161867D01*
G01X3391610Y-8150800D01*
G01X3391610Y-8136814D01*
G01X3517884Y-8136814D01*
G01X2962895Y-8691802D01*
G01X2959311Y-8695808D01*
G01X2862514Y-8599011D01*
G01X2862514Y-8594507D01*
G01X2860761Y-8583439D01*
G01X2855674Y-8573456D01*
G01X2847751Y-8565532D01*
G01X2837767Y-8560445D01*
G01X2826700Y-8558693D01*
G01X2822195Y-8558693D01*
G01X2687398Y-8423895D01*
G01X2677351Y-8416186D01*
G01X2665650Y-8411339D01*
G01X2653094Y-8409686D01*
G01X2417288Y-8409686D01*
G01X2417288Y-8390699D01*
G01X2415535Y-8379632D01*
G01X2410448Y-8369649D01*
G01X2402524Y-8361725D01*
G01X2392541Y-8356638D01*
G01X2381474Y-8354885D01*
G01X2240473Y-8354885D01*
G01X2229118Y-8356733D01*
G01X2218934Y-8362086D01*
G01X2210973Y-8370391D01*
G01X2203013Y-8362086D01*
G01X2192829Y-8356733D01*
G01X2181474Y-8354885D01*
G01X2040473Y-8354885D01*
G01X2029406Y-8356638D01*
G01X2019422Y-8361725D01*
G01X2011499Y-8369649D01*
G01X2006412Y-8379632D01*
G01X2004659Y-8390699D01*
G01X2004659Y-8525700D01*
G01X2006412Y-8536768D01*
G01X2011499Y-8546751D01*
G01X2019422Y-8554675D01*
G01X2029406Y-8559762D01*
G01X2040473Y-8561514D01*
G01X2181474Y-8561514D01*
G01X2192829Y-8559667D01*
G01X2203013Y-8554314D01*
G01X2210973Y-8546009D01*
G01X2218934Y-8554314D01*
G01X2229118Y-8559667D01*
G01X2240473Y-8561514D01*
G01X2381474Y-8561514D01*
G01X2392541Y-8559762D01*
G01X2402524Y-8554675D01*
G01X2410448Y-8546751D01*
G01X2415535Y-8536768D01*
G01X2417288Y-8525700D01*
G01X2417288Y-8506714D01*
G01X2632998Y-8506714D01*
G01X2750886Y-8624602D01*
G01X2750886Y-8654506D01*
G01X2752639Y-8665574D01*
G01X2757726Y-8675557D01*
G01X2765649Y-8683481D01*
G01X2775633Y-8688568D01*
G01X2786700Y-8690320D01*
G01X2816605Y-8690320D01*
G01X2836265Y-8709980D01*
G01X2826700Y-8708680D01*
G01X2786700Y-8708680D01*
G01X2775633Y-8710432D01*
G01X2765649Y-8715519D01*
G01X2757726Y-8723443D01*
G01X2752639Y-8733426D01*
G01X2750886Y-8744494D01*
G01X2750886Y-8804493D01*
G01X2752639Y-8815561D01*
G01X2757726Y-8825544D01*
G01X2765649Y-8833468D01*
G01X2775633Y-8838555D01*
G01X2786700Y-8840307D01*
G01X2826700Y-8840307D01*
G01X2837767Y-8838555D01*
G01X2847751Y-8833468D01*
G01X2855674Y-8825544D01*
G01X2860761Y-8815561D01*
G01X2862514Y-8804493D01*
G01X2862514Y-8744494D01*
G01X2861213Y-8734929D01*
G01X3078912Y-8952627D01*
G01X3078912Y-9186415D01*
G01X3062179Y-9177570D01*
G01X3044061Y-9172096D01*
G01X3025230Y-9170195D01*
G01X3006383Y-9171937D01*
G01X2988220Y-9177258D01*
G01X2971413Y-9185961D01*
G01X2956585Y-9197724D01*
G01X2944286Y-9212110D01*
G01X2934971Y-9228586D01*
G01X2928986Y-9246541D01*
G01X2926552Y-9265311D01*
G01X2927761Y-9284199D01*
G01X2932566Y-9302506D01*
G01X2940790Y-9319553D01*
G01X2952128Y-9334707D01*
G01X2966160Y-9347409D01*
G01X2982366Y-9357186D01*
G01X3000145Y-9363677D01*
G01X3018838Y-9366641D01*
G01X3037753Y-9365968D01*
G01X3056188Y-9361683D01*
G01X3073461Y-9353944D01*
G01X3088930Y-9343040D01*
G01X3102024Y-9329373D01*
G01X3108995Y-9331582D01*
G01X3116270Y-9332328D01*
G01X3156270Y-9332328D01*
G01X3162620Y-9331761D01*
G01X3168769Y-9330076D01*
G01X3174918Y-9331761D01*
G01X3181269Y-9332328D01*
G01X3221269Y-9332328D01*
G01X3227619Y-9331761D01*
G01X3233768Y-9330076D01*
G01X3239917Y-9331761D01*
G01X3246267Y-9332328D01*
G01X3286267Y-9332328D01*
G01X3292618Y-9331761D01*
G01X3298767Y-9330076D01*
G01X3304916Y-9331761D01*
G01X3311266Y-9332328D01*
G01X3351266Y-9332328D01*
G01X3357616Y-9331761D01*
G01X3363765Y-9330076D01*
G01X3369914Y-9331761D01*
G01X3376265Y-9332328D01*
G01X3416264Y-9332328D01*
G01X3424363Y-9331401D01*
G01X3432041Y-9328666D01*
G01X3445176Y-9342597D01*
G01X3460762Y-9353719D01*
G01X3478208Y-9361608D01*
G01X3496852Y-9365966D01*
G01X3515988Y-9366628D01*
G01X3534889Y-9363568D01*
G01X3552838Y-9356903D01*
G01X3569155Y-9346885D01*
G01X3583221Y-9333895D01*
G01X3594503Y-9318425D01*
G01X3602571Y-9301061D01*
G01X3607122Y-9282462D01*
G01X3607981Y-9263335D01*
G01X3605116Y-9244403D01*
G01X3598636Y-9226386D01*
G01X3588787Y-9209967D01*
G01X3575943Y-9195768D01*
G01X3560589Y-9184327D01*
G01X3543310Y-9176080D01*
G01X3524759Y-9171338D01*
G01X3505642Y-9170282D01*
G01X3486682Y-9172951D01*
G01X3468599Y-9179245D01*
G01X3452078Y-9188924D01*
G01X3452078Y-9136515D01*
G01X3450326Y-9125447D01*
G01X3445239Y-9115464D01*
G01X3437315Y-9107540D01*
G01X3427332Y-9102453D01*
G01X3416264Y-9100701D01*
G01X3376265Y-9100701D01*
G01X3369914Y-9101268D01*
G01X3363765Y-9102953D01*
G01X3357616Y-9101268D01*
G01X3351266Y-9100701D01*
G01X3314781Y-9100701D01*
G01X3314781Y-9072828D01*
G01X3347495Y-9040114D01*
G01X3440494Y-9040114D01*
G01X3453050Y-9038461D01*
G01X3464751Y-9033614D01*
G01X3474798Y-9025905D01*
G01X3703095Y-8797607D01*
G01X3810000Y-8797607D01*
G01X3822556Y-8795954D01*
G01X3834257Y-8791108D01*
G01X3844305Y-8783398D01*
G01X3895909Y-8731794D01*
G01X3919286Y-8731794D01*
G01X3919286Y-8791793D01*
G01X3921039Y-8802861D01*
G01X3926126Y-8812844D01*
G01X3934049Y-8820768D01*
G01X3944033Y-8825855D01*
G01X3955100Y-8827607D01*
G01X3995100Y-8827607D01*
G01X3995100Y-8827607D01*
G01X4006167Y-8825855D01*
G01X4016151Y-8820768D01*
G01X4024074Y-8812844D01*
G01X4029161Y-8802861D01*
G01X4030914Y-8791793D01*
G01X4030914Y-8731794D01*
G01X4029161Y-8720726D01*
G01X4024074Y-8710743D01*
G01X4016151Y-8702819D01*
G01X4006167Y-8697732D01*
G01X3995100Y-8695980D01*
G01X3955100Y-8695980D01*
G01X3944033Y-8697732D01*
G01X3934049Y-8702819D01*
G01X3926126Y-8710743D01*
G01X3921039Y-8720726D01*
G01X3919286Y-8731794D01*
G01X3895909Y-8731794D01*
G01X3950393Y-8677310D01*
G01X3955100Y-8677620D01*
G01X3995100Y-8677620D01*
G01X4006167Y-8675868D01*
G01X4016151Y-8670781D01*
G01X4024074Y-8662857D01*
G01X4029161Y-8652874D01*
G01X4030914Y-8641806D01*
G01X4030914Y-8596789D01*
G01X4142536Y-8485166D01*
G01X4157762Y-8482840D01*
G01X4172039Y-8477064D01*
G01X4184600Y-8468150D01*
G01X4194765Y-8456579D01*
G01X4199236Y-8461050D01*
G01X4199236Y-8503859D01*
G01X4118595Y-8584500D01*
G01X4110886Y-8594547D01*
G01X4106039Y-8606248D01*
G01X4104386Y-8618804D01*
G01X4104386Y-9331782D01*
G01X4106039Y-9344339D01*
G01X4110886Y-9356039D01*
G01X4118595Y-9366087D01*
G01X4249797Y-9497289D01*
G01X4249797Y-9624493D01*
G01X4251550Y-9635560D01*
G01X4256637Y-9645544D01*
G01X4264560Y-9653467D01*
G01X4274544Y-9658554D01*
G01X4285611Y-9660307D01*
G01X4475611Y-9660307D01*
G01X4486678Y-9658554D01*
G01X4496662Y-9653467D01*
G01X4504585Y-9645544D01*
G01X4509672Y-9635560D01*
G01X4511425Y-9624493D01*
G01X4511425Y-9608007D01*
G01X5089775Y-9608007D01*
G01X5089775Y-9624493D01*
G01X5091528Y-9635560D01*
G01X5096615Y-9645544D01*
G01X5104538Y-9653467D01*
G01X5114522Y-9658554D01*
G01X5125589Y-9660307D01*
G01X5315589Y-9660307D01*
G01X5326656Y-9658554D01*
G01X5336640Y-9653467D01*
G01X5344563Y-9645544D01*
G01X5349650Y-9635560D01*
G01X5351403Y-9624493D01*
G01X5351403Y-9588477D01*
G01X7426686Y-9588477D01*
G01X7428613Y-9604347D01*
G01X7434282Y-9619295D01*
G01X7443363Y-9632452D01*
G01X7455329Y-9643053D01*
G01X7469485Y-9650482D01*
G01X7485007Y-9654308D01*
G01X7500993Y-9654308D01*
G01X7516515Y-9650482D01*
G01X7530671Y-9643053D01*
G01X7542637Y-9632452D01*
G01X7551718Y-9619295D01*
G01X7557387Y-9604347D01*
G01X7559314Y-9588477D01*
G01X7557387Y-9572607D01*
G01X7551718Y-9557660D01*
G01X7542637Y-9544503D01*
G01X7530671Y-9533902D01*
G01X7516515Y-9526472D01*
G01X7500993Y-9522647D01*
G01X7485007Y-9522647D01*
G01X7469485Y-9526472D01*
G01X7455329Y-9533902D01*
G01X7443363Y-9544503D01*
G01X7434282Y-9557660D01*
G01X7428613Y-9572607D01*
G01X7426686Y-9588477D01*
G01X7426686Y-9588477D01*
G01X5351403Y-9588477D01*
G01X5351403Y-9497289D01*
G01X5425291Y-9423400D01*
G01X7158186Y-9423400D01*
G01X7159898Y-9439948D01*
G01X7164963Y-9455795D01*
G01X7173165Y-9470269D01*
G01X7184157Y-9482756D01*
G01X7197474Y-9492729D01*
G01X7212550Y-9499763D01*
G01X7228747Y-9503561D01*
G01X7245379Y-9503962D01*
G01X7261740Y-9500949D01*
G01X7277138Y-9494649D01*
G01X7290919Y-9485330D01*
G01X7302500Y-9473386D01*
G01X7313584Y-9484909D01*
G01X7326719Y-9494025D01*
G01X7341392Y-9500376D01*
G01X7357028Y-9503714D01*
G01X7373015Y-9503909D01*
G01X7388728Y-9500952D01*
G01X7403551Y-9494960D01*
G01X7416904Y-9486167D01*
G01X7422590Y-9493638D01*
G01X7430023Y-9499375D01*
G01X7438692Y-9502983D01*
G01X7448000Y-9504214D01*
G01X7448000Y-9504214D01*
G01X7538000Y-9504214D01*
G01X7549067Y-9502461D01*
G01X7559051Y-9497374D01*
G01X7566974Y-9489451D01*
G01X7572061Y-9479467D01*
G01X7573814Y-9468400D01*
G01X7573814Y-9378400D01*
G01X7572061Y-9367333D01*
G01X7566974Y-9357349D01*
G01X7559051Y-9349426D01*
G01X7549067Y-9344339D01*
G01X7538000Y-9342586D01*
G01X7448000Y-9342586D01*
G01X7438692Y-9343817D01*
G01X7430023Y-9347425D01*
G01X7422590Y-9353162D01*
G01X7416904Y-9360633D01*
G01X7403551Y-9351840D01*
G01X7388728Y-9345848D01*
G01X7373015Y-9342891D01*
G01X7357028Y-9343086D01*
G01X7341392Y-9346424D01*
G01X7326719Y-9352775D01*
G01X7313584Y-9361891D01*
G01X7302500Y-9373414D01*
G01X7290919Y-9361470D01*
G01X7277138Y-9352151D01*
G01X7261740Y-9345851D01*
G01X7245379Y-9342838D01*
G01X7228747Y-9343239D01*
G01X7212550Y-9347037D01*
G01X7197474Y-9354071D01*
G01X7184157Y-9364044D01*
G01X7173165Y-9376531D01*
G01X7164963Y-9391005D01*
G01X7159898Y-9406852D01*
G01X7158186Y-9423400D01*
G01X5425291Y-9423400D01*
G01X6274477Y-8574214D01*
G01X6320500Y-8574214D01*
G01X6331856Y-8572367D01*
G01X6342039Y-8567014D01*
G01X6350000Y-8558709D01*
G01X6357961Y-8567014D01*
G01X6368144Y-8572367D01*
G01X6379500Y-8574214D01*
G01X6520500Y-8574214D01*
G01X6531567Y-8572462D01*
G01X6541551Y-8567375D01*
G01X6549474Y-8559451D01*
G01X6554561Y-8549468D01*
G01X6556314Y-8538400D01*
G01X6556314Y-8403399D01*
G01X6554561Y-8392332D01*
G01X6549474Y-8382349D01*
G01X6541551Y-8374425D01*
G01X6531567Y-8369338D01*
G01X6520500Y-8367585D01*
G01X6421924Y-8367585D01*
G01X6557136Y-8232373D01*
G01X6573038Y-8229857D01*
G01X6587865Y-8223583D01*
G01X6600742Y-8213921D01*
G01X6610912Y-8201441D01*
G01X6617775Y-8186877D01*
G01X6620926Y-8171089D01*
G01X6620180Y-8155007D01*
G01X6615580Y-8139579D01*
G01X6607398Y-8125714D01*
G01X6801405Y-8125714D01*
G01X7122759Y-8447068D01*
G01X7122759Y-8539751D01*
G01X7124512Y-8550818D01*
G01X7129599Y-8560801D01*
G01X7137522Y-8568725D01*
G01X7147506Y-8573812D01*
G01X7158573Y-8575565D01*
G01X7271827Y-8575565D01*
G01X7282894Y-8573812D01*
G01X7292878Y-8568725D01*
G01X7300801Y-8560801D01*
G01X7305888Y-8550818D01*
G01X7307641Y-8539751D01*
G01X7307641Y-8402049D01*
G01X7305888Y-8390982D01*
G01X7300801Y-8380999D01*
G01X7292878Y-8373075D01*
G01X7282894Y-8367988D01*
G01X7271827Y-8366235D01*
G01X7179145Y-8366235D01*
G01X6855805Y-8042895D01*
G01X6845757Y-8035186D01*
G01X6834057Y-8030339D01*
G01X6821500Y-8028686D01*
G01X6104995Y-8028686D01*
G01X5715305Y-7638996D01*
G01X5829172Y-7638996D01*
G01X5840958Y-7647757D01*
G01X5854384Y-7653709D01*
G01X5868791Y-7656560D01*
G01X5883472Y-7656170D01*
G01X5897708Y-7652558D01*
G01X5910799Y-7645902D01*
G01X5922104Y-7636527D01*
G01X5931068Y-7624894D01*
G01X6171433Y-7865259D01*
G01X6171433Y-7980951D01*
G01X6173186Y-7992018D01*
G01X6178273Y-8002001D01*
G01X6186196Y-8009925D01*
G01X6196180Y-8015012D01*
G01X6207247Y-8016765D01*
G01X6320500Y-8016765D01*
G01X6331568Y-8015012D01*
G01X6341551Y-8009925D01*
G01X6349475Y-8002001D01*
G01X6354562Y-7992018D01*
G01X6356314Y-7980951D01*
G01X6356314Y-7843249D01*
G01X6354562Y-7832182D01*
G01X6349475Y-7822199D01*
G01X6341551Y-7814275D01*
G01X6331568Y-7809188D01*
G01X6320500Y-7807435D01*
G01X6250828Y-7807435D01*
G01X5632054Y-7188662D01*
G01X5622007Y-7180952D01*
G01X5610306Y-7176106D01*
G01X5597750Y-7174453D01*
G01X5267550Y-7174453D01*
G01X5256704Y-7175681D01*
G01X5246407Y-7179302D01*
G01X5493704Y-6932005D01*
G01X5501168Y-6922379D01*
G01X5505999Y-6911197D01*
G01X5507892Y-6899165D01*
G01X5516027Y-6899165D01*
G01X5527094Y-6897412D01*
G01X5537078Y-6892325D01*
G01X5545001Y-6884401D01*
G01X5550088Y-6874418D01*
G01X5551841Y-6863351D01*
G01X5551841Y-6843014D01*
G01X6171433Y-6843014D01*
G01X6171433Y-6863351D01*
G01X6173186Y-6874418D01*
G01X6178273Y-6884401D01*
G01X6186196Y-6892325D01*
G01X6196180Y-6897412D01*
G01X6207247Y-6899165D01*
G01X6320500Y-6899165D01*
G01X6331568Y-6897412D01*
G01X6341551Y-6892325D01*
G01X6349475Y-6884401D01*
G01X6354562Y-6874418D01*
G01X6356314Y-6863351D01*
G01X6356314Y-6725649D01*
G01X6371433Y-6725649D01*
G01X6371433Y-6863351D01*
G01X6373185Y-6874418D01*
G01X6378272Y-6884401D01*
G01X6386196Y-6892325D01*
G01X6396179Y-6897412D01*
G01X6407247Y-6899165D01*
G01X6520500Y-6899165D01*
G01X6531567Y-6897412D01*
G01X6541551Y-6892325D01*
G01X6549474Y-6884401D01*
G01X6554561Y-6874418D01*
G01X6556314Y-6863351D01*
G01X6556314Y-6725649D01*
G01X6556314Y-6725649D01*
G01X6554561Y-6714582D01*
G01X6549474Y-6704599D01*
G01X6541551Y-6696675D01*
G01X6531567Y-6691588D01*
G01X6520500Y-6689835D01*
G01X6407247Y-6689835D01*
G01X6396179Y-6691588D01*
G01X6386196Y-6696675D01*
G01X6378272Y-6704599D01*
G01X6373185Y-6714582D01*
G01X6371433Y-6725649D01*
G01X6356314Y-6725649D01*
G01X6354562Y-6714582D01*
G01X6349475Y-6704599D01*
G01X6341551Y-6696675D01*
G01X6331568Y-6691588D01*
G01X6320500Y-6689835D01*
G01X6207247Y-6689835D01*
G01X6196180Y-6691588D01*
G01X6186196Y-6696675D01*
G01X6178273Y-6704599D01*
G01X6173186Y-6714582D01*
G01X6171433Y-6725649D01*
G01X6171433Y-6745986D01*
G01X5551841Y-6745986D01*
G01X5551841Y-6725649D01*
G01X5550088Y-6714582D01*
G01X5545001Y-6704599D01*
G01X5537078Y-6696675D01*
G01X5527094Y-6691588D01*
G01X5516027Y-6689835D01*
G01X5402773Y-6689835D01*
G01X5391706Y-6691588D01*
G01X5381722Y-6696675D01*
G01X5373799Y-6704599D01*
G01X5368712Y-6714582D01*
G01X5366959Y-6725649D01*
G01X5366959Y-6863351D01*
G01X5368674Y-6874300D01*
G01X5373654Y-6884200D01*
G01X5381423Y-6892105D01*
G01X5391236Y-6897255D01*
G01X5077153Y-7211338D01*
G01X5069443Y-7221386D01*
G01X5064596Y-7233086D01*
G01X5062943Y-7245643D01*
G01X5062943Y-7440817D01*
G01X5052662Y-7443328D01*
G01X5043563Y-7448735D01*
G01X5036442Y-7456565D01*
G01X5031921Y-7466135D01*
G01X4738950Y-7173164D01*
G01X4736891Y-7158944D01*
G01X4731817Y-7145501D01*
G01X4723968Y-7133467D01*
G01X4713710Y-7123405D01*
G01X4701526Y-7115790D01*
G01X4974302Y-6843014D01*
G01X5166959Y-6843014D01*
G01X5166959Y-6863351D01*
G01X5168712Y-6874418D01*
G01X5173799Y-6884401D01*
G01X5181722Y-6892325D01*
G01X5191706Y-6897412D01*
G01X5202773Y-6899165D01*
G01X5316027Y-6899165D01*
G01X5327094Y-6897412D01*
G01X5337078Y-6892325D01*
G01X5345001Y-6884401D01*
G01X5350088Y-6874418D01*
G01X5351841Y-6863351D01*
G01X5351841Y-6725649D01*
G01X5350088Y-6714582D01*
G01X5345001Y-6704599D01*
G01X5337078Y-6696675D01*
G01X5327094Y-6691588D01*
G01X5316027Y-6689835D01*
G01X5202773Y-6689835D01*
G01X5191706Y-6691588D01*
G01X5181722Y-6696675D01*
G01X5173799Y-6704599D01*
G01X5168712Y-6714582D01*
G01X5166959Y-6725649D01*
G01X5166959Y-6745986D01*
G01X4954207Y-6745986D01*
G01X4941650Y-6747639D01*
G01X4929950Y-6752486D01*
G01X4919902Y-6760195D01*
G01X4563095Y-7117002D01*
G01X4558080Y-7122889D01*
G01X4554064Y-7129499D01*
G01X4554064Y-6898698D01*
G01X4563668Y-6895701D01*
G01X4572059Y-6890151D01*
G01X4578576Y-6882486D01*
G01X4582704Y-6873312D01*
G01X4584117Y-6863351D01*
G01X4584117Y-6725649D01*
G01X4582364Y-6714582D01*
G01X4577277Y-6704599D01*
G01X4569354Y-6696675D01*
G01X4559370Y-6691588D01*
G01X4548303Y-6689835D01*
G01X4540225Y-6689835D01*
G01X4540225Y-6095597D01*
G01X4873976Y-6095597D01*
G01X4875728Y-6106665D01*
G01X4880815Y-6116648D01*
G01X4888739Y-6124572D01*
G01X4898722Y-6129659D01*
G01X4909790Y-6131411D01*
G01X5156789Y-6131411D01*
G01X5167856Y-6129659D01*
G01X5177840Y-6124572D01*
G01X5185763Y-6116648D01*
G01X5190850Y-6106665D01*
G01X5192603Y-6095597D01*
G01X5192603Y-5997597D01*
G01X5190850Y-5986529D01*
G01X5185763Y-5976546D01*
G01X5177840Y-5968622D01*
G01X5167856Y-5963535D01*
G01X5156789Y-5961783D01*
G01X4909790Y-5961783D01*
G01X4898722Y-5963535D01*
G01X4888739Y-5968622D01*
G01X4880815Y-5976546D01*
G01X4875728Y-5986529D01*
G01X4873976Y-5997597D01*
G01X4873976Y-6095597D01*
G01X4873976Y-6095597D01*
G01X4540225Y-6095597D01*
G01X4540225Y-6032414D01*
G01X4589810Y-6032414D01*
G01X4600878Y-6030661D01*
G01X4610861Y-6025574D01*
G01X4618785Y-6017651D01*
G01X4623872Y-6007667D01*
G01X4625624Y-5996600D01*
G01X4625624Y-5865114D01*
G01X4873976Y-5865114D01*
G01X4873976Y-5865600D01*
G01X4875728Y-5876668D01*
G01X4880815Y-5886651D01*
G01X4888739Y-5894575D01*
G01X4898722Y-5899662D01*
G01X4909790Y-5901414D01*
G01X5156789Y-5901414D01*
G01X5167856Y-5899662D01*
G01X5177840Y-5894575D01*
G01X5185763Y-5886651D01*
G01X5190850Y-5876668D01*
G01X5192603Y-5865600D01*
G01X5192603Y-5767600D01*
G01X5190850Y-5756532D01*
G01X5185763Y-5746549D01*
G01X5177840Y-5738625D01*
G01X5167856Y-5733538D01*
G01X5156789Y-5731786D01*
G01X4909790Y-5731786D01*
G01X4898722Y-5733538D01*
G01X4888739Y-5738625D01*
G01X4880815Y-5746549D01*
G01X4875728Y-5756532D01*
G01X4873976Y-5767600D01*
G01X4873976Y-5768086D01*
G01X4785614Y-5768086D01*
G01X4785614Y-5366795D01*
G01X4985795Y-5166614D01*
G01X5334944Y-5166614D01*
G01X5332900Y-5181246D01*
G01X5334146Y-5195967D01*
G01X5338620Y-5210047D01*
G01X5346101Y-5222787D01*
G01X5356216Y-5233554D01*
G01X5368465Y-5241815D01*
G01X5382238Y-5247159D01*
G01X5396853Y-5249321D01*
G01X5491885Y-5344352D01*
G01X5501932Y-5352062D01*
G01X5513633Y-5356909D01*
G01X5526189Y-5358562D01*
G01X6325190Y-5358562D01*
G01X6326251Y-5366260D01*
G01X6328948Y-5373548D01*
G01X6326131Y-5381328D01*
G01X6325175Y-5389547D01*
G01X6325175Y-5484548D01*
G01X6326131Y-5492767D01*
G01X6328948Y-5500548D01*
G01X6326131Y-5508328D01*
G01X6325175Y-5516547D01*
G01X6325175Y-5611548D01*
G01X6326131Y-5619767D01*
G01X6328948Y-5627548D01*
G01X6326131Y-5635328D01*
G01X6325175Y-5643547D01*
G01X6325175Y-5738548D01*
G01X6326928Y-5749615D01*
G01X6332015Y-5759599D01*
G01X6339938Y-5767522D01*
G01X6349922Y-5772609D01*
G01X6360989Y-5774362D01*
G01X6570989Y-5774362D01*
G01X6582056Y-5772609D01*
G01X6592040Y-5767522D01*
G01X6599963Y-5759599D01*
G01X6605050Y-5749615D01*
G01X6606803Y-5738548D01*
G01X6606803Y-5643547D01*
G01X6605847Y-5635328D01*
G01X6603030Y-5627548D01*
G01X6605847Y-5619767D01*
G01X6606803Y-5611548D01*
G01X6606803Y-5516547D01*
G01X6605847Y-5508328D01*
G01X6603030Y-5500548D01*
G01X6605847Y-5492767D01*
G01X6606803Y-5484548D01*
G01X6606803Y-5389547D01*
G01X6605847Y-5381328D01*
G01X6603030Y-5373548D01*
G01X6605847Y-5365767D01*
G01X6606803Y-5357548D01*
G01X6606803Y-5262547D01*
G01X6605847Y-5254328D01*
G01X6603030Y-5246548D01*
G01X6605847Y-5238767D01*
G01X6606803Y-5230548D01*
G01X6606803Y-5135547D01*
G01X6605847Y-5127328D01*
G01X6603030Y-5119548D01*
G01X6605847Y-5111767D01*
G01X6606803Y-5103548D01*
G01X6606803Y-5008547D01*
G01X6605847Y-5000328D01*
G01X6603030Y-4992548D01*
G01X6605847Y-4984767D01*
G01X6606803Y-4976548D01*
G01X6606803Y-4881547D01*
G01X6605847Y-4873328D01*
G01X6603030Y-4865548D01*
G01X6605847Y-4857767D01*
G01X6606803Y-4849548D01*
G01X6606803Y-4754547D01*
G01X6605847Y-4746328D01*
G01X6603030Y-4738548D01*
G01X6605847Y-4730767D01*
G01X6606803Y-4722548D01*
G01X6606803Y-4627547D01*
G01X6605847Y-4619328D01*
G01X6603030Y-4611548D01*
G01X6605847Y-4603767D01*
G01X6606803Y-4595548D01*
G01X6606803Y-4500547D01*
G01X6605847Y-4492328D01*
G01X6603030Y-4484548D01*
G01X6605847Y-4476767D01*
G01X6606803Y-4468548D01*
G01X6606803Y-4373547D01*
G01X6605847Y-4365328D01*
G01X6603030Y-4357548D01*
G01X6605847Y-4349767D01*
G01X6606803Y-4341548D01*
G01X6606803Y-4246547D01*
G01X6605847Y-4238328D01*
G01X6603030Y-4230548D01*
G01X6605727Y-4223260D01*
G01X6606789Y-4215562D01*
G01X7004694Y-4215562D01*
G01X7376457Y-4587325D01*
G01X7311005Y-4587325D01*
G01X7301882Y-4588507D01*
G01X7293360Y-4591974D01*
G01X7286003Y-4597497D01*
G01X7278645Y-4591974D01*
G01X7270124Y-4588507D01*
G01X7261000Y-4587325D01*
G01X7171000Y-4587325D01*
G01X7161877Y-4588507D01*
G01X7153355Y-4591974D01*
G01X7145998Y-4597497D01*
G01X7138641Y-4591974D01*
G01X7130119Y-4588507D01*
G01X7120995Y-4587325D01*
G01X7030996Y-4587325D01*
G01X7019928Y-4589078D01*
G01X7009945Y-4594165D01*
G01X7002021Y-4602088D01*
G01X6996934Y-4612072D01*
G01X6995182Y-4623139D01*
G01X6995182Y-4713139D01*
G01X6996363Y-4722263D01*
G01X6999830Y-4730784D01*
G01X7005353Y-4738141D01*
G01X6999830Y-4745499D01*
G01X6996363Y-4754020D01*
G01X6995182Y-4763144D01*
G01X6995182Y-4853144D01*
G01X6996363Y-4862267D01*
G01X6999830Y-4870789D01*
G01X7005353Y-4878146D01*
G01X6999830Y-4885503D01*
G01X6996363Y-4894025D01*
G01X6995182Y-4903149D01*
G01X6995182Y-4993149D01*
G01X6996934Y-5004216D01*
G01X7002021Y-5014199D01*
G01X7009945Y-5022123D01*
G01X7019928Y-5027210D01*
G01X7030996Y-5028963D01*
G01X7120995Y-5028963D01*
G01X7130119Y-5027781D01*
G01X7138641Y-5024314D01*
G01X7145998Y-5018791D01*
G01X7153355Y-5024314D01*
G01X7161877Y-5027781D01*
G01X7171000Y-5028963D01*
G01X7261000Y-5028963D01*
G01X7270124Y-5027781D01*
G01X7278645Y-5024314D01*
G01X7286003Y-5018791D01*
G01X7293360Y-5024314D01*
G01X7301882Y-5027781D01*
G01X7311005Y-5028963D01*
G01X7401005Y-5028963D01*
G01X7412072Y-5027210D01*
G01X7422056Y-5022123D01*
G01X7429979Y-5014199D01*
G01X7435066Y-5004216D01*
G01X7436819Y-4993149D01*
G01X7436819Y-4903149D01*
G01X7435637Y-4894025D01*
G01X7432171Y-4885503D01*
G01X7426647Y-4878146D01*
G01X7432171Y-4870789D01*
G01X7435637Y-4862267D01*
G01X7436819Y-4853144D01*
G01X7436819Y-4763144D01*
G01X7435637Y-4754020D01*
G01X7432171Y-4745499D01*
G01X7426647Y-4738141D01*
G01X7432171Y-4730784D01*
G01X7435637Y-4722263D01*
G01X7436819Y-4713139D01*
G01X7436819Y-4647687D01*
G01X8025316Y-5236184D01*
G01X8027588Y-5251210D01*
G01X8033221Y-5265324D01*
G01X8041920Y-5277786D01*
G01X8053227Y-5287939D01*
G01X8066548Y-5295252D01*
G01X8081185Y-5299341D01*
G01X8096368Y-5299989D01*
G01X8111300Y-5297165D01*
G01X8125197Y-5291015D01*
G01X8125197Y-5357548D01*
G01X8126153Y-5365767D01*
G01X8128970Y-5373548D01*
G01X8126153Y-5381328D01*
G01X8125197Y-5389547D01*
G01X8125197Y-5422554D01*
G01X8109713Y-5421648D01*
G01X8094443Y-5424364D01*
G01X8080221Y-5430553D01*
G01X8067825Y-5439876D01*
G01X8057935Y-5451824D01*
G01X8051090Y-5465742D01*
G01X8047665Y-5480869D01*
G01X8047848Y-5496379D01*
G01X8051628Y-5511421D01*
G01X8058799Y-5525174D01*
G01X8068969Y-5536885D01*
G01X8081580Y-5545913D01*
G01X8095944Y-5551765D01*
G01X8111275Y-5554121D01*
G01X8125197Y-5568043D01*
G01X8125197Y-5611548D01*
G01X8126153Y-5619767D01*
G01X8128970Y-5627548D01*
G01X8126153Y-5635328D01*
G01X8125197Y-5643547D01*
G01X8125197Y-5738548D01*
G01X8126533Y-5748239D01*
G01X8130441Y-5757207D01*
G01X8136630Y-5764782D01*
G01X8020827Y-5880586D01*
G01X8020827Y-5735552D01*
G01X8019074Y-5724485D01*
G01X8013987Y-5714501D01*
G01X8006064Y-5706578D01*
G01X7996080Y-5701491D01*
G01X7985013Y-5699738D01*
G01X7890012Y-5699738D01*
G01X7881793Y-5700694D01*
G01X7874013Y-5703511D01*
G01X7866232Y-5700694D01*
G01X7858013Y-5699738D01*
G01X7763012Y-5699738D01*
G01X7754793Y-5700694D01*
G01X7747013Y-5703511D01*
G01X7739232Y-5700694D01*
G01X7731013Y-5699738D01*
G01X7636012Y-5699738D01*
G01X7627793Y-5700694D01*
G01X7620013Y-5703511D01*
G01X7612232Y-5700694D01*
G01X7604013Y-5699738D01*
G01X7509012Y-5699738D01*
G01X7500793Y-5700694D01*
G01X7493013Y-5703511D01*
G01X7485232Y-5700694D01*
G01X7477013Y-5699738D01*
G01X7382012Y-5699738D01*
G01X7373793Y-5700694D01*
G01X7366013Y-5703511D01*
G01X7358232Y-5700694D01*
G01X7350013Y-5699738D01*
G01X7255012Y-5699738D01*
G01X7246793Y-5700694D01*
G01X7239013Y-5703511D01*
G01X7231232Y-5700694D01*
G01X7223013Y-5699738D01*
G01X7128012Y-5699738D01*
G01X7119793Y-5700694D01*
G01X7112013Y-5703511D01*
G01X7104232Y-5700694D01*
G01X7096013Y-5699738D01*
G01X7001012Y-5699738D01*
G01X6992793Y-5700694D01*
G01X6985013Y-5703511D01*
G01X6977232Y-5700694D01*
G01X6969013Y-5699738D01*
G01X6874012Y-5699738D01*
G01X6865793Y-5700694D01*
G01X6858013Y-5703511D01*
G01X6850232Y-5700694D01*
G01X6842013Y-5699738D01*
G01X6747012Y-5699738D01*
G01X6735945Y-5701491D01*
G01X6725961Y-5706578D01*
G01X6718038Y-5714501D01*
G01X6712951Y-5724485D01*
G01X6711198Y-5735552D01*
G01X6711198Y-5945552D01*
G01X6712951Y-5956619D01*
G01X6718038Y-5966603D01*
G01X6725961Y-5974526D01*
G01X6735945Y-5979613D01*
G01X6747012Y-5981366D01*
G01X6842013Y-5981366D01*
G01X6850232Y-5980410D01*
G01X6858013Y-5977594D01*
G01X6865793Y-5980410D01*
G01X6874012Y-5981366D01*
G01X6969013Y-5981366D01*
G01X6977232Y-5980410D01*
G01X6985013Y-5977594D01*
G01X6992793Y-5980410D01*
G01X7001012Y-5981366D01*
G01X7096013Y-5981366D01*
G01X7104232Y-5980410D01*
G01X7112013Y-5977594D01*
G01X7119793Y-5980410D01*
G01X7128012Y-5981366D01*
G01X7223013Y-5981366D01*
G01X7231232Y-5980410D01*
G01X7239013Y-5977594D01*
G01X7246793Y-5980410D01*
G01X7255012Y-5981366D01*
G01X7350013Y-5981366D01*
G01X7358232Y-5980410D01*
G01X7366013Y-5977594D01*
G01X7373793Y-5980410D01*
G01X7382012Y-5981366D01*
G01X7477013Y-5981366D01*
G01X7485232Y-5980410D01*
G01X7493013Y-5977594D01*
G01X7500793Y-5980410D01*
G01X7509012Y-5981366D01*
G01X7604013Y-5981366D01*
G01X7612232Y-5980410D01*
G01X7620013Y-5977594D01*
G01X7627793Y-5980410D01*
G01X7636012Y-5981366D01*
G01X7731013Y-5981366D01*
G01X7739232Y-5980410D01*
G01X7747013Y-5977594D01*
G01X7754793Y-5980410D01*
G01X7763012Y-5981366D01*
G01X7858013Y-5981366D01*
G01X7866232Y-5980410D01*
G01X7874013Y-5977594D01*
G01X7881793Y-5980410D01*
G01X7890012Y-5981366D01*
G01X7920047Y-5981366D01*
G01X7790427Y-6110986D01*
G01X7607300Y-6110986D01*
G01X7594744Y-6112639D01*
G01X7583043Y-6117486D01*
G01X7572995Y-6125195D01*
G01X7180896Y-6517295D01*
G01X7173186Y-6527343D01*
G01X7168339Y-6539043D01*
G01X7166686Y-6551600D01*
G01X7166686Y-6689835D01*
G01X7158573Y-6689835D01*
G01X7147506Y-6691588D01*
G01X7137522Y-6696675D01*
G01X7129599Y-6704599D01*
G01X7124512Y-6714582D01*
G01X7122759Y-6725649D01*
G01X7122759Y-6863351D01*
G01X7124512Y-6874418D01*
G01X7129599Y-6884401D01*
G01X7137522Y-6892325D01*
G01X7147506Y-6897412D01*
G01X7158573Y-6899165D01*
G01X7271827Y-6899165D01*
G01X7282894Y-6897412D01*
G01X7292878Y-6892325D01*
G01X7300801Y-6884401D01*
G01X7305888Y-6874418D01*
G01X7307641Y-6863351D01*
G01X7307641Y-6725649D01*
G01X7322759Y-6725649D01*
G01X7322759Y-6863351D01*
G01X7324512Y-6874418D01*
G01X7329599Y-6884401D01*
G01X7337522Y-6892325D01*
G01X7347506Y-6897412D01*
G01X7358573Y-6899165D01*
G01X7451255Y-6899165D01*
G01X7500919Y-6948829D01*
G01X7494286Y-6962043D01*
G01X7490746Y-6976399D01*
G01X7490475Y-6991183D01*
G01X7493486Y-7005659D01*
G01X7499630Y-7019108D01*
G01X7508601Y-7030862D01*
G01X7519954Y-7040335D01*
G01X7533124Y-7047057D01*
G01X7547455Y-7050694D01*
G01X7562237Y-7051065D01*
G01X7562237Y-7051065D01*
G01X7576733Y-7048152D01*
G01X7590223Y-7042099D01*
G01X7602037Y-7033207D01*
G01X7611587Y-7021919D01*
G01X7618398Y-7008795D01*
G01X7622132Y-6994488D01*
G01X7622603Y-6979710D01*
G01X7619787Y-6965194D01*
G01X7613826Y-6951664D01*
G01X7605014Y-6939790D01*
G01X7605014Y-6935800D01*
G01X7603361Y-6923244D01*
G01X7598514Y-6911543D01*
G01X7590805Y-6901496D01*
G01X7507641Y-6818332D01*
G01X7507641Y-6725649D01*
G01X7505888Y-6714582D01*
G01X7500801Y-6704599D01*
G01X7492878Y-6696675D01*
G01X7482894Y-6691588D01*
G01X7471827Y-6689835D01*
G01X7358573Y-6689835D01*
G01X7347506Y-6691588D01*
G01X7337522Y-6696675D01*
G01X7329599Y-6704599D01*
G01X7324512Y-6714582D01*
G01X7322759Y-6725649D01*
G01X7307641Y-6725649D01*
G01X7305888Y-6714582D01*
G01X7300801Y-6704599D01*
G01X7292878Y-6696675D01*
G01X7282894Y-6691588D01*
G01X7271827Y-6689835D01*
G01X7263714Y-6689835D01*
G01X7263714Y-6571695D01*
G01X7627395Y-6208014D01*
G01X7810522Y-6208014D01*
G01X7823078Y-6206361D01*
G01X7834779Y-6201514D01*
G01X7844827Y-6193805D01*
G01X8264269Y-5774362D01*
G01X8369897Y-5774362D01*
G01X8369897Y-6329994D01*
G01X7451255Y-7248635D01*
G01X7358573Y-7248635D01*
G01X7347506Y-7250388D01*
G01X7337522Y-7255475D01*
G01X7329599Y-7263399D01*
G01X7324512Y-7273382D01*
G01X7322759Y-7284449D01*
G01X7322759Y-7422151D01*
G01X7324512Y-7433218D01*
G01X7329599Y-7443201D01*
G01X7337522Y-7451125D01*
G01X7347506Y-7456212D01*
G01X7358573Y-7457965D01*
G01X7471827Y-7457965D01*
G01X7480954Y-7456782D01*
G01X7489479Y-7453312D01*
G01X7344803Y-7597988D01*
G01X7330533Y-7593223D01*
G01X7315556Y-7591798D01*
G01X7300644Y-7593784D01*
G01X7286563Y-7599081D01*
G01X7274038Y-7607415D01*
G01X7263714Y-7618358D01*
G01X7263714Y-7457965D01*
G01X7271827Y-7457965D01*
G01X7282894Y-7456212D01*
G01X7292878Y-7451125D01*
G01X7300801Y-7443201D01*
G01X7305888Y-7433218D01*
G01X7307641Y-7422151D01*
G01X7307641Y-7284449D01*
G01X7305888Y-7273382D01*
G01X7300801Y-7263399D01*
G01X7292878Y-7255475D01*
G01X7282894Y-7250388D01*
G01X7271827Y-7248635D01*
G01X7251189Y-7248635D01*
G01X7254267Y-7233617D01*
G01X7253815Y-7218294D01*
G01X7249855Y-7203483D01*
G01X7242601Y-7189978D01*
G01X7232439Y-7178499D01*
G01X7219913Y-7169661D01*
G01X7205692Y-7163935D01*
G01X7190536Y-7161627D01*
G01X5716715Y-5687806D01*
G01X5716715Y-5582600D01*
G01X5714962Y-5571533D01*
G01X5709875Y-5561549D01*
G01X5701951Y-5553626D01*
G01X5691968Y-5548539D01*
G01X5680901Y-5546786D01*
G01X5545900Y-5546786D01*
G01X5534832Y-5548539D01*
G01X5524849Y-5553626D01*
G01X5516925Y-5561549D01*
G01X5511838Y-5571533D01*
G01X5510086Y-5582600D01*
G01X5510086Y-5604586D01*
G01X5192603Y-5604586D01*
G01X5192603Y-5537603D01*
G01X5190850Y-5526535D01*
G01X5185763Y-5516552D01*
G01X5177840Y-5508628D01*
G01X5167856Y-5503541D01*
G01X5156789Y-5501789D01*
G01X4909790Y-5501789D01*
G01X4898722Y-5503541D01*
G01X4888739Y-5508628D01*
G01X4880815Y-5516552D01*
G01X4875728Y-5526535D01*
G01X4873976Y-5537603D01*
G01X4873976Y-5635603D01*
G01X4875728Y-5646671D01*
G01X4880815Y-5656654D01*
G01X4888739Y-5664578D01*
G01X4898722Y-5669665D01*
G01X4909790Y-5671417D01*
G01X5049495Y-5671417D01*
G01X5065482Y-5687405D01*
G01X5075530Y-5695115D01*
G01X5087230Y-5699961D01*
G01X5099787Y-5701614D01*
G01X5510086Y-5701614D01*
G01X5510086Y-5723600D01*
G01X5511933Y-5734956D01*
G01X5517286Y-5745139D01*
G01X5525591Y-5753100D01*
G01X5517286Y-5761061D01*
G01X5511933Y-5771244D01*
G01X5510086Y-5782600D01*
G01X5510086Y-5923600D01*
G01X5511838Y-5934667D01*
G01X5516925Y-5944651D01*
G01X5524849Y-5952574D01*
G01X5534832Y-5957661D01*
G01X5545900Y-5959414D01*
G01X5680901Y-5959414D01*
G01X5691968Y-5957661D01*
G01X5701951Y-5952574D01*
G01X5709875Y-5944651D01*
G01X5714962Y-5934667D01*
G01X5716715Y-5923600D01*
G01X5716715Y-5825024D01*
G01X7121927Y-7230236D01*
G01X7123218Y-7241127D01*
G01X7126287Y-7251656D01*
G01X7131049Y-7261535D01*
G01X7126527Y-7268459D01*
G01X7123714Y-7276235D01*
G01X7122759Y-7284449D01*
G01X7122759Y-7422151D01*
G01X7124512Y-7433218D01*
G01X7129599Y-7443201D01*
G01X7137522Y-7451125D01*
G01X7147506Y-7456212D01*
G01X7158573Y-7457965D01*
G01X7166686Y-7457965D01*
G01X7166686Y-7698531D01*
G01X7157532Y-7709990D01*
G01X7151119Y-7723180D01*
G01X7147763Y-7737457D01*
G01X7147628Y-7752122D01*
G01X7150719Y-7766459D01*
G01X7156885Y-7779766D01*
G01X7165826Y-7791391D01*
G01X7177104Y-7800768D01*
G01X7190167Y-7807435D01*
G01X7158573Y-7807435D01*
G01X7147506Y-7809188D01*
G01X7137522Y-7814275D01*
G01X7129599Y-7822199D01*
G01X7124512Y-7832182D01*
G01X7122759Y-7843249D01*
G01X7122759Y-7957450D01*
G01X6721486Y-7556177D01*
G01X6711439Y-7548468D01*
G01X6699738Y-7543621D01*
G01X6687182Y-7541968D01*
G01X6554592Y-7541968D01*
G01X6542416Y-7532982D01*
G01X6528520Y-7526990D01*
G01X6513627Y-7524304D01*
G01X6498514Y-7525064D01*
G01X6498514Y-7456614D01*
G01X6520500Y-7456614D01*
G01X6531567Y-7454862D01*
G01X6541551Y-7449775D01*
G01X6549474Y-7441851D01*
G01X6554561Y-7431868D01*
G01X6556314Y-7420800D01*
G01X6556314Y-7285799D01*
G01X6554561Y-7274732D01*
G01X6549474Y-7264749D01*
G01X6541551Y-7256825D01*
G01X6531567Y-7251738D01*
G01X6520500Y-7249985D01*
G01X6379500Y-7249985D01*
G01X6368144Y-7251833D01*
G01X6357961Y-7257186D01*
G01X6350000Y-7265491D01*
G01X6342039Y-7257186D01*
G01X6331856Y-7251833D01*
G01X6320500Y-7249985D01*
G01X6179500Y-7249985D01*
G01X6168433Y-7251738D01*
G01X6158449Y-7256825D01*
G01X6150526Y-7264749D01*
G01X6145439Y-7274732D01*
G01X6143686Y-7285799D01*
G01X6143686Y-7420800D01*
G01X6145439Y-7431868D01*
G01X6150526Y-7441851D01*
G01X6158449Y-7449775D01*
G01X6168433Y-7454862D01*
G01X6179500Y-7456614D01*
G01X6320500Y-7456614D01*
G01X6331856Y-7454767D01*
G01X6342039Y-7449414D01*
G01X6350000Y-7441109D01*
G01X6357961Y-7449414D01*
G01X6368144Y-7454767D01*
G01X6379500Y-7456614D01*
G01X6401486Y-7456614D01*
G01X6401486Y-7807902D01*
G01X6391882Y-7810899D01*
G01X6383490Y-7816449D01*
G01X6376973Y-7824114D01*
G01X6372846Y-7833288D01*
G01X6371433Y-7843249D01*
G01X6371433Y-7980951D01*
G01X6373185Y-7992018D01*
G01X6378272Y-8002001D01*
G01X6386196Y-8009925D01*
G01X6396179Y-8015012D01*
G01X6407247Y-8016765D01*
G01X6520500Y-8016765D01*
G01X6531567Y-8015012D01*
G01X6541551Y-8009925D01*
G01X6549474Y-8002001D01*
G01X6554561Y-7992018D01*
G01X6556314Y-7980951D01*
G01X6556314Y-7960614D01*
G01X6824778Y-7960614D01*
G01X7063301Y-8199137D01*
G01X7065615Y-8214318D01*
G01X7071360Y-8228560D01*
G01X7080226Y-8241099D01*
G01X7091738Y-8251262D01*
G01X7105280Y-8258504D01*
G01X7120124Y-8262438D01*
G01X7135475Y-8262852D01*
G01X7150510Y-8259723D01*
G01X7164422Y-8253220D01*
G01X7176465Y-8243692D01*
G01X7185994Y-8231649D01*
G01X7192496Y-8217737D01*
G01X7195625Y-8202702D01*
G01X7195211Y-8187351D01*
G01X7191278Y-8172507D01*
G01X7184035Y-8158965D01*
G01X7173872Y-8147453D01*
G01X7161333Y-8138586D01*
G01X7147092Y-8132842D01*
G01X7131910Y-8130528D01*
G01X6879178Y-7877795D01*
G01X6869130Y-7870086D01*
G01X6857430Y-7865239D01*
G01X6844873Y-7863586D01*
G01X6556314Y-7863586D01*
G01X6556314Y-7843249D01*
G01X6554561Y-7832182D01*
G01X6549474Y-7822199D01*
G01X6541551Y-7814275D01*
G01X6531567Y-7809188D01*
G01X6520500Y-7807435D01*
G01X6498514Y-7807435D01*
G01X6498514Y-7655899D01*
G01X6513627Y-7656660D01*
G01X6528520Y-7653974D01*
G01X6542416Y-7647982D01*
G01X6554592Y-7638996D01*
G01X6667087Y-7638996D01*
G01X7228495Y-8200405D01*
G01X7238543Y-8208114D01*
G01X7250243Y-8212961D01*
G01X7262800Y-8214614D01*
G01X7378700Y-8214614D01*
G01X7391256Y-8212961D01*
G01X7402957Y-8208114D01*
G01X7413005Y-8200405D01*
G01X7449504Y-8163905D01*
G01X7457214Y-8153857D01*
G01X7462061Y-8142157D01*
G01X7463714Y-8129600D01*
G01X7463714Y-8016765D01*
G01X7471827Y-8016765D01*
G01X7482894Y-8015012D01*
G01X7492878Y-8009925D01*
G01X7500801Y-8002001D01*
G01X7505888Y-7992018D01*
G01X7507641Y-7980951D01*
G01X7507641Y-7843249D01*
G01X7505888Y-7832182D01*
G01X7500801Y-7822199D01*
G01X7492878Y-7814275D01*
G01X7482894Y-7809188D01*
G01X7471827Y-7807435D01*
G01X7388474Y-7807435D01*
G01X7918708Y-7277202D01*
G01X8050977Y-7277202D01*
G01X8052895Y-7301576D01*
G01X8058603Y-7325351D01*
G01X8067960Y-7347940D01*
G01X8080735Y-7368787D01*
G01X8096614Y-7387379D01*
G01X8115206Y-7403258D01*
G01X8136053Y-7416033D01*
G01X8158642Y-7425389D01*
G01X8182416Y-7431097D01*
G01X8206791Y-7433015D01*
G01X8231165Y-7431097D01*
G01X8254940Y-7425389D01*
G01X8277529Y-7416033D01*
G01X8298376Y-7403258D01*
G01X8316968Y-7387379D01*
G01X8332847Y-7368787D01*
G01X8345622Y-7347940D01*
G01X8354978Y-7325351D01*
G01X8360686Y-7301576D01*
G01X8362605Y-7277202D01*
G01X8360686Y-7252827D01*
G01X8354978Y-7229053D01*
G01X8345622Y-7206464D01*
G01X8332847Y-7185617D01*
G01X8316968Y-7167025D01*
G01X8298376Y-7151146D01*
G01X8277529Y-7138371D01*
G01X8254940Y-7129014D01*
G01X8231165Y-7123306D01*
G01X8206791Y-7121388D01*
G01X8182416Y-7123306D01*
G01X8158642Y-7129014D01*
G01X8136053Y-7138371D01*
G01X8115206Y-7151146D01*
G01X8096614Y-7167025D01*
G01X8080735Y-7185617D01*
G01X8067960Y-7206464D01*
G01X8058603Y-7229053D01*
G01X8052895Y-7252827D01*
G01X8050977Y-7277202D01*
G01X8050977Y-7277202D01*
G01X7918708Y-7277202D01*
G01X8458886Y-6737024D01*
G01X8458886Y-7358605D01*
G01X7451255Y-8366235D01*
G01X7358573Y-8366235D01*
G01X7347506Y-8367988D01*
G01X7337522Y-8373075D01*
G01X7329599Y-8380999D01*
G01X7324512Y-8390982D01*
G01X7322759Y-8402049D01*
G01X7322759Y-8539751D01*
G01X7324512Y-8550818D01*
G01X7329599Y-8560801D01*
G01X7337522Y-8568725D01*
G01X7347506Y-8573812D01*
G01X7358573Y-8575565D01*
G01X7471827Y-8575565D01*
G01X7482894Y-8573812D01*
G01X7492878Y-8568725D01*
G01X7500801Y-8560801D01*
G01X7505888Y-8550818D01*
G01X7507641Y-8539751D01*
G01X7507641Y-8447068D01*
G01X8541704Y-7413005D01*
G01X8549414Y-7402957D01*
G01X8554261Y-7391256D01*
G01X8555914Y-7378700D01*
G01X8555914Y-7301347D01*
G01X8757338Y-7301347D01*
G01X8757338Y-7320874D01*
G01X8760926Y-7340068D01*
G01X8767979Y-7358276D01*
G01X8778259Y-7374878D01*
G01X8791414Y-7389308D01*
G01X8806996Y-7401075D01*
G01X8824476Y-7409779D01*
G01X8843257Y-7415123D01*
G01X8862700Y-7416924D01*
G01X8942700Y-7416924D01*
G01X8962095Y-7415132D01*
G01X8980834Y-7409814D01*
G01X8998280Y-7401152D01*
G01X9013843Y-7389439D01*
G01X9013843Y-8659356D01*
G01X9001619Y-8642327D01*
G01X8986635Y-8627668D01*
G01X8969344Y-8615819D01*
G01X8950264Y-8607138D01*
G01X8929971Y-8601885D01*
G01X8909076Y-8600219D01*
G01X8888207Y-8602190D01*
G01X8867993Y-8607738D01*
G01X8849042Y-8616697D01*
G01X8831925Y-8628796D01*
G01X8817157Y-8643672D01*
G01X8805182Y-8660877D01*
G01X8796362Y-8679893D01*
G01X8790961Y-8700147D01*
G01X8789143Y-8721030D01*
G01X8790961Y-8741912D01*
G01X8796362Y-8762166D01*
G01X8805182Y-8781182D01*
G01X8817157Y-8798387D01*
G01X8831925Y-8813263D01*
G01X8849042Y-8825363D01*
G01X8867993Y-8834321D01*
G01X8888207Y-8839869D01*
G01X8909076Y-8841840D01*
G01X8929971Y-8840174D01*
G01X8950264Y-8834921D01*
G01X8969344Y-8826240D01*
G01X8986635Y-8814391D01*
G01X9001619Y-8799732D01*
G01X9013843Y-8782704D01*
G01X9013843Y-8913356D01*
G01X9001619Y-8896327D01*
G01X8986635Y-8881668D01*
G01X8969344Y-8869819D01*
G01X8950264Y-8861138D01*
G01X8929971Y-8855885D01*
G01X8909076Y-8854219D01*
G01X8888207Y-8856190D01*
G01X8867993Y-8861738D01*
G01X8849042Y-8870697D01*
G01X8831925Y-8882796D01*
G01X8817157Y-8897672D01*
G01X8805182Y-8914877D01*
G01X8796362Y-8933893D01*
G01X8790961Y-8954147D01*
G01X8789143Y-8975030D01*
G01X8790961Y-8995912D01*
G01X8796362Y-9016166D01*
G01X8805182Y-9035182D01*
G01X8817157Y-9052387D01*
G01X8831925Y-9067263D01*
G01X8849042Y-9079363D01*
G01X8867993Y-9088321D01*
G01X8888207Y-9093869D01*
G01X8909076Y-9095840D01*
G01X8929971Y-9094174D01*
G01X8950264Y-9088921D01*
G01X8969344Y-9080240D01*
G01X8986635Y-9068391D01*
G01X9001619Y-9053732D01*
G01X9013843Y-9036704D01*
G01X9013843Y-9056534D01*
G01X8962161Y-9108216D01*
G01X8824957Y-9108216D01*
G01X8813890Y-9109969D01*
G01X8803906Y-9115056D01*
G01X8795983Y-9122979D01*
G01X8790896Y-9132963D01*
G01X8789143Y-9144030D01*
G01X8789143Y-9314029D01*
G01X8790896Y-9325097D01*
G01X8795983Y-9335080D01*
G01X8803906Y-9343004D01*
G01X8813890Y-9348091D01*
G01X8824957Y-9349843D01*
G01X8994957Y-9349843D01*
G01X9006024Y-9348091D01*
G01X9016008Y-9343004D01*
G01X9023931Y-9335080D01*
G01X9029018Y-9325097D01*
G01X9030771Y-9314029D01*
G01X9030771Y-9176825D01*
G01X9096661Y-9110934D01*
G01X9104371Y-9100887D01*
G01X9109218Y-9089186D01*
G01X9110871Y-9076630D01*
G01X9110871Y-7055757D01*
G01X9109218Y-7043200D01*
G01X9104371Y-7031500D01*
G01X9096661Y-7021452D01*
G01X9008396Y-6933187D01*
G01X9013330Y-6913653D01*
G01X9014685Y-6893552D01*
G01X9012417Y-6873532D01*
G01X9006600Y-6854243D01*
G01X8997421Y-6836308D01*
G01X8985178Y-6820307D01*
G01X8970267Y-6806759D01*
G01X8953170Y-6796100D01*
G01X8971007Y-6784877D01*
G01X8986427Y-6770511D01*
G01X8998882Y-6753512D01*
G01X9007934Y-6734480D01*
G01X9013260Y-6714090D01*
G01X9014673Y-6693063D01*
G01X9012122Y-6672143D01*
G01X9005698Y-6652072D01*
G01X8995628Y-6633559D01*
G01X8982269Y-6617260D01*
G01X8966094Y-6603751D01*
G01X8947674Y-6593512D01*
G01X8927662Y-6586903D01*
G01X8942700Y-6586903D01*
G01X8962143Y-6585102D01*
G01X8980924Y-6579758D01*
G01X8998404Y-6571054D01*
G01X9013986Y-6559287D01*
G01X9027141Y-6544856D01*
G01X9037421Y-6528255D01*
G01X9044474Y-6510047D01*
G01X9048062Y-6490853D01*
G01X9048062Y-6471326D01*
G01X9044474Y-6452132D01*
G01X9037421Y-6433924D01*
G01X9027141Y-6417322D01*
G01X9013986Y-6402892D01*
G01X8998404Y-6391125D01*
G01X8980924Y-6382421D01*
G01X8962143Y-6377077D01*
G01X8942700Y-6375276D01*
G01X8862700Y-6375276D01*
G01X8843257Y-6377077D01*
G01X8824476Y-6382421D01*
G01X8806996Y-6391125D01*
G01X8791414Y-6402892D01*
G01X8778259Y-6417322D01*
G01X8767979Y-6433924D01*
G01X8760926Y-6452132D01*
G01X8757338Y-6471326D01*
G01X8757338Y-6490853D01*
G01X8760926Y-6510047D01*
G01X8767979Y-6528255D01*
G01X8778259Y-6544856D01*
G01X8791414Y-6559287D01*
G01X8806996Y-6571054D01*
G01X8824476Y-6579758D01*
G01X8843257Y-6585102D01*
G01X8862700Y-6586903D01*
G01X8877738Y-6586903D01*
G01X8857726Y-6593512D01*
G01X8839306Y-6603751D01*
G01X8823131Y-6617260D01*
G01X8809772Y-6633559D01*
G01X8799702Y-6652072D01*
G01X8793278Y-6672143D01*
G01X8790727Y-6693063D01*
G01X8792140Y-6714090D01*
G01X8797466Y-6734480D01*
G01X8806518Y-6753512D01*
G01X8818973Y-6770511D01*
G01X8834393Y-6784877D01*
G01X8852230Y-6796100D01*
G01X8852230Y-6796100D01*
G01X8834795Y-6807016D01*
G01X8819650Y-6820935D01*
G01X8807305Y-6837390D01*
G01X8798177Y-6855824D01*
G01X8792575Y-6875617D01*
G01X8790686Y-6896100D01*
G01X8792575Y-6916583D01*
G01X8798177Y-6936376D01*
G01X8807305Y-6954810D01*
G01X8819650Y-6971265D01*
G01X8834795Y-6985184D01*
G01X8852230Y-6996100D01*
G01X8835594Y-7006412D01*
G01X8821007Y-7019462D01*
G01X8808913Y-7034852D01*
G01X8799684Y-7052113D01*
G01X8793600Y-7070716D01*
G01X8790847Y-7090095D01*
G01X8791509Y-7109657D01*
G01X8795567Y-7128805D01*
G01X8802895Y-7146954D01*
G01X8813271Y-7163551D01*
G01X8826378Y-7178088D01*
G01X8841815Y-7190122D01*
G01X8859111Y-7199284D01*
G01X8877738Y-7205297D01*
G01X8862700Y-7205297D01*
G01X8843257Y-7207098D01*
G01X8824476Y-7212442D01*
G01X8806996Y-7221146D01*
G01X8791414Y-7232913D01*
G01X8778259Y-7247344D01*
G01X8767979Y-7263945D01*
G01X8760926Y-7282153D01*
G01X8757338Y-7301347D01*
G01X8555914Y-7301347D01*
G01X8555914Y-5397500D01*
G01X8554966Y-5387957D01*
G01X8552160Y-5378787D01*
G01X8547604Y-5370348D01*
G01X8556887Y-5365164D01*
G01X8565221Y-5358562D01*
G01X8623452Y-5358562D01*
G01X8636009Y-5356909D01*
G01X8647709Y-5352062D01*
G01X8657757Y-5344352D01*
G01X8665045Y-5337065D01*
G01X8757727Y-5337065D01*
G01X8768794Y-5335312D01*
G01X8778778Y-5330225D01*
G01X8786701Y-5322301D01*
G01X8791788Y-5312318D01*
G01X8793541Y-5301251D01*
G01X8793541Y-5163549D01*
G01X8792221Y-5153915D01*
G01X8788357Y-5144990D01*
G01X8782235Y-5137434D01*
G01X8774305Y-5131804D01*
G01X8765154Y-5128514D01*
G01X8806405Y-5128514D01*
G01X8817678Y-5139787D01*
G01X8812767Y-5146895D01*
G01X8809701Y-5154973D01*
G01X8808659Y-5163549D01*
G01X8808659Y-5301251D01*
G01X8810412Y-5312318D01*
G01X8815499Y-5322301D01*
G01X8823422Y-5330225D01*
G01X8833406Y-5335312D01*
G01X8844473Y-5337065D01*
G01X8957727Y-5337065D01*
G01X8968794Y-5335312D01*
G01X8978778Y-5330225D01*
G01X8986701Y-5322301D01*
G01X8991788Y-5312318D01*
G01X8993541Y-5301251D01*
G01X8993541Y-5163549D01*
G01X8991788Y-5152482D01*
G01X8986701Y-5142499D01*
G01X8978778Y-5134575D01*
G01X8968794Y-5129488D01*
G01X8957727Y-5127735D01*
G01X8941497Y-5127735D01*
G01X8935404Y-5120295D01*
G01X8860805Y-5045695D01*
G01X8850757Y-5037986D01*
G01X8839056Y-5033139D01*
G01X8826500Y-5031486D01*
G01X8623300Y-5031486D01*
G01X8610744Y-5033139D01*
G01X8599043Y-5037986D01*
G01X8588995Y-5045695D01*
G01X8505114Y-5129577D01*
G01X8505114Y-4533900D01*
G01X8503461Y-4521344D01*
G01X8498614Y-4509643D01*
G01X8490904Y-4499595D01*
G01X8406825Y-4415516D01*
G01X8406825Y-4373547D01*
G01X8405869Y-4365328D01*
G01X8403052Y-4357548D01*
G01X8405869Y-4349767D01*
G01X8406825Y-4341548D01*
G01X8406825Y-4246547D01*
G01X8405869Y-4238328D01*
G01X8403052Y-4230548D01*
G01X8405869Y-4222767D01*
G01X8406825Y-4214548D01*
G01X8406825Y-4119547D01*
G01X8405869Y-4111328D01*
G01X8403052Y-4103548D01*
G01X8405869Y-4095767D01*
G01X8406825Y-4087548D01*
G01X8406825Y-3992547D01*
G01X8405072Y-3981480D01*
G01X8399985Y-3971496D01*
G01X8392062Y-3963573D01*
G01X8382078Y-3958486D01*
G01X8371011Y-3956733D01*
G01X8161011Y-3956733D01*
G01X8149944Y-3958486D01*
G01X8139960Y-3963573D01*
G01X8132037Y-3971496D01*
G01X8126950Y-3981480D01*
G01X8125197Y-3992547D01*
G01X8125197Y-4087548D01*
G01X8126153Y-4095767D01*
G01X8128970Y-4103548D01*
G01X8126153Y-4111328D01*
G01X8125197Y-4119547D01*
G01X8125197Y-4214548D01*
G01X8126153Y-4222767D01*
G01X8128970Y-4230548D01*
G01X8126273Y-4237836D01*
G01X8125211Y-4245534D01*
G01X7397106Y-4245534D01*
G01X6496915Y-3345343D01*
G01X6486868Y-3337633D01*
G01X6475167Y-3332787D01*
G01X6462611Y-3331134D01*
G01X2424252Y-3331134D01*
G01X2411696Y-3332787D01*
G01X2399995Y-3337633D01*
G01X2389948Y-3345343D01*
G01X2346479Y-3388812D01*
G01X2325902Y-3382362D01*
G01X2304526Y-3379521D01*
G01X2282978Y-3380372D01*
G01X2261893Y-3384891D01*
G01X2241889Y-3392943D01*
G01X2223553Y-3404294D01*
G01X2207426Y-3418608D01*
G01X2193979Y-3435467D01*
G01X2183609Y-3454374D01*
G01X2176621Y-3474774D01*
G01X2173218Y-3496068D01*
G01X2173502Y-3517631D01*
G01X2177464Y-3538828D01*
G01X2184987Y-3559037D01*
G01X2195851Y-3577665D01*
G01X2209736Y-3594164D01*
G01X2226235Y-3608049D01*
G01X2244863Y-3618913D01*
G01X2265072Y-3626436D01*
G01X2286269Y-3630398D01*
G01X2307832Y-3630682D01*
G01X2329126Y-3627279D01*
G01X2349526Y-3620291D01*
G01X2368433Y-3609921D01*
G01X2385292Y-3596474D01*
G01X2399606Y-3580347D01*
G01X2410957Y-3562011D01*
G01X2419009Y-3542007D01*
G01X2423528Y-3520922D01*
G01X2424379Y-3499374D01*
G01X2421538Y-3477998D01*
G01X2415088Y-3457421D01*
G01X2444347Y-3428162D01*
G01X2453230Y-3428162D01*
G01X2441654Y-3446058D01*
G01X2433264Y-3465651D01*
G01X2428302Y-3486379D01*
G01X2426910Y-3507647D01*
G01X2429128Y-3528845D01*
G01X2434893Y-3549365D01*
G01X2444038Y-3568617D01*
G01X2456302Y-3586049D01*
G01X2471333Y-3601161D01*
G01X2488698Y-3613518D01*
G01X2507901Y-3622768D01*
G01X2528389Y-3628643D01*
G01X2549575Y-3630975D01*
G01X2570850Y-3629698D01*
G01X2591605Y-3624848D01*
G01X2611243Y-3616564D01*
G01X2629201Y-3605084D01*
G01X2644963Y-3590737D01*
G01X2658078Y-3573936D01*
G01X2668168Y-3555162D01*
G01X6493316Y-3555162D01*
G01X7647506Y-4709352D01*
G01X7657554Y-4717062D01*
G01X7669255Y-4721909D01*
G01X7681811Y-4723562D01*
G01X8125211Y-4723562D01*
G01X8126273Y-4731260D01*
G01X8128970Y-4738548D01*
G01X8126153Y-4746328D01*
G01X8125197Y-4754547D01*
G01X8125197Y-4849548D01*
G01X8126153Y-4857767D01*
G01X8128970Y-4865548D01*
G01X8126153Y-4873328D01*
G01X8125197Y-4881547D01*
G01X8125197Y-4976548D01*
G01X8126153Y-4984767D01*
G01X8128970Y-4992548D01*
G01X8126153Y-5000328D01*
G01X8125197Y-5008547D01*
G01X8125197Y-5103548D01*
G01X8126153Y-5111767D01*
G01X8128970Y-5119548D01*
G01X8126153Y-5127328D01*
G01X8125197Y-5135547D01*
G01X8125197Y-5176681D01*
G01X8115325Y-5171927D01*
G01X8104806Y-5168864D01*
G01X8093925Y-5167575D01*
G01X7059094Y-4132743D01*
G01X7049046Y-4125033D01*
G01X7037345Y-4120187D01*
G01X7024789Y-4118534D01*
G01X6606789Y-4118534D01*
G01X6605727Y-4110836D01*
G01X6603030Y-4103548D01*
G01X6605847Y-4095767D01*
G01X6606803Y-4087548D01*
G01X6606803Y-3992547D01*
G01X6605050Y-3981480D01*
G01X6599963Y-3971496D01*
G01X6592040Y-3963573D01*
G01X6582056Y-3958486D01*
G01X6570989Y-3956733D01*
G01X6360989Y-3956733D01*
G01X6349922Y-3958486D01*
G01X6339938Y-3963573D01*
G01X6332015Y-3971496D01*
G01X6326928Y-3981480D01*
G01X6325175Y-3992547D01*
G01X6325175Y-4087548D01*
G01X6326131Y-4095767D01*
G01X6328948Y-4103548D01*
G01X6326251Y-4110836D01*
G01X6325190Y-4118534D01*
G01X6125683Y-4118534D01*
G01X6113127Y-4120187D01*
G01X6101426Y-4125033D01*
G01X6091379Y-4132743D01*
G01X5985105Y-4239017D01*
G01X5879899Y-4239017D01*
G01X5868544Y-4240865D01*
G01X5858361Y-4246218D01*
G01X5850400Y-4254523D01*
G01X5842439Y-4246218D01*
G01X5832255Y-4240865D01*
G01X5820900Y-4239017D01*
G01X5679900Y-4239017D01*
G01X5668833Y-4240770D01*
G01X5658849Y-4245857D01*
G01X5650926Y-4253780D01*
G01X5645839Y-4263764D01*
G01X5644086Y-4274831D01*
G01X5644086Y-4409832D01*
G01X5645839Y-4420899D01*
G01X5650926Y-4430883D01*
G01X5658849Y-4438806D01*
G01X5668833Y-4443893D01*
G01X5679900Y-4445646D01*
G01X5820900Y-4445646D01*
G01X5832255Y-4443798D01*
G01X5842439Y-4438446D01*
G01X5850400Y-4430140D01*
G01X5857461Y-4437746D01*
G01X5866407Y-4443007D01*
G01X5876486Y-4445483D01*
G01X5876486Y-4837149D01*
G01X5866407Y-4839624D01*
G01X5857461Y-4844886D01*
G01X5850400Y-4852491D01*
G01X5842439Y-4844186D01*
G01X5832255Y-4838833D01*
G01X5820900Y-4836985D01*
G01X5679900Y-4836985D01*
G01X5668833Y-4838738D01*
G01X5658849Y-4843825D01*
G01X5650926Y-4851749D01*
G01X5645839Y-4861732D01*
G01X5644086Y-4872799D01*
G01X5644086Y-5007800D01*
G01X5645839Y-5018868D01*
G01X5650926Y-5028851D01*
G01X5658849Y-5036775D01*
G01X5668833Y-5041862D01*
G01X5679900Y-5043614D01*
G01X5820900Y-5043614D01*
G01X5832111Y-5041815D01*
G01X5842195Y-5036596D01*
G01X5809205Y-5069586D01*
G01X4965700Y-5069586D01*
G01X4953144Y-5071239D01*
G01X4941443Y-5076086D01*
G01X4931395Y-5083795D01*
G01X4702795Y-5312395D01*
G01X4695086Y-5322443D01*
G01X4690239Y-5334144D01*
G01X4688586Y-5346700D01*
G01X4688586Y-5768086D01*
G01X4625624Y-5768086D01*
G01X4625624Y-5636600D01*
G01X4623872Y-5625533D01*
G01X4618785Y-5615549D01*
G01X4610861Y-5607626D01*
G01X4600878Y-5602539D01*
G01X4589810Y-5600786D01*
G01X4342811Y-5600786D01*
G01X4331744Y-5602539D01*
G01X4321760Y-5607626D01*
G01X4313837Y-5615549D01*
G01X4308750Y-5625533D01*
G01X4306997Y-5636600D01*
G01X4306997Y-5868086D01*
G01X4091115Y-5868086D01*
G01X4091115Y-5846100D01*
G01X4089267Y-5834744D01*
G01X4083914Y-5824561D01*
G01X4075609Y-5816600D01*
G01X4083914Y-5808639D01*
G01X4089267Y-5798456D01*
G01X4091115Y-5787100D01*
G01X4091115Y-5646100D01*
G01X4089362Y-5635033D01*
G01X4084275Y-5625049D01*
G01X4076351Y-5617126D01*
G01X4066368Y-5612039D01*
G01X4055301Y-5610286D01*
G01X3920300Y-5610286D01*
G01X3909232Y-5612039D01*
G01X3899249Y-5617126D01*
G01X3891325Y-5625049D01*
G01X3886238Y-5635033D01*
G01X3884486Y-5646100D01*
G01X3884486Y-5787100D01*
G01X3886333Y-5798456D01*
G01X3891686Y-5808639D01*
G01X3899991Y-5816600D01*
G01X3891686Y-5824561D01*
G01X3886333Y-5834744D01*
G01X3884486Y-5846100D01*
G01X3884486Y-5878603D01*
G01X2106341Y-5878603D01*
G01X2106341Y-4756498D01*
G01X4331876Y-4756498D01*
G01X4333787Y-4778345D01*
G01X4339464Y-4799529D01*
G01X4348732Y-4819405D01*
G01X4361311Y-4837370D01*
G01X4376818Y-4852877D01*
G01X4394783Y-4865456D01*
G01X4414659Y-4874724D01*
G01X4435842Y-4880400D01*
G01X4457690Y-4882312D01*
G01X4479537Y-4880400D01*
G01X4500721Y-4874724D01*
G01X4520597Y-4865456D01*
G01X4538561Y-4852877D01*
G01X4554069Y-4837370D01*
G01X4566648Y-4819405D01*
G01X4575916Y-4799529D01*
G01X4581592Y-4778345D01*
G01X4583504Y-4756498D01*
G01X4585876Y-4756498D01*
G01X4587787Y-4778345D01*
G01X4593464Y-4799529D01*
G01X4602732Y-4819405D01*
G01X4615311Y-4837370D01*
G01X4630818Y-4852877D01*
G01X4648783Y-4865456D01*
G01X4668659Y-4874724D01*
G01X4689842Y-4880400D01*
G01X4711690Y-4882312D01*
G01X4733537Y-4880400D01*
G01X4754721Y-4874724D01*
G01X4774597Y-4865456D01*
G01X4792561Y-4852877D01*
G01X4808069Y-4837370D01*
G01X4820648Y-4819405D01*
G01X4829916Y-4799529D01*
G01X4835592Y-4778345D01*
G01X4837504Y-4756498D01*
G01X4839876Y-4756498D01*
G01X4841787Y-4778345D01*
G01X4847464Y-4799529D01*
G01X4856732Y-4819405D01*
G01X4869311Y-4837370D01*
G01X4884818Y-4852877D01*
G01X4902783Y-4865456D01*
G01X4922659Y-4874724D01*
G01X4943842Y-4880400D01*
G01X4965690Y-4882312D01*
G01X4987537Y-4880400D01*
G01X5008721Y-4874724D01*
G01X5028597Y-4865456D01*
G01X5046561Y-4852877D01*
G01X5062069Y-4837370D01*
G01X5074648Y-4819405D01*
G01X5083916Y-4799529D01*
G01X5089592Y-4778345D01*
G01X5091504Y-4756498D01*
G01X5089592Y-4734651D01*
G01X5083916Y-4713467D01*
G01X5074648Y-4693591D01*
G01X5062069Y-4675626D01*
G01X5046561Y-4660119D01*
G01X5028597Y-4647540D01*
G01X5008721Y-4638272D01*
G01X4987537Y-4632596D01*
G01X4965690Y-4630684D01*
G01X4943842Y-4632596D01*
G01X4922659Y-4638272D01*
G01X4902783Y-4647540D01*
G01X4884818Y-4660119D01*
G01X4869311Y-4675626D01*
G01X4856732Y-4693591D01*
G01X4847464Y-4713467D01*
G01X4841787Y-4734651D01*
G01X4839876Y-4756498D01*
G01X4839876Y-4756498D01*
G01X4837504Y-4756498D01*
G01X4835592Y-4734651D01*
G01X4829916Y-4713467D01*
G01X4820648Y-4693591D01*
G01X4808069Y-4675626D01*
G01X4792561Y-4660119D01*
G01X4774597Y-4647540D01*
G01X4754721Y-4638272D01*
G01X4733537Y-4632596D01*
G01X4711690Y-4630684D01*
G01X4689842Y-4632596D01*
G01X4668659Y-4638272D01*
G01X4648783Y-4647540D01*
G01X4630818Y-4660119D01*
G01X4615311Y-4675626D01*
G01X4602732Y-4693591D01*
G01X4593464Y-4713467D01*
G01X4587787Y-4734651D01*
G01X4585876Y-4756498D01*
G01X4585876Y-4756498D01*
G01X4583504Y-4756498D01*
G01X4581592Y-4734651D01*
G01X4575916Y-4713467D01*
G01X4566648Y-4693591D01*
G01X4554069Y-4675626D01*
G01X4538561Y-4660119D01*
G01X4520597Y-4647540D01*
G01X4500721Y-4638272D01*
G01X4479537Y-4632596D01*
G01X4457690Y-4630684D01*
G01X4435842Y-4632596D01*
G01X4414659Y-4638272D01*
G01X4394783Y-4647540D01*
G01X4376818Y-4660119D01*
G01X4361311Y-4675626D01*
G01X4348732Y-4693591D01*
G01X4339464Y-4713467D01*
G01X4333787Y-4734651D01*
G01X4331876Y-4756498D01*
G01X4331876Y-4756498D01*
G01X2106341Y-4756498D01*
G01X2106341Y-3996487D01*
G01X3950882Y-3996487D01*
G01X3950882Y-4016487D01*
G01X3952753Y-4043831D01*
G01X3958329Y-4070666D01*
G01X3967507Y-4096491D01*
G01X3980117Y-4120826D01*
G01X3995923Y-4143218D01*
G01X4014630Y-4163249D01*
G01X4035891Y-4180545D01*
G01X4059309Y-4194786D01*
G01X4084448Y-4205706D01*
G01X4110839Y-4213100D01*
G01X4137992Y-4216832D01*
G01X4165400Y-4216832D01*
G01X4192553Y-4213100D01*
G01X4218944Y-4205706D01*
G01X4244083Y-4194786D01*
G01X4267501Y-4180545D01*
G01X4288762Y-4163249D01*
G01X4307469Y-4143218D01*
G01X4323275Y-4120826D01*
G01X4335885Y-4096491D01*
G01X4345063Y-4070666D01*
G01X4350639Y-4043831D01*
G01X4352510Y-4016487D01*
G01X4352510Y-3996487D01*
G01X5070870Y-3996487D01*
G01X5070870Y-4016487D01*
G01X5072740Y-4043831D01*
G01X5078317Y-4070666D01*
G01X5087495Y-4096491D01*
G01X5100105Y-4120826D01*
G01X5115910Y-4143218D01*
G01X5134618Y-4163249D01*
G01X5155878Y-4180545D01*
G01X5179296Y-4194786D01*
G01X5204435Y-4205706D01*
G01X5230827Y-4213100D01*
G01X5257980Y-4216832D01*
G01X5285388Y-4216832D01*
G01X5312540Y-4213100D01*
G01X5338932Y-4205706D01*
G01X5364071Y-4194786D01*
G01X5387489Y-4180545D01*
G01X5408750Y-4163249D01*
G01X5427457Y-4143218D01*
G01X5443263Y-4120826D01*
G01X5455872Y-4096491D01*
G01X5465051Y-4070666D01*
G01X5470627Y-4043831D01*
G01X5472497Y-4016487D01*
G01X5472497Y-3996487D01*
G01X5470627Y-3969143D01*
G01X5465051Y-3942308D01*
G01X5455872Y-3916482D01*
G01X5443263Y-3892147D01*
G01X5427457Y-3869756D01*
G01X5408750Y-3849725D01*
G01X5387489Y-3832428D01*
G01X5364071Y-3818187D01*
G01X5338932Y-3807268D01*
G01X5312540Y-3799873D01*
G01X5285388Y-3796141D01*
G01X5257980Y-3796141D01*
G01X5230827Y-3799873D01*
G01X5204435Y-3807268D01*
G01X5179296Y-3818187D01*
G01X5155878Y-3832428D01*
G01X5134618Y-3849725D01*
G01X5115910Y-3869756D01*
G01X5100105Y-3892147D01*
G01X5087495Y-3916482D01*
G01X5078317Y-3942308D01*
G01X5072740Y-3969143D01*
G01X5070870Y-3996487D01*
G01X5070870Y-3996487D01*
G01X4352510Y-3996487D01*
G01X4350639Y-3969143D01*
G01X4345063Y-3942308D01*
G01X4335885Y-3916482D01*
G01X4323275Y-3892147D01*
G01X4307469Y-3869756D01*
G01X4288762Y-3849725D01*
G01X4267501Y-3832428D01*
G01X4244083Y-3818187D01*
G01X4218944Y-3807268D01*
G01X4192553Y-3799873D01*
G01X4165400Y-3796141D01*
G01X4137992Y-3796141D01*
G01X4110839Y-3799873D01*
G01X4084448Y-3807268D01*
G01X4059309Y-3818187D01*
G01X4035891Y-3832428D01*
G01X4014630Y-3849725D01*
G01X3995923Y-3869756D01*
G01X3980117Y-3892147D01*
G01X3967507Y-3916482D01*
G01X3958329Y-3942308D01*
G01X3952753Y-3969143D01*
G01X3950882Y-3996487D01*
G01X3950882Y-3996487D01*
G01X2106341Y-3996487D01*
G01X2106341Y-3614879D01*
G01X2124148Y-3602755D01*
G01X2139627Y-3587771D01*
G01X2152322Y-3570366D01*
G01X2161862Y-3551051D01*
G01X2167966Y-3530391D01*
G01X2170457Y-3508992D01*
G01X2169260Y-3487482D01*
G01X2164411Y-3466492D01*
G01X2156053Y-3446637D01*
G01X2144429Y-3428498D01*
G01X2129882Y-3412609D01*
G01X2112837Y-3399434D01*
G01X2093795Y-3389360D01*
G01X2073313Y-3382683D01*
G01X2051992Y-3379598D01*
G01X2030457Y-3380195D01*
G01X2009340Y-3384457D01*
G01X1989259Y-3392260D01*
G01X1970804Y-3403374D01*
G01X1954516Y-3417473D01*
G01X1940872Y-3434145D01*
G01X1930272Y-3452899D01*
G01X1923027Y-3473188D01*
G01X1919349Y-3494414D01*
G01X1919347Y-3515957D01*
G01X1923020Y-3537185D01*
G01X1930260Y-3557475D01*
G01X1940856Y-3576232D01*
G01X1954497Y-3592907D01*
G01X1970782Y-3607010D01*
G01X1989234Y-3618128D01*
G01X2009313Y-3625935D01*
G01X2009313Y-5884463D01*
G01X1998122Y-5892812D01*
G01X1210722Y-6680212D01*
G01X1203012Y-6690260D01*
G01X1198166Y-6701960D01*
G01X1196513Y-6714517D01*
G01X1196513Y-7247917D01*
G01X1196513Y-7247917D01*
G01X162560Y-7247917D01*
G01X162560Y-6768998D01*
G01X882995Y-6768998D01*
G01X884914Y-6793373D01*
G01X890622Y-6817147D01*
G01X899978Y-6839736D01*
G01X912753Y-6860583D01*
G01X928632Y-6879175D01*
G01X947224Y-6895054D01*
G01X968071Y-6907829D01*
G01X990660Y-6917186D01*
G01X1014435Y-6922894D01*
G01X1038809Y-6924812D01*
G01X1063184Y-6922894D01*
G01X1086958Y-6917186D01*
G01X1109547Y-6907829D01*
G01X1130394Y-6895054D01*
G01X1148986Y-6879175D01*
G01X1164865Y-6860583D01*
G01X1177640Y-6839736D01*
G01X1186997Y-6817147D01*
G01X1192705Y-6793373D01*
G01X1194623Y-6768998D01*
G01X1192705Y-6744624D01*
G01X1186997Y-6720849D01*
G01X1177640Y-6698260D01*
G01X1164865Y-6677413D01*
G01X1148986Y-6658821D01*
G01X1130394Y-6642942D01*
G01X1109547Y-6630167D01*
G01X1086958Y-6620811D01*
G01X1063184Y-6615103D01*
G01X1038809Y-6613185D01*
G01X1014435Y-6615103D01*
G01X990660Y-6620811D01*
G01X968071Y-6630167D01*
G01X947224Y-6642942D01*
G01X928632Y-6658821D01*
G01X912753Y-6677413D01*
G01X899978Y-6698260D01*
G01X890622Y-6720849D01*
G01X884914Y-6744624D01*
G01X882995Y-6768998D01*
G01X882995Y-6768998D01*
G01X162560Y-6768998D01*
G01X162560Y-3505200D01*
G01X1664886Y-3505200D01*
G01X1666798Y-3527047D01*
G01X1672474Y-3548231D01*
G01X1681742Y-3568107D01*
G01X1694321Y-3586072D01*
G01X1709828Y-3601579D01*
G01X1727793Y-3614158D01*
G01X1747669Y-3623426D01*
G01X1768853Y-3629102D01*
G01X1790700Y-3631014D01*
G01X1812547Y-3629102D01*
G01X1833731Y-3623426D01*
G01X1853607Y-3614158D01*
G01X1871572Y-3601579D01*
G01X1887079Y-3586072D01*
G01X1899658Y-3568107D01*
G01X1908926Y-3548231D01*
G01X1914602Y-3527047D01*
G01X1916514Y-3505200D01*
G01X1914602Y-3483353D01*
G01X1908926Y-3462169D01*
G01X1899658Y-3442293D01*
G01X1887079Y-3424328D01*
G01X1871572Y-3408821D01*
G01X1853607Y-3396242D01*
G01X1833731Y-3386974D01*
G01X1812547Y-3381298D01*
G01X1790700Y-3379386D01*
G01X1768853Y-3381298D01*
G01X1747669Y-3386974D01*
G01X1727793Y-3396242D01*
G01X1709828Y-3408821D01*
G01X1694321Y-3424328D01*
G01X1681742Y-3442293D01*
G01X1672474Y-3462169D01*
G01X1666798Y-3483353D01*
G01X1664886Y-3505200D01*
G01X1664886Y-3505200D01*
G01X162560Y-3505200D01*
G01X162560Y-3223260D01*
G01X9142240Y-3223260D01*
G01X9142240Y-9702940D01*
G01X162560Y-9702940D01*
G37*
G36*
G01X2052522Y-5975631D02*
G01X3884486Y-5975631D01*
G01X3884486Y-5987100D01*
G01X3886238Y-5998167D01*
G01X3891325Y-6008151D01*
G01X3899249Y-6016074D01*
G01X3909232Y-6021161D01*
G01X3920300Y-6022914D01*
G01X4055301Y-6022914D01*
G01X4066368Y-6021161D01*
G01X4076351Y-6016074D01*
G01X4084275Y-6008151D01*
G01X4089362Y-5998167D01*
G01X4091115Y-5987100D01*
G01X4091115Y-5965114D01*
G01X4306997Y-5965114D01*
G01X4306997Y-5996600D01*
G01X4308750Y-6007667D01*
G01X4313837Y-6017651D01*
G01X4321760Y-6025574D01*
G01X4331744Y-6030661D01*
G01X4342811Y-6032414D01*
G01X4359070Y-6032414D01*
G01X4355002Y-6044511D01*
G01X4353327Y-6057164D01*
G01X3332705Y-7077786D01*
G01X3296614Y-7077786D01*
G01X3296614Y-7063800D01*
G01X3294861Y-7052733D01*
G01X3289774Y-7042749D01*
G01X3281851Y-7034826D01*
G01X3271867Y-7029739D01*
G01X3260800Y-7027986D01*
G01X3190800Y-7027986D01*
G01X3179733Y-7029739D01*
G01X3169749Y-7034826D01*
G01X3161826Y-7042749D01*
G01X3156739Y-7052733D01*
G01X3154986Y-7063800D01*
G01X3154986Y-7088886D01*
G01X2943003Y-7088886D01*
G01X2944716Y-7074398D01*
G01X2943221Y-7059887D01*
G01X2938588Y-7046053D01*
G01X2931043Y-7033567D01*
G01X2920950Y-7023033D01*
G01X2908798Y-7014961D01*
G01X2895175Y-7009742D01*
G01X2880740Y-7007627D01*
G01X2392009Y-6518895D01*
G01X2381961Y-6511186D01*
G01X2370261Y-6506339D01*
G01X2357704Y-6504686D01*
G01X1587927Y-6504686D01*
G01X1575370Y-6506339D01*
G01X1563670Y-6511186D01*
G01X1553622Y-6518895D01*
G01X1382682Y-6689835D01*
G01X1338317Y-6689835D01*
G01X2052522Y-5975631D01*
G37*
G36*
G01X6472488Y-3458134D02*
G01X2669379Y-3458134D01*
G01X2661808Y-3442554D01*
G01X2652170Y-3428162D01*
G01X6442516Y-3428162D01*
G01X6472488Y-3458134D01*
G37*
G36*
G01X4185695Y-8017586D02*
G01X4022105Y-7853996D01*
G01X4012057Y-7846286D01*
G01X4000356Y-7841439D01*
G01X3987800Y-7839786D01*
G01X3296614Y-7839786D01*
G01X3296614Y-7825800D01*
G01X3294861Y-7814733D01*
G01X3289774Y-7804749D01*
G01X3281851Y-7796826D01*
G01X3271867Y-7791739D01*
G01X3260800Y-7789986D01*
G01X3196095Y-7789986D01*
G01X2880340Y-7474231D01*
G01X3221379Y-7474231D01*
G01X3233935Y-7472578D01*
G01X3245636Y-7467731D01*
G01X3255684Y-7460021D01*
G01X3291091Y-7424614D01*
G01X3350501Y-7424614D01*
G01X3667491Y-7741604D01*
G01X3677539Y-7749314D01*
G01X3689240Y-7754161D01*
G01X3701796Y-7755814D01*
G01X4444525Y-7755814D01*
G01X4440205Y-7770469D01*
G01X4439354Y-7785724D01*
G01X4442016Y-7800769D01*
G01X4435050Y-7800769D01*
G01X4423694Y-7802617D01*
G01X4413511Y-7807969D01*
G01X4405550Y-7816275D01*
G01X4397589Y-7807969D01*
G01X4387406Y-7802617D01*
G01X4376050Y-7800769D01*
G01X4235050Y-7800769D01*
G01X4223983Y-7802522D01*
G01X4213999Y-7807609D01*
G01X4206076Y-7815532D01*
G01X4200989Y-7825516D01*
G01X4199236Y-7836583D01*
G01X4199236Y-7971584D01*
G01X4200989Y-7982651D01*
G01X4206076Y-7992635D01*
G01X4213999Y-8000558D01*
G01X4223983Y-8005645D01*
G01X4235050Y-8007398D01*
G01X4376050Y-8007398D01*
G01X4387406Y-8005550D01*
G01X4397589Y-8000197D01*
G01X4405550Y-7991892D01*
G01X4413511Y-8000197D01*
G01X4423694Y-8005550D01*
G01X4435050Y-8007398D01*
G01X4457036Y-8007398D01*
G01X4457036Y-8153288D01*
G01X4447336Y-8152227D01*
G01X4326905Y-8031796D01*
G01X4316857Y-8024086D01*
G01X4305156Y-8019239D01*
G01X4292600Y-8017586D01*
G01X4185695Y-8017586D01*
G37*
G36*
G01X3045714Y-8782211D02*
G01X3045714Y-8746202D01*
G01X3576095Y-8215820D01*
G01X3637790Y-8215820D01*
G01X3650227Y-8224956D01*
G01X3664438Y-8230970D01*
G01X3679654Y-8233536D01*
G01X3695052Y-8232516D01*
G01X3709797Y-8227965D01*
G01X3723091Y-8220130D01*
G01X3734214Y-8209433D01*
G01X3742564Y-8196456D01*
G01X3747688Y-8181901D01*
G01X3749310Y-8166555D01*
G01X3747341Y-8151250D01*
G01X3741888Y-8136814D01*
G01X3859689Y-8136814D01*
G01X3848715Y-8146946D01*
G01X3840286Y-8159278D01*
G01X3834831Y-8173184D01*
G01X3832627Y-8187957D01*
G01X3461892Y-8558693D01*
G01X3447100Y-8558693D01*
G01X3436033Y-8560445D01*
G01X3426049Y-8565532D01*
G01X3418126Y-8573456D01*
G01X3413039Y-8583439D01*
G01X3411286Y-8594507D01*
G01X3411286Y-8609298D01*
G01X3320005Y-8700579D01*
G01X3238500Y-8700579D01*
G01X3225944Y-8702233D01*
G01X3214243Y-8707079D01*
G01X3204195Y-8714789D01*
G01X3158094Y-8760890D01*
G01X3150385Y-8770937D01*
G01X3145538Y-8782638D01*
G01X3143885Y-8795194D01*
G01X3143885Y-8880382D01*
G01X3045714Y-8782211D01*
G37*
G36*
G01X4443197Y-6121474D02*
G01X4443197Y-6689835D01*
G01X4435050Y-6689835D01*
G01X4423982Y-6691588D01*
G01X4413999Y-6696675D01*
G01X4406075Y-6704599D01*
G01X4400988Y-6714582D01*
G01X4399236Y-6725649D01*
G01X4399236Y-6863351D01*
G01X4400988Y-6874418D01*
G01X4406075Y-6884401D01*
G01X4413999Y-6892325D01*
G01X4423982Y-6897412D01*
G01X4435050Y-6899165D01*
G01X4457036Y-6899165D01*
G01X4457036Y-6942685D01*
G01X4445901Y-6932051D01*
G01X4432615Y-6924271D01*
G01X4417892Y-6919765D01*
G01X4402527Y-6918776D01*
G01X4387348Y-6921356D01*
G01X4373173Y-6927368D01*
G01X4360767Y-6936486D01*
G01X4352608Y-6936486D01*
G01X4340191Y-6924068D01*
G01X4340191Y-6899165D01*
G01X4348303Y-6899165D01*
G01X4359371Y-6897412D01*
G01X4369354Y-6892325D01*
G01X4377278Y-6884401D01*
G01X4382365Y-6874418D01*
G01X4384117Y-6863351D01*
G01X4384117Y-6725649D01*
G01X4382365Y-6714582D01*
G01X4377278Y-6704599D01*
G01X4369354Y-6696675D01*
G01X4359371Y-6691588D01*
G01X4348303Y-6689835D01*
G01X4235050Y-6689835D01*
G01X4223983Y-6691588D01*
G01X4213999Y-6696675D01*
G01X4206076Y-6704599D01*
G01X4200989Y-6714582D01*
G01X4199236Y-6725649D01*
G01X4199236Y-6863351D01*
G01X4200989Y-6874418D01*
G01X4206076Y-6884401D01*
G01X4213999Y-6892325D01*
G01X4223983Y-6897412D01*
G01X4235050Y-6899165D01*
G01X4243163Y-6899165D01*
G01X4243163Y-6944163D01*
G01X4244816Y-6956720D01*
G01X4249662Y-6968420D01*
G01X4257372Y-6978468D01*
G01X4298209Y-7019305D01*
G01X4308256Y-7027014D01*
G01X4319957Y-7031861D01*
G01X4332513Y-7033514D01*
G01X4360767Y-7033514D01*
G01X4373173Y-7042632D01*
G01X4387348Y-7048644D01*
G01X4402527Y-7051224D01*
G01X4417892Y-7050235D01*
G01X4432615Y-7045729D01*
G01X4445901Y-7037949D01*
G01X4457036Y-7027315D01*
G01X4457036Y-7246652D01*
G01X4435050Y-7246652D01*
G01X4423694Y-7248500D01*
G01X4413511Y-7253853D01*
G01X4405550Y-7262158D01*
G01X4397589Y-7253853D01*
G01X4387406Y-7248500D01*
G01X4376050Y-7246652D01*
G01X4235050Y-7246652D01*
G01X4223983Y-7248405D01*
G01X4213999Y-7253492D01*
G01X4206076Y-7261415D01*
G01X4200989Y-7271399D01*
G01X4199236Y-7282466D01*
G01X4199236Y-7417467D01*
G01X4200989Y-7428534D01*
G01X4206076Y-7438518D01*
G01X4213999Y-7446441D01*
G01X4223983Y-7451528D01*
G01X4235050Y-7453281D01*
G01X4376050Y-7453281D01*
G01X4387406Y-7451433D01*
G01X4397589Y-7446081D01*
G01X4405550Y-7437775D01*
G01X4413511Y-7446081D01*
G01X4423694Y-7451433D01*
G01X4435050Y-7453281D01*
G01X4457036Y-7453281D01*
G01X4457036Y-7578567D01*
G01X4458689Y-7591123D01*
G01X4463535Y-7602824D01*
G01X4471245Y-7612871D01*
G01X4490077Y-7631703D01*
G01X4492056Y-7645609D01*
G01X4496919Y-7658786D01*
G01X3721891Y-7658786D01*
G01X3391610Y-7328505D01*
G01X3391610Y-7263799D01*
G01X3389857Y-7252732D01*
G01X3384770Y-7242748D01*
G01X3376847Y-7234825D01*
G01X3366863Y-7229738D01*
G01X3355796Y-7227985D01*
G01X3285796Y-7227985D01*
G01X3274729Y-7229738D01*
G01X3264745Y-7234825D01*
G01X3256822Y-7242748D01*
G01X3251735Y-7252732D01*
G01X3249982Y-7263799D01*
G01X3249982Y-7328505D01*
G01X3201618Y-7376869D01*
G01X3201618Y-7263799D01*
G01X3199865Y-7252732D01*
G01X3194778Y-7242748D01*
G01X3186855Y-7234825D01*
G01X3176871Y-7229738D01*
G01X3165804Y-7227985D01*
G01X3101099Y-7227985D01*
G01X3071677Y-7198564D01*
G01X3070003Y-7185914D01*
G01X3154986Y-7185914D01*
G01X3154986Y-7188801D01*
G01X3156739Y-7199868D01*
G01X3161826Y-7209852D01*
G01X3169749Y-7217775D01*
G01X3179733Y-7222862D01*
G01X3190800Y-7224615D01*
G01X3260800Y-7224615D01*
G01X3271867Y-7222862D01*
G01X3281851Y-7217775D01*
G01X3289774Y-7209852D01*
G01X3294861Y-7199868D01*
G01X3296614Y-7188801D01*
G01X3296614Y-7174814D01*
G01X3352800Y-7174814D01*
G01X3365356Y-7173161D01*
G01X3377057Y-7168315D01*
G01X3387105Y-7160605D01*
G01X4421936Y-6125773D01*
G01X4432743Y-6124499D01*
G01X4443197Y-6121474D01*
G37*
G36*
G01X3258595Y-8797607D02*
G01X3340100Y-8797607D01*
G01X3352656Y-8795954D01*
G01X3364357Y-8791108D01*
G01X3374405Y-8783398D01*
G01X3411286Y-8746517D01*
G01X3411286Y-8804493D01*
G01X3413039Y-8815561D01*
G01X3418126Y-8825544D01*
G01X3426049Y-8833468D01*
G01X3436033Y-8838555D01*
G01X3447100Y-8840307D01*
G01X3487100Y-8840307D01*
G01X3498167Y-8838555D01*
G01X3508151Y-8833468D01*
G01X3516074Y-8825544D01*
G01X3521161Y-8815561D01*
G01X3522914Y-8804493D01*
G01X3522914Y-8744494D01*
G01X3521161Y-8733426D01*
G01X3516074Y-8723443D01*
G01X3508151Y-8715519D01*
G01X3498167Y-8710432D01*
G01X3487100Y-8708680D01*
G01X3449123Y-8708680D01*
G01X3467482Y-8690320D01*
G01X3487100Y-8690320D01*
G01X3498167Y-8688568D01*
G01X3508151Y-8683481D01*
G01X3516074Y-8675557D01*
G01X3521161Y-8665574D01*
G01X3522914Y-8654506D01*
G01X3522914Y-8634889D01*
G01X3901236Y-8256566D01*
G01X3915271Y-8254555D01*
G01X3928557Y-8249606D01*
G01X3940488Y-8241946D01*
G01X3950517Y-8231925D01*
G01X3958187Y-8220001D01*
G01X4102514Y-8364328D01*
G01X4090943Y-8374494D01*
G01X4082030Y-8387054D01*
G01X4076254Y-8401332D01*
G01X4073927Y-8416557D01*
G01X3942016Y-8548468D01*
G01X3933476Y-8553258D01*
G01X3926551Y-8560182D01*
G01X3921761Y-8568723D01*
G01X3789905Y-8700579D01*
G01X3683000Y-8700579D01*
G01X3670444Y-8702233D01*
G01X3658743Y-8707079D01*
G01X3648695Y-8714789D01*
G01X3420398Y-8943086D01*
G01X3327400Y-8943086D01*
G01X3314844Y-8944739D01*
G01X3303143Y-8949586D01*
G01X3293095Y-8957295D01*
G01X3240913Y-9009478D01*
G01X3240913Y-8815290D01*
G01X3258595Y-8797607D01*
G37*
G36*
G01X4879101Y-7672995D02*
G01X4869053Y-7665285D01*
G01X4857352Y-7660439D01*
G01X4844796Y-7658786D01*
G01X4615781Y-7658786D01*
G01X4620795Y-7644998D01*
G01X4622655Y-7630446D01*
G01X4621270Y-7615840D01*
G01X4616707Y-7601897D01*
G01X4609189Y-7589298D01*
G01X4599086Y-7578660D01*
G01X4586891Y-7570504D01*
G01X4573201Y-7565229D01*
G01X4558686Y-7563094D01*
G01X4554064Y-7558472D01*
G01X4554064Y-7453281D01*
G01X4576050Y-7453281D01*
G01X4585884Y-7451905D01*
G01X4594961Y-7447881D01*
G01X4602586Y-7441519D01*
G01X4608170Y-7433309D01*
G01X4611285Y-7423881D01*
G01X4663510Y-7423881D01*
G01X4676074Y-7433276D01*
G01X4690492Y-7439456D01*
G01X4705959Y-7442077D01*
G01X4721609Y-7440991D01*
G01X4736566Y-7436260D01*
G01X4749993Y-7428147D01*
G01X4761139Y-7417107D01*
G01X4769379Y-7403758D01*
G01X4774253Y-7388847D01*
G01X4775488Y-7373208D01*
G01X4773015Y-7357717D01*
G01X4766972Y-7343240D01*
G01X4757698Y-7330587D01*
G01X4745710Y-7320468D01*
G01X4746777Y-7318210D01*
G01X5003341Y-7574774D01*
G01X5011319Y-7581218D01*
G01X5020472Y-7585842D01*
G01X5030393Y-7588438D01*
G01X5030393Y-7604482D01*
G01X5030413Y-7605657D01*
G01X5021896Y-7612445D01*
G01X4996496Y-7637845D01*
G01X4988786Y-7647893D01*
G01X4983939Y-7659594D01*
G01X4982286Y-7672150D01*
G01X4982286Y-7776181D01*
G01X4879101Y-7672995D01*
G37*
G36*
G01X5577655Y-7271481D02*
G01X5839969Y-7533796D01*
G01X5829172Y-7541968D01*
G01X5668009Y-7541968D01*
G01X5668009Y-7526469D01*
G01X5666281Y-7515476D01*
G01X5668009Y-7504483D01*
G01X5668009Y-7476482D01*
G01X5666257Y-7465414D01*
G01X5661170Y-7455431D01*
G01X5653246Y-7447507D01*
G01X5643263Y-7442420D01*
G01X5632195Y-7440668D01*
G01X5627852Y-7440668D01*
G01X5626442Y-7426044D01*
G01X5621847Y-7412091D01*
G01X5614292Y-7399491D01*
G01X5604149Y-7388864D01*
G01X5591914Y-7380731D01*
G01X5578189Y-7375491D01*
G01X5563648Y-7373401D01*
G01X5549003Y-7374565D01*
G01X5549003Y-7357475D01*
G01X5547250Y-7346408D01*
G01X5542163Y-7336424D01*
G01X5534240Y-7328501D01*
G01X5524256Y-7323414D01*
G01X5513189Y-7321661D01*
G01X5485188Y-7321661D01*
G01X5474195Y-7323390D01*
G01X5463202Y-7321661D01*
G01X5440131Y-7321661D01*
G01X5440844Y-7308412D01*
G01X5438905Y-7295286D01*
G01X5434392Y-7282809D01*
G01X5427485Y-7271481D01*
G01X5577655Y-7271481D01*
G37*
G36*
G01X5465462Y-5180712D02*
G01X5463435Y-5166614D01*
G01X5829300Y-5166614D01*
G01X5841856Y-5164961D01*
G01X5853557Y-5160114D01*
G01X5863605Y-5152405D01*
G01X5972395Y-5043614D01*
G01X6020900Y-5043614D01*
G01X6031967Y-5041862D01*
G01X6041951Y-5036775D01*
G01X6049874Y-5028851D01*
G01X6054961Y-5018868D01*
G01X6056714Y-5007800D01*
G01X6056714Y-4918582D01*
G01X6325175Y-5187043D01*
G01X6325175Y-5230548D01*
G01X6326131Y-5238767D01*
G01X6328948Y-5246548D01*
G01X6326251Y-5253836D01*
G01X6325190Y-5261534D01*
G01X5546284Y-5261534D01*
G01X5465462Y-5180712D01*
G37*
G36*
G01X6020900Y-4445646D02*
G01X6031967Y-4443893D01*
G01X6041951Y-4438806D01*
G01X6049874Y-4430883D01*
G01X6054961Y-4420899D01*
G01X6056714Y-4409832D01*
G01X6056714Y-4304627D01*
G01X6145779Y-4215562D01*
G01X6325190Y-4215562D01*
G01X6326251Y-4223260D01*
G01X6328948Y-4230548D01*
G01X6326131Y-4238328D01*
G01X6325175Y-4246547D01*
G01X6325175Y-4288516D01*
G01X6137895Y-4475796D01*
G01X6130186Y-4485843D01*
G01X6125339Y-4497544D01*
G01X6123686Y-4510100D01*
G01X6123686Y-4693490D01*
G01X6117412Y-4701339D01*
G01X6112396Y-4710046D01*
G01X6075062Y-4672712D01*
G01X6073125Y-4658970D01*
G01X6068370Y-4645933D01*
G01X6061007Y-4634171D01*
G01X6051356Y-4624199D01*
G01X6039842Y-4616454D01*
G01X6026968Y-4611274D01*
G01X6013298Y-4608887D01*
G01X5999430Y-4609397D01*
G01X5985972Y-4612783D01*
G01X5973514Y-4618895D01*
G01X5973514Y-4445646D01*
G01X6020900Y-4445646D01*
G37*
G36*
G01X6200854Y-4798504D02*
G01X6213954Y-4790219D01*
G01X6224772Y-4779119D01*
G01X6232719Y-4765812D01*
G01X6237359Y-4751023D01*
G01X6238440Y-4735561D01*
G01X6235902Y-4720270D01*
G01X6229883Y-4705987D01*
G01X6220714Y-4693490D01*
G01X6220714Y-4530195D01*
G01X6325175Y-4425734D01*
G01X6325175Y-4468548D01*
G01X6326131Y-4476767D01*
G01X6328948Y-4484548D01*
G01X6326131Y-4492328D01*
G01X6325175Y-4500547D01*
G01X6325175Y-4595548D01*
G01X6326131Y-4603767D01*
G01X6328948Y-4611548D01*
G01X6326131Y-4619328D01*
G01X6325175Y-4627547D01*
G01X6325175Y-4722548D01*
G01X6326131Y-4730767D01*
G01X6328948Y-4738548D01*
G01X6326131Y-4746328D01*
G01X6325175Y-4754547D01*
G01X6325175Y-4849548D01*
G01X6326131Y-4857767D01*
G01X6328948Y-4865548D01*
G01X6326131Y-4873328D01*
G01X6325175Y-4881547D01*
G01X6325175Y-4922825D01*
G01X6200854Y-4798504D01*
G37*
G36*
G01X8128970Y-4357548D02*
G01X8126153Y-4365328D01*
G01X8125197Y-4373547D01*
G01X8125197Y-4468548D01*
G01X8126153Y-4476767D01*
G01X8128970Y-4484548D01*
G01X8126153Y-4492328D01*
G01X8125197Y-4500547D01*
G01X8125197Y-4595548D01*
G01X8126153Y-4603767D01*
G01X8128970Y-4611548D01*
G01X8126273Y-4618836D01*
G01X8125211Y-4626534D01*
G01X7701906Y-4626534D01*
G01X7417934Y-4342562D01*
G01X8125211Y-4342562D01*
G01X8126273Y-4350260D01*
G01X8128970Y-4357548D01*
G37*
G36*
G01X8411286Y-6647405D02*
G01X7796383Y-7262308D01*
G01X7800199Y-7246410D01*
G01X7800009Y-7230062D01*
G01X7795825Y-7214257D01*
G01X7787901Y-7199956D01*
G01X7776719Y-7188028D01*
G01X7762959Y-7179199D01*
G01X7747457Y-7174004D01*
G01X7731155Y-7172761D01*
G01X7715044Y-7175543D01*
G01X7700103Y-7182183D01*
G01X7687242Y-7192277D01*
G01X7677240Y-7205210D01*
G01X7670707Y-7220198D01*
G01X7668040Y-7236328D01*
G01X7669400Y-7252621D01*
G01X7674705Y-7268086D01*
G01X7502988Y-7439803D01*
G01X7506458Y-7431278D01*
G01X7507641Y-7422151D01*
G01X7507641Y-7329468D01*
G01X8411286Y-6425823D01*
G01X8411286Y-6647405D01*
G37*
G54D10*
G01X162560Y-9702940D02*
G01X162560Y-3223260D01*
G01X9142240Y-3223260D01*
G01X9142240Y-9702940D01*
G01X162560Y-9702940D01*
G01X882995Y-6768998D02*
G03X1194623Y-6768998I155814J0D01*
G03X882995Y-6768998I-155814J0D01*
G01X1196513Y-7247917D02*
G03X1210722Y-7282221I48514J0D01*
G01X1254186Y-7325685D01*
G01X1254186Y-7418367D01*
G03X1290000Y-7454181I35814J0D01*
G01X1298113Y-7454181D01*
G01X1298113Y-7799869D01*
G01X1290000Y-7799869D01*
G03X1254186Y-7835683I0J-35814D01*
G01X1254186Y-7973384D01*
G03X1290000Y-8009198I35814J0D01*
G01X1403253Y-8009198D01*
G03X1439067Y-7973384I0J35814D01*
G01X1439067Y-7835683D01*
G03X1403253Y-7799869I-35814J0D01*
G01X1395141Y-7799869D01*
G01X1395141Y-7454181D01*
G01X1403253Y-7454181D01*
G03X1439067Y-7418367I0J35814D01*
G01X1439067Y-7280666D01*
G03X1403253Y-7244852I-35814J0D01*
G01X1310571Y-7244852D01*
G01X1293541Y-7227822D01*
G01X1293541Y-6899165D01*
G01X1403253Y-6899165D01*
G03X1439067Y-6863351I0J35814D01*
G01X1439067Y-6770668D01*
G01X1454186Y-6755550D01*
G01X1454186Y-6863351D01*
G03X1490000Y-6899165I35814J0D01*
G01X1603253Y-6899165D01*
G03X1639067Y-6863351I0J35814D01*
G01X1639067Y-6853950D01*
G01X1759753Y-6974636D01*
G03X1796071Y-7031463I66273J2336D01*
G01X1582682Y-7244852D01*
G01X1490000Y-7244852D01*
G03X1454186Y-7280666I0J-35814D01*
G01X1454186Y-7418367D01*
G03X1490000Y-7454181I35814J0D01*
G01X1603253Y-7454181D01*
G03X1639067Y-7418367I0J35814D01*
G01X1639067Y-7325685D01*
G01X2052769Y-6911984D01*
G01X2140473Y-6911984D01*
G03X2176287Y-6876170I0J35814D01*
G01X2176287Y-6736216D01*
G03X2140473Y-6700402I-35814J0D01*
G01X2040473Y-6700402D01*
G03X2004659Y-6736216I0J-35814D01*
G01X2004659Y-6822874D01*
G01X1885189Y-6942345D01*
G03X1828363Y-6906027I-59163J-29955D01*
G01X1682531Y-6760195D01*
G03X1648226Y-6745986I-34305J-34305D01*
G01X1639067Y-6745986D01*
G01X1639067Y-6725649D01*
G03X1603253Y-6689835I-35814J0D01*
G01X1519900Y-6689835D01*
G01X1608022Y-6601714D01*
G01X2337609Y-6601714D01*
G01X2812131Y-7076236D01*
G03X2813806Y-7088886I66273J2336D01*
G01X2057400Y-7088886D01*
G03X2023095Y-7103095I0J-48514D01*
G01X1526195Y-7599996D01*
G03X1511986Y-7634300I34305J-34305D01*
G01X1511986Y-7799869D01*
G01X1490000Y-7799869D01*
G03X1454186Y-7835683I0J-35814D01*
G01X1454186Y-7973384D01*
G03X1490000Y-8009198I35814J0D01*
G01X1511986Y-8009198D01*
G01X1511986Y-8354885D01*
G01X1490000Y-8354885D01*
G03X1460500Y-8370391I0J-35814D01*
G03X1431000Y-8354885I-29500J-20308D01*
G01X1290000Y-8354885D01*
G03X1254186Y-8390699I0J-35814D01*
G01X1254186Y-8525700D01*
G03X1290000Y-8561514I35814J0D01*
G01X1431000Y-8561514D01*
G03X1460500Y-8546009I0J35814D01*
G03X1490000Y-8561514I29500J20308D01*
G01X1511986Y-8561514D01*
G01X1511986Y-8861523D01*
G01X1364816Y-9008693D01*
G01X1237611Y-9008693D01*
G03X1201797Y-9044507I0J-35814D01*
G01X1201797Y-9174507D01*
G03X1237611Y-9210321I35814J0D01*
G01X1427611Y-9210321D01*
G03X1463425Y-9174507I0J35814D01*
G01X1463425Y-9158021D01*
G01X2041775Y-9158021D01*
G01X2041775Y-9174507D01*
G03X2077589Y-9210321I35814J0D01*
G01X2267589Y-9210321D01*
G03X2303403Y-9174507I0J35814D01*
G01X2303403Y-9044507D01*
G03X2267589Y-9008693I-35814J0D01*
G01X2077589Y-9008693D01*
G03X2041775Y-9044507I0J-35814D01*
G01X2041775Y-9060993D01*
G01X1463425Y-9060993D01*
G01X1463425Y-9047302D01*
G01X1594804Y-8915923D01*
G03X1609014Y-8881618I-34305J34305D01*
G01X1609014Y-8561514D01*
G01X1631000Y-8561514D01*
G03X1666814Y-8525700I0J35814D01*
G01X1666814Y-8390699D01*
G03X1631000Y-8354885I-35814J0D01*
G01X1609014Y-8354885D01*
G01X1609014Y-8008732D01*
G03X1639067Y-7973384I-5761J35348D01*
G01X1639067Y-7835683D01*
G03X1609014Y-7800335I-35814J0D01*
G01X1609014Y-7654395D01*
G01X2077495Y-7185914D01*
G01X2940806Y-7185914D01*
G03X3003068Y-7267173I64599J-14986D01*
G01X3059990Y-7324095D01*
G01X3059990Y-7377203D01*
G01X2393395Y-7377203D01*
G01X2389541Y-7373348D01*
G01X2389541Y-7280666D01*
G03X2353727Y-7244852I-35814J0D01*
G01X2240473Y-7244852D01*
G03X2204659Y-7280666I0J-35814D01*
G01X2204659Y-7418367D01*
G03X2240473Y-7454181I35814J0D01*
G01X2273073Y-7454181D01*
G03X2295889Y-7534550I60954J-26119D01*
G03X2379236Y-7528814I38138J54250D01*
G01X2797705Y-7528814D01*
G01X3154986Y-7886095D01*
G01X3154986Y-7950801D01*
G03X3190800Y-7986615I35814J0D01*
G01X3260800Y-7986615D01*
G03X3296614Y-7950801I0J35814D01*
G01X3296614Y-7936814D01*
G01X3967705Y-7936814D01*
G01X4131295Y-8100405D01*
G03X4165600Y-8114614I34305J34305D01*
G01X4272505Y-8114614D01*
G01X4378727Y-8220836D01*
G03X4457036Y-8283713I66273J2336D01*
G01X4457036Y-8354885D01*
G01X4435050Y-8354885D01*
G03X4399236Y-8390699I0J-35814D01*
G01X4399236Y-8528401D01*
G03X4435050Y-8564215I35814J0D01*
G01X4548303Y-8564215D01*
G03X4584117Y-8528401I0J35814D01*
G01X4584117Y-8390699D01*
G03X4554064Y-8355352I-35814J0D01*
G01X4554064Y-8007398D01*
G01X4576050Y-8007398D01*
G03X4611864Y-7971584I0J35814D01*
G01X4611864Y-7836583D01*
G03X4576050Y-7800769I-35814J0D01*
G01X4569083Y-7800769D01*
G03X4566574Y-7755814I-63533J19002D01*
G01X4824701Y-7755814D01*
G01X5064491Y-7995604D01*
G03X5068477Y-7999173I34305J34305D01*
G03X5043499Y-8072259I38523J-53977D01*
G03X5104664Y-8119423I63501J19109D01*
G01X5210886Y-8225645D01*
G01X5210886Y-8354885D01*
G01X5202773Y-8354885D01*
G03X5166959Y-8390699I0J-35814D01*
G01X5166959Y-8528401D01*
G03X5202773Y-8564215I35814J0D01*
G01X5316027Y-8564215D01*
G03X5351841Y-8528401I0J35814D01*
G01X5351841Y-8390699D01*
G03X5316027Y-8354885I-35814J0D01*
G01X5307914Y-8354885D01*
G01X5307914Y-8205550D01*
G03X5293705Y-8171245I-48514J0D01*
G01X5173273Y-8050814D01*
G03X5157195Y-8009814I-66273J-2336D01*
G01X5519327Y-8009814D01*
G03X5553632Y-7995604I0J48514D01*
G01X5697450Y-7851786D01*
G03X5711659Y-7817482I-34305J34305D01*
G01X5711659Y-7772568D01*
G01X6050596Y-8111505D01*
G03X6084900Y-8125714I34305J34305D01*
G01X6502202Y-8125714D01*
G03X6488527Y-8163764I52598J-40386D01*
G01X6284706Y-8367585D01*
G01X6179500Y-8367585D01*
G03X6143686Y-8403399I0J-35814D01*
G01X6143686Y-8538400D01*
G03X6151167Y-8560306I35814J0D01*
G01X5252794Y-9458679D01*
G01X5125589Y-9458679D01*
G03X5089775Y-9494493I0J-35814D01*
G01X5089775Y-9510979D01*
G01X4511425Y-9510979D01*
G01X4511425Y-9494493D01*
G03X4475611Y-9458679I-35814J0D01*
G01X4348406Y-9458679D01*
G01X4201414Y-9311687D01*
G01X4201414Y-8638899D01*
G01X4276099Y-8564215D01*
G01X4348303Y-8564215D01*
G03X4384117Y-8528401I0J35814D01*
G01X4384117Y-8390699D01*
G03X4348303Y-8354885I-35814J0D01*
G01X4235050Y-8354885D01*
G03X4230571Y-8355167I0J-35814D01*
G01X3929400Y-8053995D01*
G03X3895095Y-8039786I-34305J-34305D01*
G01X3391610Y-8039786D01*
G01X3391610Y-8025799D01*
G03X3355796Y-7989985I-35814J0D01*
G01X3285796Y-7989985D01*
G03X3249982Y-8025799I0J-35814D01*
G01X3249982Y-8150800D01*
G03X3285796Y-8186614I35814J0D01*
G01X3355796Y-8186614D01*
G03X3391610Y-8150800I0J35814D01*
G01X3391610Y-8136814D01*
G01X3517884Y-8136814D01*
G01X2962895Y-8691802D01*
G03X2959311Y-8695808I34305J-34305D01*
G01X2862514Y-8599011D01*
G01X2862514Y-8594507D01*
G03X2826700Y-8558693I-35814J0D01*
G01X2822195Y-8558693D01*
G01X2687398Y-8423895D01*
G03X2653094Y-8409686I-34305J-34305D01*
G01X2417288Y-8409686D01*
G01X2417288Y-8390699D01*
G03X2381474Y-8354885I-35814J0D01*
G01X2240473Y-8354885D01*
G03X2210973Y-8370391I0J-35814D01*
G03X2181474Y-8354885I-29500J-20308D01*
G01X2040473Y-8354885D01*
G03X2004659Y-8390699I0J-35814D01*
G01X2004659Y-8525700D01*
G03X2040473Y-8561514I35814J0D01*
G01X2181474Y-8561514D01*
G03X2210973Y-8546009I0J35814D01*
G03X2240473Y-8561514I29500J20308D01*
G01X2381474Y-8561514D01*
G03X2417288Y-8525700I0J35814D01*
G01X2417288Y-8506714D01*
G01X2632998Y-8506714D01*
G01X2750886Y-8624602D01*
G01X2750886Y-8654506D01*
G03X2786700Y-8690320I35814J0D01*
G01X2816605Y-8690320D01*
G01X2836265Y-8709980D01*
G03X2826700Y-8708680I-9565J-34513D01*
G01X2786700Y-8708680D01*
G03X2750886Y-8744494I0J-35814D01*
G01X2750886Y-8804493D01*
G03X2786700Y-8840307I35814J0D01*
G01X2826700Y-8840307D01*
G03X2862514Y-8804493I0J35814D01*
G01X2862514Y-8744494D01*
G03X2861213Y-8734929I-35814J0D01*
G01X3078912Y-8952627D01*
G01X3078912Y-9186415D01*
G03X2927761Y-9284199I-54097J-82093D01*
G03X3102024Y-9329373I97054J15691D01*
G03X3116270Y-9332328I14246J32859D01*
G01X3156270Y-9332328D01*
G03X3168769Y-9330076I0J35814D01*
G03X3181269Y-9332328I12499J33562D01*
G01X3221269Y-9332328D01*
G03X3233768Y-9330076I0J35814D01*
G03X3246267Y-9332328I12499J33562D01*
G01X3286267Y-9332328D01*
G03X3298767Y-9330076I0J35814D01*
G03X3311266Y-9332328I12499J33562D01*
G01X3351266Y-9332328D01*
G03X3363765Y-9330076I0J35814D01*
G03X3376265Y-9332328I12499J33562D01*
G01X3416264Y-9332328D01*
G03X3432041Y-9328666I0J35814D01*
G03X3607122Y-9282462I77761J60158D01*
G03X3452078Y-9188924I-97319J13954D01*
G01X3452078Y-9136515D01*
G03X3416264Y-9100701I-35814J0D01*
G01X3376265Y-9100701D01*
G03X3363765Y-9102953I0J-35814D01*
G03X3351266Y-9100701I-12499J-33562D01*
G01X3314781Y-9100701D01*
G01X3314781Y-9072828D01*
G01X3347495Y-9040114D01*
G01X3440494Y-9040114D01*
G03X3474798Y-9025905I0J48514D01*
G01X3703095Y-8797607D01*
G01X3810000Y-8797607D01*
G03X3844305Y-8783398I0J48514D01*
G01X3950393Y-8677310D01*
G03X3955100Y-8677620I4707J35503D01*
G01X3995100Y-8677620D01*
G03X4030914Y-8641806I0J35814D01*
G01X4030914Y-8596789D01*
G01X4142536Y-8485166D01*
G03X4194765Y-8456579I-2336J66273D01*
G01X4199236Y-8461050D01*
G01X4199236Y-8503859D01*
G01X4118595Y-8584500D01*
G03X4104386Y-8618804I34305J-34305D01*
G01X4104386Y-9331782D01*
G03X4118595Y-9366087I48514J0D01*
G01X4249797Y-9497289D01*
G01X4249797Y-9624493D01*
G03X4285611Y-9660307I35814J0D01*
G01X4475611Y-9660307D01*
G03X4511425Y-9624493I0J35814D01*
G01X4511425Y-9608007D01*
G01X5089775Y-9608007D01*
G01X5089775Y-9624493D01*
G03X5125589Y-9660307I35814J0D01*
G01X5315589Y-9660307D01*
G03X5351403Y-9624493I0J35814D01*
G01X5351403Y-9497289D01*
G01X6274477Y-8574214D01*
G01X6320500Y-8574214D01*
G03X6350000Y-8558709I0J35814D01*
G03X6379500Y-8574214I29500J20308D01*
G01X6520500Y-8574214D01*
G03X6556314Y-8538400I0J35814D01*
G01X6556314Y-8403399D01*
G03X6520500Y-8367585I-35814J0D01*
G01X6421924Y-8367585D01*
G01X6557136Y-8232373D01*
G03X6607398Y-8125714I-2336J66273D01*
G01X6801405Y-8125714D01*
G01X7122759Y-8447068D01*
G01X7122759Y-8539751D01*
G03X7158573Y-8575565I35814J0D01*
G01X7271827Y-8575565D01*
G03X7307641Y-8539751I0J35814D01*
G01X7307641Y-8402049D01*
G03X7271827Y-8366235I-35814J0D01*
G01X7179145Y-8366235D01*
G01X6855805Y-8042895D01*
G03X6821500Y-8028686I-34305J-34305D01*
G01X6104995Y-8028686D01*
G01X5715305Y-7638996D01*
G01X5829172Y-7638996D01*
G03X5931068Y-7624894I45210J48514D01*
G01X6171433Y-7865259D01*
G01X6171433Y-7980951D01*
G03X6207247Y-8016765I35814J0D01*
G01X6320500Y-8016765D01*
G03X6356314Y-7980951I0J35814D01*
G01X6356314Y-7843249D01*
G03X6320500Y-7807435I-35814J0D01*
G01X6250828Y-7807435D01*
G01X5632054Y-7188662D01*
G03X5597750Y-7174453I-34305J-34305D01*
G01X5267550Y-7174453D01*
G03X5246407Y-7179302I0J-48514D01*
G01X5493704Y-6932005D01*
G03X5507892Y-6899165I-34305J34305D01*
G01X5516027Y-6899165D01*
G03X5551841Y-6863351I0J35814D01*
G01X5551841Y-6843014D01*
G01X6171433Y-6843014D01*
G01X6171433Y-6863351D01*
G03X6207247Y-6899165I35814J0D01*
G01X6320500Y-6899165D01*
G03X6356314Y-6863351I0J35814D01*
G01X6356314Y-6725649D01*
G03X6320500Y-6689835I-35814J0D01*
G01X6207247Y-6689835D01*
G03X6171433Y-6725649I0J-35814D01*
G01X6171433Y-6745986D01*
G01X5551841Y-6745986D01*
G01X5551841Y-6725649D01*
G03X5516027Y-6689835I-35814J0D01*
G01X5402773Y-6689835D01*
G03X5366959Y-6725649I0J-35814D01*
G01X5366959Y-6863351D01*
G03X5391236Y-6897255I35814J0D01*
G01X5077153Y-7211338D01*
G03X5062943Y-7245643I34305J-34305D01*
G01X5062943Y-7440817D01*
G03X5031921Y-7466135I3264J-35665D01*
G01X4738950Y-7173164D01*
G03X4701526Y-7115790I-66273J-2336D01*
G01X4974302Y-6843014D01*
G01X5166959Y-6843014D01*
G01X5166959Y-6863351D01*
G03X5202773Y-6899165I35814J0D01*
G01X5316027Y-6899165D01*
G03X5351841Y-6863351I0J35814D01*
G01X5351841Y-6725649D01*
G03X5316027Y-6689835I-35814J0D01*
G01X5202773Y-6689835D01*
G03X5166959Y-6725649I0J-35814D01*
G01X5166959Y-6745986D01*
G01X4954207Y-6745986D01*
G03X4919902Y-6760195I0J-48514D01*
G01X4563095Y-7117002D01*
G03X4554064Y-7129499I34305J-34305D01*
G01X4554064Y-6898698D01*
G03X4584117Y-6863351I-5761J35348D01*
G01X4584117Y-6725649D01*
G03X4548303Y-6689835I-35814J0D01*
G01X4540225Y-6689835D01*
G01X4540225Y-6032414D01*
G01X4589810Y-6032414D01*
G03X4625624Y-5996600I0J35814D01*
G01X4625624Y-5865114D01*
G01X4873976Y-5865114D01*
G01X4873976Y-5865600D01*
G03X4909790Y-5901414I35814J0D01*
G01X5156789Y-5901414D01*
G03X5192603Y-5865600I0J35814D01*
G01X5192603Y-5767600D01*
G03X5156789Y-5731786I-35814J0D01*
G01X4909790Y-5731786D01*
G03X4873976Y-5767600I0J-35814D01*
G01X4873976Y-5768086D01*
G01X4785614Y-5768086D01*
G01X4785614Y-5366795D01*
G01X4985795Y-5166614D01*
G01X5334944Y-5166614D01*
G03X5396853Y-5249321I64246J-16434D01*
G01X5491885Y-5344352D01*
G03X5526189Y-5358562I34305J34305D01*
G01X6325190Y-5358562D01*
G03X6328948Y-5373548I35800J1013D01*
G03X6325175Y-5389547I32042J-15999D01*
G01X6325175Y-5484548D01*
G03X6328948Y-5500548I35814J0D01*
G03X6325175Y-5516547I32042J-15999D01*
G01X6325175Y-5611548D01*
G03X6328948Y-5627548I35814J0D01*
G03X6325175Y-5643547I32042J-15999D01*
G01X6325175Y-5738548D01*
G03X6360989Y-5774362I35814J0D01*
G01X6570989Y-5774362D01*
G03X6606803Y-5738548I0J35814D01*
G01X6606803Y-5643547D01*
G03X6603030Y-5627548I-35814J0D01*
G03X6606803Y-5611548I-32042J15999D01*
G01X6606803Y-5516547D01*
G03X6603030Y-5500548I-35814J0D01*
G03X6606803Y-5484548I-32042J15999D01*
G01X6606803Y-5389547D01*
G03X6603030Y-5373548I-35814J0D01*
G03X6606803Y-5357548I-32042J15999D01*
G01X6606803Y-5262547D01*
G03X6603030Y-5246548I-35814J0D01*
G03X6606803Y-5230548I-32042J15999D01*
G01X6606803Y-5135547D01*
G03X6603030Y-5119548I-35814J0D01*
G03X6606803Y-5103548I-32042J15999D01*
G01X6606803Y-5008547D01*
G03X6603030Y-4992548I-35814J0D01*
G03X6606803Y-4976548I-32042J15999D01*
G01X6606803Y-4881547D01*
G03X6603030Y-4865548I-35814J0D01*
G03X6606803Y-4849548I-32042J15999D01*
G01X6606803Y-4754547D01*
G03X6603030Y-4738548I-35814J0D01*
G03X6606803Y-4722548I-32042J15999D01*
G01X6606803Y-4627547D01*
G03X6603030Y-4611548I-35814J0D01*
G03X6606803Y-4595548I-32042J15999D01*
G01X6606803Y-4500547D01*
G03X6603030Y-4484548I-35814J0D01*
G03X6606803Y-4468548I-32042J15999D01*
G01X6606803Y-4373547D01*
G03X6603030Y-4357548I-35814J0D01*
G03X6606803Y-4341548I-32042J15999D01*
G01X6606803Y-4246547D01*
G03X6603030Y-4230548I-35814J0D01*
G03X6606789Y-4215562I-32042J15999D01*
G01X7004694Y-4215562D01*
G01X7376457Y-4587325D01*
G01X7311005Y-4587325D01*
G03X7286003Y-4597497I0J-35814D01*
G03X7261000Y-4587325I-25002J-25642D01*
G01X7171000Y-4587325D01*
G03X7145998Y-4597497I0J-35814D01*
G03X7120995Y-4587325I-25002J-25642D01*
G01X7030996Y-4587325D01*
G03X6995182Y-4623139I0J-35814D01*
G01X6995182Y-4713139D01*
G03X7005353Y-4738141I35814J0D01*
G03X6995182Y-4763144I25642J-25002D01*
G01X6995182Y-4853144D01*
G03X7005353Y-4878146I35814J0D01*
G03X6995182Y-4903149I25642J-25002D01*
G01X6995182Y-4993149D01*
G03X7030996Y-5028963I35814J0D01*
G01X7120995Y-5028963D01*
G03X7145998Y-5018791I0J35814D01*
G03X7171000Y-5028963I25002J25642D01*
G01X7261000Y-5028963D01*
G03X7286003Y-5018791I0J35814D01*
G03X7311005Y-5028963I25002J25642D01*
G01X7401005Y-5028963D01*
G03X7436819Y-4993149I0J35814D01*
G01X7436819Y-4903149D01*
G03X7426647Y-4878146I-35814J0D01*
G03X7436819Y-4853144I-25642J25002D01*
G01X7436819Y-4763144D01*
G03X7426647Y-4738141I-35814J0D01*
G03X7436819Y-4713139I-25642J25002D01*
G01X7436819Y-4647687D01*
G01X8025316Y-5236184D01*
G03X8125197Y-5291015I66273J2336D01*
G01X8125197Y-5357548D01*
G03X8128970Y-5373548I35814J0D01*
G03X8125197Y-5389547I32042J-15999D01*
G01X8125197Y-5422554D01*
G03X8047665Y-5480869I-11586J-65294D01*
G03X8111275Y-5554121I65946J-6978D01*
G01X8125197Y-5568043D01*
G01X8125197Y-5611548D01*
G03X8128970Y-5627548I35814J0D01*
G03X8125197Y-5643547I32042J-15999D01*
G01X8125197Y-5738548D01*
G03X8136630Y-5764782I35814J0D01*
G01X8020827Y-5880586D01*
G01X8020827Y-5735552D01*
G03X7985013Y-5699738I-35814J0D01*
G01X7890012Y-5699738D01*
G03X7874013Y-5703511I0J-35814D01*
G03X7858013Y-5699738I-15999J-32042D01*
G01X7763012Y-5699738D01*
G03X7747013Y-5703511I0J-35814D01*
G03X7731013Y-5699738I-15999J-32042D01*
G01X7636012Y-5699738D01*
G03X7620013Y-5703511I0J-35814D01*
G03X7604013Y-5699738I-15999J-32042D01*
G01X7509012Y-5699738D01*
G03X7493013Y-5703511I0J-35814D01*
G03X7477013Y-5699738I-15999J-32042D01*
G01X7382012Y-5699738D01*
G03X7366013Y-5703511I0J-35814D01*
G03X7350013Y-5699738I-15999J-32042D01*
G01X7255012Y-5699738D01*
G03X7239013Y-5703511I0J-35814D01*
G03X7223013Y-5699738I-15999J-32042D01*
G01X7128012Y-5699738D01*
G03X7112013Y-5703511I0J-35814D01*
G03X7096013Y-5699738I-15999J-32042D01*
G01X7001012Y-5699738D01*
G03X6985013Y-5703511I0J-35814D01*
G03X6969013Y-5699738I-15999J-32042D01*
G01X6874012Y-5699738D01*
G03X6858013Y-5703511I0J-35814D01*
G03X6842013Y-5699738I-15999J-32042D01*
G01X6747012Y-5699738D01*
G03X6711198Y-5735552I0J-35814D01*
G01X6711198Y-5945552D01*
G03X6747012Y-5981366I35814J0D01*
G01X6842013Y-5981366D01*
G03X6858013Y-5977594I0J35814D01*
G03X6874012Y-5981366I15999J32042D01*
G01X6969013Y-5981366D01*
G03X6985013Y-5977594I0J35814D01*
G03X7001012Y-5981366I15999J32042D01*
G01X7096013Y-5981366D01*
G03X7112013Y-5977594I0J35814D01*
G03X7128012Y-5981366I15999J32042D01*
G01X7223013Y-5981366D01*
G03X7239013Y-5977594I0J35814D01*
G03X7255012Y-5981366I15999J32042D01*
G01X7350013Y-5981366D01*
G03X7366013Y-5977594I0J35814D01*
G03X7382012Y-5981366I15999J32042D01*
G01X7477013Y-5981366D01*
G03X7493013Y-5977594I0J35814D01*
G03X7509012Y-5981366I15999J32042D01*
G01X7604013Y-5981366D01*
G03X7620013Y-5977594I0J35814D01*
G03X7636012Y-5981366I15999J32042D01*
G01X7731013Y-5981366D01*
G03X7747013Y-5977594I0J35814D01*
G03X7763012Y-5981366I15999J32042D01*
G01X7858013Y-5981366D01*
G03X7874013Y-5977594I0J35814D01*
G03X7890012Y-5981366I15999J32042D01*
G01X7920047Y-5981366D01*
G01X7790427Y-6110986D01*
G01X7607300Y-6110986D01*
G03X7572995Y-6125195I0J-48514D01*
G01X7180896Y-6517295D01*
G03X7166686Y-6551600I34305J-34305D01*
G01X7166686Y-6689835D01*
G01X7158573Y-6689835D01*
G03X7122759Y-6725649I0J-35814D01*
G01X7122759Y-6863351D01*
G03X7158573Y-6899165I35814J0D01*
G01X7271827Y-6899165D01*
G03X7307641Y-6863351I0J35814D01*
G01X7307641Y-6725649D01*
G03X7271827Y-6689835I-35814J0D01*
G01X7263714Y-6689835D01*
G01X7263714Y-6571695D01*
G01X7627395Y-6208014D01*
G01X7810522Y-6208014D01*
G03X7844827Y-6193805I0J48514D01*
G01X8264269Y-5774362D01*
G01X8369897Y-5774362D01*
G01X8369897Y-6329994D01*
G01X7451255Y-7248635D01*
G01X7358573Y-7248635D01*
G03X7322759Y-7284449I0J-35814D01*
G01X7322759Y-7422151D01*
G03X7358573Y-7457965I35814J0D01*
G01X7471827Y-7457965D01*
G03X7489479Y-7453312I0J35814D01*
G01X7344803Y-7597988D01*
G03X7263714Y-7618358I-28002J-60112D01*
G01X7263714Y-7457965D01*
G01X7271827Y-7457965D01*
G03X7307641Y-7422151I0J35814D01*
G01X7307641Y-7284449D01*
G03X7271827Y-7248635I-35814J0D01*
G01X7251189Y-7248635D01*
G03X7190536Y-7161627I-62989J20735D01*
G01X5716715Y-5687806D01*
G01X5716715Y-5582600D01*
G03X5680901Y-5546786I-35814J0D01*
G01X5545900Y-5546786D01*
G03X5510086Y-5582600I0J-35814D01*
G01X5510086Y-5604586D01*
G01X5192603Y-5604586D01*
G01X5192603Y-5537603D01*
G03X5156789Y-5501789I-35814J0D01*
G01X4909790Y-5501789D01*
G03X4873976Y-5537603I0J-35814D01*
G01X4873976Y-5635603D01*
G03X4909790Y-5671417I35814J0D01*
G01X5049495Y-5671417D01*
G01X5065482Y-5687405D01*
G03X5099787Y-5701614I34305J34305D01*
G01X5510086Y-5701614D01*
G01X5510086Y-5723600D01*
G03X5525591Y-5753100I35814J0D01*
G03X5510086Y-5782600I20308J-29500D01*
G01X5510086Y-5923600D01*
G03X5545900Y-5959414I35814J0D01*
G01X5680901Y-5959414D01*
G03X5716715Y-5923600I0J35814D01*
G01X5716715Y-5825024D01*
G01X7121927Y-7230236D01*
G03X7131049Y-7261535I66273J2336D01*
G03X7122759Y-7284449I27524J-22914D01*
G01X7122759Y-7422151D01*
G03X7158573Y-7457965I35814J0D01*
G01X7166686Y-7457965D01*
G01X7166686Y-7698531D01*
G03X7190167Y-7807435I46914J-46868D01*
G01X7158573Y-7807435D01*
G03X7122759Y-7843249I0J-35814D01*
G01X7122759Y-7957450D01*
G01X6721486Y-7556177D01*
G03X6687182Y-7541968I-34305J-34305D01*
G01X6554592Y-7541968D01*
G03X6498514Y-7525064I-45210J-48514D01*
G01X6498514Y-7456614D01*
G01X6520500Y-7456614D01*
G03X6556314Y-7420800I0J35814D01*
G01X6556314Y-7285799D01*
G03X6520500Y-7249985I-35814J0D01*
G01X6379500Y-7249985D01*
G03X6350000Y-7265491I0J-35814D01*
G03X6320500Y-7249985I-29500J-20308D01*
G01X6179500Y-7249985D01*
G03X6143686Y-7285799I0J-35814D01*
G01X6143686Y-7420800D01*
G03X6179500Y-7456614I35814J0D01*
G01X6320500Y-7456614D01*
G03X6350000Y-7441109I0J35814D01*
G03X6379500Y-7456614I29500J20308D01*
G01X6401486Y-7456614D01*
G01X6401486Y-7807902D01*
G03X6371433Y-7843249I5761J-35348D01*
G01X6371433Y-7980951D01*
G03X6407247Y-8016765I35814J0D01*
G01X6520500Y-8016765D01*
G03X6556314Y-7980951I0J35814D01*
G01X6556314Y-7960614D01*
G01X6824778Y-7960614D01*
G01X7063301Y-8199137D01*
G03X7176465Y-8243692I66273J2336D01*
G03X7131910Y-8130528I-46891J46891D01*
G01X6879178Y-7877795D01*
G03X6844873Y-7863586I-34305J-34305D01*
G01X6556314Y-7863586D01*
G01X6556314Y-7843249D01*
G03X6520500Y-7807435I-35814J0D01*
G01X6498514Y-7807435D01*
G01X6498514Y-7655899D01*
G03X6554592Y-7638996I10868J65417D01*
G01X6667087Y-7638996D01*
G01X7228495Y-8200405D01*
G03X7262800Y-8214614I34305J34305D01*
G01X7378700Y-8214614D01*
G03X7413005Y-8200405I0J48514D01*
G01X7449504Y-8163905D01*
G03X7463714Y-8129600I-34305J34305D01*
G01X7463714Y-8016765D01*
G01X7471827Y-8016765D01*
G03X7507641Y-7980951I0J35814D01*
G01X7507641Y-7843249D01*
G03X7471827Y-7807435I-35814J0D01*
G01X7388474Y-7807435D01*
G01X8458886Y-6737024D01*
G01X8458886Y-7358605D01*
G01X7451255Y-8366235D01*
G01X7358573Y-8366235D01*
G03X7322759Y-8402049I0J-35814D01*
G01X7322759Y-8539751D01*
G03X7358573Y-8575565I35814J0D01*
G01X7471827Y-8575565D01*
G03X7507641Y-8539751I0J35814D01*
G01X7507641Y-8447068D01*
G01X8541704Y-7413005D01*
G03X8555914Y-7378700I-34305J34305D01*
G01X8555914Y-5397500D01*
G03X8547604Y-5370348I-48514J0D01*
G03X8565221Y-5358562I-27593J60301D01*
G01X8623452Y-5358562D01*
G03X8657757Y-5344352I0J48514D01*
G01X8665045Y-5337065D01*
G01X8757727Y-5337065D01*
G03X8793541Y-5301251I0J35814D01*
G01X8793541Y-5163549D01*
G03X8765154Y-5128514I-35814J0D01*
G01X8806405Y-5128514D01*
G01X8817678Y-5139787D01*
G03X8808659Y-5163549I26795J-23763D01*
G01X8808659Y-5301251D01*
G03X8844473Y-5337065I35814J0D01*
G01X8957727Y-5337065D01*
G03X8993541Y-5301251I0J35814D01*
G01X8993541Y-5163549D01*
G03X8957727Y-5127735I-35814J0D01*
G01X8941497Y-5127735D01*
G03X8935404Y-5120295I-40397J-26864D01*
G01X8860805Y-5045695D01*
G03X8826500Y-5031486I-34305J-34305D01*
G01X8623300Y-5031486D01*
G03X8588995Y-5045695I0J-48514D01*
G01X8505114Y-5129577D01*
G01X8505114Y-4533900D01*
G03X8490904Y-4499595I-48514J0D01*
G01X8406825Y-4415516D01*
G01X8406825Y-4373547D01*
G03X8403052Y-4357548I-35814J0D01*
G03X8406825Y-4341548I-32042J15999D01*
G01X8406825Y-4246547D01*
G03X8403052Y-4230548I-35814J0D01*
G03X8406825Y-4214548I-32042J15999D01*
G01X8406825Y-4119547D01*
G03X8403052Y-4103548I-35814J0D01*
G03X8406825Y-4087548I-32042J15999D01*
G01X8406825Y-3992547D01*
G03X8371011Y-3956733I-35814J0D01*
G01X8161011Y-3956733D01*
G03X8125197Y-3992547I0J-35814D01*
G01X8125197Y-4087548D01*
G03X8128970Y-4103548I35814J0D01*
G03X8125197Y-4119547I32042J-15999D01*
G01X8125197Y-4214548D01*
G03X8128970Y-4230548I35814J0D01*
G03X8125211Y-4245534I32042J-15999D01*
G01X7397106Y-4245534D01*
G01X6496915Y-3345343D01*
G03X6462611Y-3331134I-34305J-34305D01*
G01X2424252Y-3331134D01*
G03X2389948Y-3345343I0J-48514D01*
G01X2346479Y-3388812D01*
G03X2209736Y-3594164I-47779J-116388D01*
G03X2415088Y-3457421I88964J88964D01*
G01X2444347Y-3428162D01*
G01X2453230Y-3428162D01*
G03X2488698Y-3613518I99470J-77038D01*
G03X2668168Y-3555162I64002J108318D01*
G01X6493316Y-3555162D01*
G01X7647506Y-4709352D01*
G03X7681811Y-4723562I34305J34305D01*
G01X8125211Y-4723562D01*
G03X8128970Y-4738548I35800J1013D01*
G03X8125197Y-4754547I32042J-15999D01*
G01X8125197Y-4849548D01*
G03X8128970Y-4865548I35814J0D01*
G03X8125197Y-4881547I32042J-15999D01*
G01X8125197Y-4976548D01*
G03X8128970Y-4992548I35814J0D01*
G03X8125197Y-5008547I32042J-15999D01*
G01X8125197Y-5103548D01*
G03X8128970Y-5119548I35814J0D01*
G03X8125197Y-5135547I32042J-15999D01*
G01X8125197Y-5176681D01*
G03X8093925Y-5167575I-33608J-57167D01*
G01X7059094Y-4132743D01*
G03X7024789Y-4118534I-34305J-34305D01*
G01X6606789Y-4118534D01*
G03X6603030Y-4103548I-35800J-1013D01*
G03X6606803Y-4087548I-32042J15999D01*
G01X6606803Y-3992547D01*
G03X6570989Y-3956733I-35814J0D01*
G01X6360989Y-3956733D01*
G03X6325175Y-3992547I0J-35814D01*
G01X6325175Y-4087548D01*
G03X6328948Y-4103548I35814J0D01*
G03X6325190Y-4118534I32042J-15999D01*
G01X6125683Y-4118534D01*
G03X6091379Y-4132743I0J-48514D01*
G01X5985105Y-4239017D01*
G01X5879899Y-4239017D01*
G03X5850400Y-4254523I0J-35814D01*
G03X5820900Y-4239017I-29500J-20308D01*
G01X5679900Y-4239017D01*
G03X5644086Y-4274831I0J-35814D01*
G01X5644086Y-4409832D01*
G03X5679900Y-4445646I35814J0D01*
G01X5820900Y-4445646D01*
G03X5850400Y-4430140I0J35814D01*
G03X5876486Y-4445483I29500J20308D01*
G01X5876486Y-4837149D01*
G03X5850400Y-4852491I3414J-35651D01*
G03X5820900Y-4836985I-29500J-20308D01*
G01X5679900Y-4836985D01*
G03X5644086Y-4872799I0J-35814D01*
G01X5644086Y-5007800D01*
G03X5679900Y-5043614I35814J0D01*
G01X5820900Y-5043614D01*
G03X5842195Y-5036596I0J35814D01*
G01X5809205Y-5069586D01*
G01X4965700Y-5069586D01*
G03X4931395Y-5083795I0J-48514D01*
G01X4702795Y-5312395D01*
G03X4688586Y-5346700I34305J-34305D01*
G01X4688586Y-5768086D01*
G01X4625624Y-5768086D01*
G01X4625624Y-5636600D01*
G03X4589810Y-5600786I-35814J0D01*
G01X4342811Y-5600786D01*
G03X4306997Y-5636600I0J-35814D01*
G01X4306997Y-5868086D01*
G01X4091115Y-5868086D01*
G01X4091115Y-5846100D01*
G03X4075609Y-5816600I-35814J0D01*
G03X4091115Y-5787100I-20308J29500D01*
G01X4091115Y-5646100D01*
G03X4055301Y-5610286I-35814J0D01*
G01X3920300Y-5610286D01*
G03X3884486Y-5646100I0J-35814D01*
G01X3884486Y-5787100D01*
G03X3899991Y-5816600I35814J0D01*
G03X3884486Y-5846100I20308J-29500D01*
G01X3884486Y-5878603D01*
G01X2106341Y-5878603D01*
G01X2106341Y-3614879D01*
G03X2030457Y-3380195I-61641J109679D01*
G03X2009313Y-3625935I14243J-125005D01*
G01X2009313Y-5884463D01*
G03X1998122Y-5892812I23114J-42654D01*
G01X1210722Y-6680212D01*
G03X1196513Y-6714517I34305J-34305D01*
G01X1196513Y-7247917D01*
G01X1201797Y-9624493D02*
G03X1237611Y-9660307I35814J0D01*
G01X1427611Y-9660307D01*
G03X1463425Y-9624493I0J35814D01*
G01X1463425Y-9494493D01*
G03X1427611Y-9458679I-35814J0D01*
G01X1237611Y-9458679D01*
G03X1201797Y-9494493I0J-35814D01*
G01X1201797Y-9624493D01*
G01X1664886Y-3505200D02*
G03X1916514Y-3505200I125814J0D01*
G03X1664886Y-3505200I-125814J0D01*
G01X2145614Y-7499905D02*
G01X2145614Y-7454181D01*
G01X2153727Y-7454181D01*
G03X2189541Y-7418367I0J35814D01*
G01X2189541Y-7280666D01*
G03X2153727Y-7244852I-35814J0D01*
G01X2040473Y-7244852D01*
G03X2004659Y-7280666I0J-35814D01*
G01X2004659Y-7418367D01*
G03X2040473Y-7454181I35814J0D01*
G01X2048586Y-7454181D01*
G01X2048586Y-7520000D01*
G03X2062796Y-7554305I48514J0D01*
G01X2631095Y-8122604D01*
G03X2665400Y-8136814I34305J34305D01*
G01X3059990Y-8136814D01*
G01X3059990Y-8150800D01*
G03X3095804Y-8186614I35814J0D01*
G01X3165804Y-8186614D01*
G03X3201618Y-8150800I0J35814D01*
G01X3201618Y-8025799D01*
G03X3165804Y-7989985I-35814J0D01*
G01X3095804Y-7989985D01*
G03X3059990Y-8025799I0J-35814D01*
G01X3059990Y-8039786D01*
G01X2685495Y-8039786D01*
G01X2145614Y-7499905D01*
G01X2041775Y-9624493D02*
G03X2077589Y-9660307I35814J0D01*
G01X2267589Y-9660307D01*
G03X2303403Y-9624493I0J35814D01*
G01X2303403Y-9494493D01*
G03X2267589Y-9458679I-35814J0D01*
G01X2077589Y-9458679D01*
G03X2041775Y-9494493I0J-35814D01*
G01X2041775Y-9624493D01*
G01X2214717Y-6876170D02*
G03X2250531Y-6911984I35814J0D01*
G01X2350531Y-6911984D01*
G03X2386345Y-6876170I0J35814D01*
G01X2386345Y-6736216D01*
G03X2350531Y-6700402I-35814J0D01*
G01X2250531Y-6700402D01*
G03X2214717Y-6736216I0J-35814D01*
G01X2214717Y-6876170D01*
G01X2808986Y-9506504D02*
G01X2808986Y-9566504D01*
G03X3000614Y-9566504I95814J0D01*
G01X3000614Y-9506504D01*
G03X2808986Y-9506504I-95814J0D01*
G01X3534004Y-9506504D02*
G01X3534004Y-9566504D01*
G03X3725631Y-9566504I95814J0D01*
G01X3725631Y-9506504D01*
G03X3534004Y-9506504I-95814J0D01*
G01X3995100Y-8827607D02*
G03X4030914Y-8791793I0J35814D01*
G01X4030914Y-8731794D01*
G03X3995100Y-8695980I-35814J0D01*
G01X3955100Y-8695980D01*
G03X3919286Y-8731794I0J-35814D01*
G01X3919286Y-8791793D01*
G03X3955100Y-8827607I35814J0D01*
G01X3995100Y-8827607D01*
G01X3950882Y-3996487D02*
G01X3950882Y-4016487D01*
G03X4352510Y-4016487I200814J0D01*
G01X4352510Y-3996487D01*
G03X3950882Y-3996487I-200814J0D01*
G01X4511425Y-9044507D02*
G03X4475611Y-9008693I-35814J0D01*
G01X4285611Y-9008693D01*
G03X4249797Y-9044507I0J-35814D01*
G01X4249797Y-9174507D01*
G03X4285611Y-9210321I35814J0D01*
G01X4475611Y-9210321D01*
G03X4511425Y-9174507I0J35814D01*
G01X4511425Y-9044507D01*
G01X4331876Y-4756498D02*
G03X4583504Y-4756498I125814J0D01*
G03X4331876Y-4756498I-125814J0D01*
G01X4585876Y-4756498D02*
G03X4837504Y-4756498I125814J0D01*
G03X4585876Y-4756498I-125814J0D01*
G01X4839876Y-4756498D02*
G03X5091504Y-4756498I125814J0D01*
G03X4839876Y-4756498I-125814J0D01*
G01X4873976Y-6095597D02*
G03X4909790Y-6131411I35814J0D01*
G01X5156789Y-6131411D01*
G03X5192603Y-6095597I0J35814D01*
G01X5192603Y-5997597D01*
G03X5156789Y-5961783I-35814J0D01*
G01X4909790Y-5961783D01*
G03X4873976Y-5997597I0J-35814D01*
G01X4873976Y-6095597D01*
G01X5070870Y-3996487D02*
G01X5070870Y-4016487D01*
G03X5472497Y-4016487I200814J0D01*
G01X5472497Y-3996487D01*
G03X5070870Y-3996487I-200814J0D01*
G01X5351403Y-9044507D02*
G03X5315589Y-9008693I-35814J0D01*
G01X5125589Y-9008693D01*
G03X5089775Y-9044507I0J-35814D01*
G01X5089775Y-9174507D01*
G03X5125589Y-9210321I35814J0D01*
G01X5315589Y-9210321D01*
G03X5351403Y-9174507I0J35814D01*
G01X5351403Y-9044507D01*
G01X5551841Y-8390699D02*
G03X5516027Y-8354885I-35814J0D01*
G01X5402773Y-8354885D01*
G03X5366959Y-8390699I0J-35814D01*
G01X5366959Y-8528401D01*
G03X5402773Y-8564215I35814J0D01*
G01X5516027Y-8564215D01*
G03X5551841Y-8528401I0J35814D01*
G01X5551841Y-8390699D01*
G01X6556314Y-6725649D02*
G03X6520500Y-6689835I-35814J0D01*
G01X6407247Y-6689835D01*
G03X6371433Y-6725649I0J-35814D01*
G01X6371433Y-6863351D01*
G03X6407247Y-6899165I35814J0D01*
G01X6520500Y-6899165D01*
G03X6556314Y-6863351I0J35814D01*
G01X6556314Y-6725649D01*
G01X7448000Y-9504214D02*
G01X7538000Y-9504214D01*
G03X7573814Y-9468400I0J35814D01*
G01X7573814Y-9378400D01*
G03X7538000Y-9342586I-35814J0D01*
G01X7448000Y-9342586D01*
G03X7416904Y-9360633I0J-35814D01*
G03X7302500Y-9373414I-50904J-62767D01*
G03X7158186Y-9423400I-63500J-49986D01*
G03X7302500Y-9473386I80814J0D01*
G03X7416904Y-9486167I63500J49986D01*
G03X7448000Y-9504214I31096J17767D01*
G01X7562237Y-7051065D02*
G03X7605014Y-6939790I-5737J66065D01*
G01X7605014Y-6935800D01*
G03X7590805Y-6901496I-48514J0D01*
G01X7507641Y-6818332D01*
G01X7507641Y-6725649D01*
G03X7471827Y-6689835I-35814J0D01*
G01X7358573Y-6689835D01*
G03X7322759Y-6725649I0J-35814D01*
G01X7322759Y-6863351D01*
G03X7358573Y-6899165I35814J0D01*
G01X7451255Y-6899165D01*
G01X7500919Y-6948829D01*
G03X7562237Y-7051065I55581J-36171D01*
G01X7426686Y-9588477D02*
G03X7559314Y-9588477I66314J0D01*
G03X7426686Y-9588477I-66314J0D01*
G01X8050977Y-7277202D02*
G03X8362605Y-7277202I155814J0D01*
G03X8050977Y-7277202I-155814J0D01*
G01X8852230Y-6796100D02*
G03X8852230Y-6996100I50470J-100000D01*
G03X8791509Y-7109657I50470J-100000D01*
G03X8877738Y-7205297I111191J13557D01*
G01X8862700Y-7205297D01*
G03X8862700Y-7416924I0J-105814D01*
G01X8942700Y-7416924D01*
G03X9013843Y-7389439I0J105814D01*
G01X9013843Y-8659356D01*
G03X8789143Y-8721030I-103886J-61674D01*
G03X9013843Y-8782704I120814J0D01*
G01X9013843Y-8913356D01*
G03X8789143Y-8975030I-103886J-61674D01*
G03X9013843Y-9036704I120814J0D01*
G01X9013843Y-9056534D01*
G01X8962161Y-9108216D01*
G01X8824957Y-9108216D01*
G03X8789143Y-9144030I0J-35814D01*
G01X8789143Y-9314029D01*
G03X8824957Y-9349843I35814J0D01*
G01X8994957Y-9349843D01*
G03X9030771Y-9314029I0J35814D01*
G01X9030771Y-9176825D01*
G01X9096661Y-9110934D01*
G03X9110871Y-9076630I-34305J34305D01*
G01X9110871Y-7055757D01*
G03X9096661Y-7021452I-48514J0D01*
G01X9008396Y-6933187D01*
G03X8953170Y-6796100I-105696J37087D01*
G03X8927662Y-6586903I-50470J100000D01*
G01X8942700Y-6586903D01*
G03X8942700Y-6375276I0J105814D01*
G01X8862700Y-6375276D01*
G03X8862700Y-6586903I0J-105814D01*
G01X8877738Y-6586903D01*
G03X8852230Y-6796100I24962J-109197D01*
G01X2052522Y-5975631D02*
G01X3884486Y-5975631D01*
G01X3884486Y-5987100D01*
G03X3920300Y-6022914I35814J0D01*
G01X4055301Y-6022914D01*
G03X4091115Y-5987100I0J35814D01*
G01X4091115Y-5965114D01*
G01X4306997Y-5965114D01*
G01X4306997Y-5996600D01*
G03X4342811Y-6032414I35814J0D01*
G01X4359070Y-6032414D01*
G03X4353327Y-6057164I60530J-27087D01*
G01X3332705Y-7077786D01*
G01X3296614Y-7077786D01*
G01X3296614Y-7063800D01*
G03X3260800Y-7027986I-35814J0D01*
G01X3190800Y-7027986D01*
G03X3154986Y-7063800I0J-35814D01*
G01X3154986Y-7088886D01*
G01X2943003Y-7088886D01*
G03X2880740Y-7007627I-64599J14986D01*
G01X2392009Y-6518895D01*
G03X2357704Y-6504686I-34305J-34305D01*
G01X1587927Y-6504686D01*
G03X1553622Y-6518895I0J-48514D01*
G01X1382682Y-6689835D01*
G01X1338317Y-6689835D01*
G01X2052522Y-5975631D01*
G01X6472488Y-3458134D02*
G01X2669379Y-3458134D01*
G03X2652170Y-3428162I-116679J-47066D01*
G01X6442516Y-3428162D01*
G01X6472488Y-3458134D01*
G01X4185695Y-8017586D02*
G01X4022105Y-7853996D01*
G03X3987800Y-7839786I-34305J-34305D01*
G01X3296614Y-7839786D01*
G01X3296614Y-7825800D01*
G03X3260800Y-7789986I-35814J0D01*
G01X3196095Y-7789986D01*
G01X2880340Y-7474231D01*
G01X3221379Y-7474231D01*
G03X3255684Y-7460021I0J48514D01*
G01X3291091Y-7424614D01*
G01X3350501Y-7424614D01*
G01X3667491Y-7741604D01*
G03X3701796Y-7755814I34305J34305D01*
G01X4444525Y-7755814D01*
G03X4442016Y-7800769I61025J-25953D01*
G01X4435050Y-7800769D01*
G03X4405550Y-7816275I0J-35814D01*
G03X4376050Y-7800769I-29500J-20308D01*
G01X4235050Y-7800769D01*
G03X4199236Y-7836583I0J-35814D01*
G01X4199236Y-7971584D01*
G03X4235050Y-8007398I35814J0D01*
G01X4376050Y-8007398D01*
G03X4405550Y-7991892I0J35814D01*
G03X4435050Y-8007398I29500J20308D01*
G01X4457036Y-8007398D01*
G01X4457036Y-8153288D01*
G03X4447336Y-8152227I-12036J-65213D01*
G01X4326905Y-8031796D01*
G03X4292600Y-8017586I-34305J-34305D01*
G01X4185695Y-8017586D01*
G01X3045714Y-8782211D02*
G01X3045714Y-8746202D01*
G01X3576095Y-8215820D01*
G01X3637790Y-8215820D01*
G03X3723091Y-8220130I45210J48514D01*
G03X3741888Y-8136814I-40091J52823D01*
G01X3859689Y-8136814D01*
G03X3832627Y-8187957I39211J-53480D01*
G01X3461892Y-8558693D01*
G01X3447100Y-8558693D01*
G03X3411286Y-8594507I0J-35814D01*
G01X3411286Y-8609298D01*
G01X3320005Y-8700579D01*
G01X3238500Y-8700579D01*
G03X3204195Y-8714789I0J-48514D01*
G01X3158094Y-8760890D01*
G03X3143885Y-8795194I34305J-34305D01*
G01X3143885Y-8880382D01*
G01X3045714Y-8782211D01*
G01X4443197Y-6121474D02*
G01X4443197Y-6689835D01*
G01X4435050Y-6689835D01*
G03X4399236Y-6725649I0J-35814D01*
G01X4399236Y-6863351D01*
G03X4435050Y-6899165I35814J0D01*
G01X4457036Y-6899165D01*
G01X4457036Y-6942685D01*
G03X4360767Y-6936486I-51059J-42315D01*
G01X4352608Y-6936486D01*
G01X4340191Y-6924068D01*
G01X4340191Y-6899165D01*
G01X4348303Y-6899165D01*
G03X4384117Y-6863351I0J35814D01*
G01X4384117Y-6725649D01*
G03X4348303Y-6689835I-35814J0D01*
G01X4235050Y-6689835D01*
G03X4199236Y-6725649I0J-35814D01*
G01X4199236Y-6863351D01*
G03X4235050Y-6899165I35814J0D01*
G01X4243163Y-6899165D01*
G01X4243163Y-6944163D01*
G03X4257372Y-6978468I48514J0D01*
G01X4298209Y-7019305D01*
G03X4332513Y-7033514I34305J34305D01*
G01X4360767Y-7033514D01*
G03X4457036Y-7027315I45210J48514D01*
G01X4457036Y-7246652D01*
G01X4435050Y-7246652D01*
G03X4405550Y-7262158I0J-35814D01*
G03X4376050Y-7246652I-29500J-20308D01*
G01X4235050Y-7246652D01*
G03X4199236Y-7282466I0J-35814D01*
G01X4199236Y-7417467D01*
G03X4235050Y-7453281I35814J0D01*
G01X4376050Y-7453281D01*
G03X4405550Y-7437775I0J35814D01*
G03X4435050Y-7453281I29500J20308D01*
G01X4457036Y-7453281D01*
G01X4457036Y-7578567D01*
G03X4471245Y-7612871I48514J0D01*
G01X4490077Y-7631703D01*
G03X4496919Y-7658786I66273J2336D01*
G01X3721891Y-7658786D01*
G01X3391610Y-7328505D01*
G01X3391610Y-7263799D01*
G03X3355796Y-7227985I-35814J0D01*
G01X3285796Y-7227985D01*
G03X3249982Y-7263799I0J-35814D01*
G01X3249982Y-7328505D01*
G01X3201618Y-7376869D01*
G01X3201618Y-7263799D01*
G03X3165804Y-7227985I-35814J0D01*
G01X3101099Y-7227985D01*
G01X3071677Y-7198564D01*
G03X3070003Y-7185914I-66273J-2336D01*
G01X3154986Y-7185914D01*
G01X3154986Y-7188801D01*
G03X3190800Y-7224615I35814J0D01*
G01X3260800Y-7224615D01*
G03X3296614Y-7188801I0J35814D01*
G01X3296614Y-7174814D01*
G01X3352800Y-7174814D01*
G03X3387105Y-7160605I0J48514D01*
G01X4421936Y-6125773D01*
G03X4443197Y-6121474I-2336J66273D01*
G01X3258595Y-8797607D02*
G01X3340100Y-8797607D01*
G03X3374405Y-8783398I0J48514D01*
G01X3411286Y-8746517D01*
G01X3411286Y-8804493D01*
G03X3447100Y-8840307I35814J0D01*
G01X3487100Y-8840307D01*
G03X3522914Y-8804493I0J35814D01*
G01X3522914Y-8744494D01*
G03X3487100Y-8708680I-35814J0D01*
G01X3449123Y-8708680D01*
G01X3467482Y-8690320D01*
G01X3487100Y-8690320D01*
G03X3522914Y-8654506I0J35814D01*
G01X3522914Y-8634889D01*
G01X3901236Y-8256566D01*
G03X3958187Y-8220001I-2336J66273D01*
G01X4102514Y-8364328D01*
G03X4073927Y-8416557I37686J-54565D01*
G01X3942016Y-8548468D01*
G03X3921761Y-8568723I13084J-33339D01*
G01X3789905Y-8700579D01*
G01X3683000Y-8700579D01*
G03X3648695Y-8714789I0J-48514D01*
G01X3420398Y-8943086D01*
G01X3327400Y-8943086D01*
G03X3293095Y-8957295I0J-48514D01*
G01X3240913Y-9009478D01*
G01X3240913Y-8815290D01*
G01X3258595Y-8797607D01*
G01X4879101Y-7672995D02*
G03X4844796Y-7658786I-34305J-34305D01*
G01X4615781Y-7658786D01*
G03X4558686Y-7563094I-59431J29419D01*
G01X4554064Y-7558472D01*
G01X4554064Y-7453281D01*
G01X4576050Y-7453281D01*
G03X4611285Y-7423881I0J35814D01*
G01X4663510Y-7423881D01*
G03X4761139Y-7417107I45716J48037D01*
G03X4745710Y-7320468I-51912J41264D01*
G01X4746777Y-7318210D01*
G01X5003341Y-7574774D01*
G03X5030393Y-7588438I34305J34305D01*
G01X5030393Y-7604482D01*
G01X5030413Y-7605657D01*
G03X5021896Y-7612445I25788J-41093D01*
G01X4996496Y-7637845D01*
G03X4982286Y-7672150I34305J-34305D01*
G01X4982286Y-7776181D01*
G01X4879101Y-7672995D01*
G01X5577655Y-7271481D02*
G01X5839969Y-7533796D01*
G03X5829172Y-7541968I34412J-56686D01*
G01X5668009Y-7541968D01*
G01X5668009Y-7526469D01*
G03X5666281Y-7515476I-35814J0D01*
G03X5668009Y-7504483I-34085J10993D01*
G01X5668009Y-7476482D01*
G03X5632195Y-7440668I-35814J0D01*
G01X5627852Y-7440668D01*
G03X5549003Y-7374565I-66307J986D01*
G01X5549003Y-7357475D01*
G03X5513189Y-7321661I-35814J0D01*
G01X5485188Y-7321661D01*
G03X5474195Y-7323390I0J-35814D01*
G03X5463202Y-7321661I-10993J-34085D01*
G01X5440131Y-7321661D01*
G03X5427485Y-7271481I-65530J10169D01*
G01X5577655Y-7271481D01*
G01X5465462Y-5180712D02*
G03X5463435Y-5166614I-66273J-2336D01*
G01X5829300Y-5166614D01*
G03X5863605Y-5152405I0J48514D01*
G01X5972395Y-5043614D01*
G01X6020900Y-5043614D01*
G03X6056714Y-5007800I0J35814D01*
G01X6056714Y-4918582D01*
G01X6325175Y-5187043D01*
G01X6325175Y-5230548D01*
G03X6328948Y-5246548I35814J0D01*
G03X6325190Y-5261534I32042J-15999D01*
G01X5546284Y-5261534D01*
G01X5465462Y-5180712D01*
G01X5850385Y-5028088D02*
G01X5850515Y-5028275D01*
G01X5849696Y-5029095D01*
G01X5850385Y-5028088D01*
G01X6020900Y-4445646D02*
G03X6056714Y-4409832I0J35814D01*
G01X6056714Y-4304627D01*
G01X6145779Y-4215562D01*
G01X6325190Y-4215562D01*
G03X6328948Y-4230548I35800J1013D01*
G03X6325175Y-4246547I32042J-15999D01*
G01X6325175Y-4288516D01*
G01X6137895Y-4475796D01*
G03X6123686Y-4510100I34305J-34305D01*
G01X6123686Y-4693490D01*
G03X6112396Y-4710046I48514J-45210D01*
G01X6075062Y-4672712D01*
G03X6039842Y-4616454I-66273J-2336D01*
G03X5973514Y-4618895I-31053J-58594D01*
G01X5973514Y-4445646D01*
G01X6020900Y-4445646D01*
G01X6200854Y-4798504D02*
G03X6220714Y-4693490I-28654J59804D01*
G01X6220714Y-4530195D01*
G01X6325175Y-4425734D01*
G01X6325175Y-4468548D01*
G03X6328948Y-4484548I35814J0D01*
G03X6325175Y-4500547I32042J-15999D01*
G01X6325175Y-4595548D01*
G03X6328948Y-4611548I35814J0D01*
G03X6325175Y-4627547I32042J-15999D01*
G01X6325175Y-4722548D01*
G03X6328948Y-4738548I35814J0D01*
G03X6325175Y-4754547I32042J-15999D01*
G01X6325175Y-4849548D01*
G03X6328948Y-4865548I35814J0D01*
G03X6325175Y-4881547I32042J-15999D01*
G01X6325175Y-4922825D01*
G01X6200854Y-4798504D01*
G01X8128970Y-4357548D02*
G03X8125197Y-4373547I32042J-15999D01*
G01X8125197Y-4468548D01*
G03X8128970Y-4484548I35814J0D01*
G03X8125197Y-4500547I32042J-15999D01*
G01X8125197Y-4595548D01*
G03X8128970Y-4611548I35814J0D01*
G03X8125211Y-4626534I32042J-15999D01*
G01X7701906Y-4626534D01*
G01X7417934Y-4342562D01*
G01X8125211Y-4342562D01*
G03X8128970Y-4357548I35800J1013D01*
G01X8411286Y-6647405D02*
G01X7796383Y-7262308D01*
G03X7731155Y-7172761I-62083J23308D01*
G03X7674705Y-7268086I3145J-66239D01*
G01X7502988Y-7439803D01*
G03X7507641Y-7422151I-31162J17652D01*
G01X7507641Y-7329468D01*
G01X8411286Y-6425823D01*
G01X8411286Y-6647405D01*
G54D11*
G01X4235304Y-7349967D02*
G01X4209396Y-7349967D01*
G01X4305550Y-7282720D02*
G01X4305550Y-7256812D01*
G01X4305550Y-7417213D02*
G01X4305550Y-7443121D01*
G01X4235304Y-7904083D02*
G01X4209396Y-7904083D01*
G01X4305550Y-7836837D02*
G01X4305550Y-7810929D01*
G01X4305550Y-7971330D02*
G01X4305550Y-7997238D01*
G01X4475357Y-9109507D02*
G01X4501265Y-9109507D01*
G01X4285865Y-9109507D02*
G01X4259957Y-9109507D01*
G01X4380611Y-9174253D02*
G01X4380611Y-9200161D01*
G01X4380611Y-9044761D02*
G01X4380611Y-9018853D01*
G01X3975100Y-8791539D02*
G01X3975100Y-8817447D01*
G01X3975100Y-8732048D02*
G01X3975100Y-8706140D01*
G01X3955354Y-8761793D02*
G01X3929446Y-8761793D01*
G01X3994846Y-8761793D02*
G01X4020754Y-8761793D01*
G01X3987800Y-5646354D02*
G01X3987800Y-5620446D01*
G01X4055047Y-5716600D02*
G01X4080955Y-5716600D01*
G01X3920554Y-5716600D02*
G01X3894646Y-5716600D01*
G01X4910044Y-6046597D02*
G01X4884136Y-6046597D01*
G01X5156535Y-6046597D02*
G01X5182443Y-6046597D01*
G01X5033289Y-5997851D02*
G01X5033289Y-5971943D01*
G01X5033289Y-6095343D02*
G01X5033289Y-6121251D01*
G01X5315335Y-9109507D02*
G01X5341243Y-9109507D01*
G01X5125843Y-9109507D02*
G01X5099935Y-9109507D01*
G01X5220589Y-9174253D02*
G01X5220589Y-9200161D01*
G01X5220589Y-9044761D02*
G01X5220589Y-9018853D01*
G01X5515773Y-8459550D02*
G01X5541681Y-8459550D01*
G01X5403027Y-8459550D02*
G01X5377119Y-8459550D01*
G01X5459400Y-8528147D02*
G01X5459400Y-8554055D01*
G01X5459400Y-8390953D02*
G01X5459400Y-8365045D01*
G01X6179754Y-7353300D02*
G01X6153846Y-7353300D01*
G01X6250000Y-7286053D02*
G01X6250000Y-7260145D01*
G01X6250000Y-7420546D02*
G01X6250000Y-7446454D01*
G01X5680154Y-4940300D02*
G01X5654246Y-4940300D01*
G01X5750400Y-4873053D02*
G01X5750400Y-4847145D01*
G01X5750400Y-5007546D02*
G01X5750400Y-5033454D01*
G01X5680154Y-4342332D02*
G01X5654246Y-4342332D01*
G01X5750400Y-4275085D02*
G01X5750400Y-4249177D01*
G01X5750400Y-4409578D02*
G01X5750400Y-4435486D01*
G01X5613400Y-5923346D02*
G01X5613400Y-5949254D01*
G01X5546154Y-5853100D02*
G01X5520246Y-5853100D01*
G01X5680647Y-5853100D02*
G01X5706555Y-5853100D01*
G01X6520246Y-8470900D02*
G01X6546154Y-8470900D01*
G01X6450000Y-8538146D02*
G01X6450000Y-8564054D01*
G01X6450000Y-8403653D02*
G01X6450000Y-8377745D01*
G01X6465989Y-3992801D02*
G01X6465989Y-3966893D01*
G01X6570735Y-4040048D02*
G01X6596643Y-4040048D01*
G01X6361243Y-4040048D02*
G01X6335335Y-4040048D01*
G01X7216000Y-4623393D02*
G01X7216000Y-4597485D01*
G01X7075996Y-4623393D02*
G01X7075996Y-4597485D01*
G01X7031250Y-4668139D02*
G01X7005342Y-4668139D01*
G01X7356005Y-4623393D02*
G01X7356005Y-4597485D01*
G01X7400751Y-4668139D02*
G01X7426659Y-4668139D01*
G01X6520246Y-6794500D02*
G01X6546154Y-6794500D01*
G01X6407501Y-6794500D02*
G01X6381593Y-6794500D01*
G01X6463873Y-6863097D02*
G01X6463873Y-6889005D01*
G01X6463873Y-6725903D02*
G01X6463873Y-6699995D01*
G01X6794513Y-5735806D02*
G01X6794513Y-5709898D01*
G01X6794513Y-5945298D02*
G01X6794513Y-5971206D01*
G01X6747266Y-5840552D02*
G01X6721358Y-5840552D01*
G01X7216000Y-4992895D02*
G01X7216000Y-5018803D01*
G01X7075996Y-4992895D02*
G01X7075996Y-5018803D01*
G01X7031250Y-4948149D02*
G01X7005342Y-4948149D01*
G01X7356005Y-4992895D02*
G01X7356005Y-5018803D01*
G01X7400751Y-4948149D02*
G01X7426659Y-4948149D01*
G01X7031250Y-4808144D02*
G01X7005342Y-4808144D01*
G01X7400751Y-4808144D02*
G01X7426659Y-4808144D01*
G01X2250785Y-6806193D02*
G01X2224877Y-6806193D01*
G01X2350277Y-6806193D02*
G01X2376185Y-6806193D01*
G01X2300531Y-6736470D02*
G01X2300531Y-6710562D01*
G01X2300531Y-6875916D02*
G01X2300531Y-6901824D01*
G01X1290254Y-8458200D02*
G01X1264346Y-8458200D01*
G01X1360500Y-8390953D02*
G01X1360500Y-8365045D01*
G01X1360500Y-8525446D02*
G01X1360500Y-8551354D01*
G01X2040727Y-8458200D02*
G01X2014819Y-8458200D01*
G01X2110974Y-8390953D02*
G01X2110974Y-8365045D01*
G01X2110974Y-8525446D02*
G01X2110974Y-8551354D01*
G01X2806700Y-8804239D02*
G01X2806700Y-8830147D01*
G01X2806700Y-8744748D02*
G01X2806700Y-8718840D01*
G01X2786954Y-8774493D02*
G01X2761046Y-8774493D01*
G01X2826446Y-8774493D02*
G01X2852354Y-8774493D01*
G01X3467100Y-8804239D02*
G01X3467100Y-8830147D01*
G01X3467100Y-8744748D02*
G01X3467100Y-8718840D01*
G01X3447354Y-8774493D02*
G01X3421446Y-8774493D01*
G01X3486846Y-8774493D02*
G01X3512754Y-8774493D01*
G01X8266011Y-3992801D02*
G01X8266011Y-3966893D01*
G01X8370757Y-4040048D02*
G01X8396665Y-4040048D01*
G01X8161265Y-4040048D02*
G01X8135357Y-4040048D01*
G01X2077843Y-9559493D02*
G01X2051935Y-9559493D01*
G01X2267335Y-9559493D02*
G01X2293243Y-9559493D01*
G01X2172589Y-9494747D02*
G01X2172589Y-9468839D01*
G01X2172589Y-9624239D02*
G01X2172589Y-9650147D01*
G01X1237865Y-9559493D02*
G01X1211957Y-9559493D01*
G01X1427357Y-9559493D02*
G01X1453265Y-9559493D01*
G01X1332611Y-9494747D02*
G01X1332611Y-9468839D01*
G01X1332611Y-9624239D02*
G01X1332611Y-9650147D01*
G01X3396264Y-9136769D02*
G01X3396264Y-9110861D01*
G01X3396264Y-9296260D02*
G01X3396264Y-9322168D01*
G01X1700954Y-3505200D02*
G01X1675046Y-3505200D01*
G01X1880446Y-3505200D02*
G01X1906354Y-3505200D01*
G01X1790700Y-3415454D02*
G01X1790700Y-3389546D01*
G01X1790700Y-3594946D02*
G01X1790700Y-3620854D01*
G01X2845054Y-9536504D02*
G01X2819146Y-9536504D01*
G01X2964546Y-9536504D02*
G01X2990454Y-9536504D01*
G01X2904800Y-9446758D02*
G01X2904800Y-9420850D01*
G01X2904800Y-9626249D02*
G01X2904800Y-9652157D01*
G01X2962568Y-9268508D02*
G01X2936660Y-9268508D01*
G01X3024815Y-9206262D02*
G01X3024815Y-9180354D01*
G01X3024815Y-9330755D02*
G01X3024815Y-9356663D01*
G01X3572049Y-9268508D02*
G01X3597957Y-9268508D01*
G01X3509802Y-9206262D02*
G01X3509802Y-9180354D01*
G01X3509802Y-9330755D02*
G01X3509802Y-9356663D01*
G01X3570072Y-9536504D02*
G01X3544164Y-9536504D01*
G01X3689563Y-9536504D02*
G01X3715471Y-9536504D01*
G01X3629817Y-9446758D02*
G01X3629817Y-9420850D01*
G01X3629817Y-9626249D02*
G01X3629817Y-9652157D01*
G01X4151696Y-4181232D02*
G01X4151696Y-4207140D01*
G01X4151696Y-3831741D02*
G01X4151696Y-3805833D01*
G01X3986950Y-4006487D02*
G01X3961042Y-4006487D01*
G01X4316442Y-4006487D02*
G01X4342350Y-4006487D01*
G01X4621944Y-4756498D02*
G01X4596036Y-4756498D01*
G01X4801436Y-4756498D02*
G01X4827344Y-4756498D01*
G01X4711690Y-4666752D02*
G01X4711690Y-4640844D01*
G01X4711690Y-4846244D02*
G01X4711690Y-4872152D01*
G01X7366000Y-9468146D02*
G01X7366000Y-9494054D01*
G01X7366000Y-9378654D02*
G01X7366000Y-9352746D01*
G01X8902700Y-7380856D02*
G01X8902700Y-7406764D01*
G01X8792954Y-7311111D02*
G01X8767046Y-7311111D01*
G01X8902700Y-6411344D02*
G01X8902700Y-6385436D01*
G01X8792954Y-6481089D02*
G01X8767046Y-6481089D01*
G01X9012446Y-6481089D02*
G01X9038354Y-6481089D01*
G04 Copper End*

G04 Pad Start*
G54D12*
G01X1560500Y-8458200D03*
G01X1360500Y-8458200D03*
G01X6250000Y-8470900D03*
G01X6450000Y-8470900D03*
G54D13*
G01X1346627Y-7904533D03*
G01X1546626Y-7904533D03*
G01X4491676Y-8459550D03*
G01X4291677Y-8459550D03*
G54D14*
G01X1332611Y-9109507D03*
G01X2172589Y-9109507D03*
G01X1332611Y-9559493D03*
G01X2172589Y-9559493D03*
G01X5220589Y-9559493D03*
G01X4380611Y-9559493D03*
G01X5220589Y-9109507D03*
G01X4380611Y-9109507D03*
G54D12*
G01X2310973Y-8458200D03*
G01X2110974Y-8458200D03*
G01X5950400Y-4940300D03*
G01X5750400Y-4940300D03*
G01X5950400Y-4342332D03*
G01X5750400Y-4342332D03*
G54D16*
G01X3987800Y-5916600D03*
G01X3987800Y-5716600D03*
G01X5613400Y-5653100D03*
G01X5613400Y-5853100D03*
G54D12*
G01X4505550Y-7904083D03*
G01X4305550Y-7904083D03*
G01X4505550Y-7349967D03*
G01X4305550Y-7349967D03*
G54D17*
G01X2300531Y-6806193D03*
G01X2090473Y-6806193D03*
G54D13*
G01X5259400Y-8459550D03*
G01X5459400Y-8459550D03*
G01X6263874Y-6794500D03*
G01X6463873Y-6794500D03*
G01X5259400Y-6794500D03*
G01X5459400Y-6794500D03*
G01X4491676Y-6794500D03*
G01X4291677Y-6794500D03*
G01X7215200Y-8470900D03*
G01X7415200Y-8470900D03*
G01X7415200Y-7912100D03*
G01X7215200Y-7912100D03*
G01X1546626Y-6794500D03*
G01X1346627Y-6794500D03*
G01X2297100Y-7349517D03*
G01X2097100Y-7349517D03*
G01X1346627Y-7349517D03*
G01X1546626Y-7349517D03*
G54D18*
G01X6465989Y-4040048D03*
G01X6465989Y-4167048D03*
G01X6465989Y-4294048D03*
G01X6465989Y-4421048D03*
G01X6465989Y-4548048D03*
G01X6465989Y-4675048D03*
G01X6465989Y-4802048D03*
G01X6465989Y-4929048D03*
G01X6465989Y-5056048D03*
G01X6465989Y-5183048D03*
G01X6465989Y-5310048D03*
G01X6465989Y-5437048D03*
G01X6465989Y-5564048D03*
G01X6465989Y-5691048D03*
G54D19*
G01X6794513Y-5840552D03*
G01X6921513Y-5840552D03*
G01X7048513Y-5840552D03*
G01X7175513Y-5840552D03*
G01X7302513Y-5840552D03*
G01X7429513Y-5840552D03*
G01X7556513Y-5840552D03*
G01X7683513Y-5840552D03*
G01X7810513Y-5840552D03*
G01X7937513Y-5840552D03*
G54D18*
G01X8266011Y-5691048D03*
G01X8266011Y-5564048D03*
G01X8266011Y-5437048D03*
G01X8266011Y-5310048D03*
G01X8266011Y-5183048D03*
G01X8266011Y-5056048D03*
G01X8266011Y-4929048D03*
G01X8266011Y-4802048D03*
G01X8266011Y-4675048D03*
G01X8266011Y-4548048D03*
G01X8266011Y-4421048D03*
G01X8266011Y-4294048D03*
G01X8266011Y-4167048D03*
G01X8266011Y-4040048D03*
G54D20*
G01X7215975Y-4808144D03*
G01X7075996Y-4808144D03*
G01X7356005Y-4808144D03*
G01X7356005Y-4668139D03*
G01X7216000Y-4668139D03*
G01X7075996Y-4668139D03*
G01X7075996Y-4948149D03*
G01X7216000Y-4948149D03*
G01X7356005Y-4948149D03*
G54D21*
G01X5499188Y-7402725D03*
G01X5449201Y-7402725D03*
G01X5399189Y-7402725D03*
G01X5349201Y-7402725D03*
G01X5299189Y-7402725D03*
G01X5249202Y-7402725D03*
G01X5199189Y-7402725D03*
G54D22*
G01X5111457Y-7490482D03*
G01X5111457Y-7540469D03*
G01X5111457Y-7590482D03*
G01X5111457Y-7640469D03*
G01X5111457Y-7690482D03*
G01X5111457Y-7740469D03*
G01X5111457Y-7790481D03*
G54D21*
G01X5199189Y-7878213D03*
G01X5249202Y-7878213D03*
G01X5299189Y-7878213D03*
G01X5349201Y-7878213D03*
G01X5399189Y-7878213D03*
G01X5449201Y-7878213D03*
G01X5499188Y-7878213D03*
G54D22*
G01X5586945Y-7790481D03*
G01X5586945Y-7740469D03*
G01X5586945Y-7690482D03*
G01X5586945Y-7640469D03*
G01X5586945Y-7590482D03*
G01X5586945Y-7540469D03*
G01X5586945Y-7490482D03*
G54D23*
G01X5349201Y-7640469D03*
G54D24*
G01X5033289Y-6046597D03*
G01X5033289Y-5816600D03*
G01X5033289Y-5586603D03*
G54D25*
G01X4466311Y-5816600D03*
G54D12*
G01X6450000Y-7353300D03*
G01X6250000Y-7353300D03*
G54D13*
G01X8701100Y-5232400D03*
G01X8901100Y-5232400D03*
G01X7415200Y-7353300D03*
G01X7215200Y-7353300D03*
G54D26*
G01X4711690Y-4756498D03*
G54D27*
G01X5271684Y-4006487D03*
G01X4151696Y-4006487D03*
G54D26*
G01X4965690Y-4756498D03*
G01X4457690Y-4756498D03*
G54D28*
G01X8902700Y-7096100D03*
G01X8902700Y-6896100D03*
G01X8902700Y-6696100D03*
G54D29*
G01X8902700Y-6481089D03*
G01X8902700Y-7311111D03*
G54D26*
G01X1790700Y-3505200D03*
G01X2044700Y-3505200D03*
G01X2298700Y-3505200D03*
G01X2552700Y-3505200D03*
G54D20*
G01X7493000Y-9423400D03*
G54D30*
G01X7366000Y-9423400D03*
G01X7239000Y-9423400D03*
G54D13*
G01X6463873Y-7912100D03*
G01X6263874Y-7912100D03*
G54D31*
G01X3130804Y-7326300D03*
G01X3320796Y-7326300D03*
G01X3225800Y-7126300D03*
G01X3130804Y-8088300D03*
G01X3320796Y-8088300D03*
G01X3225800Y-7888300D03*
G54D32*
G01X8909957Y-9229030D03*
G54D33*
G01X8909957Y-8975030D03*
G01X8909957Y-8721030D03*
G54D13*
G01X7415200Y-6794500D03*
G01X7215200Y-6794500D03*
G54D34*
G01X3396264Y-9216514D03*
G01X3331266Y-9216514D03*
G01X3266267Y-9216514D03*
G01X3201269Y-9216514D03*
G01X3136270Y-9216514D03*
G54D35*
G01X3629817Y-9536504D03*
G01X2904800Y-9536504D03*
G54D36*
G01X3024815Y-9268508D03*
G01X3509802Y-9268508D03*
G54D37*
G01X2806700Y-8774493D03*
G01X2806700Y-8624506D03*
G01X3467100Y-8774493D03*
G01X3467100Y-8624506D03*
G01X3975100Y-8761793D03*
G01X3975100Y-8611806D03*
G04 Pad End*

G04 Via Start*
G54D38*
G01X7213600Y-7745400D03*
G01X5107000Y-8053150D03*
G01X5107000Y-7875350D03*
G01X4405977Y-6985000D03*
G01X4672677Y-7175500D03*
G01X2878404Y-7073900D03*
G01X3005404Y-7200900D03*
G01X4556350Y-7629367D03*
G01X4505550Y-7781767D03*
G01X4709227Y-7375844D03*
G01X5191350Y-7299167D03*
G01X8091589Y-5233848D03*
G01X8523389Y-5233848D03*
G01X7188200Y-7227900D03*
G01X3683000Y-8167306D03*
G01X4686300Y-7291006D03*
G01X1826026Y-6972300D03*
G01X2334026Y-7480300D03*
G01X4445000Y-8218500D03*
G01X5561545Y-7439682D03*
G01X4419600Y-6059500D03*
G01X6172200Y-4738700D03*
G01X6554800Y-8166100D03*
G01X7316800Y-7658100D03*
G01X6008789Y-4802048D03*
G01X5399189Y-5183048D03*
G01X6008789Y-4675048D03*
G01X8113611Y-5487848D03*
G01X8520011Y-5310048D03*
G01X6509382Y-7590482D03*
G01X5874382Y-7590482D03*
G01X3898900Y-8190293D03*
G01X5295900Y-7301293D03*
G01X4140200Y-8418893D03*
G01X5374601Y-7311492D03*
G01X7150100Y-4660900D03*
G01X7287113Y-4668139D03*
G01X7213600Y-4737100D03*
G01X7150100Y-4813300D03*
G01X7290957Y-4808144D03*
G01X7213600Y-4876800D03*
G01X7141034Y-4933950D03*
G01X7283269Y-4948149D03*
G01X6299200Y-4724400D03*
G01X6197600Y-4330700D03*
G01X6197600Y-5181600D03*
G01X3060700Y-6375400D03*
G01X2730500Y-7315200D03*
G01X5981700Y-7785100D03*
G01X7924800Y-7658100D03*
G01X7924800Y-6388100D03*
G01X3848100Y-8483600D03*
G01X2794000Y-8928100D03*
G01X3352800Y-8597900D03*
G01X3975100Y-7353300D03*
G01X4127500Y-7848600D03*
G01X5966680Y-7353300D03*
G01X7861300Y-4483100D03*
G01X5753100Y-3441700D03*
G01X1866900Y-6807200D03*
G01X4787900Y-7543800D03*
G01X4958698Y-7042150D03*
G01X5715000Y-7454900D03*
G01X5349201Y-7640469D03*
G01X7734300Y-7239000D03*
G01X7556500Y-6985000D03*
G01X8064500Y-6883400D03*
G01X6997700Y-8166100D03*
G01X7129574Y-8196801D03*
G01X7493000Y-9588477D03*
G04 Via End*

G04 Track Start*
G54D11*
G01X6450000Y-7353300D02*
G01X6450000Y-7898227D01*
G01X6463873Y-7912100D01*
G01X5259400Y-8459550D02*
G01X5259400Y-8205550D01*
G01X5107000Y-8053150D01*
G01X5107000Y-7875350D02*
G01X5081600Y-7875350D01*
G01X5030800Y-7824550D01*
G01X5030800Y-7672150D01*
G01X5056200Y-7646750D01*
G01X5105176Y-7646750D01*
G01X5111457Y-7640469D01*
G01X6263874Y-6794500D02*
G01X5459400Y-6794500D01*
G01X4672677Y-7175500D02*
G01X5037646Y-7540469D01*
G01X5111457Y-7540469D01*
G01X3005404Y-7200900D02*
G01X3130804Y-7326300D01*
G01X2089950Y-6806193D02*
G01X1546626Y-7349517D01*
G01X1346627Y-7904533D02*
G01X1346627Y-7349517D01*
G01X1245027Y-7247917D01*
G01X1245027Y-6714517D01*
G01X2032427Y-5927117D01*
G01X3977283Y-5927117D02*
G01X3987800Y-5916600D01*
G01X4366311Y-5916600D01*
G01X4466311Y-5816600D01*
G01X4491711Y-5816600D02*
G01X4491711Y-6794466D01*
G01X4491676Y-6794500D02*
G01X4505550Y-6808373D01*
G01X4505550Y-7349967D01*
G01X4505550Y-7578567D02*
G01X4556350Y-7629367D01*
G01X4505550Y-7781767D02*
G01X4505550Y-7904083D01*
G01X4505550Y-8445677D01*
G01X4491676Y-8459550D01*
G01X5191350Y-7299167D02*
G01X5191350Y-7394886D01*
G01X5199189Y-7402725D01*
G01X5249202Y-7402725D01*
G01X5191350Y-7299167D02*
G01X5267550Y-7222967D01*
G01X5597750Y-7222967D01*
G01X6263874Y-7889091D01*
G01X6263874Y-7912100D01*
G01X5950400Y-4940300D02*
G01X5925000Y-4914900D01*
G01X5925000Y-4367732D01*
G01X5950400Y-4342332D01*
G01X6125683Y-4167048D01*
G01X6465989Y-4167048D01*
G01X2057827Y-5927117D02*
G01X2057827Y-3518327D01*
G01X2044700Y-3505200D01*
G01X6465989Y-4167048D02*
G01X7024789Y-4167048D01*
G01X8091589Y-5233848D01*
G01X5613400Y-5653100D02*
G01X5099787Y-5653100D01*
G01X5033289Y-5586603D01*
G01X5613400Y-5653100D02*
G01X7188200Y-7227900D01*
G01X2310973Y-8458200D02*
G01X2653094Y-8458200D01*
G01X2997200Y-8802306D02*
G01X2997200Y-8726106D01*
G01X3556000Y-8167306D01*
G01X3683000Y-8167306D01*
G01X4597400Y-7151306D02*
G01X4954207Y-6794500D01*
G01X5259400Y-6794500D01*
G01X8902700Y-6896100D02*
G01X9062357Y-7055757D01*
G01X9062357Y-9076630D01*
G01X8909957Y-9229030D01*
G01X1546626Y-6794500D02*
G01X1648226Y-6794500D01*
G01X1826026Y-6972300D01*
G01X2334026Y-7480300D02*
G01X2817800Y-7480300D01*
G01X3225800Y-7888300D01*
G01X3987800Y-7888300D01*
G01X4165600Y-8066100D01*
G01X4292600Y-8066100D01*
G01X4445000Y-8218500D01*
G01X5561545Y-7439682D02*
G01X5561545Y-7465082D01*
G01X5586945Y-7490482D01*
G01X1560500Y-8458200D02*
G01X1560500Y-7924800D01*
G01X1546626Y-7904533D01*
G01X1560500Y-8458200D02*
G01X1560500Y-8881618D01*
G01X1332611Y-9109507D01*
G01X2172589Y-9109507D01*
G01X3214700Y-7137400D02*
G01X3225800Y-7126300D01*
G01X6172200Y-4738700D02*
G01X6172200Y-4510100D01*
G01X6375400Y-4306900D01*
G01X6453137Y-4306900D01*
G01X6465989Y-4294048D01*
G01X6250000Y-8470900D02*
G01X6250000Y-8530082D01*
G01X5220589Y-9559493D01*
G01X4380611Y-9559493D01*
G01X4279011Y-8492693D02*
G01X4279011Y-8472216D01*
G01X4291677Y-8459550D01*
G01X4279011Y-8472216D02*
G01X3895095Y-8088300D01*
G01X3320796Y-8088300D01*
G01X6250000Y-8470900D02*
G01X6554800Y-8166100D01*
G01X8266011Y-4675048D02*
G01X7681811Y-4675048D01*
G01X6513411Y-3506648D01*
G01X2554148Y-3506648D01*
G01X2552700Y-3505200D01*
G01X8266011Y-4294048D02*
G01X7377011Y-4294048D01*
G01X6462611Y-3379648D01*
G01X2424252Y-3379648D01*
G01X2298700Y-3505200D01*
G01X6465989Y-5183048D02*
G01X6389789Y-5183048D01*
G01X6008789Y-4802048D01*
G01X6465989Y-5056048D02*
G01X6389789Y-5056048D01*
G01X6008789Y-4675048D01*
G01X8266011Y-5564048D02*
G01X8189811Y-5564048D01*
G01X8113611Y-5487848D01*
G01X8520011Y-5310048D02*
G01X8623452Y-5310048D01*
G01X8701100Y-5232400D01*
G01X8266011Y-5564048D02*
G01X8342211Y-5564048D01*
G01X8418411Y-5640248D01*
G01X8418411Y-6350089D01*
G01X7415200Y-7353300D01*
G01X2297100Y-7349517D02*
G01X2373300Y-7425717D01*
G01X3221379Y-7425717D01*
G01X3320796Y-7326300D01*
G01X3701796Y-7707300D01*
G01X4844796Y-7707300D01*
G01X5098796Y-7961300D01*
G01X5519327Y-7961300D01*
G01X5663145Y-7817482D01*
G01X5663145Y-7715882D01*
G01X5637745Y-7690482D01*
G01X5586945Y-7690482D01*
G01X5648169Y-7640469D02*
G01X5586945Y-7640469D01*
G01X7215200Y-7912100D02*
G01X8459800Y-6667500D01*
G01X8459800Y-5448300D01*
G01X8409000Y-5397500D01*
G01X8409000Y-4610100D01*
G01X8346948Y-4548048D01*
G01X8266011Y-4548048D01*
G01X6687182Y-7590482D02*
G01X6509382Y-7590482D01*
G01X5874382Y-7590482D02*
G01X5586945Y-7590482D01*
G01X7415200Y-8470900D02*
G01X8507400Y-7378700D01*
G01X8507400Y-5397500D01*
G01X8456600Y-5346700D01*
G01X8456600Y-4533900D01*
G01X8343748Y-4421048D01*
G01X8266011Y-4421048D01*
G01X3238500Y-8749093D02*
G01X3192399Y-8795194D01*
G01X3238500Y-8749093D02*
G01X3340100Y-8749093D01*
G01X3898900Y-8190293D01*
G01X5295900Y-7301293D02*
G01X5295900Y-7399436D01*
G01X5299189Y-7402725D01*
G01X3683000Y-8749093D02*
G01X3810000Y-8749093D01*
G01X4140200Y-8418893D01*
G01X5374601Y-7311492D02*
G01X5349201Y-7336892D01*
G01X5349201Y-7402725D01*
G01X2032427Y-5927117D02*
G01X2057827Y-5927117D01*
G01X3977283Y-5927117D01*
G01X4466311Y-5816600D02*
G01X4491711Y-5816600D01*
G01X4505550Y-7349967D02*
G01X4505550Y-7375367D01*
G01X4505550Y-7578567D01*
G01X2997200Y-8802306D02*
G01X3127426Y-8932532D01*
G01X5399189Y-7402725D02*
G01X5399189Y-7590482D01*
G01X5349201Y-7640469D01*
G01X7215200Y-7353300D02*
G01X7215200Y-7743800D01*
G01X7213600Y-7745400D01*
G01X4686300Y-7291006D02*
G01X4597400Y-7202106D01*
G01X4597400Y-7151306D01*
G01X4505550Y-7375367D02*
G01X4708750Y-7375367D01*
G01X4709227Y-7375844D01*
G01X4491711Y-5816600D02*
G01X4737100Y-5816600D01*
G01X5033289Y-5816600D02*
G01X4737100Y-5816600D01*
G01X4737100Y-5346700D01*
G01X7316800Y-7658100D02*
G01X7353300Y-7658100D01*
G01X7734300Y-7277100D01*
G01X7734300Y-7239000D01*
G01X7415200Y-6794500D02*
G01X7556500Y-6935800D01*
G01X7556500Y-6985000D01*
G01X1560500Y-7924800D02*
G01X1560500Y-7634300D01*
G01X2057400Y-7137400D01*
G01X3214700Y-7137400D01*
G01X8523389Y-5233848D02*
G01X8523389Y-5179911D01*
G01X8623300Y-5080000D01*
G01X8826500Y-5080000D01*
G01X8901100Y-5154600D01*
G01X8901100Y-5232400D01*
G01X6465989Y-5310048D02*
G01X5526189Y-5310048D01*
G01X5399189Y-5183048D01*
G01X4737100Y-5346700D02*
G01X4965700Y-5118100D01*
G01X5829300Y-5118100D01*
G01X5950400Y-4997000D01*
G01X5950400Y-4940300D01*
G01X8266011Y-5704011D02*
G01X8266011Y-5691048D01*
G01X7215200Y-6794500D02*
G01X7215200Y-6551600D01*
G01X7607300Y-6159500D02*
G01X7810522Y-6159500D01*
G01X8266011Y-5704011D01*
G01X7607300Y-6159500D02*
G01X7215200Y-6551600D01*
G01X7262800Y-8166100D02*
G01X6687182Y-7590482D01*
G01X7415200Y-7912100D02*
G01X7415200Y-8129600D01*
G01X7378700Y-8166100D01*
G01X7262800Y-8166100D01*
G01X7215200Y-8470900D02*
G01X6821500Y-8077200D01*
G01X6084900Y-8077200D01*
G01X5648169Y-7640469D01*
G01X4291677Y-6794500D02*
G01X4291677Y-6944163D01*
G01X5459400Y-6794500D02*
G01X5459400Y-6897700D01*
G01X5111457Y-7245643D01*
G01X5111457Y-7490482D01*
G01X1346627Y-6794500D02*
G01X1587927Y-6553200D01*
G01X2357704Y-6553200D01*
G01X2878404Y-7073900D01*
G01X2097100Y-7349517D02*
G01X2097100Y-7520000D01*
G01X2665400Y-8088300D01*
G01X3130804Y-8088300D01*
G01X4332513Y-6985000D02*
G01X4405977Y-6985000D01*
G01X4291677Y-6944163D02*
G01X4332513Y-6985000D01*
G01X6463873Y-7912100D02*
G01X6844873Y-7912100D01*
G01X3352800Y-7126300D02*
G01X4419600Y-6059500D01*
G01X3225800Y-7126300D02*
G01X3352800Y-7126300D01*
G01X4380611Y-9559493D02*
G01X4152900Y-9331782D01*
G01X4152900Y-8618804D01*
G01X4279011Y-8492693D01*
G01X6844873Y-7912100D02*
G01X7129574Y-8196801D01*
G01X3127426Y-9207670D02*
G01X3136270Y-9216514D01*
G01X3127426Y-9207670D02*
G01X3127426Y-8932532D01*
G01X3192399Y-9207645D02*
G01X3201269Y-9216514D01*
G01X3192399Y-9207645D02*
G01X3192399Y-8795194D01*
G01X3683000Y-8749093D02*
G01X3440494Y-8991600D01*
G01X3327400Y-8991600D01*
G01X3266267Y-9052733D01*
G01X3266267Y-9216514D01*
G01X2653094Y-8458200D02*
G01X2997200Y-8802306D01*
G04 Track End*

M02*

