G04 Layer: TopPasteMaskLayer*
G04 EasyEDA Pro v2.2.46.11, 2026-02-24 13:42:52*
G04 Gerber Generator version 0.3*
G04 Scale: 100 percent, Rotated: No, Reflected: No*
G04 Dimensions in millimeters*
G04 Leading zeros omitted, absolute positions, 4 integers and 5 decimals*
G04 Generated by one-click*
%FSLAX45Y45*%
%MOMM*%
%ADD10R,1.9X1.3*%
%ADD11R,1.0X1.39954*%
%ADD12R,2.1X0.95001*%
%ADD13R,0.95001X2.1*%
%ADD14R,0.9X0.9*%
%ADD15R,2.47X0.98001*%
%ADD16R,2.47X3.59999*%
%ADD17R,0.7005X1.25001*%
%ADD18R,0.7X1.25001*%
%ADD19R,0.4X0.6*%
G75*


G04 PolygonModel Start*
G36*
G01X1290003Y-8522200D02*
G01X1290003Y-8394202D01*
G01X1295004Y-8389201D01*
G01X1410005Y-8389201D01*
G01X1415004Y-8394202D01*
G01X1415506Y-8435205D01*
G01X1370505Y-8435205D01*
G01X1370505Y-8480204D01*
G01X1414506Y-8480204D01*
G01X1415004Y-8522200D01*
G01X1410005Y-8527202D01*
G01X1295004Y-8527202D01*
G01X1290003Y-8522200D01*
G37*
G36*
G01X1630998Y-8394200D02*
G01X1630998Y-8522198D01*
G01X1625996Y-8527199D01*
G01X1510995Y-8527199D01*
G01X1505996Y-8522198D01*
G01X1505494Y-8481195D01*
G01X1550495Y-8481195D01*
G01X1550495Y-8436196D01*
G01X1506494Y-8436196D01*
G01X1505996Y-8394200D01*
G01X1510995Y-8389198D01*
G01X1625996Y-8389198D01*
G01X1630998Y-8394200D01*
G37*
G36*
G01X6520498Y-8406900D02*
G01X6520498Y-8534898D01*
G01X6515496Y-8539899D01*
G01X6400495Y-8539899D01*
G01X6395496Y-8534898D01*
G01X6394994Y-8493895D01*
G01X6439995Y-8493895D01*
G01X6439995Y-8448896D01*
G01X6395994Y-8448896D01*
G01X6395496Y-8406900D01*
G01X6400495Y-8401898D01*
G01X6515496Y-8401898D01*
G01X6520498Y-8406900D01*
G37*
G36*
G01X6179503Y-8534900D02*
G01X6179503Y-8406902D01*
G01X6184504Y-8401901D01*
G01X6299505Y-8401901D01*
G01X6304504Y-8406902D01*
G01X6305006Y-8447905D01*
G01X6260005Y-8447905D01*
G01X6260005Y-8492904D01*
G01X6304006Y-8492904D01*
G01X6304504Y-8534900D01*
G01X6299505Y-8539902D01*
G01X6184504Y-8539902D01*
G01X6179503Y-8534900D01*
G37*
G36*
G01X1616629Y-7840533D02*
G01X1616629Y-7968531D01*
G01X1611627Y-7973532D01*
G01X1496626Y-7973532D01*
G01X1491628Y-7968531D01*
G01X1491125Y-7927528D01*
G01X1536126Y-7927528D01*
G01X1536126Y-7882529D01*
G01X1492126Y-7882529D01*
G01X1491628Y-7840533D01*
G01X1496626Y-7835532D01*
G01X1611627Y-7835532D01*
G01X1616629Y-7840533D01*
G37*
G36*
G01X1401628Y-7840533D02*
G01X1401625Y-7882529D01*
G01X1357127Y-7882529D01*
G01X1357127Y-7927528D01*
G01X1401125Y-7927528D01*
G01X1401628Y-7968531D01*
G01X1396627Y-7973532D01*
G01X1281628Y-7973532D01*
G01X1276627Y-7968531D01*
G01X1276627Y-7840533D01*
G01X1281628Y-7835532D01*
G01X1396627Y-7835532D01*
G01X1401628Y-7840533D01*
G37*
G36*
G01X4221674Y-8523550D02*
G01X4221674Y-8395552D01*
G01X4226676Y-8390551D01*
G01X4341677Y-8390551D01*
G01X4346675Y-8395552D01*
G01X4347178Y-8436555D01*
G01X4302177Y-8436555D01*
G01X4302177Y-8481554D01*
G01X4346177Y-8481554D01*
G01X4346675Y-8523550D01*
G01X4341677Y-8528552D01*
G01X4226676Y-8528552D01*
G01X4221674Y-8523550D01*
G37*
G36*
G01X4436675Y-8523550D02*
G01X4436678Y-8481554D01*
G01X4481176Y-8481554D01*
G01X4481176Y-8436555D01*
G01X4437178Y-8436555D01*
G01X4436675Y-8395552D01*
G01X4441676Y-8390551D01*
G01X4556675Y-8390551D01*
G01X4561676Y-8395552D01*
G01X4561676Y-8523550D01*
G01X4556675Y-8528552D01*
G01X4441676Y-8528552D01*
G01X4436675Y-8523550D01*
G37*
G36*
G01X2040476Y-8522200D02*
G01X2040476Y-8394202D01*
G01X2045477Y-8389201D01*
G01X2160478Y-8389201D01*
G01X2165477Y-8394202D01*
G01X2165980Y-8435205D01*
G01X2120979Y-8435205D01*
G01X2120979Y-8480204D01*
G01X2164979Y-8480204D01*
G01X2165477Y-8522200D01*
G01X2160478Y-8527202D01*
G01X2045477Y-8527202D01*
G01X2040476Y-8522200D01*
G37*
G36*
G01X2381471Y-8394200D02*
G01X2381471Y-8522198D01*
G01X2376470Y-8527199D01*
G01X2261469Y-8527199D01*
G01X2256470Y-8522198D01*
G01X2255967Y-8481195D01*
G01X2300968Y-8481195D01*
G01X2300968Y-8436196D01*
G01X2256968Y-8436196D01*
G01X2256470Y-8394200D01*
G01X2261469Y-8389198D01*
G01X2376470Y-8389198D01*
G01X2381471Y-8394200D01*
G37*
G36*
G01X5679902Y-5004300D02*
G01X5679902Y-4876302D01*
G01X5684904Y-4871301D01*
G01X5799905Y-4871301D01*
G01X5804903Y-4876302D01*
G01X5805406Y-4917305D01*
G01X5760405Y-4917305D01*
G01X5760405Y-4962304D01*
G01X5804405Y-4962304D01*
G01X5804903Y-5004300D01*
G01X5799905Y-5009302D01*
G01X5684904Y-5009302D01*
G01X5679902Y-5004300D01*
G37*
G36*
G01X6020897Y-4876300D02*
G01X6020897Y-5004298D01*
G01X6015896Y-5009299D01*
G01X5900895Y-5009299D01*
G01X5895896Y-5004298D01*
G01X5895393Y-4963295D01*
G01X5940395Y-4963295D01*
G01X5940395Y-4918296D01*
G01X5896394Y-4918296D01*
G01X5895896Y-4876300D01*
G01X5900895Y-4871298D01*
G01X6015896Y-4871298D01*
G01X6020897Y-4876300D01*
G37*
G36*
G01X5679902Y-4406332D02*
G01X5679902Y-4278334D01*
G01X5684904Y-4273333D01*
G01X5799905Y-4273333D01*
G01X5804903Y-4278334D01*
G01X5805406Y-4319337D01*
G01X5760405Y-4319337D01*
G01X5760405Y-4364336D01*
G01X5804405Y-4364336D01*
G01X5804903Y-4406332D01*
G01X5799905Y-4411333D01*
G01X5684904Y-4411333D01*
G01X5679902Y-4406332D01*
G37*
G36*
G01X6020897Y-4278331D02*
G01X6020897Y-4406330D01*
G01X6015896Y-4411331D01*
G01X5900895Y-4411331D01*
G01X5895896Y-4406330D01*
G01X5895393Y-4365326D01*
G01X5940395Y-4365326D01*
G01X5940395Y-4320328D01*
G01X5896394Y-4320328D01*
G01X5895896Y-4278331D01*
G01X5900895Y-4273330D01*
G01X6015896Y-4273330D01*
G01X6020897Y-4278331D01*
G37*
G36*
G01X3923800Y-5646102D02*
G01X4051798Y-5646102D01*
G01X4056799Y-5651104D01*
G01X4056799Y-5766105D01*
G01X4051798Y-5771104D01*
G01X4010795Y-5771606D01*
G01X4010795Y-5726605D01*
G01X3965796Y-5726605D01*
G01X3965796Y-5770606D01*
G01X3923800Y-5771104D01*
G01X3918798Y-5766105D01*
G01X3918798Y-5651104D01*
G01X3923800Y-5646102D01*
G37*
G36*
G01X4051800Y-5987097D02*
G01X3923802Y-5987097D01*
G01X3918801Y-5982096D01*
G01X3918801Y-5867095D01*
G01X3923802Y-5862096D01*
G01X3964805Y-5861594D01*
G01X3964805Y-5906595D01*
G01X4009804Y-5906595D01*
G01X4009804Y-5862594D01*
G01X4051800Y-5862096D01*
G01X4056802Y-5867095D01*
G01X4056802Y-5982096D01*
G01X4051800Y-5987097D01*
G37*
G36*
G01X5677400Y-5923597D02*
G01X5549402Y-5923597D01*
G01X5544401Y-5918596D01*
G01X5544401Y-5803595D01*
G01X5549402Y-5798596D01*
G01X5590405Y-5798094D01*
G01X5590405Y-5843095D01*
G01X5635404Y-5843095D01*
G01X5635404Y-5799094D01*
G01X5677400Y-5798596D01*
G01X5682402Y-5803595D01*
G01X5682402Y-5918596D01*
G01X5677400Y-5923597D01*
G37*
G36*
G01X5549400Y-5582602D02*
G01X5677398Y-5582602D01*
G01X5682399Y-5587604D01*
G01X5682399Y-5702605D01*
G01X5677398Y-5707604D01*
G01X5636395Y-5708106D01*
G01X5636395Y-5663105D01*
G01X5591396Y-5663105D01*
G01X5591396Y-5707106D01*
G01X5549400Y-5707604D01*
G01X5544398Y-5702605D01*
G01X5544398Y-5587604D01*
G01X5549400Y-5582602D01*
G37*
G36*
G01X4235052Y-7968084D02*
G01X4235052Y-7840085D01*
G01X4240054Y-7835084D01*
G01X4355055Y-7835084D01*
G01X4360054Y-7840085D01*
G01X4360556Y-7881089D01*
G01X4315555Y-7881089D01*
G01X4315555Y-7926087D01*
G01X4359556Y-7926087D01*
G01X4360054Y-7968084D01*
G01X4355055Y-7973085D01*
G01X4240054Y-7973085D01*
G01X4235052Y-7968084D01*
G37*
G36*
G01X4576047Y-7840083D02*
G01X4576047Y-7968081D01*
G01X4571046Y-7973082D01*
G01X4456045Y-7973082D01*
G01X4451046Y-7968081D01*
G01X4450544Y-7927078D01*
G01X4495545Y-7927078D01*
G01X4495545Y-7882079D01*
G01X4451544Y-7882079D01*
G01X4451046Y-7840083D01*
G01X4456045Y-7835082D01*
G01X4571046Y-7835082D01*
G01X4576047Y-7840083D01*
G37*
G36*
G01X4235052Y-7413967D02*
G01X4235052Y-7285969D01*
G01X4240054Y-7280968D01*
G01X4355055Y-7280968D01*
G01X4360054Y-7285969D01*
G01X4360556Y-7326972D01*
G01X4315555Y-7326972D01*
G01X4315555Y-7371971D01*
G01X4359556Y-7371971D01*
G01X4360054Y-7413967D01*
G01X4355055Y-7418968D01*
G01X4240054Y-7418968D01*
G01X4235052Y-7413967D01*
G37*
G36*
G01X4576047Y-7285966D02*
G01X4576047Y-7413965D01*
G01X4571046Y-7418966D01*
G01X4456045Y-7418966D01*
G01X4451046Y-7413965D01*
G01X4450544Y-7372961D01*
G01X4495545Y-7372961D01*
G01X4495545Y-7327963D01*
G01X4451544Y-7327963D01*
G01X4451046Y-7285966D01*
G01X4456045Y-7280965D01*
G01X4571046Y-7280965D01*
G01X4576047Y-7285966D01*
G37*
G36*
G01X5529402Y-8395550D02*
G01X5529402Y-8523548D01*
G01X5524401Y-8528549D01*
G01X5409400Y-8528549D01*
G01X5404401Y-8523548D01*
G01X5403898Y-8482545D01*
G01X5448899Y-8482545D01*
G01X5448899Y-8437546D01*
G01X5404899Y-8437546D01*
G01X5404401Y-8395550D01*
G01X5409400Y-8390548D01*
G01X5524401Y-8390548D01*
G01X5529402Y-8395550D01*
G37*
G36*
G01X5314401Y-8395550D02*
G01X5314399Y-8437546D01*
G01X5269901Y-8437546D01*
G01X5269901Y-8482545D01*
G01X5313898Y-8482545D01*
G01X5314401Y-8523548D01*
G01X5309400Y-8528549D01*
G01X5194402Y-8528549D01*
G01X5189400Y-8523548D01*
G01X5189400Y-8395550D01*
G01X5194402Y-8390548D01*
G01X5309400Y-8390548D01*
G01X5314401Y-8395550D01*
G37*
G36*
G01X6533876Y-6730500D02*
G01X6533876Y-6858498D01*
G01X6528874Y-6863499D01*
G01X6413873Y-6863499D01*
G01X6408875Y-6858498D01*
G01X6408372Y-6817495D01*
G01X6453373Y-6817495D01*
G01X6453373Y-6772496D01*
G01X6409373Y-6772496D01*
G01X6408875Y-6730500D01*
G01X6413873Y-6725498D01*
G01X6528874Y-6725498D01*
G01X6533876Y-6730500D01*
G37*
G36*
G01X6318875Y-6730500D02*
G01X6318872Y-6772496D01*
G01X6274374Y-6772496D01*
G01X6274374Y-6817495D01*
G01X6318372Y-6817495D01*
G01X6318875Y-6858498D01*
G01X6313874Y-6863499D01*
G01X6198875Y-6863499D01*
G01X6193874Y-6858498D01*
G01X6193874Y-6730500D01*
G01X6198875Y-6725498D01*
G01X6313874Y-6725498D01*
G01X6318875Y-6730500D01*
G37*
G36*
G01X5529402Y-6730500D02*
G01X5529402Y-6858498D01*
G01X5524401Y-6863499D01*
G01X5409400Y-6863499D01*
G01X5404401Y-6858498D01*
G01X5403898Y-6817495D01*
G01X5448899Y-6817495D01*
G01X5448899Y-6772496D01*
G01X5404899Y-6772496D01*
G01X5404401Y-6730500D01*
G01X5409400Y-6725498D01*
G01X5524401Y-6725498D01*
G01X5529402Y-6730500D01*
G37*
G36*
G01X5314401Y-6730500D02*
G01X5314399Y-6772496D01*
G01X5269901Y-6772496D01*
G01X5269901Y-6817495D01*
G01X5313898Y-6817495D01*
G01X5314401Y-6858498D01*
G01X5309400Y-6863499D01*
G01X5194402Y-6863499D01*
G01X5189400Y-6858498D01*
G01X5189400Y-6730500D01*
G01X5194402Y-6725498D01*
G01X5309400Y-6725498D01*
G01X5314401Y-6730500D01*
G37*
G36*
G01X4221674Y-6858500D02*
G01X4221674Y-6730502D01*
G01X4226676Y-6725501D01*
G01X4341677Y-6725501D01*
G01X4346675Y-6730502D01*
G01X4347178Y-6771505D01*
G01X4302177Y-6771505D01*
G01X4302177Y-6816504D01*
G01X4346177Y-6816504D01*
G01X4346675Y-6858500D01*
G01X4341677Y-6863502D01*
G01X4226676Y-6863502D01*
G01X4221674Y-6858500D01*
G37*
G36*
G01X4436675Y-6858500D02*
G01X4436678Y-6816504D01*
G01X4481176Y-6816504D01*
G01X4481176Y-6771505D01*
G01X4437178Y-6771505D01*
G01X4436675Y-6730502D01*
G01X4441676Y-6725501D01*
G01X4556675Y-6725501D01*
G01X4561676Y-6730502D01*
G01X4561676Y-6858500D01*
G01X4556675Y-6863502D01*
G01X4441676Y-6863502D01*
G01X4436675Y-6858500D01*
G37*
G36*
G01X7485202Y-8406900D02*
G01X7485202Y-8534898D01*
G01X7480201Y-8539899D01*
G01X7365200Y-8539899D01*
G01X7360201Y-8534898D01*
G01X7359698Y-8493895D01*
G01X7404699Y-8493895D01*
G01X7404699Y-8448896D01*
G01X7360699Y-8448896D01*
G01X7360201Y-8406900D01*
G01X7365200Y-8401898D01*
G01X7480201Y-8401898D01*
G01X7485202Y-8406900D01*
G37*
G36*
G01X7270201Y-8406900D02*
G01X7270199Y-8448896D01*
G01X7225701Y-8448896D01*
G01X7225701Y-8493895D01*
G01X7269698Y-8493895D01*
G01X7270201Y-8534898D01*
G01X7265200Y-8539899D01*
G01X7150202Y-8539899D01*
G01X7145200Y-8534898D01*
G01X7145200Y-8406900D01*
G01X7150202Y-8401898D01*
G01X7265200Y-8401898D01*
G01X7270201Y-8406900D01*
G37*
G36*
G01X7145198Y-7976100D02*
G01X7145198Y-7848102D01*
G01X7150199Y-7843101D01*
G01X7265200Y-7843101D01*
G01X7270199Y-7848102D01*
G01X7270702Y-7889105D01*
G01X7225701Y-7889105D01*
G01X7225701Y-7934104D01*
G01X7269701Y-7934104D01*
G01X7270199Y-7976100D01*
G01X7265200Y-7981102D01*
G01X7150199Y-7981102D01*
G01X7145198Y-7976100D01*
G37*
G36*
G01X7360199Y-7976100D02*
G01X7360201Y-7934104D01*
G01X7404699Y-7934104D01*
G01X7404699Y-7889105D01*
G01X7360702Y-7889105D01*
G01X7360199Y-7848102D01*
G01X7365200Y-7843101D01*
G01X7480198Y-7843101D01*
G01X7485200Y-7848102D01*
G01X7485200Y-7976100D01*
G01X7480198Y-7981102D01*
G01X7365200Y-7981102D01*
G01X7360199Y-7976100D01*
G37*
G36*
G01X1276624Y-6858500D02*
G01X1276624Y-6730502D01*
G01X1281626Y-6725501D01*
G01X1396627Y-6725501D01*
G01X1401625Y-6730502D01*
G01X1402128Y-6771505D01*
G01X1357127Y-6771505D01*
G01X1357127Y-6816504D01*
G01X1401128Y-6816504D01*
G01X1401625Y-6858500D01*
G01X1396627Y-6863502D01*
G01X1281626Y-6863502D01*
G01X1276624Y-6858500D01*
G37*
G36*
G01X1491625Y-6858500D02*
G01X1491628Y-6816504D01*
G01X1536126Y-6816504D01*
G01X1536126Y-6771505D01*
G01X1492128Y-6771505D01*
G01X1491625Y-6730502D01*
G01X1496626Y-6725501D01*
G01X1611625Y-6725501D01*
G01X1616626Y-6730502D01*
G01X1616626Y-6858500D01*
G01X1611625Y-6863502D01*
G01X1496626Y-6863502D01*
G01X1491625Y-6858500D01*
G37*
G36*
G01X2027098Y-7413517D02*
G01X2027098Y-7285519D01*
G01X2032099Y-7280518D01*
G01X2147100Y-7280518D01*
G01X2152099Y-7285519D01*
G01X2152602Y-7326522D01*
G01X2107601Y-7326522D01*
G01X2107601Y-7371521D01*
G01X2151601Y-7371521D01*
G01X2152099Y-7413517D01*
G01X2147100Y-7418518D01*
G01X2032099Y-7418518D01*
G01X2027098Y-7413517D01*
G37*
G36*
G01X2242099Y-7413517D02*
G01X2242101Y-7371521D01*
G01X2286599Y-7371521D01*
G01X2286599Y-7326522D01*
G01X2242602Y-7326522D01*
G01X2242099Y-7285519D01*
G01X2247100Y-7280518D01*
G01X2362098Y-7280518D01*
G01X2367100Y-7285519D01*
G01X2367100Y-7413517D01*
G01X2362098Y-7418518D01*
G01X2247100Y-7418518D01*
G01X2242099Y-7413517D01*
G37*
G36*
G01X1616629Y-7285516D02*
G01X1616629Y-7413515D01*
G01X1611627Y-7418516D01*
G01X1496626Y-7418516D01*
G01X1491628Y-7413515D01*
G01X1491125Y-7372511D01*
G01X1536126Y-7372511D01*
G01X1536126Y-7327513D01*
G01X1492126Y-7327513D01*
G01X1491628Y-7285516D01*
G01X1496626Y-7280515D01*
G01X1611627Y-7280515D01*
G01X1616629Y-7285516D01*
G37*
G36*
G01X1401628Y-7285516D02*
G01X1401625Y-7327513D01*
G01X1357127Y-7327513D01*
G01X1357127Y-7372511D01*
G01X1401125Y-7372511D01*
G01X1401628Y-7413515D01*
G01X1396627Y-7418516D01*
G01X1281628Y-7418516D01*
G01X1276627Y-7413515D01*
G01X1276627Y-7285516D01*
G01X1281628Y-7280515D01*
G01X1396627Y-7280515D01*
G01X1401628Y-7285516D01*
G37*
G36*
G01X5484201Y-7505469D02*
G01X5484201Y-7775469D01*
G01X5214202Y-7775469D01*
G01X5214202Y-7505469D01*
G01X5484201Y-7505469D01*
G37*
G36*
G01X5632195Y-7476484D02*
G01X5632195Y-7504485D01*
G01X5541695Y-7504485D01*
G01X5541695Y-7476484D01*
G01X5632195Y-7476484D01*
G37*
G36*
G01X5632195Y-7526471D02*
G01X5632195Y-7554472D01*
G01X5541695Y-7554472D01*
G01X5541695Y-7526471D01*
G01X5632195Y-7526471D01*
G37*
G36*
G01X5632195Y-7576484D02*
G01X5632195Y-7604485D01*
G01X5541695Y-7604485D01*
G01X5541695Y-7576484D01*
G01X5632195Y-7576484D01*
G37*
G36*
G01X5632195Y-7626471D02*
G01X5632195Y-7654472D01*
G01X5541695Y-7654472D01*
G01X5541695Y-7626471D01*
G01X5632195Y-7626471D01*
G37*
G36*
G01X5632195Y-7676484D02*
G01X5632195Y-7704485D01*
G01X5541695Y-7704485D01*
G01X5541695Y-7676484D01*
G01X5632195Y-7676484D01*
G37*
G36*
G01X5632195Y-7726471D02*
G01X5632195Y-7754472D01*
G01X5541695Y-7754472D01*
G01X5541695Y-7726471D01*
G01X5632195Y-7726471D01*
G37*
G36*
G01X5632195Y-7776484D02*
G01X5632195Y-7804485D01*
G01X5541695Y-7804485D01*
G01X5541695Y-7776484D01*
G01X5632195Y-7776484D01*
G37*
G36*
G01X5513189Y-7832966D02*
G01X5513189Y-7923466D01*
G01X5485188Y-7923466D01*
G01X5485188Y-7832966D01*
G01X5513189Y-7832966D01*
G37*
G36*
G01X5463202Y-7832966D02*
G01X5463202Y-7923466D01*
G01X5435201Y-7923466D01*
G01X5435201Y-7832966D01*
G01X5463202Y-7832966D01*
G37*
G36*
G01X5413189Y-7832966D02*
G01X5413189Y-7923466D01*
G01X5385188Y-7923466D01*
G01X5385188Y-7832966D01*
G01X5413189Y-7832966D01*
G37*
G36*
G01X5363202Y-7832966D02*
G01X5363202Y-7923466D01*
G01X5335201Y-7923466D01*
G01X5335201Y-7832966D01*
G01X5363202Y-7832966D01*
G37*
G36*
G01X5313189Y-7832966D02*
G01X5313189Y-7923466D01*
G01X5285188Y-7923466D01*
G01X5285188Y-7832966D01*
G01X5313189Y-7832966D01*
G37*
G36*
G01X5263202Y-7832966D02*
G01X5263202Y-7923466D01*
G01X5235201Y-7923466D01*
G01X5235201Y-7832966D01*
G01X5263202Y-7832966D01*
G37*
G36*
G01X5213189Y-7832966D02*
G01X5213189Y-7923466D01*
G01X5185189Y-7923466D01*
G01X5185189Y-7832966D01*
G01X5213189Y-7832966D01*
G37*
G36*
G01X5156707Y-7776484D02*
G01X5156707Y-7804485D01*
G01X5066207Y-7804485D01*
G01X5066207Y-7776484D01*
G01X5156707Y-7776484D01*
G37*
G36*
G01X5156707Y-7726471D02*
G01X5156707Y-7754472D01*
G01X5066207Y-7754472D01*
G01X5066207Y-7726471D01*
G01X5156707Y-7726471D01*
G37*
G36*
G01X5156707Y-7676484D02*
G01X5156707Y-7704485D01*
G01X5066207Y-7704485D01*
G01X5066207Y-7676484D01*
G01X5156707Y-7676484D01*
G37*
G36*
G01X5156707Y-7626471D02*
G01X5156707Y-7654472D01*
G01X5066207Y-7654472D01*
G01X5066207Y-7626471D01*
G01X5156707Y-7626471D01*
G37*
G36*
G01X5156707Y-7576484D02*
G01X5156707Y-7604485D01*
G01X5066207Y-7604485D01*
G01X5066207Y-7576484D01*
G01X5156707Y-7576484D01*
G37*
G36*
G01X5156707Y-7526471D02*
G01X5156707Y-7554472D01*
G01X5066207Y-7554472D01*
G01X5066207Y-7526471D01*
G01X5156707Y-7526471D01*
G37*
G36*
G01X5156707Y-7476484D02*
G01X5156707Y-7504485D01*
G01X5066207Y-7504485D01*
G01X5066207Y-7476484D01*
G01X5156707Y-7476484D01*
G37*
G36*
G01X5213189Y-7357478D02*
G01X5213189Y-7447978D01*
G01X5185189Y-7447978D01*
G01X5185189Y-7357478D01*
G01X5213189Y-7357478D01*
G37*
G36*
G01X5263202Y-7357478D02*
G01X5263202Y-7447978D01*
G01X5235201Y-7447978D01*
G01X5235201Y-7357478D01*
G01X5263202Y-7357478D01*
G37*
G36*
G01X5313189Y-7357478D02*
G01X5313189Y-7447978D01*
G01X5285188Y-7447978D01*
G01X5285188Y-7357478D01*
G01X5313189Y-7357478D01*
G37*
G36*
G01X5363202Y-7357478D02*
G01X5363202Y-7447978D01*
G01X5335201Y-7447978D01*
G01X5335201Y-7357478D01*
G01X5363202Y-7357478D01*
G37*
G36*
G01X5413189Y-7357478D02*
G01X5413189Y-7447978D01*
G01X5385188Y-7447978D01*
G01X5385188Y-7357478D01*
G01X5413189Y-7357478D01*
G37*
G36*
G01X5463202Y-7357478D02*
G01X5463202Y-7447978D01*
G01X5435201Y-7447978D01*
G01X5435201Y-7357478D01*
G01X5463202Y-7357478D01*
G37*
G36*
G01X5513189Y-7357478D02*
G01X5513189Y-7447978D01*
G01X5485188Y-7447978D01*
G01X5485188Y-7357478D01*
G01X5513189Y-7357478D01*
G37*
G36*
G01X6179503Y-7417300D02*
G01X6179503Y-7289302D01*
G01X6184504Y-7284301D01*
G01X6299505Y-7284301D01*
G01X6304504Y-7289302D01*
G01X6305006Y-7330305D01*
G01X6260005Y-7330305D01*
G01X6260005Y-7375304D01*
G01X6304006Y-7375304D01*
G01X6304504Y-7417300D01*
G01X6299505Y-7422302D01*
G01X6184504Y-7422302D01*
G01X6179503Y-7417300D01*
G37*
G36*
G01X6520498Y-7289300D02*
G01X6520498Y-7417298D01*
G01X6515496Y-7422299D01*
G01X6400495Y-7422299D01*
G01X6395496Y-7417298D01*
G01X6394994Y-7376295D01*
G01X6439995Y-7376295D01*
G01X6439995Y-7331296D01*
G01X6395994Y-7331296D01*
G01X6395496Y-7289300D01*
G01X6400495Y-7284298D01*
G01X6515496Y-7284298D01*
G01X6520498Y-7289300D01*
G37*
G36*
G01X8971102Y-5168400D02*
G01X8971102Y-5296398D01*
G01X8966101Y-5301399D01*
G01X8851100Y-5301399D01*
G01X8846101Y-5296398D01*
G01X8845598Y-5255395D01*
G01X8890599Y-5255395D01*
G01X8890599Y-5210396D01*
G01X8846599Y-5210396D01*
G01X8846101Y-5168400D01*
G01X8851100Y-5163398D01*
G01X8966101Y-5163398D01*
G01X8971102Y-5168400D01*
G37*
G36*
G01X8756101Y-5168400D02*
G01X8756099Y-5210396D01*
G01X8711601Y-5210396D01*
G01X8711601Y-5255395D01*
G01X8755598Y-5255395D01*
G01X8756101Y-5296398D01*
G01X8751100Y-5301399D01*
G01X8636102Y-5301399D01*
G01X8631100Y-5296398D01*
G01X8631100Y-5168400D01*
G01X8636102Y-5163398D01*
G01X8751100Y-5163398D01*
G01X8756101Y-5168400D01*
G37*
G36*
G01X7145198Y-7417300D02*
G01X7145198Y-7289302D01*
G01X7150199Y-7284301D01*
G01X7265200Y-7284301D01*
G01X7270199Y-7289302D01*
G01X7270702Y-7330305D01*
G01X7225701Y-7330305D01*
G01X7225701Y-7375304D01*
G01X7269701Y-7375304D01*
G01X7270199Y-7417300D01*
G01X7265200Y-7422302D01*
G01X7150199Y-7422302D01*
G01X7145198Y-7417300D01*
G37*
G36*
G01X7360199Y-7417300D02*
G01X7360201Y-7375304D01*
G01X7404699Y-7375304D01*
G01X7404699Y-7330305D01*
G01X7360702Y-7330305D01*
G01X7360199Y-7289302D01*
G01X7365200Y-7284301D01*
G01X7480198Y-7284301D01*
G01X7485200Y-7289302D01*
G01X7485200Y-7417300D01*
G01X7480198Y-7422302D01*
G01X7365200Y-7422302D01*
G01X7360199Y-7417300D01*
G37*
G36*
G01X6193871Y-7976100D02*
G01X6193871Y-7848102D01*
G01X6198873Y-7843101D01*
G01X6313874Y-7843101D01*
G01X6318872Y-7848102D01*
G01X6319375Y-7889105D01*
G01X6274374Y-7889105D01*
G01X6274374Y-7934104D01*
G01X6318374Y-7934104D01*
G01X6318872Y-7976100D01*
G01X6313874Y-7981102D01*
G01X6198873Y-7981102D01*
G01X6193871Y-7976100D01*
G37*
G36*
G01X6408872Y-7976100D02*
G01X6408875Y-7934104D01*
G01X6453373Y-7934104D01*
G01X6453373Y-7889105D01*
G01X6409375Y-7889105D01*
G01X6408872Y-7848102D01*
G01X6413873Y-7843101D01*
G01X6528872Y-7843101D01*
G01X6533873Y-7848102D01*
G01X6533873Y-7976100D01*
G01X6528872Y-7981102D01*
G01X6413873Y-7981102D01*
G01X6408872Y-7976100D01*
G37*
G36*
G01X7145198Y-6858500D02*
G01X7145198Y-6730502D01*
G01X7150199Y-6725501D01*
G01X7265200Y-6725501D01*
G01X7270199Y-6730502D01*
G01X7270702Y-6771505D01*
G01X7225701Y-6771505D01*
G01X7225701Y-6816504D01*
G01X7269701Y-6816504D01*
G01X7270199Y-6858500D01*
G01X7265200Y-6863502D01*
G01X7150199Y-6863502D01*
G01X7145198Y-6858500D01*
G37*
G36*
G01X7360199Y-6858500D02*
G01X7360201Y-6816504D01*
G01X7404699Y-6816504D01*
G01X7404699Y-6771505D01*
G01X7360702Y-6771505D01*
G01X7360199Y-6730502D01*
G01X7365200Y-6725501D01*
G01X7480198Y-6725501D01*
G01X7485200Y-6730502D01*
G01X7485200Y-6858500D01*
G01X7480198Y-6863502D01*
G01X7365200Y-6863502D01*
G01X7360199Y-6858500D01*
G37*
G36*
G01X3351266Y-9296507D02*
G01X3351266Y-9136507D01*
G01X3311266Y-9136507D01*
G01X3311266Y-9296507D01*
G01X3351266Y-9296507D01*
G37*
G36*
G01X3416264Y-9296509D02*
G01X3416264Y-9136510D01*
G01X3376265Y-9136510D01*
G01X3376265Y-9296509D01*
G01X3416264Y-9296509D01*
G37*
G36*
G01X3156270Y-9296509D02*
G01X3156270Y-9136510D01*
G01X3116270Y-9136510D01*
G01X3116270Y-9296509D01*
G01X3156270Y-9296509D01*
G37*
G36*
G01X3246267Y-9136510D02*
G01X3246267Y-9296509D01*
G01X3286267Y-9296509D01*
G01X3286267Y-9136510D01*
G01X3246267Y-9136510D01*
G37*
G36*
G01X3181269Y-9136510D02*
G01X3181269Y-9296509D01*
G01X3221269Y-9296509D01*
G01X3221269Y-9136510D01*
G01X3181269Y-9136510D01*
G37*
G36*
G01X3511702Y-9206037D02*
G01X3509170Y-9206012D01*
G01X3506638Y-9206088D01*
G01X3504110Y-9206268D01*
G01X3501593Y-9206550D01*
G01X3499089Y-9206934D01*
G01X3496602Y-9207419D01*
G01X3494136Y-9208003D01*
G01X3491697Y-9208689D01*
G01X3489287Y-9209471D01*
G01X3486912Y-9210350D01*
G01X3484575Y-9211325D01*
G01X3482277Y-9212395D01*
G01X3480026Y-9213555D01*
G01X3477824Y-9214808D01*
G01X3475675Y-9216149D01*
G01X3473580Y-9217574D01*
G01X3471545Y-9219085D01*
G01X3469574Y-9220675D01*
G01X3467669Y-9222344D01*
G01X3465833Y-9224091D01*
G01X3464067Y-9225910D01*
G01X3462381Y-9227797D01*
G01X3460768Y-9229753D01*
G01X3459239Y-9231772D01*
G01X3457791Y-9233850D01*
G01X3456429Y-9235986D01*
G01X3455154Y-9238176D01*
G01X3453971Y-9240416D01*
G01X3452879Y-9242702D01*
G01X3451880Y-9245031D01*
G01X3450976Y-9247396D01*
G01X3450168Y-9249799D01*
G01X3449460Y-9252229D01*
G01X3448850Y-9254688D01*
G01X3448340Y-9257170D01*
G01X3447931Y-9259672D01*
G01X3447623Y-9262186D01*
G01X3447418Y-9264711D01*
G01X3447316Y-9267241D01*
G01X3447316Y-9269776D01*
G01X3447418Y-9272306D01*
G01X3447623Y-9274830D01*
G01X3447931Y-9277345D01*
G01X3448340Y-9279847D01*
G01X3448850Y-9282328D01*
G01X3449460Y-9284787D01*
G01X3450168Y-9287218D01*
G01X3450976Y-9289621D01*
G01X3451880Y-9291985D01*
G01X3452879Y-9294315D01*
G01X3453971Y-9296601D01*
G01X3455154Y-9298841D01*
G01X3456429Y-9301030D01*
G01X3457791Y-9303167D01*
G01X3459239Y-9305244D01*
G01X3460768Y-9307264D01*
G01X3462381Y-9309219D01*
G01X3464067Y-9311107D01*
G01X3465833Y-9312925D01*
G01X3467669Y-9314673D01*
G01X3469574Y-9316342D01*
G01X3471545Y-9317932D01*
G01X3473580Y-9319443D01*
G01X3475675Y-9320868D01*
G01X3477824Y-9322209D01*
G01X3480026Y-9323461D01*
G01X3482277Y-9324622D01*
G01X3484575Y-9325691D01*
G01X3486912Y-9326667D01*
G01X3489287Y-9327545D01*
G01X3491697Y-9328328D01*
G01X3494136Y-9329014D01*
G01X3496602Y-9329598D01*
G01X3499089Y-9330083D01*
G01X3501593Y-9330466D01*
G01X3504110Y-9330748D01*
G01X3506638Y-9330929D01*
G01X3509170Y-9331005D01*
G01X3511702Y-9330980D01*
G01X3514232Y-9330853D01*
G01X3516754Y-9330621D01*
G01X3519267Y-9330289D01*
G01X3521763Y-9329854D01*
G01X3524240Y-9329318D01*
G01X3526691Y-9328683D01*
G01X3529117Y-9327949D01*
G01X3531509Y-9327119D01*
G01X3533866Y-9326192D01*
G01X3536185Y-9325168D01*
G01X3538459Y-9324053D01*
G01X3540686Y-9322844D01*
G01X3542863Y-9321549D01*
G01X3544987Y-9320167D01*
G01X3547049Y-9318696D01*
G01X3549053Y-9317147D01*
G01X3550991Y-9315516D01*
G01X3552863Y-9313809D01*
G01X3554664Y-9312026D01*
G01X3556391Y-9310172D01*
G01X3558040Y-9308249D01*
G01X3559612Y-9306263D01*
G01X3561100Y-9304213D01*
G01X3562505Y-9302105D01*
G01X3563823Y-9299941D01*
G01X3565053Y-9297726D01*
G01X3566193Y-9295463D01*
G01X3567237Y-9293156D01*
G01X3568189Y-9290807D01*
G01X3569045Y-9288424D01*
G01X3569802Y-9286006D01*
G01X3570463Y-9283560D01*
G01X3571024Y-9281089D01*
G01X3571484Y-9278597D01*
G01X3571842Y-9276090D01*
G01X3572099Y-9273570D01*
G01X3572251Y-9271041D01*
G01X3572303Y-9268508D01*
G01X3572251Y-9265976D01*
G01X3572099Y-9263446D01*
G01X3571842Y-9260926D01*
G01X3571484Y-9258419D01*
G01X3571024Y-9255928D01*
G01X3570463Y-9253456D01*
G01X3569802Y-9251010D01*
G01X3569045Y-9248592D01*
G01X3568189Y-9246210D01*
G01X3567237Y-9243860D01*
G01X3566193Y-9241554D01*
G01X3565053Y-9239291D01*
G01X3563823Y-9237076D01*
G01X3562505Y-9234912D01*
G01X3561100Y-9232803D01*
G01X3559612Y-9230754D01*
G01X3558040Y-9228767D01*
G01X3556391Y-9226845D01*
G01X3554664Y-9224990D01*
G01X3552863Y-9223207D01*
G01X3550991Y-9221500D01*
G01X3549053Y-9219870D01*
G01X3547049Y-9218320D01*
G01X3544987Y-9216850D01*
G01X3542863Y-9215468D01*
G01X3540686Y-9214173D01*
G01X3538459Y-9212964D01*
G01X3536185Y-9211848D01*
G01X3533866Y-9210825D01*
G01X3531509Y-9209898D01*
G01X3529117Y-9209067D01*
G01X3526691Y-9208333D01*
G01X3524240Y-9207698D01*
G01X3521763Y-9207162D01*
G01X3519267Y-9206728D01*
G01X3516754Y-9206395D01*
G01X3514232Y-9206164D01*
G01X3511702Y-9206037D01*
G37*
G36*
G01X3026715Y-9206037D02*
G01X3024182Y-9206012D01*
G01X3021650Y-9206088D01*
G01X3019123Y-9206268D01*
G01X3016606Y-9206550D01*
G01X3014101Y-9206934D01*
G01X3011615Y-9207419D01*
G01X3009148Y-9208003D01*
G01X3006710Y-9208689D01*
G01X3004299Y-9209471D01*
G01X3001924Y-9210350D01*
G01X2999588Y-9211325D01*
G01X2997289Y-9212395D01*
G01X2995038Y-9213555D01*
G01X2992836Y-9214808D01*
G01X2990687Y-9216149D01*
G01X2988592Y-9217574D01*
G01X2986557Y-9219085D01*
G01X2984586Y-9220675D01*
G01X2982681Y-9222344D01*
G01X2980845Y-9224091D01*
G01X2979080Y-9225910D01*
G01X2977393Y-9227797D01*
G01X2975780Y-9229753D01*
G01X2974251Y-9231772D01*
G01X2972803Y-9233850D01*
G01X2971442Y-9235986D01*
G01X2970167Y-9238176D01*
G01X2968983Y-9240416D01*
G01X2967891Y-9242702D01*
G01X2966893Y-9245031D01*
G01X2965988Y-9247396D01*
G01X2965181Y-9249799D01*
G01X2964472Y-9252229D01*
G01X2963863Y-9254688D01*
G01X2963352Y-9257170D01*
G01X2962943Y-9259672D01*
G01X2962636Y-9262186D01*
G01X2962430Y-9264711D01*
G01X2962328Y-9267241D01*
G01X2962328Y-9269776D01*
G01X2962430Y-9272306D01*
G01X2962636Y-9274830D01*
G01X2962943Y-9277345D01*
G01X2963352Y-9279847D01*
G01X2963863Y-9282328D01*
G01X2964472Y-9284787D01*
G01X2965181Y-9287218D01*
G01X2965988Y-9289621D01*
G01X2966893Y-9291985D01*
G01X2967891Y-9294315D01*
G01X2968983Y-9296601D01*
G01X2970167Y-9298841D01*
G01X2971442Y-9301030D01*
G01X2972803Y-9303167D01*
G01X2974251Y-9305244D01*
G01X2975780Y-9307264D01*
G01X2977393Y-9309219D01*
G01X2979080Y-9311107D01*
G01X2980845Y-9312925D01*
G01X2982681Y-9314673D01*
G01X2984586Y-9316342D01*
G01X2986557Y-9317932D01*
G01X2988592Y-9319443D01*
G01X2990687Y-9320868D01*
G01X2992836Y-9322209D01*
G01X2995038Y-9323461D01*
G01X2997289Y-9324622D01*
G01X2999588Y-9325691D01*
G01X3001924Y-9326667D01*
G01X3004299Y-9327545D01*
G01X3006710Y-9328328D01*
G01X3009148Y-9329014D01*
G01X3011615Y-9329598D01*
G01X3014101Y-9330083D01*
G01X3016606Y-9330466D01*
G01X3019123Y-9330748D01*
G01X3021650Y-9330929D01*
G01X3024182Y-9331005D01*
G01X3026715Y-9330980D01*
G01X3029245Y-9330853D01*
G01X3031767Y-9330621D01*
G01X3034279Y-9330289D01*
G01X3036776Y-9329854D01*
G01X3039252Y-9329318D01*
G01X3041703Y-9328683D01*
G01X3044129Y-9327949D01*
G01X3046522Y-9327119D01*
G01X3048879Y-9326192D01*
G01X3051198Y-9325168D01*
G01X3053471Y-9324053D01*
G01X3055699Y-9322844D01*
G01X3057876Y-9321549D01*
G01X3059999Y-9320167D01*
G01X3062061Y-9318696D01*
G01X3064066Y-9317147D01*
G01X3066004Y-9315516D01*
G01X3067876Y-9313809D01*
G01X3069676Y-9312026D01*
G01X3071404Y-9310172D01*
G01X3073052Y-9308249D01*
G01X3074624Y-9306263D01*
G01X3076113Y-9304213D01*
G01X3077517Y-9302105D01*
G01X3078836Y-9299941D01*
G01X3080065Y-9297726D01*
G01X3081205Y-9295463D01*
G01X3082249Y-9293156D01*
G01X3083202Y-9290807D01*
G01X3084058Y-9288424D01*
G01X3084815Y-9286006D01*
G01X3085475Y-9283560D01*
G01X3086037Y-9281089D01*
G01X3086496Y-9278597D01*
G01X3086854Y-9276090D01*
G01X3087111Y-9273570D01*
G01X3087263Y-9271041D01*
G01X3087315Y-9268508D01*
G01X3087263Y-9265976D01*
G01X3087111Y-9263446D01*
G01X3086854Y-9260926D01*
G01X3086496Y-9258419D01*
G01X3086037Y-9255928D01*
G01X3085475Y-9253456D01*
G01X3084815Y-9251010D01*
G01X3084058Y-9248592D01*
G01X3083202Y-9246210D01*
G01X3082249Y-9243860D01*
G01X3081205Y-9241554D01*
G01X3080065Y-9239291D01*
G01X3078836Y-9237076D01*
G01X3077517Y-9234912D01*
G01X3076113Y-9232803D01*
G01X3074624Y-9230754D01*
G01X3073052Y-9228767D01*
G01X3071404Y-9226845D01*
G01X3069676Y-9224990D01*
G01X3067876Y-9223207D01*
G01X3066004Y-9221500D01*
G01X3064066Y-9219870D01*
G01X3062061Y-9218320D01*
G01X3059999Y-9216850D01*
G01X3057876Y-9215468D01*
G01X3055699Y-9214173D01*
G01X3053471Y-9212964D01*
G01X3051198Y-9211848D01*
G01X3048879Y-9210825D01*
G01X3046522Y-9209898D01*
G01X3044129Y-9209067D01*
G01X3041703Y-9208333D01*
G01X3039252Y-9207698D01*
G01X3036776Y-9207162D01*
G01X3034279Y-9206728D01*
G01X3031767Y-9206395D01*
G01X3029245Y-9206164D01*
G01X3026715Y-9206037D01*
G37*
G36*
G01X3634301Y-9446671D02*
G01X3631314Y-9446522D01*
G01X3628321Y-9446522D01*
G01X3625334Y-9446671D01*
G01X3622358Y-9446969D01*
G01X3619398Y-9447416D01*
G01X3616467Y-9448008D01*
G01X3613567Y-9448747D01*
G01X3610709Y-9449628D01*
G01X3607897Y-9450652D01*
G01X3605141Y-9451812D01*
G01X3602444Y-9453110D01*
G01X3599818Y-9454543D01*
G01X3597265Y-9456102D01*
G01X3594793Y-9457787D01*
G01X3592408Y-9459595D01*
G01X3590117Y-9461518D01*
G01X3587923Y-9463552D01*
G01X3585835Y-9465694D01*
G01X3583854Y-9467936D01*
G01X3581989Y-9470276D01*
G01X3580244Y-9472704D01*
G01X3578621Y-9475219D01*
G01X3577125Y-9477809D01*
G01X3575759Y-9480471D01*
G01X3574529Y-9483197D01*
G01X3573437Y-9485983D01*
G01X3572482Y-9488818D01*
G01X3571672Y-9491698D01*
G01X3571006Y-9494614D01*
G01X3570488Y-9497560D01*
G01X3570115Y-9500530D01*
G01X3569891Y-9503514D01*
G01X3569818Y-9506504D01*
G01X3569818Y-9566504D01*
G01X3569891Y-9569493D01*
G01X3570115Y-9572478D01*
G01X3570488Y-9575447D01*
G01X3571006Y-9578393D01*
G01X3571672Y-9581309D01*
G01X3572482Y-9584190D01*
G01X3573437Y-9587024D01*
G01X3574529Y-9589811D01*
G01X3575759Y-9592536D01*
G01X3577125Y-9595198D01*
G01X3578621Y-9597789D01*
G01X3580244Y-9600303D01*
G01X3581989Y-9602732D01*
G01X3583854Y-9605071D01*
G01X3585835Y-9607314D01*
G01X3587923Y-9609455D01*
G01X3590117Y-9611490D01*
G01X3592408Y-9613412D01*
G01X3594793Y-9615221D01*
G01X3597265Y-9616905D01*
G01X3599818Y-9618464D01*
G01X3602444Y-9619897D01*
G01X3605141Y-9621195D01*
G01X3607897Y-9622356D01*
G01X3610709Y-9623379D01*
G01X3613567Y-9624261D01*
G01X3616467Y-9625000D01*
G01X3619398Y-9625592D01*
G01X3622358Y-9626039D01*
G01X3625334Y-9626336D01*
G01X3628321Y-9626486D01*
G01X3631314Y-9626486D01*
G01X3634301Y-9626336D01*
G01X3637277Y-9626039D01*
G01X3640237Y-9625592D01*
G01X3643168Y-9625000D01*
G01X3646068Y-9624261D01*
G01X3648926Y-9623379D01*
G01X3651738Y-9622356D01*
G01X3654494Y-9621195D01*
G01X3657191Y-9619897D01*
G01X3659817Y-9618464D01*
G01X3662370Y-9616905D01*
G01X3664842Y-9615221D01*
G01X3667227Y-9613412D01*
G01X3669518Y-9611490D01*
G01X3671712Y-9609455D01*
G01X3673800Y-9607314D01*
G01X3675781Y-9605071D01*
G01X3677646Y-9602732D01*
G01X3679391Y-9600303D01*
G01X3681014Y-9597789D01*
G01X3682510Y-9595198D01*
G01X3683876Y-9592536D01*
G01X3685106Y-9589811D01*
G01X3686198Y-9587024D01*
G01X3687153Y-9584190D01*
G01X3687963Y-9581309D01*
G01X3688629Y-9578393D01*
G01X3689147Y-9575447D01*
G01X3689520Y-9572478D01*
G01X3689744Y-9569493D01*
G01X3689817Y-9566504D01*
G01X3689817Y-9506504D01*
G01X3689744Y-9503514D01*
G01X3689520Y-9500530D01*
G01X3689147Y-9497560D01*
G01X3688629Y-9494614D01*
G01X3687963Y-9491698D01*
G01X3687153Y-9488818D01*
G01X3686198Y-9485983D01*
G01X3685106Y-9483197D01*
G01X3683876Y-9480471D01*
G01X3682510Y-9477809D01*
G01X3681014Y-9475219D01*
G01X3679391Y-9472704D01*
G01X3677646Y-9470276D01*
G01X3675781Y-9467936D01*
G01X3673800Y-9465694D01*
G01X3671712Y-9463552D01*
G01X3669518Y-9461518D01*
G01X3667227Y-9459595D01*
G01X3664842Y-9457787D01*
G01X3662370Y-9456102D01*
G01X3659817Y-9454543D01*
G01X3657191Y-9453110D01*
G01X3654494Y-9451812D01*
G01X3651738Y-9450652D01*
G01X3648926Y-9449628D01*
G01X3646068Y-9448747D01*
G01X3643168Y-9448008D01*
G01X3640237Y-9447416D01*
G01X3637277Y-9446969D01*
G01X3634301Y-9446671D01*
G37*
G36*
G01X2903304Y-9446522D02*
G01X2900317Y-9446671D01*
G01X2897340Y-9446969D01*
G01X2894381Y-9447416D01*
G01X2891450Y-9448008D01*
G01X2888549Y-9448747D01*
G01X2885691Y-9449628D01*
G01X2882880Y-9450652D01*
G01X2880124Y-9451812D01*
G01X2877426Y-9453110D01*
G01X2874800Y-9454543D01*
G01X2872247Y-9456102D01*
G01X2869776Y-9457787D01*
G01X2867391Y-9459595D01*
G01X2865100Y-9461518D01*
G01X2862905Y-9463552D01*
G01X2860817Y-9465694D01*
G01X2858836Y-9467936D01*
G01X2856972Y-9470276D01*
G01X2855227Y-9472704D01*
G01X2853604Y-9475219D01*
G01X2852108Y-9477809D01*
G01X2850741Y-9480471D01*
G01X2849512Y-9483197D01*
G01X2848420Y-9485983D01*
G01X2847464Y-9488818D01*
G01X2846654Y-9491698D01*
G01X2845989Y-9494614D01*
G01X2845471Y-9497560D01*
G01X2845097Y-9500530D01*
G01X2844874Y-9503514D01*
G01X2844800Y-9506504D01*
G01X2844800Y-9566504D01*
G01X2844874Y-9569493D01*
G01X2845097Y-9572478D01*
G01X2845471Y-9575447D01*
G01X2845989Y-9578393D01*
G01X2846654Y-9581309D01*
G01X2847464Y-9584190D01*
G01X2848420Y-9587024D01*
G01X2849512Y-9589811D01*
G01X2850741Y-9592536D01*
G01X2852108Y-9595198D01*
G01X2853604Y-9597789D01*
G01X2855227Y-9600303D01*
G01X2856972Y-9602732D01*
G01X2858836Y-9605071D01*
G01X2860817Y-9607314D01*
G01X2862905Y-9609455D01*
G01X2865100Y-9611490D01*
G01X2867391Y-9613412D01*
G01X2869776Y-9615221D01*
G01X2872247Y-9616905D01*
G01X2874800Y-9618464D01*
G01X2877426Y-9619897D01*
G01X2880124Y-9621195D01*
G01X2882880Y-9622356D01*
G01X2885691Y-9623379D01*
G01X2888549Y-9624261D01*
G01X2891450Y-9625000D01*
G01X2894381Y-9625592D01*
G01X2897340Y-9626039D01*
G01X2900317Y-9626336D01*
G01X2903304Y-9626486D01*
G01X2906296Y-9626486D01*
G01X2909283Y-9626336D01*
G01X2912260Y-9626039D01*
G01X2915219Y-9625592D01*
G01X2918150Y-9625000D01*
G01X2921051Y-9624261D01*
G01X2923908Y-9623379D01*
G01X2926720Y-9622356D01*
G01X2929476Y-9621195D01*
G01X2932173Y-9619897D01*
G01X2934800Y-9618464D01*
G01X2937353Y-9616905D01*
G01X2939824Y-9615221D01*
G01X2942209Y-9613412D01*
G01X2944500Y-9611490D01*
G01X2946695Y-9609455D01*
G01X2948783Y-9607314D01*
G01X2950764Y-9605071D01*
G01X2952628Y-9602732D01*
G01X2954373Y-9600303D01*
G01X2955996Y-9597789D01*
G01X2957492Y-9595198D01*
G01X2958859Y-9592536D01*
G01X2960088Y-9589811D01*
G01X2961180Y-9587024D01*
G01X2962135Y-9584190D01*
G01X2962946Y-9581309D01*
G01X2963611Y-9578393D01*
G01X2964129Y-9575447D01*
G01X2964503Y-9572478D01*
G01X2964726Y-9569493D01*
G01X2964800Y-9566504D01*
G01X2964800Y-9506504D01*
G01X2964726Y-9503514D01*
G01X2964503Y-9500530D01*
G01X2964129Y-9497560D01*
G01X2963611Y-9494614D01*
G01X2962946Y-9491698D01*
G01X2962135Y-9488818D01*
G01X2961180Y-9485983D01*
G01X2960088Y-9483197D01*
G01X2958859Y-9480471D01*
G01X2957492Y-9477809D01*
G01X2955996Y-9475219D01*
G01X2954373Y-9472704D01*
G01X2952628Y-9470276D01*
G01X2950764Y-9467936D01*
G01X2948783Y-9465694D01*
G01X2946695Y-9463552D01*
G01X2944500Y-9461518D01*
G01X2942209Y-9459595D01*
G01X2939824Y-9457787D01*
G01X2937353Y-9456102D01*
G01X2934800Y-9454543D01*
G01X2932173Y-9453110D01*
G01X2929476Y-9451812D01*
G01X2926720Y-9450652D01*
G01X2923908Y-9449628D01*
G01X2921051Y-9448747D01*
G01X2918150Y-9448008D01*
G01X2915219Y-9447416D01*
G01X2912260Y-9446969D01*
G01X2909283Y-9446671D01*
G01X2906296Y-9446522D01*
G01X2903304Y-9446522D01*
G37*

G04 Pad Start*
G54D10*
G01X1332611Y-9109507D03*
G01X2172589Y-9109507D03*
G01X1332611Y-9559493D03*
G01X2172589Y-9559493D03*
G01X5220589Y-9559493D03*
G01X4380611Y-9559493D03*
G01X5220589Y-9109507D03*
G01X4380611Y-9109507D03*
G54D11*
G01X2300531Y-6806193D03*
G01X2090473Y-6806193D03*
G54D12*
G01X6465989Y-4040048D03*
G01X6465989Y-4167048D03*
G01X6465989Y-4294048D03*
G01X6465989Y-4421048D03*
G01X6465989Y-4548048D03*
G01X6465989Y-4675048D03*
G01X6465989Y-4802048D03*
G01X6465989Y-4929048D03*
G01X6465989Y-5056048D03*
G01X6465989Y-5183048D03*
G01X6465989Y-5310048D03*
G01X6465989Y-5437048D03*
G01X6465989Y-5564048D03*
G01X6465989Y-5691048D03*
G54D13*
G01X6794513Y-5840552D03*
G01X6921513Y-5840552D03*
G01X7048513Y-5840552D03*
G01X7175513Y-5840552D03*
G01X7302513Y-5840552D03*
G01X7429513Y-5840552D03*
G01X7556513Y-5840552D03*
G01X7683513Y-5840552D03*
G01X7810513Y-5840552D03*
G01X7937513Y-5840552D03*
G54D12*
G01X8266011Y-5691048D03*
G01X8266011Y-5564048D03*
G01X8266011Y-5437048D03*
G01X8266011Y-5310048D03*
G01X8266011Y-5183048D03*
G01X8266011Y-5056048D03*
G01X8266011Y-4929048D03*
G01X8266011Y-4802048D03*
G01X8266011Y-4675048D03*
G01X8266011Y-4548048D03*
G01X8266011Y-4421048D03*
G01X8266011Y-4294048D03*
G01X8266011Y-4167048D03*
G01X8266011Y-4040048D03*
G54D14*
G01X7215975Y-4808144D03*
G01X7075996Y-4808144D03*
G01X7356005Y-4808144D03*
G01X7356005Y-4668139D03*
G01X7216000Y-4668139D03*
G01X7075996Y-4668139D03*
G01X7075996Y-4948149D03*
G01X7216000Y-4948149D03*
G01X7356005Y-4948149D03*
G54D15*
G01X5033289Y-6046597D03*
G01X5033289Y-5816600D03*
G01X5033289Y-5586603D03*
G54D16*
G01X4466311Y-5816600D03*
G54D18*
G01X3130804Y-7326300D03*
G01X3320796Y-7326300D03*
G01X3225800Y-7126300D03*
G01X3130804Y-8088300D03*
G01X3320796Y-8088300D03*
G01X3225800Y-7888300D03*
G54D19*
G01X2806700Y-8774493D03*
G01X2806700Y-8624506D03*
G01X3467100Y-8774493D03*
G01X3467100Y-8624506D03*
G01X3975100Y-8761793D03*
G01X3975100Y-8611806D03*
G04 Pad End*

M02*

