G04 Layer: DrillDrawingLayer*
G04 EasyEDA Pro v2.2.46.11, 2026-02-24 13:42:52*
G04 Gerber Generator version 0.3*
G04 Scale: 100 percent, Rotated: No, Reflected: No*
G04 Dimensions in millimeters*
G04 Leading zeros omitted, absolute positions, 4 integers and 5 decimals*
G04 Generated by one-click*
%FSLAX45Y45*%
%MOMM*%
%AMIconRect*4,1,4,0.28,-0.28,-0.28,-0.28,-0.28,0.28,0.28,0.28,0.28,-0.28,0*4,0,4,0.233333,-0.233333,0.233333,0.233333,-0.233333,0.233333,-0.233333,-0.233333,0.233333,-0.233333,0*%
%AMIconTriangle*4,1,3,-0.339593,0.240473,0.339593,0.240473,0,-0.37884,-0.339593,0.240473,0*4,0,3,-0.265673,0.19404,0,-0.27342,0.266233,0.19404,-0.265673,0.19404,0*%
%AMIconStar6*4,1,12,0.12068,0.20888,0.298527,0.172713,0.241313,0,0.298527,-0.17206,0.12068,-0.208227,0,-0.344073,-0.120073,-0.208227,-0.298573,-0.17206,-0.240707,0,-0.298573,0.17206,-0.120073,0.20888,0,0.344073,0.12068,0.20888,0*4,0,12,-0.000467,0.273467,-0.090067,0.171733,-0.237533,0.136733,-0.193667,-0.007467,-0.237533,-0.1372,-0.090067,-0.171733,-0.000467,-0.273933,0.090067,-0.171733,0.237533,-0.1372,0.194133,0.007,0.237533,0.1372,0.090067,0.171267,-0.000467,0.273467,0*%
%AMIconStar4*4,1,8,-0.311733,0.311733,0,0.202533,0.311733,0.311733,0.202533,0,0.311733,-0.311733,0,-0.202533,-0.304407,-0.311733,-0.202533,0,-0.311733,0.311733,0*4,0,8,0.233333,-0.233333,0.1512,0,0.233333,0.233333,0,0.1512,-0.233333,0.233333,-0.1512,0,-0.233333,-0.233333,0,-0.1512,0.233333,-0.233333,0*%
%AMIconPlus*4,1,12,0.1736,-0.28,-0.1736,-0.28,-0.1736,-0.1736,-0.28,-0.1736,-0.28,0.1736,-0.1736,0.1736,-0.1736,0.28,0.1736,0.28,0.1736,0.1736,0.28,0.1736,0.28,-0.1736,0.1736,-0.1736,0.1736,-0.28,0*4,0,12,0.126933,-0.233333,0.126933,-0.126933,0.233333,-0.126933,0.233333,0.126933,0.126933,0.126933,0.126933,0.233333,-0.126933,0.233333,-0.126933,0.126933,-0.233333,0.126933,-0.233333,-0.126933,-0.126933,-0.126933,-0.126933,-0.233333,0.126933,-0.233333,0*%
%AMIconX*4,1,16,0.28,-0.28,0.076347,-0.28,0,-0.203653,-0.076347,-0.28,-0.28,-0.28,-0.28,-0.076347,-0.203653,0,-0.28,0.076347,-0.28,0.28,-0.076347,0.28,0,0.203653,0.076347,0.28,0.28,0.28,0.28,0.076347,0.203653,0,0.28,-0.076347,0.28,-0.28,0*4,0,16,0.23352,-0.23296,0.23352,-0.095853,0.137107,0.000093,0.23352,0.095853,0.23352,0.2331,0.095853,0.2331,0,0.137107,-0.095853,0.2331,-0.23352,0.2331,-0.23352,0.095853,-0.137107,0.000093,-0.23352,-0.095853,-0.23352,-0.23296,-0.095853,-0.23296,0,-0.137107,0.095853,-0.23296,0.23352,-0.23296,0*%
%AMIconDiamond*4,1,4,0,-0.364,-0.364,0,0,0.364,0.364,0,0,-0.364,0*4,0,4,0,-0.284807,0.284807,0,0,0.28504,-0.284807,0,0,-0.284807,0*%
%AMIconRect2*4,1,6,0.28,-0.28,-0.28,-0.28,-0.28,0.28,-0.23352,0.2331,-0.233333,-0.233333,0.23352,-0.233333,0.28,-0.28,0*4,1,6,0.28,-0.28,0.23352,-0.233333,0.23352,0.2331,-0.23352,0.2331,-0.28,0.28,0.28,0.28,0.28,-0.28,0*4,1,6,0.186853,-0.186667,-0.186667,-0.186667,-0.186667,0.186853,-0.14,0.140187,-0.14,-0.14,0.140187,-0.14,0.186853,-0.186667,0*4,1,6,0.186853,-0.186667,0.140187,-0.14,0.140187,0.140187,-0.14,0.140187,-0.186667,0.186853,0.186853,0.186853,0.186853,-0.186667,0*%
%AMCharA*4,1,8,-0.341787,-0.52192,-0.42896,-0.488693,-0.042373,0.52192,0.0448,0.52192,0.42896,-0.488693,0.341787,-0.52192,0.21392,-0.18536,-0.213173,-0.18536,-0.341787,-0.52192,0*4,0,3,-0.177333,-0.092027,0.178267,-0.092027,0.000933,0.37464,-0.177333,-0.092027,0*%
%AMCharB*4,1,17,-0.367173,-0.53032,-0.367173,0.53032,0.093893,0.53032,0.246587,0.482907,0.31192,0.424853,0.367173,0.319573,0.3668,0.186107,0.320133,0.09464,0.265253,0.03584,0.242107,0.02352,0.265253,0.010827,0.320133,-0.047973,0.3668,-0.13944,0.367173,-0.319573,0.31192,-0.424853,0.246587,-0.48328,0.093893,-0.53032,-0.367173,-0.53032,0*4,0,10,-0.27384,-0.436987,0.086427,-0.436987,0.206827,-0.3976,0.240427,-0.364373,0.278693,-0.28784,0.278693,-0.17192,0.240427,-0.096693,0.206827,-0.06328,0.086427,-0.024267,-0.27384,-0.024267,-0.27384,-0.436987,0*4,0,10,-0.27384,0.069067,0.08624,0.069067,0.206827,0.109947,0.240427,0.143547,0.278693,0.218587,0.278693,0.287467,0.240427,0.364373,0.206827,0.3976,0.086427,0.436987,-0.27384,0.436987,-0.27384,0.069067,0*%
%ADD10IconRect*%
%ADD11C,0.616X0.522667*%
%ADD12IconTriangle*%
%ADD13IconStar6*%
%ADD14IconStar4*%
%ADD15IconPlus*%
%ADD16IconX*%
%ADD17IconDiamond*%
%ADD18IconRect2*%
%ADD19CharA*%
%ADD20CharB*%
G75*


G04 Drill Drawing Start*
G54D10*
G01X4151696Y-4006487D03*
G01X5271684Y-4006487D03*
G54D11*
G01X8902700Y-7311111D03*
G01X8902700Y-6481089D03*
G54D12*
G01X2904800Y-9536504D03*
G01X3629817Y-9536504D03*
G54D13*
G01X3024815Y-9268508D03*
G01X3509802Y-9268508D03*
G54D14*
G01X1038809Y-6768998D03*
G01X8206791Y-7277202D03*
G54D15*
G01X4457690Y-4756498D03*
G01X4711690Y-4756498D03*
G01X4965690Y-4756498D03*
G54D16*
G01X8902700Y-7096100D03*
G01X8902700Y-6896100D03*
G01X8902700Y-6696100D03*
G54D17*
G01X7239000Y-9423400D03*
G01X7366000Y-9423400D03*
G01X7493000Y-9423400D03*
G54D18*
G01X8909957Y-9229030D03*
G01X8909957Y-8975030D03*
G01X8909957Y-8721030D03*
G54D19*
G01X1790700Y-3505200D03*
G01X2044700Y-3505200D03*
G01X2298700Y-3505200D03*
G01X2552700Y-3505200D03*
G54D20*
G01X1826026Y-6972300D03*
G01X1866900Y-6807200D03*
G01X2334026Y-7480300D03*
G01X2730500Y-7315200D03*
G01X2794000Y-8928100D03*
G01X2878404Y-7073900D03*
G01X3005404Y-7200900D03*
G01X3060700Y-6375400D03*
G01X3352800Y-8597900D03*
G01X3683000Y-8167306D03*
G01X3848100Y-8483600D03*
G01X3898900Y-8190293D03*
G01X3975100Y-7353300D03*
G01X4127500Y-7848600D03*
G01X4140200Y-8418893D03*
G01X4405977Y-6985000D03*
G01X4419600Y-6059500D03*
G01X4445000Y-8218500D03*
G01X4505550Y-7781767D03*
G01X4556350Y-7629367D03*
G01X4672677Y-7175500D03*
G01X4686300Y-7291006D03*
G01X4709227Y-7375844D03*
G01X4787900Y-7543800D03*
G01X4958698Y-7042150D03*
G01X5107000Y-8053150D03*
G01X5107000Y-7875350D03*
G01X5191350Y-7299167D03*
G01X5295900Y-7301293D03*
G01X5349201Y-7640469D03*
G01X5374601Y-7311492D03*
G01X5399189Y-5183048D03*
G01X5561545Y-7439682D03*
G01X5715000Y-7454900D03*
G01X5753100Y-3441700D03*
G01X5874382Y-7590482D03*
G01X5966680Y-7353300D03*
G01X5981700Y-7785100D03*
G01X6008789Y-4802048D03*
G01X6008789Y-4675048D03*
G01X6172200Y-4738700D03*
G01X6197600Y-5181600D03*
G01X6197600Y-4330700D03*
G01X6299200Y-4724400D03*
G01X6509382Y-7590482D03*
G01X6554800Y-8166100D03*
G01X6997700Y-8166100D03*
G01X7129574Y-8196801D03*
G01X7141034Y-4933950D03*
G01X7150100Y-4813300D03*
G01X7150100Y-4660900D03*
G01X7188200Y-7227900D03*
G01X7213600Y-7745400D03*
G01X7213600Y-4876800D03*
G01X7213600Y-4737100D03*
G01X7283269Y-4948149D03*
G01X7287113Y-4668139D03*
G01X7290957Y-4808144D03*
G01X7316800Y-7658100D03*
G01X7493000Y-9588477D03*
G01X7556500Y-6985000D03*
G01X7734300Y-7239000D03*
G01X7861300Y-4483100D03*
G01X7924800Y-7658100D03*
G01X7924800Y-6388100D03*
G01X8064500Y-6883400D03*
G01X8091589Y-5233848D03*
G01X8113611Y-5487848D03*
G01X8520011Y-5310048D03*
G01X8523389Y-5233848D03*
G04 Drill Drawing End*

M02*

