G04 Layer: BottomLayer*
G04 EasyEDA Pro v2.2.46.11, 2026-02-24 13:42:52*
G04 Gerber Generator version 0.3*
G04 Scale: 100 percent, Rotated: No, Reflected: No*
G04 Dimensions in millimeters*
G04 Leading zeros omitted, absolute positions, 4 integers and 5 decimals*
G04 Generated by one-click*
%FSLAX45Y45*%
%MOMM*%
%ADD10C,0.2032*%
%ADD11C,0.254*%
%ADD12R,5.08X7.62*%
%ADD13C,1.8*%
%ADD14O,3.29999X3.49999*%
%ADD15C,1.524*%
%ADD16O,2.2X1.4*%
%ADD17R,0.9X0.9*%
%ADD18C,0.9*%
%ADD19R,1.7060X1.7*%
%ADD20R,1.7X1.7*%
%ADD21C,1.7*%
%ADD22O,1.2X1.8*%
%ADD23C,1.25001*%
%ADD24C,0.61*%
G75*


G04 Copper Start*
G36*
G01X9133840Y-3235960D02*
G01X9133840Y-8877778D01*
G01X9127505Y-8869968D01*
G01X9022499Y-8764963D01*
G01X9028590Y-8743880D01*
G01X9030766Y-8722044D01*
G01X9028957Y-8700174D01*
G01X9023221Y-8678992D01*
G01X9013748Y-8659197D01*
G01X9000851Y-8641442D01*
G01X8984955Y-8626313D01*
G01X8966585Y-8614309D01*
G01X8946346Y-8605826D01*
G01X8924906Y-8601144D01*
G01X8902974Y-8600418D01*
G01X8881271Y-8603671D01*
G01X8860516Y-8610795D01*
G01X8841391Y-8621557D01*
G01X8824529Y-8635601D01*
G01X8810485Y-8652464D01*
G01X8799723Y-8671588D01*
G01X8792598Y-8692344D01*
G01X8789345Y-8714047D01*
G01X8790071Y-8735979D01*
G01X8794753Y-8757419D01*
G01X8803236Y-8777658D01*
G01X8815240Y-8796028D01*
G01X8830369Y-8811924D01*
G01X8848124Y-8824821D01*
G01X8867919Y-8834294D01*
G01X8889101Y-8840030D01*
G01X8910971Y-8841839D01*
G01X8932808Y-8839663D01*
G01X8953890Y-8833572D01*
G01X9044686Y-8924368D01*
G01X9044686Y-9405547D01*
G01X8730053Y-9405547D01*
G01X8730053Y-9314029D01*
G01X8789143Y-9314029D01*
G01X8790896Y-9325097D01*
G01X8795983Y-9335080D01*
G01X8803906Y-9343004D01*
G01X8813890Y-9348091D01*
G01X8824957Y-9349843D01*
G01X8994957Y-9349843D01*
G01X9006024Y-9348091D01*
G01X9016008Y-9343004D01*
G01X9023931Y-9335080D01*
G01X9029018Y-9325097D01*
G01X9030771Y-9314029D01*
G01X9030771Y-9144030D01*
G01X9030771Y-9144030D01*
G01X9029018Y-9132963D01*
G01X9023931Y-9122979D01*
G01X9016008Y-9115056D01*
G01X9006024Y-9109969D01*
G01X8994957Y-9108216D01*
G01X8824957Y-9108216D01*
G01X8813890Y-9109969D01*
G01X8803906Y-9115056D01*
G01X8795983Y-9122979D01*
G01X8790896Y-9132963D01*
G01X8789143Y-9144030D01*
G01X8789143Y-9314029D01*
G01X8730053Y-9314029D01*
G01X8730053Y-8928305D01*
G01X8729797Y-8917781D01*
G01X8727276Y-8907559D01*
G01X8722609Y-8898122D01*
G01X8716016Y-8889914D01*
G01X7019305Y-7193202D01*
G01X7009257Y-7185492D01*
G01X6997556Y-7180646D01*
G01X6985000Y-7178992D01*
G01X5156200Y-7178992D01*
G01X5143644Y-7180646D01*
G01X5131943Y-7185492D01*
G01X5121895Y-7193202D01*
G01X5072605Y-7242492D01*
G01X4731510Y-7242492D01*
G01X4721920Y-7235071D01*
G01X4711139Y-7229520D01*
G01X4722607Y-7219140D01*
G01X4731359Y-7206386D01*
G01X4736918Y-7191951D01*
G01X4738981Y-7176621D01*
G01X4737437Y-7161231D01*
G01X4732370Y-7146616D01*
G01X4724055Y-7133573D01*
G01X4712944Y-7122811D01*
G01X4699643Y-7114916D01*
G01X4684874Y-7110317D01*
G01X4669442Y-7109265D01*
G01X4654186Y-7111816D01*
G01X4639935Y-7117832D01*
G01X4627467Y-7126986D01*
G01X4616572Y-7126986D01*
G01X4472250Y-6982664D01*
G01X4471706Y-6979099D01*
G01X7490449Y-6979099D01*
G01X7490863Y-6994450D01*
G01X7494796Y-7009294D01*
G01X7502039Y-7022836D01*
G01X7512202Y-7034348D01*
G01X7524741Y-7043214D01*
G01X7538982Y-7048959D01*
G01X7554164Y-7051273D01*
G01X7685786Y-7182895D01*
G01X7685786Y-7193790D01*
G01X7676688Y-7206161D01*
G01X7670679Y-7220294D01*
G01X7668082Y-7235429D01*
G01X7669036Y-7250756D01*
G01X7673490Y-7265453D01*
G01X7681206Y-7278731D01*
G01X7691768Y-7289878D01*
G01X7704611Y-7298297D01*
G01X7719047Y-7303536D01*
G01X7734300Y-7305314D01*
G01X7749553Y-7303536D01*
G01X7763989Y-7298297D01*
G01X7776832Y-7289878D01*
G01X7787394Y-7278731D01*
G01X7788283Y-7277202D01*
G01X8050977Y-7277202D01*
G01X8052895Y-7301576D01*
G01X8058603Y-7325351D01*
G01X8067960Y-7347940D01*
G01X8080735Y-7368787D01*
G01X8096614Y-7387379D01*
G01X8115206Y-7403258D01*
G01X8136053Y-7416033D01*
G01X8158642Y-7425389D01*
G01X8182416Y-7431097D01*
G01X8206791Y-7433015D01*
G01X8231165Y-7431097D01*
G01X8254940Y-7425389D01*
G01X8277529Y-7416033D01*
G01X8298376Y-7403258D01*
G01X8316968Y-7387379D01*
G01X8332847Y-7368787D01*
G01X8345622Y-7347940D01*
G01X8354978Y-7325351D01*
G01X8360686Y-7301576D01*
G01X8362605Y-7277202D01*
G01X8360686Y-7252827D01*
G01X8354978Y-7229053D01*
G01X8345622Y-7206464D01*
G01X8332847Y-7185617D01*
G01X8316968Y-7167025D01*
G01X8298376Y-7151146D01*
G01X8277529Y-7138371D01*
G01X8254940Y-7129014D01*
G01X8231165Y-7123306D01*
G01X8206791Y-7121388D01*
G01X8182416Y-7123306D01*
G01X8158642Y-7129014D01*
G01X8136053Y-7138371D01*
G01X8115206Y-7151146D01*
G01X8096614Y-7167025D01*
G01X8080735Y-7185617D01*
G01X8067960Y-7206464D01*
G01X8058603Y-7229053D01*
G01X8052895Y-7252827D01*
G01X8050977Y-7277202D01*
G01X8050977Y-7277202D01*
G01X7788283Y-7277202D01*
G01X7795110Y-7265453D01*
G01X7799564Y-7250756D01*
G01X7800518Y-7235429D01*
G01X7797921Y-7220294D01*
G01X7791912Y-7206161D01*
G01X7782814Y-7193790D01*
G01X7782814Y-7162800D01*
G01X7781161Y-7150244D01*
G01X7776314Y-7138543D01*
G01X7768605Y-7128495D01*
G01X7622773Y-6982664D01*
G01X7620459Y-6967482D01*
G01X7614714Y-6953241D01*
G01X7605848Y-6940702D01*
G01X7594336Y-6930539D01*
G01X7580794Y-6923296D01*
G01X7565950Y-6919363D01*
G01X7550599Y-6918949D01*
G01X7535564Y-6922078D01*
G01X7521652Y-6928580D01*
G01X7509609Y-6938109D01*
G01X7509609Y-6938109D01*
G01X7500080Y-6950152D01*
G01X7493578Y-6964064D01*
G01X7490449Y-6979099D01*
G01X4471706Y-6979099D01*
G01X4469935Y-6967482D01*
G01X4464191Y-6953241D01*
G01X4455325Y-6940702D01*
G01X4443812Y-6930539D01*
G01X4430271Y-6923296D01*
G01X4415426Y-6919363D01*
G01X4400075Y-6918949D01*
G01X4385041Y-6922078D01*
G01X4371129Y-6928580D01*
G01X4359086Y-6938109D01*
G01X4349557Y-6950152D01*
G01X4343054Y-6964064D01*
G01X4339926Y-6979099D01*
G01X4340339Y-6994450D01*
G01X4344273Y-7009294D01*
G01X4351515Y-7022836D01*
G01X4361679Y-7034348D01*
G01X4374217Y-7043214D01*
G01X4388459Y-7048959D01*
G01X4403640Y-7051273D01*
G01X4562172Y-7209805D01*
G01X4572220Y-7217514D01*
G01X4583920Y-7222361D01*
G01X4596477Y-7224014D01*
G01X4627467Y-7224014D01*
G01X4637057Y-7231435D01*
G01X4647837Y-7236986D01*
G01X4640496Y-7243053D01*
G01X4608360Y-7243053D01*
G01X4595803Y-7244706D01*
G01X4584103Y-7249552D01*
G01X4574055Y-7257262D01*
G01X4539845Y-7291472D01*
G01X4533296Y-7299612D01*
G01X4528641Y-7308966D01*
G01X4526097Y-7319100D01*
G01X4103310Y-7741686D01*
G01X4090753Y-7743339D01*
G01X4079053Y-7748185D01*
G01X4069005Y-7755895D01*
G01X4034795Y-7790105D01*
G01X4027085Y-7800153D01*
G01X4022239Y-7811853D01*
G01X4020586Y-7824410D01*
G01X3727262Y-8117926D01*
G01X3714773Y-8109100D01*
G01X3700594Y-8103369D01*
G01X3685480Y-8101039D01*
G01X3670234Y-8102233D01*
G01X3655667Y-8106888D01*
G01X3642553Y-8114756D01*
G01X3631590Y-8125418D01*
G01X3623362Y-8138309D01*
G01X3618305Y-8152742D01*
G01X3616689Y-8167949D01*
G01X3618599Y-8183122D01*
G01X3623935Y-8197454D01*
G01X3632412Y-8210183D01*
G01X3643579Y-8220631D01*
G01X3656842Y-8228244D01*
G01X3671497Y-8232615D01*
G01X3686763Y-8233514D01*
G01X3701830Y-8230891D01*
G01X3715895Y-8224887D01*
G01X3728210Y-8215820D01*
G01X3746500Y-8215820D01*
G01X3759056Y-8214167D01*
G01X3770757Y-8209321D01*
G01X3780805Y-8201611D01*
G01X4103404Y-7879011D01*
G01X4111114Y-7868964D01*
G01X4115961Y-7857263D01*
G01X4117614Y-7844707D01*
G01X4123607Y-7838714D01*
G01X4136163Y-7837061D01*
G01X4147864Y-7832214D01*
G01X4157911Y-7824504D01*
G01X4608454Y-7373961D01*
G01X4615004Y-7365821D01*
G01X4619658Y-7356467D01*
G01X4622202Y-7346333D01*
G01X4628455Y-7340081D01*
G01X4641699Y-7340081D01*
G01X4649816Y-7346382D01*
G01X4644458Y-7361611D01*
G01X4642938Y-7377683D01*
G01X4645347Y-7393646D01*
G01X4651542Y-7408554D01*
G01X4661155Y-7421524D01*
G01X4673618Y-7431786D01*
G01X4608894Y-7431786D01*
G01X4596337Y-7433439D01*
G01X4584637Y-7438286D01*
G01X4574589Y-7445995D01*
G01X3896564Y-8124021D01*
G01X3881382Y-8126335D01*
G01X3867141Y-8132079D01*
G01X3854602Y-8140945D01*
G01X3844439Y-8152458D01*
G01X3837196Y-8166000D01*
G01X3833263Y-8180844D01*
G01X3832849Y-8196195D01*
G01X3835978Y-8211230D01*
G01X3842480Y-8225142D01*
G01X3852009Y-8237185D01*
G01X3864052Y-8246713D01*
G01X3877964Y-8253216D01*
G01X3892999Y-8256344D01*
G01X3908350Y-8255931D01*
G01X3923194Y-8251997D01*
G01X3936736Y-8244755D01*
G01X3948248Y-8234592D01*
G01X3957114Y-8222053D01*
G01X3962859Y-8207811D01*
G01X3965173Y-8192630D01*
G01X4497627Y-7660176D01*
G01X4502250Y-7667717D01*
G01X4507836Y-7674577D01*
G01X4507836Y-7710872D01*
G01X4503214Y-7715494D01*
G01X4488032Y-7717808D01*
G01X4473790Y-7723553D01*
G01X4461252Y-7732419D01*
G01X4451089Y-7743931D01*
G01X4443846Y-7757473D01*
G01X4439912Y-7772317D01*
G01X4439499Y-7787668D01*
G01X4442627Y-7802703D01*
G01X4449130Y-7816615D01*
G01X4458659Y-7828658D01*
G01X4470702Y-7838186D01*
G01X4484614Y-7844689D01*
G01X4499648Y-7847818D01*
G01X4514999Y-7847404D01*
G01X4529844Y-7843471D01*
G01X4543385Y-7836228D01*
G01X4554898Y-7826065D01*
G01X4563764Y-7813526D01*
G01X4569508Y-7799284D01*
G01X4571823Y-7784103D01*
G01X4590654Y-7765271D01*
G01X4598364Y-7755224D01*
G01X4603211Y-7743523D01*
G01X4604864Y-7730967D01*
G01X4604864Y-7674577D01*
G01X4613884Y-7662342D01*
G01X4619881Y-7648375D01*
G01X4622541Y-7633409D01*
G01X4621722Y-7618230D01*
G01X4617469Y-7603637D01*
G01X4610004Y-7590396D01*
G01X4599721Y-7579202D01*
G01X4587159Y-7570644D01*
G01X4628989Y-7528814D01*
G01X4851400Y-7528814D01*
G01X4863956Y-7527161D01*
G01X4875657Y-7522314D01*
G01X4885705Y-7514605D01*
G01X4948902Y-7451407D01*
G01X5039077Y-7451407D01*
G01X4137864Y-8352621D01*
G01X4122682Y-8354935D01*
G01X4108441Y-8360679D01*
G01X4095902Y-8369545D01*
G01X4085739Y-8381058D01*
G01X4078496Y-8394600D01*
G01X4074563Y-8409444D01*
G01X4074149Y-8424795D01*
G01X4077278Y-8439830D01*
G01X4083780Y-8453742D01*
G01X4093309Y-8465785D01*
G01X4105352Y-8475313D01*
G01X4119264Y-8481816D01*
G01X4134299Y-8484944D01*
G01X4149650Y-8484531D01*
G01X4164494Y-8480597D01*
G01X4178036Y-8473355D01*
G01X4189548Y-8463192D01*
G01X4198414Y-8450653D01*
G01X4204159Y-8436411D01*
G01X4206473Y-8421230D01*
G01X4383761Y-8243942D01*
G01X4391824Y-8258121D01*
G01X4403104Y-8269904D01*
G01X4416920Y-8278576D01*
G01X4432434Y-8283613D01*
G01X4448709Y-8284710D01*
G01X4464759Y-8281802D01*
G01X4479614Y-8275064D01*
G01X4492374Y-8264903D01*
G01X4502269Y-8251935D01*
G01X4508698Y-8236944D01*
G01X4511273Y-8220836D01*
G01X4853188Y-7878921D01*
G01X5040782Y-7878921D01*
G01X5043379Y-7894056D01*
G01X5049388Y-7908189D01*
G01X5058486Y-7920560D01*
G01X5058486Y-8007940D01*
G01X5049388Y-8020311D01*
G01X5043379Y-8034444D01*
G01X5040782Y-8049579D01*
G01X5041737Y-8064906D01*
G01X5046191Y-8079603D01*
G01X5053906Y-8092881D01*
G01X5064468Y-8104028D01*
G01X5077311Y-8112447D01*
G01X5091747Y-8117686D01*
G01X5107000Y-8119464D01*
G01X5122254Y-8117686D01*
G01X5136689Y-8112447D01*
G01X5149532Y-8104028D01*
G01X5160095Y-8092881D01*
G01X5167810Y-8079603D01*
G01X5172264Y-8064906D01*
G01X5173218Y-8049579D01*
G01X5170621Y-8034444D01*
G01X5164612Y-8020311D01*
G01X5155514Y-8007940D01*
G01X5155514Y-7920560D01*
G01X5155514Y-7920560D01*
G01X5164612Y-7908189D01*
G01X5170621Y-7894056D01*
G01X5173218Y-7878921D01*
G01X5172264Y-7863594D01*
G01X5167810Y-7848897D01*
G01X5160095Y-7835619D01*
G01X5149532Y-7824472D01*
G01X5136689Y-7816053D01*
G01X5122254Y-7810814D01*
G01X5107000Y-7809036D01*
G01X5091747Y-7810814D01*
G01X5077311Y-7816053D01*
G01X5064468Y-7824472D01*
G01X5053906Y-7835619D01*
G01X5046191Y-7848897D01*
G01X5041737Y-7863594D01*
G01X5040782Y-7878921D01*
G01X4853188Y-7878921D01*
G01X5141627Y-7590482D01*
G01X5808068Y-7590482D01*
G01X5809846Y-7605735D01*
G01X5815085Y-7620171D01*
G01X5823504Y-7633014D01*
G01X5834651Y-7643576D01*
G01X5847929Y-7651292D01*
G01X5862626Y-7655746D01*
G01X5877953Y-7656700D01*
G01X5893088Y-7654103D01*
G01X5907220Y-7648094D01*
G01X5919592Y-7638996D01*
G01X6464172Y-7638996D01*
G01X6476543Y-7648094D01*
G01X6490675Y-7654103D01*
G01X6505811Y-7656700D01*
G01X6521138Y-7655746D01*
G01X6535834Y-7651292D01*
G01X6549112Y-7643576D01*
G01X6560260Y-7633014D01*
G01X6568679Y-7620171D01*
G01X6573918Y-7605735D01*
G01X6575696Y-7590482D01*
G01X6575696Y-7590482D01*
G01X6573918Y-7575228D01*
G01X6568679Y-7560793D01*
G01X6560260Y-7547950D01*
G01X6549112Y-7537387D01*
G01X6535834Y-7529672D01*
G01X6521138Y-7525218D01*
G01X6505811Y-7524264D01*
G01X6490675Y-7526861D01*
G01X6476543Y-7532870D01*
G01X6464172Y-7541968D01*
G01X5919592Y-7541968D01*
G01X5907220Y-7532870D01*
G01X5893088Y-7526861D01*
G01X5877953Y-7524264D01*
G01X5862626Y-7525218D01*
G01X5847929Y-7529672D01*
G01X5834651Y-7537387D01*
G01X5823504Y-7547950D01*
G01X5815085Y-7560793D01*
G01X5809846Y-7575228D01*
G01X5808068Y-7590482D01*
G01X5141627Y-7590482D01*
G01X5176295Y-7555814D01*
G01X5493927Y-7555814D01*
G01X5506484Y-7554161D01*
G01X5518184Y-7549315D01*
G01X5528232Y-7541605D01*
G01X5563882Y-7505955D01*
G01X5579063Y-7503641D01*
G01X5593305Y-7497896D01*
G01X5605844Y-7489030D01*
G01X5616007Y-7477518D01*
G01X5623249Y-7463976D01*
G01X5627183Y-7449132D01*
G01X5627596Y-7433781D01*
G01X5624468Y-7418746D01*
G01X5617965Y-7404834D01*
G01X5608437Y-7392791D01*
G01X5596393Y-7383263D01*
G01X5582482Y-7376760D01*
G01X5567447Y-7373631D01*
G01X5552096Y-7374045D01*
G01X5537251Y-7377978D01*
G01X5523710Y-7385221D01*
G01X5512197Y-7395384D01*
G01X5503331Y-7407923D01*
G01X5497587Y-7422165D01*
G01X5495272Y-7437346D01*
G01X5473832Y-7458786D01*
G01X5295916Y-7458786D01*
G01X5376938Y-7377765D01*
G01X5390701Y-7375822D01*
G01X5403757Y-7371053D01*
G01X5415533Y-7363667D01*
G01X5425510Y-7353988D01*
G01X5433250Y-7342442D01*
G01X5438413Y-7329537D01*
G01X5440773Y-7315839D01*
G01X5440225Y-7301949D01*
G01X5436794Y-7288479D01*
G01X5430631Y-7276020D01*
G01X6964905Y-7276020D01*
G01X7287496Y-7598612D01*
G01X7279141Y-7603516D01*
G01X7271590Y-7609586D01*
G01X7062800Y-7609586D01*
G01X7050244Y-7611239D01*
G01X7038543Y-7616086D01*
G01X7028496Y-7623795D01*
G01X6552464Y-8099827D01*
G01X6537283Y-8102141D01*
G01X6523041Y-8107886D01*
G01X6510502Y-8116752D01*
G01X6500339Y-8128264D01*
G01X6493096Y-8141806D01*
G01X6489163Y-8156650D01*
G01X6488749Y-8172001D01*
G01X6491878Y-8187036D01*
G01X6498381Y-8200948D01*
G01X6507909Y-8212991D01*
G01X6519952Y-8222520D01*
G01X6533864Y-8229022D01*
G01X6548899Y-8232151D01*
G01X6564250Y-8231737D01*
G01X6579094Y-8227804D01*
G01X6592636Y-8220561D01*
G01X6604148Y-8210398D01*
G01X6613014Y-8197859D01*
G01X6618759Y-8183618D01*
G01X6621073Y-8168436D01*
G01X7082895Y-7706614D01*
G01X7159811Y-7706614D01*
G01X7152407Y-7719846D01*
G01X7148202Y-7734414D01*
G01X7147416Y-7749556D01*
G01X7150090Y-7764481D01*
G01X7156085Y-7778408D01*
G01X7165086Y-7790610D01*
G01X7165086Y-8140797D01*
G01X7150724Y-8133950D01*
G01X7135145Y-8130721D01*
G01X7119244Y-8131296D01*
G01X7103939Y-8135642D01*
G01X7090109Y-8143508D01*
G01X7078551Y-8154442D01*
G01X7069930Y-8167815D01*
G01X7064743Y-8182856D01*
G01X7063287Y-8198700D01*
G01X7065647Y-8214434D01*
G01X7071688Y-8229154D01*
G01X7081060Y-8242011D01*
G01X7081060Y-9567974D01*
G01X7082713Y-9580530D01*
G01X7087560Y-9592231D01*
G01X7095269Y-9602279D01*
G01X7115795Y-9622805D01*
G01X7125843Y-9630514D01*
G01X7137544Y-9635361D01*
G01X7150100Y-9637014D01*
G01X7447814Y-9637014D01*
G01X7459457Y-9645682D01*
G01X7472707Y-9651610D01*
G01X7486930Y-9654513D01*
G01X7501443Y-9654252D01*
G01X7515551Y-9650839D01*
G01X7528580Y-9644438D01*
G01X7539903Y-9635356D01*
G01X7548979Y-9624029D01*
G01X7555373Y-9610997D01*
G01X7558779Y-9596887D01*
G01X7559033Y-9582374D01*
G01X7556123Y-9568153D01*
G01X7550188Y-9554906D01*
G01X7541514Y-9543267D01*
G01X7541514Y-9504041D01*
G01X7551708Y-9501487D01*
G01X7560722Y-9496083D01*
G01X7567779Y-9488296D01*
G01X7572272Y-9478795D01*
G01X7573814Y-9468400D01*
G01X7573814Y-9378400D01*
G01X7572061Y-9367333D01*
G01X7566974Y-9357349D01*
G01X7559051Y-9349426D01*
G01X7549067Y-9344339D01*
G01X7538000Y-9342586D01*
G01X7448000Y-9342586D01*
G01X7438692Y-9343817D01*
G01X7430023Y-9347425D01*
G01X7422590Y-9353162D01*
G01X7416904Y-9360633D01*
G01X7403551Y-9351840D01*
G01X7388728Y-9345848D01*
G01X7373015Y-9342891D01*
G01X7357028Y-9343086D01*
G01X7341392Y-9346424D01*
G01X7326719Y-9352775D01*
G01X7313584Y-9361891D01*
G01X7302500Y-9373414D01*
G01X7291018Y-9361554D01*
G01X7277367Y-9352274D01*
G01X7262114Y-9345962D01*
G01X7262114Y-7790610D01*
G01X7271115Y-7778408D01*
G01X7277110Y-7764481D01*
G01X7279784Y-7749556D01*
G01X7278998Y-7734414D01*
G01X7274793Y-7719846D01*
G01X7267389Y-7706614D01*
G01X7271590Y-7706614D01*
G01X7284008Y-7715739D01*
G01X7298197Y-7721751D01*
G01X7313390Y-7724326D01*
G01X7328768Y-7723325D01*
G01X7343499Y-7718802D01*
G01X7356788Y-7711001D01*
G01X7367919Y-7700343D01*
G01X7376288Y-7687404D01*
G01X8633025Y-8944141D01*
G01X8633025Y-9436100D01*
G01X8634678Y-9448656D01*
G01X8639525Y-9460357D01*
G01X8647235Y-9470405D01*
G01X8665195Y-9488365D01*
G01X8675243Y-9496075D01*
G01X8686944Y-9500922D01*
G01X8699500Y-9502575D01*
G01X9075239Y-9502575D01*
G01X9087796Y-9500922D01*
G01X9099496Y-9496075D01*
G01X9109544Y-9488365D01*
G01X9127505Y-9470405D01*
G01X9133840Y-9462595D01*
G01X9133840Y-9702940D01*
G01X162560Y-9702940D01*
G01X162560Y-9506504D01*
G01X2808986Y-9506504D01*
G01X2808986Y-9566504D01*
G01X2810827Y-9585196D01*
G01X2816279Y-9603170D01*
G01X2825134Y-9619735D01*
G01X2837049Y-9634254D01*
G01X2851569Y-9646170D01*
G01X2868133Y-9655024D01*
G01X2886108Y-9660476D01*
G01X2904800Y-9662317D01*
G01X2923492Y-9660476D01*
G01X2941466Y-9655024D01*
G01X2958031Y-9646170D01*
G01X2972551Y-9634254D01*
G01X2984466Y-9619735D01*
G01X2993320Y-9603170D01*
G01X2998773Y-9585196D01*
G01X3000614Y-9566504D01*
G01X3000614Y-9506504D01*
G01X3534004Y-9506504D01*
G01X3534004Y-9566504D01*
G01X3535845Y-9585196D01*
G01X3541297Y-9603170D01*
G01X3550151Y-9619735D01*
G01X3562067Y-9634254D01*
G01X3576586Y-9646170D01*
G01X3593151Y-9655024D01*
G01X3611125Y-9660476D01*
G01X3629817Y-9662317D01*
G01X3648510Y-9660476D01*
G01X3666484Y-9655024D01*
G01X3683049Y-9646170D01*
G01X3697568Y-9634254D01*
G01X3709484Y-9619735D01*
G01X3718338Y-9603170D01*
G01X3723790Y-9585196D01*
G01X3725631Y-9566504D01*
G01X3725631Y-9506504D01*
G01X3723790Y-9487811D01*
G01X3718338Y-9469837D01*
G01X3709484Y-9453272D01*
G01X3697568Y-9438753D01*
G01X3683049Y-9426837D01*
G01X3666484Y-9417983D01*
G01X3648510Y-9412531D01*
G01X3629817Y-9410690D01*
G01X3611125Y-9412531D01*
G01X3593151Y-9417983D01*
G01X3576586Y-9426837D01*
G01X3562067Y-9438753D01*
G01X3550151Y-9453272D01*
G01X3541297Y-9469837D01*
G01X3535845Y-9487811D01*
G01X3534004Y-9506504D01*
G01X3534004Y-9506504D01*
G01X3000614Y-9506504D01*
G01X2998773Y-9487811D01*
G01X2993320Y-9469837D01*
G01X2984466Y-9453272D01*
G01X2972551Y-9438753D01*
G01X2958031Y-9426837D01*
G01X2941466Y-9417983D01*
G01X2923492Y-9412531D01*
G01X2904800Y-9410690D01*
G01X2886108Y-9412531D01*
G01X2868133Y-9417983D01*
G01X2851569Y-9426837D01*
G01X2837049Y-9438753D01*
G01X2825134Y-9453272D01*
G01X2816279Y-9469837D01*
G01X2810827Y-9487811D01*
G01X2808986Y-9506504D01*
G01X2808986Y-9506504D01*
G01X162560Y-9506504D01*
G01X162560Y-9268508D01*
G01X2926500Y-9268508D01*
G01X2928389Y-9287688D01*
G01X2933984Y-9306132D01*
G01X2943069Y-9323129D01*
G01X2955296Y-9338027D01*
G01X2970194Y-9350254D01*
G01X2987192Y-9359339D01*
G01X3005635Y-9364934D01*
G01X3024815Y-9366823D01*
G01X3043995Y-9364934D01*
G01X3062438Y-9359339D01*
G01X3079435Y-9350254D01*
G01X3094334Y-9338027D01*
G01X3106560Y-9323129D01*
G01X3115646Y-9306132D01*
G01X3121240Y-9287688D01*
G01X3123129Y-9268508D01*
G01X3411488Y-9268508D01*
G01X3413377Y-9287688D01*
G01X3418972Y-9306132D01*
G01X3428057Y-9323129D01*
G01X3440284Y-9338027D01*
G01X3455182Y-9350254D01*
G01X3472179Y-9359339D01*
G01X3490622Y-9364934D01*
G01X3509802Y-9366823D01*
G01X3528983Y-9364934D01*
G01X3547426Y-9359339D01*
G01X3564423Y-9350254D01*
G01X3579321Y-9338027D01*
G01X3591548Y-9323129D01*
G01X3600633Y-9306132D01*
G01X3606228Y-9287688D01*
G01X3608117Y-9268508D01*
G01X3606228Y-9249328D01*
G01X3600633Y-9230885D01*
G01X3591548Y-9213888D01*
G01X3579321Y-9198989D01*
G01X3564423Y-9186763D01*
G01X3547426Y-9177677D01*
G01X3528983Y-9172083D01*
G01X3509802Y-9170194D01*
G01X3490622Y-9172083D01*
G01X3472179Y-9177677D01*
G01X3455182Y-9186763D01*
G01X3440284Y-9198989D01*
G01X3428057Y-9213888D01*
G01X3418972Y-9230885D01*
G01X3413377Y-9249328D01*
G01X3411488Y-9268508D01*
G01X3411488Y-9268508D01*
G01X3123129Y-9268508D01*
G01X3121240Y-9249328D01*
G01X3115646Y-9230885D01*
G01X3106560Y-9213888D01*
G01X3094334Y-9198989D01*
G01X3079435Y-9186763D01*
G01X3062438Y-9177677D01*
G01X3043995Y-9172083D01*
G01X3024815Y-9170194D01*
G01X3005635Y-9172083D01*
G01X2987192Y-9177677D01*
G01X2970194Y-9186763D01*
G01X2955296Y-9198989D01*
G01X2943069Y-9213888D01*
G01X2933984Y-9230885D01*
G01X2928389Y-9249328D01*
G01X2926500Y-9268508D01*
G01X2926500Y-9268508D01*
G01X162560Y-9268508D01*
G01X162560Y-8458200D01*
G01X201676Y-8458200D01*
G01X203429Y-8469267D01*
G01X208516Y-8479251D01*
G01X216439Y-8487174D01*
G01X226423Y-8492261D01*
G01X237490Y-8494014D01*
G01X745490Y-8494014D01*
G01X745490Y-8494014D01*
G01X756557Y-8492261D01*
G01X766541Y-8487174D01*
G01X774464Y-8479251D01*
G01X779551Y-8469267D01*
G01X781304Y-8458200D01*
G01X781304Y-7696200D01*
G01X779551Y-7685133D01*
G01X774464Y-7675149D01*
G01X766541Y-7667226D01*
G01X756557Y-7662139D01*
G01X745490Y-7660386D01*
G01X237490Y-7660386D01*
G01X226423Y-7662139D01*
G01X216439Y-7667226D01*
G01X208516Y-7675149D01*
G01X203429Y-7685133D01*
G01X201676Y-7696200D01*
G01X201676Y-8458200D01*
G01X162560Y-8458200D01*
G01X162560Y-6966399D01*
G01X1759975Y-6966399D01*
G01X1760389Y-6981750D01*
G01X1764323Y-6996594D01*
G01X1771565Y-7010136D01*
G01X1781728Y-7021648D01*
G01X1794267Y-7030514D01*
G01X1808509Y-7036259D01*
G01X1823690Y-7038573D01*
G01X2267753Y-7482636D01*
G01X2270068Y-7497818D01*
G01X2275812Y-7512059D01*
G01X2284678Y-7524598D01*
G01X2296191Y-7534761D01*
G01X2309732Y-7542004D01*
G01X2324577Y-7545937D01*
G01X2339928Y-7546351D01*
G01X2354962Y-7543222D01*
G01X2368874Y-7536720D01*
G01X2380917Y-7527191D01*
G01X2390446Y-7515148D01*
G01X2396949Y-7501236D01*
G01X2400077Y-7486201D01*
G01X2399664Y-7470850D01*
G01X2395730Y-7456006D01*
G01X2388488Y-7442464D01*
G01X2378324Y-7430952D01*
G01X2365786Y-7422086D01*
G01X2351544Y-7416341D01*
G01X2336363Y-7414027D01*
G01X1990334Y-7067999D01*
G01X2812353Y-7067999D01*
G01X2812767Y-7083350D01*
G01X2816700Y-7098194D01*
G01X2823943Y-7111736D01*
G01X2834106Y-7123248D01*
G01X2846645Y-7132114D01*
G01X2860887Y-7137859D01*
G01X2876068Y-7140173D01*
G01X2939131Y-7203236D01*
G01X2941446Y-7218418D01*
G01X2947190Y-7232659D01*
G01X2956056Y-7245198D01*
G01X2967569Y-7255361D01*
G01X2981110Y-7262604D01*
G01X2995955Y-7266537D01*
G01X3011306Y-7266951D01*
G01X3026340Y-7263822D01*
G01X3040252Y-7257320D01*
G01X3052295Y-7247791D01*
G01X3052295Y-7247791D01*
G01X3061824Y-7235748D01*
G01X3068327Y-7221836D01*
G01X3071455Y-7206801D01*
G01X3071042Y-7191450D01*
G01X3067108Y-7176606D01*
G01X3059865Y-7163064D01*
G01X3049702Y-7151552D01*
G01X3037164Y-7142686D01*
G01X3022922Y-7136941D01*
G01X3007740Y-7134627D01*
G01X2944677Y-7071564D01*
G01X2942363Y-7056382D01*
G01X2936618Y-7042141D01*
G01X2927752Y-7029602D01*
G01X2916240Y-7019439D01*
G01X2902698Y-7012196D01*
G01X2887854Y-7008263D01*
G01X2872503Y-7007849D01*
G01X2857468Y-7010978D01*
G01X2843556Y-7017480D01*
G01X2831513Y-7027009D01*
G01X2821985Y-7039052D01*
G01X2815482Y-7052964D01*
G01X2812353Y-7067999D01*
G01X1990334Y-7067999D01*
G01X1892299Y-6969964D01*
G01X1892299Y-6969964D01*
G01X1889985Y-6954782D01*
G01X1884241Y-6940541D01*
G01X1875374Y-6928002D01*
G01X1863862Y-6917839D01*
G01X1850320Y-6910596D01*
G01X1835476Y-6906663D01*
G01X1820125Y-6906249D01*
G01X1805090Y-6909378D01*
G01X1791178Y-6915880D01*
G01X1779135Y-6925409D01*
G01X1769607Y-6937452D01*
G01X1763104Y-6951364D01*
G01X1759975Y-6966399D01*
G01X162560Y-6966399D01*
G01X162560Y-6350000D01*
G01X201676Y-6350000D01*
G01X203429Y-6361067D01*
G01X208516Y-6371051D01*
G01X216439Y-6378974D01*
G01X226423Y-6384061D01*
G01X237490Y-6385814D01*
G01X745490Y-6385814D01*
G01X756557Y-6384061D01*
G01X766541Y-6378974D01*
G01X774464Y-6371051D01*
G01X779551Y-6361067D01*
G01X781304Y-6350000D01*
G01X781304Y-6327423D01*
G01X1070276Y-6616395D01*
G01X1070276Y-6616395D01*
G01X1045520Y-6613329D01*
G01X1020591Y-6614253D01*
G01X996130Y-6619144D01*
G01X972762Y-6627875D01*
G01X951088Y-6640224D01*
G01X931662Y-6655873D01*
G01X914982Y-6674422D01*
G01X901476Y-6695395D01*
G01X891490Y-6718255D01*
G01X885280Y-6742415D01*
G01X883005Y-6767256D01*
G01X884724Y-6792142D01*
G01X890392Y-6816435D01*
G01X899864Y-6839513D01*
G01X912898Y-6860782D01*
G01X929159Y-6879699D01*
G01X948230Y-6895779D01*
G01X969623Y-6908609D01*
G01X992790Y-6917861D01*
G01X1017136Y-6923297D01*
G01X1042037Y-6924779D01*
G01X1066856Y-6922267D01*
G01X1090956Y-6915827D01*
G01X1113719Y-6905624D01*
G01X1134562Y-6891918D01*
G01X1152951Y-6875062D01*
G01X1168414Y-6855488D01*
G01X1180556Y-6833696D01*
G01X1189064Y-6810247D01*
G01X1193721Y-6785740D01*
G01X1194407Y-6760804D01*
G01X1191105Y-6736078D01*
G01X1199630Y-6740756D01*
G01X1208916Y-6743640D01*
G01X1218590Y-6744614D01*
G01X8801737Y-6744614D01*
G01X8811004Y-6760435D01*
G01X8822727Y-6774532D01*
G01X8836593Y-6786527D01*
G01X8852230Y-6796100D01*
G01X8834795Y-6807016D01*
G01X8819650Y-6820935D01*
G01X8807305Y-6837390D01*
G01X8798177Y-6855824D01*
G01X8792575Y-6875617D01*
G01X8790686Y-6896100D01*
G01X8792575Y-6916583D01*
G01X8798177Y-6936376D01*
G01X8807305Y-6954810D01*
G01X8819650Y-6971265D01*
G01X8834795Y-6985184D01*
G01X8852230Y-6996100D01*
G01X8835594Y-7006412D01*
G01X8821007Y-7019462D01*
G01X8808913Y-7034852D01*
G01X8799684Y-7052113D01*
G01X8793600Y-7070716D01*
G01X8790847Y-7090095D01*
G01X8791509Y-7109657D01*
G01X8795567Y-7128805D01*
G01X8802895Y-7146954D01*
G01X8813271Y-7163551D01*
G01X8826378Y-7178088D01*
G01X8841815Y-7190122D01*
G01X8859111Y-7199284D01*
G01X8877738Y-7205297D01*
G01X8862700Y-7205297D01*
G01X8843257Y-7207098D01*
G01X8824476Y-7212442D01*
G01X8806996Y-7221146D01*
G01X8791414Y-7232913D01*
G01X8778259Y-7247344D01*
G01X8767979Y-7263945D01*
G01X8760926Y-7282153D01*
G01X8757338Y-7301347D01*
G01X8757338Y-7320874D01*
G01X8760926Y-7340068D01*
G01X8767979Y-7358276D01*
G01X8778259Y-7374878D01*
G01X8791414Y-7389308D01*
G01X8806996Y-7401075D01*
G01X8824476Y-7409779D01*
G01X8843257Y-7415123D01*
G01X8862700Y-7416924D01*
G01X8942700Y-7416924D01*
G01X8960972Y-7415335D01*
G01X8978695Y-7410614D01*
G01X8995336Y-7402904D01*
G01X9010396Y-7392436D01*
G01X9010396Y-7660459D01*
G01X9008110Y-7660386D01*
G01X8500110Y-7660386D01*
G01X8489043Y-7662139D01*
G01X8479059Y-7667226D01*
G01X8471136Y-7675149D01*
G01X8466049Y-7685133D01*
G01X8464296Y-7696200D01*
G01X8464296Y-8458200D01*
G01X8464395Y-8460858D01*
G01X7251429Y-7247892D01*
G01X7254381Y-7232095D01*
G01X7253447Y-7216051D01*
G01X7248680Y-7200703D01*
G01X7240362Y-7186953D01*
G01X7228980Y-7175607D01*
G01X7215203Y-7167333D01*
G01X7199840Y-7162616D01*
G01X7183793Y-7161733D01*
G01X7168005Y-7164736D01*
G01X7153404Y-7171449D01*
G01X7140846Y-7181477D01*
G01X7131069Y-7194232D01*
G01X7124647Y-7208964D01*
G01X7121958Y-7224808D01*
G01X7123160Y-7240834D01*
G01X7128181Y-7256101D01*
G01X7136727Y-7269711D01*
G01X7148297Y-7280865D01*
G01X7153895Y-7287577D01*
G01X8797414Y-8931096D01*
G01X8791324Y-8952179D01*
G01X8789147Y-8974015D01*
G01X8790957Y-8995885D01*
G01X8796692Y-9017067D01*
G01X8806165Y-9036862D01*
G01X8819062Y-9054617D01*
G01X8834958Y-9069746D01*
G01X8853329Y-9081750D01*
G01X8873568Y-9090233D01*
G01X8895007Y-9094915D01*
G01X8916940Y-9095641D01*
G01X8938642Y-9092389D01*
G01X8959398Y-9085264D01*
G01X8978523Y-9074502D01*
G01X8995385Y-9060458D01*
G01X9009429Y-9043595D01*
G01X9020191Y-9024471D01*
G01X9027316Y-9003715D01*
G01X9030569Y-8982013D01*
G01X9029842Y-8960080D01*
G01X9025160Y-8938640D01*
G01X9016677Y-8918402D01*
G01X9004673Y-8900031D01*
G01X8989544Y-8884135D01*
G01X8971789Y-8871238D01*
G01X8951994Y-8861765D01*
G01X8930813Y-8856029D01*
G01X8908942Y-8854220D01*
G01X8887106Y-8856396D01*
G01X8866023Y-8862487D01*
G01X8497452Y-8493915D01*
G01X8500110Y-8494014D01*
G01X9008110Y-8494014D01*
G01X9019177Y-8492261D01*
G01X9029161Y-8487174D01*
G01X9037084Y-8479251D01*
G01X9042171Y-8469267D01*
G01X9043924Y-8458200D01*
G01X9043924Y-7855995D01*
G01X9093215Y-7806705D01*
G01X9100924Y-7796657D01*
G01X9105771Y-7784956D01*
G01X9107424Y-7772400D01*
G01X9107424Y-6273800D01*
G01X9105771Y-6261244D01*
G01X9100924Y-6249543D01*
G01X9093215Y-6239495D01*
G01X9043924Y-6190205D01*
G01X9043924Y-5588000D01*
G01X9042171Y-5576933D01*
G01X9037084Y-5566949D01*
G01X9029161Y-5559026D01*
G01X9019177Y-5553939D01*
G01X9008110Y-5552186D01*
G01X8500110Y-5552186D01*
G01X8489043Y-5553939D01*
G01X8479059Y-5559026D01*
G01X8471136Y-5566949D01*
G01X8466049Y-5576933D01*
G01X8464296Y-5588000D01*
G01X8464296Y-6350000D01*
G01X8466049Y-6361067D01*
G01X8471136Y-6371051D01*
G01X8479059Y-6378974D01*
G01X8489043Y-6384061D01*
G01X8500110Y-6385814D01*
G01X8816666Y-6385814D01*
G01X8799310Y-6396365D01*
G01X8784289Y-6410038D01*
G01X8772158Y-6426328D01*
G01X8763363Y-6444637D01*
G01X8758229Y-6464289D01*
G01X8756943Y-6484559D01*
G01X8759554Y-6504702D01*
G01X8765966Y-6523975D01*
G01X8775943Y-6541667D01*
G01X8789115Y-6557128D01*
G01X8805000Y-6569787D01*
G01X8823010Y-6579177D01*
G01X8842482Y-6584954D01*
G01X8862700Y-6586903D01*
G01X8877738Y-6586903D01*
G01X8861732Y-6591847D01*
G01X8846643Y-6599122D01*
G01X8832808Y-6608566D01*
G01X8820536Y-6619968D01*
G01X8810101Y-6633072D01*
G01X8801737Y-6647586D01*
G01X1238686Y-6647586D01*
G01X781304Y-6190205D01*
G01X781304Y-5588000D01*
G01X779551Y-5576933D01*
G01X774464Y-5566949D01*
G01X766541Y-5559026D01*
G01X756557Y-5553939D01*
G01X745490Y-5552186D01*
G01X237490Y-5552186D01*
G01X226423Y-5553939D01*
G01X216439Y-5559026D01*
G01X208516Y-5566949D01*
G01X203429Y-5576933D01*
G01X201676Y-5588000D01*
G01X201676Y-6350000D01*
G01X162560Y-6350000D01*
G01X162560Y-4747366D01*
G01X4332208Y-4747366D01*
G01X4332492Y-4768929D01*
G01X4336453Y-4790126D01*
G01X4343977Y-4810335D01*
G01X4354841Y-4828963D01*
G01X4368726Y-4845462D01*
G01X4385225Y-4859347D01*
G01X4403853Y-4870211D01*
G01X4424062Y-4877734D01*
G01X4445259Y-4881696D01*
G01X4466821Y-4881980D01*
G01X4488115Y-4878577D01*
G01X4508516Y-4871589D01*
G01X4527423Y-4861219D01*
G01X4544281Y-4847772D01*
G01X4558596Y-4831645D01*
G01X4569947Y-4813309D01*
G01X4577999Y-4793305D01*
G01X4582518Y-4772220D01*
G01X4583369Y-4750672D01*
G01X4580528Y-4729296D01*
G01X4574078Y-4708719D01*
G01X4604785Y-4678012D01*
G01X4613358Y-4678012D01*
G01X4613358Y-4678012D01*
G01X4601337Y-4696071D01*
G01X4592597Y-4715927D01*
G01X4587398Y-4736990D01*
G01X4585894Y-4758632D01*
G01X4588131Y-4780211D01*
G01X4594042Y-4801085D01*
G01X4603450Y-4820633D01*
G01X4616077Y-4838274D01*
G01X4631547Y-4853484D01*
G01X4649400Y-4865810D01*
G01X4669105Y-4874886D01*
G01X4690076Y-4880441D01*
G01X4711690Y-4882312D01*
G01X4733304Y-4880441D01*
G01X4754275Y-4874886D01*
G01X4773980Y-4865810D01*
G01X4791832Y-4853484D01*
G01X4807302Y-4838274D01*
G01X4819929Y-4820633D01*
G01X4829338Y-4801085D01*
G01X4835249Y-4780211D01*
G01X4837486Y-4758632D01*
G01X4835982Y-4736990D01*
G01X4830783Y-4715927D01*
G01X4822043Y-4696071D01*
G01X4810021Y-4678012D01*
G01X4867358Y-4678012D01*
G01X4855826Y-4695188D01*
G01X4847263Y-4714021D01*
G01X4841903Y-4734003D01*
G01X4839890Y-4754593D01*
G01X4841279Y-4775235D01*
G01X4846032Y-4795370D01*
G01X4854020Y-4814454D01*
G01X4865028Y-4831971D01*
G01X4878757Y-4847448D01*
G01X4894837Y-4860464D01*
G01X4912833Y-4870670D01*
G01X4932258Y-4877789D01*
G01X4952588Y-4881628D01*
G01X4973271Y-4882083D01*
G01X4993749Y-4879143D01*
G01X5013469Y-4872886D01*
G01X5333634Y-5193051D01*
G01X5337676Y-5207822D01*
G01X5344999Y-5221271D01*
G01X5355212Y-5232682D01*
G01X5367770Y-5241446D01*
G01X5382004Y-5247096D01*
G01X5397153Y-5249331D01*
G01X5412412Y-5248030D01*
G01X5426965Y-5243264D01*
G01X5440037Y-5235287D01*
G01X5450931Y-5224524D01*
G01X5459066Y-5211550D01*
G01X5464007Y-5197055D01*
G01X5465492Y-5181813D01*
G01X5463441Y-5166638D01*
G01X5457963Y-5152337D01*
G01X5449351Y-5139674D01*
G01X5438065Y-5129324D01*
G01X5424705Y-5121839D01*
G01X5409984Y-5117618D01*
G01X5394688Y-5116887D01*
G01X5082078Y-4804277D01*
G01X5088678Y-4783013D01*
G01X5091426Y-4760919D01*
G01X5090237Y-4738687D01*
G01X5085147Y-4717012D01*
G01X5076316Y-4696574D01*
G01X5064021Y-4678012D01*
G01X5816144Y-4678012D01*
G01X5942516Y-4804384D01*
G01X5944597Y-4818690D01*
G01X5949729Y-4832205D01*
G01X5957668Y-4844287D01*
G01X5968036Y-4854362D01*
G01X5980341Y-4861950D01*
G01X4831305Y-6010986D01*
G01X4464810Y-6010986D01*
G01X4452439Y-6001888D01*
G01X4438306Y-5995879D01*
G01X4423171Y-5993282D01*
G01X4407844Y-5994237D01*
G01X4393147Y-5998691D01*
G01X4379869Y-6006406D01*
G01X4368722Y-6016968D01*
G01X4360303Y-6029811D01*
G01X4355064Y-6044247D01*
G01X4353286Y-6059500D01*
G01X4355064Y-6074754D01*
G01X4360303Y-6089189D01*
G01X4368722Y-6102032D01*
G01X4379869Y-6112595D01*
G01X4393147Y-6120310D01*
G01X4407844Y-6124764D01*
G01X4423171Y-6125718D01*
G01X4438306Y-6123121D01*
G01X4452439Y-6117112D01*
G01X4464810Y-6108014D01*
G01X4851400Y-6108014D01*
G01X4863956Y-6106361D01*
G01X4875657Y-6101515D01*
G01X4885705Y-6093805D01*
G01X5745662Y-5233848D01*
G01X8025275Y-5233848D01*
G01X8027053Y-5249101D01*
G01X8032292Y-5263537D01*
G01X8040711Y-5276380D01*
G01X8051858Y-5286942D01*
G01X8065136Y-5294657D01*
G01X8079833Y-5299111D01*
G01X8095160Y-5300066D01*
G01X8110295Y-5297469D01*
G01X8124428Y-5291460D01*
G01X8136799Y-5282362D01*
G01X8459753Y-5282362D01*
G01X8455488Y-5294738D01*
G01X8453738Y-5307712D01*
G01X8322116Y-5439334D01*
G01X8158821Y-5439334D01*
G01X8146450Y-5430236D01*
G01X8132317Y-5424227D01*
G01X8117182Y-5421630D01*
G01X8101855Y-5422584D01*
G01X8087158Y-5427038D01*
G01X8073880Y-5434753D01*
G01X8062733Y-5445316D01*
G01X8054314Y-5458159D01*
G01X8049075Y-5472594D01*
G01X8047297Y-5487848D01*
G01X8049075Y-5503101D01*
G01X8054314Y-5517537D01*
G01X8062733Y-5530380D01*
G01X8073880Y-5540942D01*
G01X8087158Y-5548657D01*
G01X8101855Y-5553111D01*
G01X8117182Y-5554066D01*
G01X8132317Y-5551469D01*
G01X8146450Y-5545460D01*
G01X8158821Y-5536362D01*
G01X8342211Y-5536362D01*
G01X8354767Y-5534709D01*
G01X8366468Y-5529862D01*
G01X8376515Y-5522152D01*
G01X8522347Y-5376321D01*
G01X8536137Y-5374371D01*
G01X8549215Y-5369585D01*
G01X8561005Y-5362173D01*
G01X8570988Y-5352462D01*
G01X8578722Y-5340880D01*
G01X8578722Y-5340880D01*
G01X8583866Y-5327938D01*
G01X8586194Y-5314208D01*
G01X8585604Y-5300293D01*
G01X8582120Y-5286810D01*
G01X8575897Y-5274351D01*
G01X8583264Y-5262353D01*
G01X8587932Y-5249070D01*
G01X8589691Y-5235101D01*
G01X8588461Y-5221075D01*
G01X8584298Y-5207625D01*
G01X8577390Y-5195358D01*
G01X8568047Y-5184825D01*
G01X8556691Y-5176502D01*
G01X8543834Y-5170764D01*
G01X8530055Y-5167870D01*
G01X8515976Y-5167949D01*
G01X8502231Y-5171000D01*
G01X8489440Y-5176883D01*
G01X8478179Y-5185334D01*
G01X8136799Y-5185334D01*
G01X8124428Y-5176236D01*
G01X8110295Y-5170227D01*
G01X8095160Y-5167630D01*
G01X8079833Y-5168584D01*
G01X8065136Y-5173038D01*
G01X8051858Y-5180753D01*
G01X8040711Y-5191316D01*
G01X8032292Y-5204159D01*
G01X8027053Y-5218594D01*
G01X8025275Y-5233848D01*
G01X5745662Y-5233848D01*
G01X6174536Y-4804973D01*
G01X6189718Y-4802659D01*
G01X6203959Y-4796914D01*
G01X6216498Y-4788048D01*
G01X6226661Y-4776536D01*
G01X6233904Y-4762994D01*
G01X6237837Y-4748150D01*
G01X6238251Y-4732799D01*
G01X6235122Y-4717764D01*
G01X6228620Y-4703852D01*
G01X6219091Y-4691809D01*
G01X6207048Y-4682281D01*
G01X6193136Y-4675778D01*
G01X6178101Y-4672649D01*
G01X6162750Y-4673063D01*
G01X6147906Y-4676996D01*
G01X6134364Y-4684239D01*
G01X6122852Y-4694402D01*
G01X6113986Y-4706941D01*
G01X6108241Y-4721183D01*
G01X6105927Y-4736364D01*
G01X6068691Y-4773600D01*
G01X6061495Y-4761803D01*
G01X6052010Y-4751753D01*
G01X6040648Y-4743888D01*
G01X6027902Y-4738548D01*
G01X6041585Y-4732684D01*
G01X6053616Y-4723916D01*
G01X6063387Y-4712685D01*
G01X6070407Y-4699558D01*
G01X6074322Y-4685195D01*
G01X6074934Y-4670321D01*
G01X6072213Y-4655685D01*
G01X6066296Y-4642025D01*
G01X6057481Y-4630029D01*
G01X6046211Y-4620302D01*
G01X6033056Y-4613334D01*
G01X6018678Y-4609475D01*
G01X6003802Y-4608922D01*
G01X5989177Y-4611700D01*
G01X5975540Y-4617671D01*
G01X5963579Y-4626534D01*
G01X5960340Y-4626534D01*
G01X5447437Y-4113631D01*
G01X5458269Y-4090731D01*
G01X5466131Y-4066649D01*
G01X5470899Y-4041769D01*
G01X5472497Y-4016487D01*
G01X5472497Y-3996487D01*
G01X5470627Y-3969143D01*
G01X5465051Y-3942308D01*
G01X5455872Y-3916482D01*
G01X5443263Y-3892147D01*
G01X5427457Y-3869756D01*
G01X5408750Y-3849725D01*
G01X5387489Y-3832428D01*
G01X5364071Y-3818187D01*
G01X5338932Y-3807268D01*
G01X5312540Y-3799873D01*
G01X5285388Y-3796141D01*
G01X5257980Y-3796141D01*
G01X5230827Y-3799873D01*
G01X5204435Y-3807268D01*
G01X5179296Y-3818187D01*
G01X5155878Y-3832428D01*
G01X5134618Y-3849725D01*
G01X5115910Y-3869756D01*
G01X5100105Y-3892147D01*
G01X5087495Y-3916482D01*
G01X5078317Y-3942308D01*
G01X5072740Y-3969143D01*
G01X5070870Y-3996487D01*
G01X5070870Y-4016487D01*
G01X5072677Y-4043369D01*
G01X5078067Y-4069768D01*
G01X5086943Y-4095207D01*
G01X5099143Y-4119229D01*
G01X5114450Y-4141402D01*
G01X5132588Y-4161326D01*
G01X5153229Y-4178643D01*
G01X5176002Y-4193040D01*
G01X5200498Y-4204260D01*
G01X5226276Y-4212099D01*
G01X5252870Y-4216417D01*
G01X5279804Y-4217136D01*
G01X5306591Y-4214243D01*
G01X5332750Y-4207790D01*
G01X5357810Y-4197894D01*
G01X5381319Y-4184731D01*
G01X5777572Y-4580984D01*
G01X4584690Y-4580984D01*
G01X4572133Y-4582637D01*
G01X4560433Y-4587484D01*
G01X4550385Y-4595193D01*
G01X4505469Y-4640110D01*
G01X4484892Y-4633660D01*
G01X4463516Y-4630819D01*
G01X4441968Y-4631670D01*
G01X4420883Y-4636189D01*
G01X4400878Y-4644241D01*
G01X4382543Y-4655592D01*
G01X4366415Y-4669906D01*
G01X4352969Y-4686765D01*
G01X4342599Y-4705672D01*
G01X4335610Y-4726072D01*
G01X4332208Y-4747366D01*
G01X162560Y-4747366D01*
G01X162560Y-3996487D01*
G01X3950882Y-3996487D01*
G01X3950882Y-4016487D01*
G01X3952753Y-4043831D01*
G01X3958329Y-4070666D01*
G01X3967507Y-4096491D01*
G01X3980117Y-4120826D01*
G01X3995923Y-4143218D01*
G01X4014630Y-4163249D01*
G01X4035891Y-4180545D01*
G01X4059309Y-4194786D01*
G01X4084448Y-4205706D01*
G01X4110839Y-4213100D01*
G01X4137992Y-4216832D01*
G01X4165400Y-4216832D01*
G01X4192553Y-4213100D01*
G01X4218944Y-4205706D01*
G01X4244083Y-4194786D01*
G01X4267501Y-4180545D01*
G01X4288762Y-4163249D01*
G01X4307469Y-4143218D01*
G01X4323275Y-4120826D01*
G01X4335885Y-4096491D01*
G01X4345063Y-4070666D01*
G01X4350639Y-4043831D01*
G01X4352510Y-4016487D01*
G01X4352510Y-3996487D01*
G01X4350639Y-3969143D01*
G01X4345063Y-3942308D01*
G01X4335885Y-3916482D01*
G01X4323275Y-3892147D01*
G01X4307469Y-3869756D01*
G01X4288762Y-3849725D01*
G01X4267501Y-3832428D01*
G01X4244083Y-3818187D01*
G01X4218944Y-3807268D01*
G01X4192553Y-3799873D01*
G01X4165400Y-3796141D01*
G01X4137992Y-3796141D01*
G01X4110839Y-3799873D01*
G01X4084448Y-3807268D01*
G01X4059309Y-3818187D01*
G01X4035891Y-3832428D01*
G01X4014630Y-3849725D01*
G01X3995923Y-3869756D01*
G01X3980117Y-3892147D01*
G01X3967507Y-3916482D01*
G01X3958329Y-3942308D01*
G01X3952753Y-3969143D01*
G01X3950882Y-3996487D01*
G01X3950882Y-3996487D01*
G01X162560Y-3996487D01*
G01X162560Y-3505200D01*
G01X1664886Y-3505200D01*
G01X1666798Y-3527047D01*
G01X1672474Y-3548231D01*
G01X1681742Y-3568107D01*
G01X1694321Y-3586072D01*
G01X1709828Y-3601579D01*
G01X1727793Y-3614158D01*
G01X1747669Y-3623426D01*
G01X1768853Y-3629102D01*
G01X1790700Y-3631014D01*
G01X1812547Y-3629102D01*
G01X1833731Y-3623426D01*
G01X1853607Y-3614158D01*
G01X1871572Y-3601579D01*
G01X1887079Y-3586072D01*
G01X1899658Y-3568107D01*
G01X1908926Y-3548231D01*
G01X1914602Y-3527047D01*
G01X1916514Y-3505200D01*
G01X1918886Y-3505200D01*
G01X1920798Y-3527047D01*
G01X1926474Y-3548231D01*
G01X1935742Y-3568107D01*
G01X1948321Y-3586072D01*
G01X1963828Y-3601579D01*
G01X1981793Y-3614158D01*
G01X2001669Y-3623426D01*
G01X2022853Y-3629102D01*
G01X2044700Y-3631014D01*
G01X2066547Y-3629102D01*
G01X2087731Y-3623426D01*
G01X2107607Y-3614158D01*
G01X2125572Y-3601579D01*
G01X2141079Y-3586072D01*
G01X2153658Y-3568107D01*
G01X2162926Y-3548231D01*
G01X2168602Y-3527047D01*
G01X2170514Y-3505200D01*
G01X2172886Y-3505200D01*
G01X2174798Y-3527047D01*
G01X2180474Y-3548231D01*
G01X2189742Y-3568107D01*
G01X2202321Y-3586072D01*
G01X2217828Y-3601579D01*
G01X2235793Y-3614158D01*
G01X2255669Y-3623426D01*
G01X2276853Y-3629102D01*
G01X2298700Y-3631014D01*
G01X2320547Y-3629102D01*
G01X2341731Y-3623426D01*
G01X2361607Y-3614158D01*
G01X2379572Y-3601579D01*
G01X2395079Y-3586072D01*
G01X2407658Y-3568107D01*
G01X2416926Y-3548231D01*
G01X2422602Y-3527047D01*
G01X2424514Y-3505200D01*
G01X2426886Y-3505200D01*
G01X2428798Y-3527047D01*
G01X2434474Y-3548231D01*
G01X2443742Y-3568107D01*
G01X2456321Y-3586072D01*
G01X2471828Y-3601579D01*
G01X2489793Y-3614158D01*
G01X2509669Y-3623426D01*
G01X2530853Y-3629102D01*
G01X2552700Y-3631014D01*
G01X2574547Y-3629102D01*
G01X2595731Y-3623426D01*
G01X2615607Y-3614158D01*
G01X2633572Y-3601579D01*
G01X2649079Y-3586072D01*
G01X2661658Y-3568107D01*
G01X2670926Y-3548231D01*
G01X2676602Y-3527047D01*
G01X2678514Y-3505200D01*
G01X2676602Y-3483353D01*
G01X2670926Y-3462169D01*
G01X2661658Y-3442293D01*
G01X2649079Y-3424328D01*
G01X2633572Y-3408821D01*
G01X2615607Y-3396242D01*
G01X2595731Y-3386974D01*
G01X2574547Y-3381298D01*
G01X2552700Y-3379386D01*
G01X2530853Y-3381298D01*
G01X2509669Y-3386974D01*
G01X2489793Y-3396242D01*
G01X2471828Y-3408821D01*
G01X2456321Y-3424328D01*
G01X2443742Y-3442293D01*
G01X2434474Y-3462169D01*
G01X2428798Y-3483353D01*
G01X2426886Y-3505200D01*
G01X2426886Y-3505200D01*
G01X2424514Y-3505200D01*
G01X2422602Y-3483353D01*
G01X2416926Y-3462169D01*
G01X2407658Y-3442293D01*
G01X2395079Y-3424328D01*
G01X2379572Y-3408821D01*
G01X2361607Y-3396242D01*
G01X2341731Y-3386974D01*
G01X2320547Y-3381298D01*
G01X2298700Y-3379386D01*
G01X2276853Y-3381298D01*
G01X2255669Y-3386974D01*
G01X2235793Y-3396242D01*
G01X2217828Y-3408821D01*
G01X2202321Y-3424328D01*
G01X2189742Y-3442293D01*
G01X2180474Y-3462169D01*
G01X2174798Y-3483353D01*
G01X2172886Y-3505200D01*
G01X2172886Y-3505200D01*
G01X2170514Y-3505200D01*
G01X2168602Y-3483353D01*
G01X2162926Y-3462169D01*
G01X2153658Y-3442293D01*
G01X2141079Y-3424328D01*
G01X2125572Y-3408821D01*
G01X2107607Y-3396242D01*
G01X2087731Y-3386974D01*
G01X2066547Y-3381298D01*
G01X2044700Y-3379386D01*
G01X2022853Y-3381298D01*
G01X2001669Y-3386974D01*
G01X1981793Y-3396242D01*
G01X1963828Y-3408821D01*
G01X1948321Y-3424328D01*
G01X1935742Y-3442293D01*
G01X1926474Y-3462169D01*
G01X1920798Y-3483353D01*
G01X1918886Y-3505200D01*
G01X1918886Y-3505200D01*
G01X1916514Y-3505200D01*
G01X1914602Y-3483353D01*
G01X1908926Y-3462169D01*
G01X1899658Y-3442293D01*
G01X1887079Y-3424328D01*
G01X1871572Y-3408821D01*
G01X1853607Y-3396242D01*
G01X1833731Y-3386974D01*
G01X1812547Y-3381298D01*
G01X1790700Y-3379386D01*
G01X1768853Y-3381298D01*
G01X1747669Y-3386974D01*
G01X1727793Y-3396242D01*
G01X1709828Y-3408821D01*
G01X1694321Y-3424328D01*
G01X1681742Y-3442293D01*
G01X1672474Y-3462169D01*
G01X1666798Y-3483353D01*
G01X1664886Y-3505200D01*
G01X1664886Y-3505200D01*
G01X162560Y-3505200D01*
G01X162560Y-3235960D01*
G01X9133840Y-3235960D01*
G37*
G36*
G01X7241028Y-9504188D02*
G01X7258586Y-9501804D01*
G01X7275203Y-9495651D01*
G01X7290079Y-9486024D01*
G01X7302500Y-9473386D01*
G01X7313584Y-9484909D01*
G01X7326719Y-9494025D01*
G01X7341392Y-9500376D01*
G01X7357028Y-9503714D01*
G01X7373015Y-9503909D01*
G01X7388728Y-9500952D01*
G01X7403551Y-9494960D01*
G01X7416904Y-9486167D01*
G01X7424013Y-9494994D01*
G01X7433525Y-9501158D01*
G01X7444486Y-9504041D01*
G01X7444486Y-9539986D01*
G01X7178088Y-9539986D01*
G01X7178088Y-9476509D01*
G01X7191127Y-9488508D01*
G01X7206467Y-9497377D01*
G01X7223372Y-9502688D01*
G01X7241028Y-9504188D01*
G37*
G54D10*
G01X9133840Y-3235960D02*
G01X9133840Y-8877778D01*
G03X9127505Y-8869968I-40640J-26495D01*
G01X9022499Y-8764963D01*
G03X8824529Y-8635601I-112543J43933D01*
G03X8953890Y-8833572I85428J-85428D01*
G01X9044686Y-8924368D01*
G01X9044686Y-9405547D01*
G01X8730053Y-9405547D01*
G01X8730053Y-8928305D01*
G03X8716016Y-8889914I-48342J4087D01*
G01X7019305Y-7193202D01*
G03X6985000Y-7178992I-34305J-34305D01*
G01X5156200Y-7178992D01*
G03X5121895Y-7193202I0J-48514D01*
G01X5072605Y-7242492D01*
G01X4731510Y-7242492D01*
G03X4711139Y-7229520I-45210J-48514D01*
G03X4724055Y-7133573I-38463J54020D01*
G03X4627467Y-7126986I-51378J-41927D01*
G01X4616572Y-7126986D01*
G01X4472250Y-6982664D01*
G03X4359086Y-6938109I-66273J-2336D01*
G03X4403640Y-7051273I46891J-46891D01*
G01X4562172Y-7209805D01*
G03X4596477Y-7224014I34305J34305D01*
G01X4627467Y-7224014D01*
G03X4647837Y-7236986I45210J48514D01*
G03X4640496Y-7243053I38463J-54020D01*
G01X4608360Y-7243053D01*
G03X4574055Y-7257262I0J-48514D01*
G01X4539845Y-7291472D01*
G03X4526097Y-7319100I34305J-34305D01*
G01X4103310Y-7741686D01*
G03X4069005Y-7755895I0J-48514D01*
G01X4034795Y-7790105D01*
G03X4020586Y-7824410I34305J-34305D01*
G01X3727262Y-8117926D01*
G03X3616689Y-8167949I-44262J-49381D01*
G03X3728210Y-8215820I66311J642D01*
G01X3746500Y-8215820D01*
G03X3780805Y-8201611I0J48514D01*
G01X4103404Y-7879011D01*
G03X4117614Y-7844707I-34305J34305D01*
G01X4123607Y-7838714D01*
G03X4157911Y-7824504I0J48514D01*
G01X4608454Y-7373961D01*
G03X4622202Y-7346333I-34305J34305D01*
G01X4628455Y-7340081D01*
G01X4641699Y-7340081D01*
G03X4649816Y-7346382I44601J49074D01*
G03X4673618Y-7431786I59410J-29461D01*
G01X4608894Y-7431786D01*
G03X4574589Y-7445995I0J-48514D01*
G01X3896564Y-8124021D01*
G03X3852009Y-8237185I2336J-66273D01*
G03X3965173Y-8192630I46891J46891D01*
G01X4497627Y-7660176D01*
G03X4507836Y-7674577I58723J30809D01*
G01X4507836Y-7710872D01*
G01X4503214Y-7715494D01*
G03X4458659Y-7828658I2336J-66273D01*
G03X4571823Y-7784103I46891J46891D01*
G01X4590654Y-7765271D01*
G03X4604864Y-7730967I-34305J34305D01*
G01X4604864Y-7674577D01*
G03X4587159Y-7570644I-48514J45210D01*
G01X4628989Y-7528814D01*
G01X4851400Y-7528814D01*
G03X4885705Y-7514605I0J48514D01*
G01X4948902Y-7451407D01*
G01X5039077Y-7451407D01*
G01X4137864Y-8352621D01*
G03X4093309Y-8465785I2336J-66273D01*
G03X4206473Y-8421230I46891J46891D01*
G01X4383761Y-8243942D01*
G03X4511273Y-8220836I61239J25442D01*
G01X5176295Y-7555814D01*
G01X5493927Y-7555814D01*
G03X5528232Y-7541605I0J48514D01*
G01X5563882Y-7505955D01*
G03X5608437Y-7392791I-2336J66273D01*
G03X5495272Y-7437346I-46891J-46891D01*
G01X5473832Y-7458786D01*
G01X5295916Y-7458786D01*
G01X5376938Y-7377765D01*
G03X5433250Y-7342442I-2336J66273D01*
G03X5430631Y-7276020I-58648J30950D01*
G01X6964905Y-7276020D01*
G01X7287496Y-7598612D01*
G03X7271590Y-7609586I29304J-59488D01*
G01X7062800Y-7609586D01*
G03X7028496Y-7623795I0J-48514D01*
G01X6552464Y-8099827D01*
G03X6507909Y-8212991I2336J-66273D01*
G03X6621073Y-8168436I46891J46891D01*
G01X7082895Y-7706614D01*
G01X7159811Y-7706614D01*
G03X7165086Y-7790610I53789J-38786D01*
G01X7165086Y-8140797D01*
G03X7078551Y-8154442I-35512J-56004D01*
G03X7081060Y-8242011I51023J-42358D01*
G01X7081060Y-9567974D01*
G03X7095269Y-9602279I48514J0D01*
G01X7115795Y-9622805D01*
G03X7150100Y-9637014I34305J34305D01*
G01X7447814Y-9637014D01*
G03X7539903Y-9635356I45186J48537D01*
G03X7541514Y-9543267I-46903J46879D01*
G01X7541514Y-9504041D01*
G03X7573814Y-9468400I-3514J35641D01*
G01X7573814Y-9378400D01*
G03X7538000Y-9342586I-35814J0D01*
G01X7448000Y-9342586D01*
G03X7416904Y-9360633I0J-35814D01*
G03X7302500Y-9373414I-50904J-62767D01*
G03X7262114Y-9345962I-63500J-49986D01*
G01X7262114Y-7790610D01*
G03X7267389Y-7706614I-48514J45210D01*
G01X7271590Y-7706614D01*
G03X7376288Y-7687404I45210J48514D01*
G01X8633025Y-8944141D01*
G01X8633025Y-9436100D01*
G03X8647235Y-9470405I48514J0D01*
G01X8665195Y-9488365D01*
G03X8699500Y-9502575I34305J34305D01*
G01X9075239Y-9502575D01*
G03X9109544Y-9488365I0J48514D01*
G01X9127505Y-9470405D01*
G03X9133840Y-9462595I-34305J34305D01*
G01X9133840Y-9702940D01*
G01X162560Y-9702940D01*
G01X162560Y-3235960D01*
G01X9133840Y-3235960D01*
G01X1070276Y-6616395D02*
G03X929159Y-6879699I-31467J-152603D01*
G03X1191105Y-6736078I109650J110701D01*
G03X1218590Y-6744614I27485J39977D01*
G01X8801737Y-6744614D01*
G03X8852230Y-6796100I100963J48514D01*
G03X8852230Y-6996100I50470J-100000D01*
G03X8791509Y-7109657I50470J-100000D01*
G03X8877738Y-7205297I111191J13557D01*
G01X8862700Y-7205297D01*
G03X8862700Y-7416924I0J-105814D01*
G01X8942700Y-7416924D01*
G03X9010396Y-7392436I0J105814D01*
G01X9010396Y-7660459D01*
G01X9008110Y-7660386D01*
G01X8500110Y-7660386D01*
G03X8464296Y-7696200I0J-35814D01*
G01X8464296Y-8458200D01*
G03X8464395Y-8460858I35814J0D01*
G01X7251429Y-7247892D01*
G03X7168005Y-7164736I-63229J19992D01*
G03X7148297Y-7280865I20195J-63164D01*
G03X7153895Y-7287577I39903J27592D01*
G01X8797414Y-8931096D01*
G03X8995385Y-9060458I112543J-43933D01*
G03X8866023Y-8862487I-85428J85428D01*
G01X8497452Y-8493915D01*
G03X8500110Y-8494014I2658J35715D01*
G01X9008110Y-8494014D01*
G03X9043924Y-8458200I0J35814D01*
G01X9043924Y-7855995D01*
G01X9093215Y-7806705D01*
G03X9107424Y-7772400I-34305J34305D01*
G01X9107424Y-6273800D01*
G03X9093215Y-6239495I-48514J0D01*
G01X9043924Y-6190205D01*
G01X9043924Y-5588000D01*
G03X9008110Y-5552186I-35814J0D01*
G01X8500110Y-5552186D01*
G03X8464296Y-5588000I0J-35814D01*
G01X8464296Y-6350000D01*
G03X8500110Y-6385814I35814J0D01*
G01X8816666Y-6385814D01*
G03X8862700Y-6586903I46034J-95275D01*
G01X8877738Y-6586903D01*
G03X8832808Y-6608566I24962J-109197D01*
G03X8801737Y-6647586I69892J-87534D01*
G01X1238686Y-6647586D01*
G01X781304Y-6190205D01*
G01X781304Y-5588000D01*
G03X745490Y-5552186I-35814J0D01*
G01X237490Y-5552186D01*
G03X201676Y-5588000I0J-35814D01*
G01X201676Y-6350000D01*
G03X237490Y-6385814I35814J0D01*
G01X745490Y-6385814D01*
G03X781304Y-6350000I0J35814D01*
G01X781304Y-6327423D01*
G01X1070276Y-6616395D01*
G01X745490Y-8494014D02*
G03X781304Y-8458200I0J35814D01*
G01X781304Y-7696200D01*
G03X745490Y-7660386I-35814J0D01*
G01X237490Y-7660386D01*
G03X201676Y-7696200I0J-35814D01*
G01X201676Y-8458200D01*
G03X237490Y-8494014I35814J0D01*
G01X745490Y-8494014D01*
G01X1664886Y-3505200D02*
G03X1916514Y-3505200I125814J0D01*
G03X1664886Y-3505200I-125814J0D01*
G01X1892299Y-6969964D02*
G03X1779135Y-6925409I-66273J-2336D01*
G03X1823690Y-7038573I46891J-46891D01*
G01X2267753Y-7482636D01*
G03X2380917Y-7527191I66273J2336D01*
G03X2336363Y-7414027I-46891J46891D01*
G01X1892299Y-6969964D01*
G01X1918886Y-3505200D02*
G03X2170514Y-3505200I125814J0D01*
G03X1918886Y-3505200I-125814J0D01*
G01X2172886Y-3505200D02*
G03X2424514Y-3505200I125814J0D01*
G03X2172886Y-3505200I-125814J0D01*
G01X2426886Y-3505200D02*
G03X2678514Y-3505200I125814J0D01*
G03X2426886Y-3505200I-125814J0D01*
G01X2808986Y-9506504D02*
G01X2808986Y-9566504D01*
G03X3000614Y-9566504I95814J0D01*
G01X3000614Y-9506504D01*
G03X2808986Y-9506504I-95814J0D01*
G01X3052295Y-7247791D02*
G03X3007740Y-7134627I-46891J46891D01*
G01X2944677Y-7071564D01*
G03X2831513Y-7027009I-66273J-2336D01*
G03X2876068Y-7140173I46891J-46891D01*
G01X2939131Y-7203236D01*
G03X3052295Y-7247791I66273J2336D01*
G01X2926500Y-9268508D02*
G03X3123129Y-9268508I98315J0D01*
G03X2926500Y-9268508I-98315J0D01*
G01X3411488Y-9268508D02*
G03X3608117Y-9268508I98315J0D01*
G03X3411488Y-9268508I-98315J0D01*
G01X3534004Y-9506504D02*
G01X3534004Y-9566504D01*
G03X3725631Y-9566504I95814J0D01*
G01X3725631Y-9506504D01*
G03X3534004Y-9506504I-95814J0D01*
G01X3950882Y-3996487D02*
G01X3950882Y-4016487D01*
G03X4352510Y-4016487I200814J0D01*
G01X4352510Y-3996487D01*
G03X3950882Y-3996487I-200814J0D01*
G01X4613358Y-4678012D02*
G03X4711690Y-4882312I98331J-78486D01*
G03X4810021Y-4678012I0J125814D01*
G01X4867358Y-4678012D01*
G03X4865028Y-4831971I98331J-78486D01*
G03X5013469Y-4872886I100662J75473D01*
G01X5333634Y-5193051D01*
G03X5450931Y-5224524I65555J10003D01*
G03X5394688Y-5116887I-51742J41477D01*
G01X5082078Y-4804277D01*
G03X5064021Y-4678012I-116388J47779D01*
G01X5816144Y-4678012D01*
G01X5942516Y-4804384D01*
G03X5980341Y-4861950I66273J2336D01*
G01X4831305Y-6010986D01*
G01X4464810Y-6010986D01*
G03X4353286Y-6059500I-45210J-48514D01*
G03X4464810Y-6108014I66314J0D01*
G01X4851400Y-6108014D01*
G03X4885705Y-6093805I0J48514D01*
G01X6174536Y-4804973D01*
G03X6219091Y-4691809I-2336J66273D01*
G03X6105927Y-4736364I-46891J-46891D01*
G01X6068691Y-4773600D01*
G03X6027902Y-4738548I-59902J-28448D01*
G03X6066296Y-4642025I-19113J63500D01*
G03X5963579Y-4626534I-57507J-33023D01*
G01X5960340Y-4626534D01*
G01X5447437Y-4113631D01*
G03X5472497Y-4016487I-175753J97144D01*
G01X5472497Y-3996487D01*
G03X5070870Y-3996487I-200814J0D01*
G01X5070870Y-4016487D01*
G03X5381319Y-4184731I200814J0D01*
G01X5777572Y-4580984D01*
G01X4584690Y-4580984D01*
G03X4550385Y-4595193I0J-48514D01*
G01X4505469Y-4640110D01*
G03X4368726Y-4845462I-47779J-116388D01*
G03X4574078Y-4708719I88964J88964D01*
G01X4604785Y-4678012D01*
G01X4613358Y-4678012D01*
G01X5155514Y-7920560D02*
G03X5107000Y-7809036I-48514J45210D01*
G03X5058486Y-7920560I0J-66314D01*
G01X5058486Y-8007940D01*
G03X5107000Y-8119464I48514J-45210D01*
G03X5155514Y-8007940I0J66314D01*
G01X5155514Y-7920560D01*
G01X6575696Y-7590482D02*
G03X6464172Y-7541968I-66314J0D01*
G01X5919592Y-7541968D01*
G03X5808068Y-7590482I-45210J-48514D01*
G03X5919592Y-7638996I66314J0D01*
G01X6464172Y-7638996D01*
G03X6575696Y-7590482I45210J48514D01*
G01X7509609Y-6938109D02*
G03X7554164Y-7051273I46891J-46891D01*
G01X7685786Y-7182895D01*
G01X7685786Y-7193790D01*
G03X7734300Y-7305314I48514J-45210D01*
G03X7782814Y-7193790I0J66314D01*
G01X7782814Y-7162800D01*
G03X7768605Y-7128495I-48514J0D01*
G01X7622773Y-6982664D01*
G03X7509609Y-6938109I-66273J-2336D01*
G01X8578722Y-5340880D02*
G03X8575897Y-5274351I-58711J30832D01*
G03X8568047Y-5184825I-52508J40503D01*
G03X8478179Y-5185334I-44658J-49023D01*
G01X8136799Y-5185334D01*
G03X8025275Y-5233848I-45210J-48514D01*
G03X8136799Y-5282362I66314J0D01*
G01X8459753Y-5282362D01*
G03X8453738Y-5307712I60258J-27686D01*
G01X8322116Y-5439334D01*
G01X8158821Y-5439334D01*
G03X8047297Y-5487848I-45210J-48514D01*
G03X8158821Y-5536362I66314J0D01*
G01X8342211Y-5536362D01*
G03X8376515Y-5522152I0J48514D01*
G01X8522347Y-5376321D01*
G03X8578722Y-5340880I-2336J66273D01*
G01X8050977Y-7277202D02*
G03X8362605Y-7277202I155814J0D01*
G03X8050977Y-7277202I-155814J0D01*
G01X9030771Y-9144030D02*
G03X8994957Y-9108216I-35814J0D01*
G01X8824957Y-9108216D01*
G03X8789143Y-9144030I0J-35814D01*
G01X8789143Y-9314029D01*
G03X8824957Y-9349843I35814J0D01*
G01X8994957Y-9349843D01*
G03X9030771Y-9314029I0J35814D01*
G01X9030771Y-9144030D01*
G01X7241028Y-9504188D02*
G03X7302500Y-9473386I-2028J80788D01*
G03X7416904Y-9486167I63500J49986D01*
G03X7444486Y-9504041I31096J17767D01*
G01X7444486Y-9539986D01*
G01X7178088Y-9539986D01*
G01X7178088Y-9476509D01*
G03X7241028Y-9504188I60912J53109D01*
G54D11*
G01X491490Y-8457946D02*
G01X491490Y-8483854D01*
G01X491490Y-7696454D02*
G01X491490Y-7670546D01*
G01X237744Y-8077200D02*
G01X211836Y-8077200D01*
G01X745236Y-8077200D02*
G01X771144Y-8077200D01*
G01X1700954Y-3505200D02*
G01X1675046Y-3505200D01*
G01X1880446Y-3505200D02*
G01X1906354Y-3505200D01*
G01X1790700Y-3415454D02*
G01X1790700Y-3389546D01*
G01X1790700Y-3594946D02*
G01X1790700Y-3620854D01*
G01X2845054Y-9536504D02*
G01X2819146Y-9536504D01*
G01X2964546Y-9536504D02*
G01X2990454Y-9536504D01*
G01X2904800Y-9446758D02*
G01X2904800Y-9420850D01*
G01X2904800Y-9626249D02*
G01X2904800Y-9652157D01*
G01X2962568Y-9268508D02*
G01X2936660Y-9268508D01*
G01X3087061Y-9268508D02*
G01X3112969Y-9268508D01*
G01X3024815Y-9206262D02*
G01X3024815Y-9180354D01*
G01X3024815Y-9330755D02*
G01X3024815Y-9356663D01*
G01X3447556Y-9268508D02*
G01X3421648Y-9268508D01*
G01X3572049Y-9268508D02*
G01X3597957Y-9268508D01*
G01X3509802Y-9206262D02*
G01X3509802Y-9180354D01*
G01X3509802Y-9330755D02*
G01X3509802Y-9356663D01*
G01X3570072Y-9536504D02*
G01X3544164Y-9536504D01*
G01X3689563Y-9536504D02*
G01X3715471Y-9536504D01*
G01X3629817Y-9446758D02*
G01X3629817Y-9420850D01*
G01X3629817Y-9626249D02*
G01X3629817Y-9652157D01*
G01X4151696Y-4181232D02*
G01X4151696Y-4207140D01*
G01X4151696Y-3831741D02*
G01X4151696Y-3805833D01*
G01X3986950Y-4006487D02*
G01X3961042Y-4006487D01*
G01X4316442Y-4006487D02*
G01X4342350Y-4006487D01*
G01X4621944Y-4756498D02*
G01X4596036Y-4756498D01*
G01X4801436Y-4756498D02*
G01X4827344Y-4756498D01*
G01X4711690Y-4846244D02*
G01X4711690Y-4872152D01*
G01X7366000Y-9468146D02*
G01X7366000Y-9494054D01*
G01X7366000Y-9378654D02*
G01X7366000Y-9352746D01*
G01X8902700Y-7380856D02*
G01X8902700Y-7406764D01*
G01X8792954Y-7311111D02*
G01X8767046Y-7311111D01*
G01X8792954Y-6481089D02*
G01X8767046Y-6481089D01*
G04 Copper End*

G04 Pad Start*
G54D12*
G01X491490Y-8077200D03*
G01X8754110Y-8077200D03*
G01X8754110Y-5969000D03*
G01X491490Y-5969000D03*
G54D13*
G01X4711690Y-4756498D03*
G54D14*
G01X5271684Y-4006487D03*
G01X4151696Y-4006487D03*
G54D13*
G01X4965690Y-4756498D03*
G01X4457690Y-4756498D03*
G54D15*
G01X8902700Y-7096100D03*
G01X8902700Y-6896100D03*
G01X8902700Y-6696100D03*
G54D16*
G01X8902700Y-6481089D03*
G01X8902700Y-7311111D03*
G54D13*
G01X1790700Y-3505200D03*
G01X2044700Y-3505200D03*
G01X2298700Y-3505200D03*
G01X2552700Y-3505200D03*
G54D17*
G01X7493000Y-9423400D03*
G54D18*
G01X7366000Y-9423400D03*
G01X7239000Y-9423400D03*
G54D20*
G01X8909957Y-9229030D03*
G54D21*
G01X8909957Y-8975030D03*
G01X8909957Y-8721030D03*
G54D22*
G01X3629817Y-9536504D03*
G01X2904800Y-9536504D03*
G54D23*
G01X3024815Y-9268508D03*
G01X3509802Y-9268508D03*
G04 Pad End*

G04 Via Start*
G54D24*
G01X7213600Y-7745400D03*
G01X5107000Y-8053150D03*
G01X5107000Y-7875350D03*
G01X4405977Y-6985000D03*
G01X4672677Y-7175500D03*
G01X2878404Y-7073900D03*
G01X3005404Y-7200900D03*
G01X4556350Y-7629367D03*
G01X4505550Y-7781767D03*
G01X4709227Y-7375844D03*
G01X5191350Y-7299167D03*
G01X8091589Y-5233848D03*
G01X8523389Y-5233848D03*
G01X7188200Y-7227900D03*
G01X3683000Y-8167306D03*
G01X4686300Y-7291006D03*
G01X1826026Y-6972300D03*
G01X2334026Y-7480300D03*
G01X4445000Y-8218500D03*
G01X5561545Y-7439682D03*
G01X4419600Y-6059500D03*
G01X6172200Y-4738700D03*
G01X6554800Y-8166100D03*
G01X7316800Y-7658100D03*
G01X6008789Y-4802048D03*
G01X5399189Y-5183048D03*
G01X6008789Y-4675048D03*
G01X8113611Y-5487848D03*
G01X8520011Y-5310048D03*
G01X6509382Y-7590482D03*
G01X5874382Y-7590482D03*
G01X3898900Y-8190293D03*
G01X5295900Y-7301293D03*
G01X4140200Y-8418893D03*
G01X5374601Y-7311492D03*
G01X7150100Y-4660900D03*
G01X7287113Y-4668139D03*
G01X7213600Y-4737100D03*
G01X7150100Y-4813300D03*
G01X7290957Y-4808144D03*
G01X7213600Y-4876800D03*
G01X7141034Y-4933950D03*
G01X7283269Y-4948149D03*
G01X6299200Y-4724400D03*
G01X6197600Y-4330700D03*
G01X6197600Y-5181600D03*
G01X3060700Y-6375400D03*
G01X2730500Y-7315200D03*
G01X5981700Y-7785100D03*
G01X7924800Y-7658100D03*
G01X7924800Y-6388100D03*
G01X3848100Y-8483600D03*
G01X2794000Y-8928100D03*
G01X3352800Y-8597900D03*
G01X3975100Y-7353300D03*
G01X4127500Y-7848600D03*
G01X5966680Y-7353300D03*
G01X7861300Y-4483100D03*
G01X5753100Y-3441700D03*
G01X1866900Y-6807200D03*
G01X4787900Y-7543800D03*
G01X4958698Y-7042150D03*
G01X5715000Y-7454900D03*
G01X5349201Y-7640469D03*
G01X7734300Y-7239000D03*
G01X7556500Y-6985000D03*
G01X8064500Y-6883400D03*
G01X6997700Y-8166100D03*
G01X7129574Y-8196801D03*
G01X7493000Y-9588477D03*
G04 Via End*

G04 Track Start*
G54D11*
G01X491490Y-5969000D02*
G01X1218590Y-6696100D01*
G01X8902700Y-6696100D01*
G01X8754110Y-8077200D02*
G01X9058910Y-7772400D01*
G01X9058910Y-6273800D01*
G01X8754110Y-5969000D01*
G01X5107000Y-8053150D02*
G01X5107000Y-7875350D01*
G01X2878404Y-7073900D02*
G01X3005404Y-7200900D01*
G01X4556350Y-7629367D02*
G01X4556350Y-7730967D01*
G01X4505550Y-7781767D01*
G01X8091589Y-5233848D02*
G01X8523389Y-5233848D01*
G01X7188200Y-7227900D02*
G01X7188200Y-7253273D01*
G01X8909957Y-8975030D01*
G01X5156200Y-7227506D02*
G01X6985000Y-7227506D01*
G01X1826026Y-6972300D02*
G01X2334026Y-7480300D01*
G01X4445000Y-8218500D02*
G01X5156200Y-7507300D01*
G01X5493927Y-7507300D01*
G01X5561545Y-7439682D01*
G01X6554800Y-8166100D02*
G01X7062800Y-7658100D01*
G01X7316800Y-7658100D01*
G01X6008789Y-4802048D02*
G01X5836239Y-4629498D01*
G01X4584690Y-4629498D01*
G01X4457690Y-4756498D01*
G01X6008789Y-4675048D02*
G01X5940245Y-4675048D01*
G01X5271684Y-4006487D01*
G01X8113611Y-5487848D02*
G01X8342211Y-5487848D01*
G01X8520011Y-5310048D01*
G01X6509382Y-7590482D02*
G01X5874382Y-7590482D01*
G01X5194300Y-7402893D02*
G01X5295900Y-7301293D01*
G01X4140200Y-8418893D02*
G01X5105400Y-7453693D01*
G01X5232400Y-7453693D01*
G01X5374601Y-7311492D01*
G01X5966680Y-7353300D02*
G01X5865080Y-7454900D01*
G01X5715000Y-7454900D01*
G01X5349201Y-7640469D02*
G01X5529431Y-7640469D01*
G01X5715000Y-7454900D01*
G01X7213600Y-7745400D02*
G01X7213600Y-9398000D01*
G01X7239000Y-9423400D01*
G01X3683000Y-8167306D02*
G01X3746500Y-8167306D01*
G01X4069100Y-7844707D01*
G01X4069100Y-7824410D01*
G01X4103310Y-7790200D01*
G01X4123607Y-7790200D01*
G01X4574150Y-7339657D01*
G01X4574150Y-7325777D01*
G01X4608360Y-7291567D01*
G01X3898900Y-8190293D02*
G01X4608894Y-7480300D01*
G01X4851400Y-7480300D02*
G01X4928807Y-7402893D01*
G01X5194300Y-7402893D01*
G01X4608894Y-7480300D02*
G01X4851400Y-7480300D01*
G01X4686300Y-7291006D02*
G01X5092700Y-7291006D01*
G01X5156200Y-7227506D01*
G01X4608360Y-7291567D02*
G01X4685740Y-7291567D01*
G01X4686300Y-7291006D01*
G01X5149917Y-7340600D02*
G01X5191350Y-7299167D01*
G01X4709227Y-7375844D02*
G01X4841556Y-7375844D01*
G01X4876800Y-7340600D01*
G01X5149917Y-7340600D01*
G01X9093200Y-9436100D02*
G01X9093200Y-8904273D01*
G01X9075239Y-9454061D02*
G01X9093200Y-9436100D01*
G01X8699500Y-9454061D02*
G01X9075239Y-9454061D01*
G01X8681539Y-9436100D02*
G01X8699500Y-9454061D01*
G01X8681539Y-8924391D02*
G01X8681539Y-9436100D01*
G01X6985000Y-7227506D02*
G01X8681712Y-8924218D01*
G01X9093200Y-8904273D02*
G01X8909957Y-8721030D01*
G01X7556500Y-6985000D02*
G01X7734300Y-7162800D01*
G01X7734300Y-7239000D01*
G01X5399189Y-5183048D02*
G01X5392240Y-5183048D01*
G01X4965690Y-4756498D01*
G01X4596477Y-7175500D02*
G01X4672677Y-7175500D01*
G01X4405977Y-6985000D02*
G01X4596477Y-7175500D01*
G01X4851400Y-6059500D02*
G01X6172200Y-4738700D01*
G01X4419600Y-6059500D02*
G01X4851400Y-6059500D01*
G01X7150100Y-9588500D02*
G01X7129574Y-9567974D01*
G01X7129574Y-8196801D01*
G01X7492977Y-9588500D02*
G01X7150100Y-9588500D01*
G01X7493000Y-9588477D02*
G01X7493000Y-9423400D01*
G04 Track End*

M02*

